<svg width="300" height="300" fill="none" xmlns="http://www.w3.org/2000/svg"><path fill="#fff" d="M0 0h300v300H0z"/><path d="M216.241 209.766c6.495-9.081 19.484-46.054 12.989-81.729-5.845-35.675-29.874-63.567-68.84-66.81-17.536-1.946-33.122 1.297-40.266 5.837 0 0-3.896 2.595-3.896 5.838 0 0 40.265-5.838 57.15 12.324 14.937 16.216 3.897 35.675 3.897 35.675-6.494 12.974-22.081 28.541-22.081 28.541s-20.782 20.108-27.277 31.783c-3.247 5.838-5.195 11.676-5.195 16.865 0 11.027 7.793 15.567 10.391 16.216 22.081 10.378 65.593 1.946 83.128-4.54z" fill="#E4002B"/><path d="M83.76 91.066c-6.495 9.081-19.483 46.053-12.989 81.728 5.845 35.675 29.874 63.567 68.841 66.81 17.535 1.946 33.121-1.297 40.265-5.837 0 0 3.897-2.595 3.897-5.838 0 0-40.266 5.838-57.151-12.324-14.937-16.217-3.897-35.676-3.897-35.676 6.495-12.972 22.081-28.54 22.081-28.54s20.782-20.108 27.277-31.783c3.247-5.838 5.196-11.676 5.196-16.865 0-11.027-7.794-15.567-10.392-16.216-22.081-10.378-65.593-1.946-83.128 4.54z" fill="#00239C"/></svg>