<svg width="300" height="300" viewBox="0 0 300 300" fill="none" xmlns="http://www.w3.org/2000/svg">
<rect width="300" height="300" fill="white"/>
<path d="M216.241 209.766C222.736 200.685 235.725 163.712 229.23 128.037C223.385 92.3615 199.356 64.4699 160.39 61.2267C142.854 59.2808 127.268 62.524 120.124 67.0645C120.124 67.0645 116.228 69.659 116.228 72.9022C116.228 72.9022 156.493 67.0645 173.378 85.2264C188.315 101.442 177.275 120.901 177.275 120.901C170.781 133.875 155.194 149.442 155.194 149.442C155.194 149.442 134.412 169.55 127.917 181.225C124.67 187.063 122.722 192.901 122.722 198.09C122.722 209.117 130.515 213.657 133.113 214.306C155.194 224.684 198.706 216.252 216.241 209.766Z" fill="#E4002B"/>
<path d="M83.7598 91.0656C77.2654 100.147 64.2766 137.119 70.771 172.794C76.6159 208.469 100.645 236.361 139.612 239.604C157.147 241.55 172.733 238.307 179.877 233.767C179.877 233.767 183.774 231.172 183.774 227.929C183.774 227.929 143.508 233.767 126.623 215.605C111.686 199.388 122.726 179.929 122.726 179.929C129.221 166.957 144.807 151.389 144.807 151.389C144.807 151.389 165.589 131.281 172.084 119.606C175.331 113.768 177.28 107.93 177.28 102.741C177.28 91.7142 169.486 87.1737 166.888 86.5251C144.807 76.1469 101.295 84.5791 83.7598 91.0656Z" fill="#00239C"/>
</svg>
