<svg width="118" height="131" fill="none" xmlns="http://www.w3.org/2000/svg"><path d="M118 129.995h-17.614c-1.157-8.426-2.571-18.033-2.571-18.033s-.72 7.938-1.569 18.033H25.791c-.643-9.093-1.415-15.875-1.697-16.03-.412-.205-2.906 7.861-5.015 16.03H0c4.911-21.116 14.065-55 19.337-57.03C26.87 70.064 57.573 60.61 57.573 60.61H75.11s31.139 8.889 34.045 18.522c2.288 7.707 7.354 33.062 8.845 50.864z" fill="#E65353"/><path d="M67.138 3.814s16.354 2.57 13.885 28.156C78.53 57.556 64.078 55.45 63.127 55.424c-.977-.026-14.503.462-15.557-30.776-.026.026-.489-23.068 19.568-20.834z" fill="#EEA987"/><path d="M74.775 47.896s-.437 10.533.566 12.793-13.5 9.582-22.37 1.439c0 0 2.133-11.432 1.542-15.49-.591-4.034 20.262 1.258 20.262 1.258zm6.479-23.143s1.8-1.9 2.443.026c.669 1.927-2.777 10.584-2.546 10.97 0 0-.334.744-.745.333-.437-.41.848-11.329.848-11.329zm-33.504-.308s-1.749-1.953-2.443-.026 2.572 10.635 2.34 11.02c0 0 .309.746.746.36.437-.41-.643-11.354-.643-11.354z" fill="#EEA987"/><path d="M81.255 28.68l-2.34 3.135s.077-6.86-.309-7.938c-.385-1.079-.95-4.367-1.26-5.138-.308-.77-14.065-4.624-26.176 1.13 0 0 .54 4.933-.617 5.37-1.157.436-.591 8.04-.591 8.04l-1.929-2.184s-2.957-19.677-2.211-21.732c.72-2.055 3.06-14.386 27.95-7.065 0 0 7.766-1.644 9.309 3.7 1.517 5.368-1.826 22.683-1.826 22.683z" fill="#D98B52"/><path d="M75.342 60.693s3.703.796-11.75 15.567c0 0-10.955-12.1-10.595-14.129.334-2.004 22.345-1.438 22.345-1.438z" fill="#EEA987"/><path d="M63.591 76.282l4.217 7.193 12.497-21.22-5.4-3.75-11.314 17.777zm0-.002L53.357 60.019l-5.811 3.724 10.414 19.73 5.631-7.193z" fill="#B84343"/><path d="M60.427 121.344c.128 2.389.18 5.344.18 8.657h-.592c0-3.288-.051-6.216-.18-8.605-.951-18.034 3.42-39.998 3.446-45.162l.566.103c-.026 5.138-4.372 27.051-3.42 45.007z" fill="#B84343"/><path d="M56.056 52.416s3.883 4.11 9.386 3.006c5.503-1.104 7.92-3.596 7.92-3.596s-2.16 5.42-8.511 5.934c-6.352.488-8.795-5.343-8.795-5.343z" fill="#C78D71"/></svg>