<svg width="158" height="133" fill="none" xmlns="http://www.w3.org/2000/svg"><path d="M93.715 132.653a6.769 6.769 0 01-5.55-.575 6.775 6.775 0 01-3.242-4.549l-.97-5.115a1.442 1.442 0 112.834-.535l.971 5.105a3.899 3.899 0 001.864 2.606 3.938 3.938 0 003.201.337c2.666-.882 4.123-3.776 3.241-6.452L55.813 1.896a1.45 1.45 0 01.912-1.823 1.45 1.45 0 011.824.912l40.23 121.568c1.388 4.183-.891 8.712-5.064 10.1z" fill="url(#paint0_linear_223_976)"/><path d="M.1 91.31c14.025-6.254 27.93-7.85 41.747-5.679l20.32-70.284S6.006 29.6.1 91.31z" fill="url(#paint1_linear_223_976)"/><path d="M156.991 39.294c-14.987 3.36-27.089 10.387-36.871 20.378L61.83 15.456s53.552-22.123 95.161 23.838z" fill="url(#paint2_linear_223_976)"/><path d="M61.94 15.228S31.065 27.36 42.017 85.572l4.44-2.944A136.96 136.96 0 01114.64 60.02l5.312-.287C93.954 6.515 61.94 15.228 61.94 15.228z" fill="url(#paint3_linear_223_976)"/><path d="M65.06 14.96l-5.778 1.913c-.099.03-.218-.02-.248-.129l-.327-.99c-.03-.1.02-.219.13-.248l5.778-1.914c.099-.03.218.02.247.13l.327.99c.03.1-.03.209-.128.248z" fill="url(#paint4_linear_223_976)"/><path d="M1.091 93.124l-.773.05c-.08.01-.149-.06-.158-.139L0 90.458c-.009-.08.06-.149.14-.159l.783-.049c.079-.01.148.06.158.139l.159 2.577c0 .089-.06.158-.149.158z" fill="url(#paint5_linear_223_976)"/><path d="M42.443 87.386l-.783.05c-.08.01-.149-.06-.159-.14l-.158-2.577c-.01-.079.06-.148.138-.158l.783-.05c.08-.01.15.06.159.139l.159 2.577a.16.16 0 01-.14.159z" fill="url(#paint6_linear_223_976)"/><path d="M157.279 41.346l.654-.426c.069-.05.089-.14.04-.209l-1.408-2.16c-.049-.07-.139-.09-.208-.04l-.654.426c-.07.05-.089.139-.04.208l1.408 2.161c.039.06.138.08.208.04z" fill="url(#paint7_linear_223_976)"/><path d="M120.685 61.437l.654-.426c.07-.05.09-.139.04-.208l-1.407-2.161c-.05-.07-.139-.09-.209-.04l-.654.426c-.069.05-.089.14-.039.209l1.407 2.16c.05.07.139.09.208.04z" fill="url(#paint8_linear_223_976)"/><defs><linearGradient id="paint0_linear_223_976" x1="104.851" y1="166.312" x2="67.185" y2="46.974" gradientUnits="userSpaceOnUse"><stop stop-color="#E1473D"/><stop offset="1" stop-color="#E9605A"/></linearGradient><linearGradient id="paint1_linear_223_976" x1="-13.157" y1="-43.31" x2="17.372" y2="23.297" gradientUnits="userSpaceOnUse"><stop stop-color="#E1473D"/><stop offset="1" stop-color="#E9605A"/></linearGradient><linearGradient id="paint2_linear_223_976" x1="127.471" y1="-35.487" x2="117.559" y2="-.994" gradientUnits="userSpaceOnUse"><stop stop-color="#E1473D"/><stop offset="1" stop-color="#E9605A"/></linearGradient><linearGradient id="paint3_linear_223_976" x1="83.725" y1="24.075" x2="71.83" y2="128.347" gradientUnits="userSpaceOnUse"><stop stop-color="#FE7062"/><stop offset="1" stop-color="#FF928E"/></linearGradient><linearGradient id="paint4_linear_223_976" x1="68.675" y1="-23.823" x2="64.214" y2="2.049" gradientUnits="userSpaceOnUse"><stop stop-color="#A22B25"/><stop offset="1" stop-color="#C0423C"/></linearGradient><linearGradient id="paint5_linear_223_976" x1="3.234" y1="37.414" x2="1.482" y2="73.712" gradientUnits="userSpaceOnUse"><stop stop-color="#A22B25"/><stop offset="1" stop-color="#C0423C"/></linearGradient><linearGradient id="paint6_linear_223_976" x1="44.207" y1="39.391" x2="42.455" y2="75.689" gradientUnits="userSpaceOnUse"><stop stop-color="#A22B25"/><stop offset="1" stop-color="#C0423C"/></linearGradient><linearGradient id="paint7_linear_223_976" x1="156.58" y1="44.814" x2="154.828" y2="81.111" gradientUnits="userSpaceOnUse"><stop stop-color="#A22B25"/><stop offset="1" stop-color="#C0423C"/></linearGradient><linearGradient id="paint8_linear_223_976" x1="121.047" y1="43.099" x2="119.296" y2="79.397" gradientUnits="userSpaceOnUse"><stop stop-color="#A22B25"/><stop offset="1" stop-color="#C0423C"/></linearGradient></defs></svg>