<svg width="30" height="30" fill="none" xmlns="http://www.w3.org/2000/svg"><path d="M13.75 12.5a1.25 1.25 0 100-2.5 1.25 1.25 0 000 2.5zM10 6.25a1.25 1.25 0 102.5 0 1.25 1.25 0 00-2.5 0zm-3.75 5a1.25 1.25 0 110-2.5 1.25 1.25 0 010 2.5zM18.75 15a1.25 1.25 0 102.5 0 1.25 1.25 0 00-2.5 0zm-5.366 2.134a1.25 1.25 0 101.768 1.768 1.25 1.25 0 00-1.768-1.768zm11.767 1.25a1.25 1.25 0 10-1.767 1.768 1.25 1.25 0 001.767-1.768zm-16.767 2.5a1.25 1.25 0 111.767 1.767 1.25 1.25 0 01-1.767-1.767zm7.502 1.25a1.25 1.25 0 111.767 1.768 1.25 1.25 0 01-1.767-1.768zm-10.002-7.5A1.25 1.25 0 117.65 16.4a1.25 1.25 0 01-1.767-1.767z" fill="#fff"/><path fill-rule="evenodd" clip-rule="evenodd" d="M16.372.062c.38.034.758.083 1.13.145.11 6.74 5.552 12.181 12.29 12.291.137.814.208 1.65.208 2.502 0 8.284-6.716 15-15 15-8.284 0-15-6.716-15-15C0 6.716 6.716 0 15 0c.463 0 .92.02 1.372.062zM27.5 15l-.002-.208a15.012 15.012 0 01-12.29-12.29L15 2.5C8.096 2.5 2.5 8.096 2.5 15S8.096 27.5 15 27.5 27.5 21.904 27.5 15z" fill="#fff"/></svg>