<svg width="17" height="17" fill="none" xmlns="http://www.w3.org/2000/svg"><path fill-rule="evenodd" clip-rule="evenodd" d="M11.905 16.667H4.762a4.797 4.797 0 01-3.367-1.375A4.662 4.662 0 010 11.972V4.695c0-1.245.502-2.44 1.395-3.32A4.797 4.797 0 014.762 0h7.143c1.263 0 2.474.495 3.367 1.375a4.661 4.661 0 011.395 3.32v7.277c0 .616-.123 1.227-.363 1.796-.24.57-.59 1.088-1.032 1.524a4.766 4.766 0 01-1.545 1.017 4.822 4.822 0 01-1.822.358zm3.214-12.324a2.91 2.91 0 00-.872-2.075 2.998 2.998 0 00-2.104-.86H4.405a3 3 0 00-2.105.86 2.913 2.913 0 00-.871 2.075v7.629c0 .778.313 1.524.871 2.075a3 3 0 002.105.86h7.738c.79 0 1.546-.31 2.104-.86a2.91 2.91 0 00.872-2.075v-7.63zm-2.38.47c-.213 0-.42-.063-.596-.179a1.06 1.06 0 01-.395-.474 1.042 1.042 0 01.232-1.151 1.076 1.076 0 011.168-.23c.196.08.363.216.481.39a1.046 1.046 0 01-.133 1.334c-.201.198-.474.31-.758.31zm-4.465 7.746c-.86 0-1.7-.252-2.414-.722a4.297 4.297 0 01-1.6-1.923 4.228 4.228 0 01-.248-2.475 4.266 4.266 0 011.19-2.194 4.365 4.365 0 012.224-1.172 4.403 4.403 0 012.51.244 4.332 4.332 0 011.95 1.578 4.241 4.241 0 01-.54 5.409 4.377 4.377 0 01-3.072 1.255zm0-7.043c-.554 0-1.094.162-1.554.465-.46.303-.82.734-1.03 1.238a2.722 2.722 0 00-.16 1.594c.108.535.374 1.026.766 1.412.39.386.89.648 1.432.755a2.835 2.835 0 001.616-.157A2.79 2.79 0 0010.6 9.807a2.73 2.73 0 00-.348-3.483 2.818 2.818 0 00-1.978-.808z" fill="#FF20A7"/><path fill-rule="evenodd" clip-rule="evenodd" d="M11.905 16.667H4.762a4.797 4.797 0 01-3.367-1.375A4.662 4.662 0 010 11.972V4.695c0-1.245.502-2.44 1.395-3.32A4.797 4.797 0 014.762 0h7.143c1.263 0 2.474.495 3.367 1.375a4.661 4.661 0 011.395 3.32v7.277c0 .616-.123 1.227-.363 1.796-.24.57-.59 1.088-1.032 1.524a4.766 4.766 0 01-1.545 1.017 4.822 4.822 0 01-1.822.358zm3.214-12.324a2.91 2.91 0 00-.872-2.075 2.998 2.998 0 00-2.104-.86H4.405a3 3 0 00-2.105.86 2.913 2.913 0 00-.871 2.075v7.629c0 .778.313 1.524.871 2.075a3 3 0 002.105.86h7.738c.79 0 1.546-.31 2.104-.86a2.91 2.91 0 00.872-2.075v-7.63zm-2.38.47c-.213 0-.42-.063-.596-.179a1.06 1.06 0 01-.395-.474 1.042 1.042 0 01.232-1.151 1.076 1.076 0 011.168-.23c.196.08.363.216.481.39a1.046 1.046 0 01-.133 1.334c-.201.198-.474.31-.758.31zm-4.465 7.746c-.86 0-1.7-.252-2.414-.722a4.297 4.297 0 01-1.6-1.923 4.228 4.228 0 01-.248-2.475 4.266 4.266 0 011.19-2.194 4.365 4.365 0 012.224-1.172 4.403 4.403 0 012.51.244 4.332 4.332 0 011.95 1.578 4.241 4.241 0 01-.54 5.409 4.377 4.377 0 01-3.072 1.255zm0-7.043c-.554 0-1.094.162-1.554.465-.46.303-.82.734-1.03 1.238a2.722 2.722 0 00-.16 1.594c.108.535.374 1.026.766 1.412.39.386.89.648 1.432.755a2.835 2.835 0 001.616-.157A2.79 2.79 0 0010.6 9.807a2.73 2.73 0 00-.348-3.483 2.818 2.818 0 00-1.978-.808z" fill="url(#paint0_radial_498_4316)"/><path fill-rule="evenodd" clip-rule="evenodd" d="M11.905 16.667H4.762a4.797 4.797 0 01-3.367-1.375A4.662 4.662 0 010 11.972V4.695c0-1.245.502-2.44 1.395-3.32A4.797 4.797 0 014.762 0h7.143c1.263 0 2.474.495 3.367 1.375a4.661 4.661 0 011.395 3.32v7.277c0 .616-.123 1.227-.363 1.796-.24.57-.59 1.088-1.032 1.524a4.766 4.766 0 01-1.545 1.017 4.822 4.822 0 01-1.822.358zm3.214-12.324a2.91 2.91 0 00-.872-2.075 2.998 2.998 0 00-2.104-.86H4.405a3 3 0 00-2.105.86 2.913 2.913 0 00-.871 2.075v7.629c0 .778.313 1.524.871 2.075a3 3 0 002.105.86h7.738c.79 0 1.546-.31 2.104-.86a2.91 2.91 0 00.872-2.075v-7.63zm-2.38.47c-.213 0-.42-.063-.596-.179a1.06 1.06 0 01-.395-.474 1.042 1.042 0 01.232-1.151 1.076 1.076 0 011.168-.23c.196.08.363.216.481.39a1.046 1.046 0 01-.133 1.334c-.201.198-.474.31-.758.31zm-4.465 7.746c-.86 0-1.7-.252-2.414-.722a4.297 4.297 0 01-1.6-1.923 4.228 4.228 0 01-.248-2.475 4.266 4.266 0 011.19-2.194 4.365 4.365 0 012.224-1.172 4.403 4.403 0 012.51.244 4.332 4.332 0 011.95 1.578 4.241 4.241 0 01-.54 5.409 4.377 4.377 0 01-3.072 1.255zm0-7.043c-.554 0-1.094.162-1.554.465-.46.303-.82.734-1.03 1.238a2.722 2.722 0 00-.16 1.594c.108.535.374 1.026.766 1.412.39.386.89.648 1.432.755a2.835 2.835 0 001.616-.157A2.79 2.79 0 0010.6 9.807a2.73 2.73 0 00-.348-3.483 2.818 2.818 0 00-1.978-.808z" fill="url(#paint1_radial_498_4316)"/><defs><radialGradient id="paint0_radial_498_4316" cx="0" cy="0" r="1" gradientUnits="userSpaceOnUse" gradientTransform="rotate(106.302 -3.967 9.634) scale(11.5042)"><stop stop-color="#FFFCB2"/><stop offset=".234" stop-color="#FFB21C" stop-opacity=".818"/><stop offset="1" stop-color="#FF24BE" stop-opacity="0"/></radialGradient><radialGradient id="paint1_radial_498_4316" cx="0" cy="0" r="1" gradientUnits="userSpaceOnUse" gradientTransform="rotate(75.303 1.98 2.565) scale(6.56911 15.4049)"><stop stop-color="#2E62DF"/><stop offset="1" stop-color="#6E48D8" stop-opacity="0"/></radialGradient></defs></svg>