<svg width="66" height="77" fill="none" xmlns="http://www.w3.org/2000/svg"><path d="M57.2 29.114l1.7 1.097" stroke="#AA4944" stroke-width=".779" stroke-miterlimit="10" stroke-linecap="round"/><path opacity=".6" d="M60.646 34.015c.873.873 1.812 1.79 2.707 2.685.157-2.461-2.707-2.685-2.707-2.685z" fill="#D25C53"/><path d="M49.316 11.376l-3.382 5.46 5.041 3.123 3.382-5.46-5.041-3.123z" fill="#8EBEED"/><path d="M49.308 11.358l-1.273 2.055 5.042 3.123 1.273-2.055-5.042-3.123z" fill="#473D59"/><path d="M54.491 16.404l-6.982-4.32a1.17 1.17 0 01-.38-1.633l1.343-2.17a1.17 1.17 0 011.633-.381l6.982 4.319a1.17 1.17 0 01.38 1.633l-1.342 2.171a1.194 1.194 0 01-1.634.38z" fill="#D65B47"/><path d="M50.104 7.898l-2.593 4.185.97.601 2.593-4.185-.97-.601zm2.019 1.239l-2.592 4.185.97.6 2.593-4.184-.97-.601zm1.989 1.246l-2.593 4.185.97.6 2.593-4.184-.97-.601zm2.02 1.238l-2.593 4.186.97.6 2.593-4.185-.97-.6z" fill="#FF7C6E"/><path d="M15.939 11.359l-5.042 3.122 3.382 5.46 5.042-3.123-3.382-5.46z" fill="#8EBEED"/><path d="M15.931 11.378L10.89 14.5l1.272 2.054 5.042-3.123-1.273-2.054z" fill="#473D59"/><path d="M10.742 16.404l6.982-4.32a1.17 1.17 0 00.38-1.633l-1.343-2.17a1.17 1.17 0 00-1.633-.381l-6.96 4.319a1.17 1.17 0 00-.38 1.633l1.342 2.171c.336.56 1.052.716 1.611.38z" fill="#D65B47"/><path d="M15.133 7.897l-.97.601 2.592 4.185.97-.6-2.592-4.186zm-2.018 1.238l-.97.6 2.592 4.186.97-.6-2.592-4.186zm-1.987 1.245l-.97.601 2.592 4.185.97-.6-2.592-4.186zM9.11 11.618l-.97.6 2.592 4.186.97-.601-2.592-4.185z" fill="#FF7C6E"/><path d="M37.237 5.259h-9.22v10.003h9.22V5.259z" fill="#8EBEED"/><path d="M37.237 5.259h-9.22v3.737h9.22V5.259z" fill="#473D59"/><path d="M32.628 76.4c18.02 0 32.627-14.608 32.627-32.628S50.648 11.145 32.628 11.145C14.608 11.145 0 25.753 0 43.772 0 61.792 14.608 76.4 32.628 76.4z" fill="#FF7C6E"/><path d="M32.628 74.23c16.833 0 30.48-13.647 30.48-30.48S49.46 13.27 32.627 13.27c-16.834 0-30.48 13.647-30.48 30.48s13.646 30.48 30.48 30.48z" fill="#D65B47"/><path d="M32.628 72.17c15.72 0 28.465-12.744 28.465-28.465 0-15.72-12.744-28.465-28.465-28.465S4.162 27.984 4.162 43.705s12.745 28.466 28.466 28.466z" fill="#fff"/><path d="M51.157 55.074c.045-.605.627-1.03 1.119-.761a61.944 61.944 0 013.11 1.79c.336.201.403.671.202 1.007-.202.336-.627.447-1.007.246a135.66 135.66 0 01-2.417-1.387c-.179-.112-.403-.202-.56-.336-.2-.157-.313-.358-.447-.56zM33.366 67.896v1.634c0 .47-.313.805-.738.828-.448 0-.784-.336-.784-.828v-3.267c0-.515.291-.828.761-.828.448 0 .739.313.739.828.022.537.022 1.074.022 1.633zm23.318-23.318h-1.633c-.515 0-.828-.291-.828-.76 0-.448.313-.74.806-.74h3.311c.47 0 .806.336.806.761 0 .426-.336.739-.806.739h-1.656zM22.2 63.286c-.023.067-.068.224-.157.38-.537.94-1.074 1.858-1.611 2.798-.247.425-.672.56-1.052.358-.403-.224-.515-.649-.269-1.096.537-.963 1.097-1.902 1.634-2.865.201-.358.56-.514.917-.38.358.09.538.335.538.805zm21.774-.85c.112.09.38.224.492.425.56.918 1.096 1.88 1.634 2.82.246.448.156.895-.224 1.097-.403.223-.828.111-1.097-.359-.56-.94-1.096-1.88-1.633-2.82-.291-.581.044-1.185.828-1.163zM8.57 44.578H6.938c-.492 0-.805-.291-.805-.739 0-.447.313-.738.805-.738 1.097 0 2.17-.023 3.267 0 .47 0 .829.313.829.738 0 .448-.314.739-.829.761-.559-.022-1.096-.022-1.633-.022zm1.813 12.868c-.425-.023-.67-.202-.76-.538-.112-.335.022-.67.358-.872.85-.493 1.723-.985 2.573-1.5.134-.067.246-.156.38-.201.404-.202.829-.067 1.03.313.201.358.067.783-.29 1.007-.672.403-1.366.783-2.037 1.186-.269.157-.537.314-.828.47a4.084 4.084 0 01-.425.135zm22.983-37.663v1.633c0 .47-.313.806-.738.806-.403.022-.739-.336-.739-.783-.022-1.12 0-2.216 0-3.335 0-.447.336-.783.739-.76.447 0 .738.313.738.805 0 .56-.022 1.096 0 1.634zm18.686 13.606c-.425 0-.671-.157-.783-.492-.112-.359 0-.694.358-.896.716-.425 1.432-.828 2.17-1.253.247-.134.493-.29.762-.425.38-.201.805-.09 1.007.246a.71.71 0 01-.269 1.03c-.985.581-1.97 1.14-2.954 1.7-.112.067-.246.067-.29.09zm-5.796-11.861c-.067.157-.09.314-.157.425-.537.94-1.074 1.88-1.633 2.82-.269.448-.694.56-1.074.336-.38-.224-.47-.65-.224-1.074a114.67 114.67 0 011.656-2.842c.313-.515.873-.56 1.23-.112.113.112.135.29.202.447zM13.159 33.389c-.045-.023-.202-.067-.314-.134-.962-.537-1.902-1.097-2.864-1.656-.38-.224-.515-.672-.314-1.03a.747.747 0 011.008-.268c.984.56 1.969 1.119 2.953 1.7.336.202.448.538.336.873-.112.336-.358.515-.806.515zm9.018-8.997c0 .426-.179.694-.537.784-.336.09-.627 0-.806-.314-.581-.984-1.163-1.969-1.723-2.976-.201-.38-.067-.828.269-1.007.358-.201.783-.112 1.007.268.582.963 1.141 1.948 1.7 2.932.068.134.068.246.09.313zm10.451 27.616a8.19 8.19 0 100-16.381 8.19 8.19 0 000 16.38z" fill="#8EBEED"/><path d="M32.695 45.92a2.215 2.215 0 100-4.43 2.215 2.215 0 000 4.43z" fill="#7396C0"/><path d="M33.433 21.193a.745.745 0 00-.738-.739.745.745 0 00-.739.739v22.423c0 .403.336.738.739.738a.745.745 0 00.738-.738V21.193z" fill="#473D59"/><path d="M20.901 51.47c-.358.202-.828.09-1.03-.268-.2-.358-.089-.828.27-1.03l12.151-7.004c.358-.202.828-.09 1.03.268.2.358.089.828-.27 1.03l-12.15 7.004z" fill="#473D59"/><path d="M38.983 7.653H26.228a1.829 1.829 0 01-1.835-1.835V1.835C24.393.805 25.22 0 26.228 0h12.755c1.03 0 1.835.828 1.835 1.835v3.983c.023 1.007-.805 1.835-1.835 1.835z" fill="#D65B47"/><path d="M28.018 0h-1.79v7.653h1.79V0zm3.67 0h-1.79v7.653h1.79V0zm3.67 0h-1.79v7.653h1.79V0zm3.67 0h-1.79v7.653h1.79V0z" fill="#FF7C6E"/></svg>