<svg width="134" height="76" fill="none" xmlns="http://www.w3.org/2000/svg"><path d="M85.198 5.104h-4.865l.452-3.403A1.951 1.951 0 0182.725 0c.957 0 1.782.691 1.941 1.648l.532 3.456z" fill="#F45571"/><path d="M81.742 4.864s.213-2.551 1.01-2.551c.798 0 .984 2.551.984 2.551" fill="#FFB956"/><path d="M83.921 13.238h-2.738a3.812 3.812 0 01-3.828-3.828V8.187a3.812 3.812 0 013.828-3.828h3.03a3.812 3.812 0 013.829 3.828v.93a4.125 4.125 0 01-4.12 4.121z" fill="#182852"/><path d="M0 45.403v1.781c0 1.595.027 3.137.08 4.6.106 3.827.345 7.07.717 9.303.16.93.346 1.701.559 2.286.212.532.425.904.664 1.063 2.233 1.49 17.465 1.09 36.1 1.569 8.719.213 31.474.319 40.698.319 25.227 0 48.726.585 50.401-.877.505-.452.957-1.17 1.382-2.074.239-.505.452-1.09.638-1.701l.159-.558c.452-1.595.824-3.43 1.064-5.317.186-1.33.319-2.685.398-3.987.107-1.649.133-3.217.08-4.6a33.455 33.455 0 00-.106-1.78c-.106-1.063-.293-1.888-.558-2.393-.771-1.462-4.094-3.588-7.257-5.37-3.27-1.834-7.417-4.093-7.417-4.093s-.213-.771-.611-2.047c-1.117-3.695-3.722-11.563-6.885-17.385a34.737 34.737 0 00-1.356-2.286c-.771-1.196-1.568-2.233-2.313-2.977a6.337 6.337 0 00-.957-.798c-1.355-.904-12.573-1.542-26.662-1.86-8.586-.187-31.554-.267-40.698-.187-5.104.027-10.022.053-14.488.08-11.776.08-20.522.24-21.186 1.17-.107.133-.213.425-.32.824-.053.212-.106.478-.159.77a48.222 48.222 0 00-.399 2.951C.878 17.81.292 28.47.08 37.641A388.99 388.99 0 000 45.403z" fill="#F2F2F2"/><path d="M35.382 65.075c-2.978-.053-5.955-.107-8.959-.186-3.721-.08-7.443-.186-11.165-.559a45.963 45.963 0 01-3.27-.451c1.224-5.29 5.929-9.225 11.59-9.225 6.088.027 11.086 4.572 11.804 10.42zm86.473-.771c-7.789.69-15.657.903-23.499.983.638-5.954 5.689-10.606 11.829-10.606 5.795 0 10.607 4.147 11.67 9.623z" fill="#182852"/><path d="M1.382 63.347c.213.531.426.904.665 1.063 2.233 1.489 17.465 1.09 36.1 1.568 8.718.213 31.473.32 40.697.32 25.227 0 48.727.584 50.401-.878.505-.452.957-1.17 1.383-2.073H1.382z" fill="#182852"/><path d="M110.185 76a9.437 9.437 0 100-18.874 9.437 9.437 0 000 18.874z" fill="#2D3C62"/><path d="M110.185 72.066a5.503 5.503 0 100-11.006 5.503 5.503 0 000 11.006z" fill="#E3E4F7"/><path d="M110.185 69.913c-1.834 0-3.349-1.516-3.349-3.35s1.515-3.35 3.349-3.35a3.37 3.37 0 013.35 3.35 3.37 3.37 0 01-3.35 3.35zm0-6.433a3.085 3.085 0 00-3.083 3.083 3.085 3.085 0 003.083 3.084 3.086 3.086 0 003.084-3.084 3.086 3.086 0 00-3.084-3.083z" fill="#182852"/><path d="M110.186 67.281a.717.717 0 100-1.435.717.717 0 000 1.435zM23.685 76a9.437 9.437 0 100-18.873 9.437 9.437 0 100 18.873z" fill="#2D3C62"/><path d="M23.685 72.066a5.503 5.503 0 100-11.005 5.503 5.503 0 000 11.005z" fill="#E3E4F7"/><path d="M23.685 69.913a3.37 3.37 0 01-3.35-3.35 3.37 3.37 0 013.35-3.35 3.37 3.37 0 013.35 3.35 3.352 3.352 0 01-3.35 3.35zm0-6.433a3.086 3.086 0 00-3.084 3.083c0 1.702 1.41 3.084 3.084 3.084a3.086 3.086 0 003.084-3.084 3.086 3.086 0 00-3.084-3.083z" fill="#182852"/><path d="M23.684 67.281a.718.718 0 100-1.435.718.718 0 000 1.435z" fill="#2D3C62"/><path d="M115.077 33.734H89.664v-22.49h16.667s5.077 10.315 8.746 22.49z" fill="#182852"/><path d="M49.523 59.891h32.59a2.144 2.144 0 002.154-2.153v-45.19a2.144 2.144 0 00-2.153-2.154h-32.59a2.144 2.144 0 00-2.154 2.153v45.164c.027 1.197.984 2.18 2.153 2.18z" fill="#EEEFFA"/><path d="M132.887 51.783H.107c-.054-1.462-.08-3.004-.08-4.599v-1.78h132.86c.053.531.107 1.116.133 1.78 0 1.383-.026 2.951-.133 4.6z" fill="#FF7C6E"/><path d="M107.633 45.403l-6.353 6.38h-1.914l6.353-6.38h1.914zm4.28 0l-6.379 6.38h-1.914l6.379-6.38h1.914zm4.254 0l-6.354 6.38h-1.914l6.354-6.38h1.914zm4.279 0l-6.353 6.38h-1.914l6.353-6.38h1.914z" fill="#FCFFFF"/><path d="M56.037 17.864v13.211c0 1.489 1.196 2.685 2.658 2.685H72.49c.957 0 1.808-.505 2.26-1.276.266-.399.399-.904.399-1.409V17.864a2.677 2.677 0 00-2.685-2.685H58.668c-1.435 0-2.631 1.196-2.631 2.685z" fill="#4AD4F6"/><path d="M131.239 61.645s.984-1.01 1.25-2.605c.292-1.621-.027-3.296-.027-3.296s-2.313.106-3.004.745c-.664.637-.93 4.332 1.781 5.157z" fill="#FCB75D"/><path d="M2.153 8.081l19.273 40.512h24.43L25.651 6.087c-13.77.08-22.515.24-23.18 1.17-.106.133-.212.399-.319.824z" fill="#FF7C6E"/><path d="M5.316 60.742a1.808 1.808 0 100-3.616 1.808 1.808 0 000 3.616z" fill="#FFB956"/><path d="M31.82 34.93c5.564 0 10.074-4.511 10.074-10.075 0-5.565-4.51-10.075-10.074-10.075-5.565 0-10.075 4.51-10.075 10.075 0 5.564 4.51 10.074 10.075 10.074z" fill="#FCFFFF"/><path d="M33.361 18.076h-3.748v13.53h3.748v-13.53z" fill="#00239C"/><path d="M26.557 19.838l-1.874 3.246L36.4 29.849l1.874-3.246-11.717-6.765z" fill="#00239C"/><path d="M24.68 26.611l1.874 3.246 11.717-6.765-1.874-3.246-11.717 6.765z" fill="#00239C"/><path d="M81.609 58.376H50.055a1.22 1.22 0 01-1.222-1.223V13.158a1.22 1.22 0 011.222-1.223H81.61a1.22 1.22 0 011.223 1.223v43.995c0 .664-.558 1.223-1.223 1.223zM50.055 12.175a.953.953 0 00-.957.957v44.02c0 .532.426.958.957.958H81.61a.953.953 0 00.957-.957V13.158a.953.953 0 00-.957-.957H50.055v-.026z" fill="#182852"/><path d="M14.54 12.042a1.622 1.622 0 100-3.243 1.622 1.622 0 000 3.243z" fill="#FFB956"/><path d="M8.932 12.042a1.622 1.622 0 100-3.243 1.622 1.622 0 000 3.243z" fill="#EEEFFA"/><path d="M74.485 42.24h5.29c.505 0 .93-.425.93-.93a.942.942 0 00-.93-.93h-5.29a.942.942 0 00-.93.93c0 .505.425.93.93.93zm16.295 0h5.29c.505 0 .93-.425.93-.93a.942.942 0 00-.93-.93h-5.29a.942.942 0 00-.93.93c0 .505.425.93.93.93z" fill="#182852"/><path d="M91.232 12.574v18.9h21.585c-1.542-4.732-7.151-18.9-7.151-18.9H91.232z" fill="#4AD4F6"/><path d="M94.528 12.574L109.016 31.5h1.914L97.054 12.574h-2.526zm-3.296.345v7.842l8.055 10.74h5.289L91.232 12.918z" fill="#FCFFFF"/><path d="M111.009 26.477l-2.791 6.034h5.875l-3.084-6.034z" fill="#182852"/><path d="M63.878 15.179l10.9 17.305c.265-.399.398-.904.398-1.409V26.77l-7.337-11.59h-3.96zm-7.841 2.685v1.621l10.792 14.248h4.307L59.918 15.18h-1.223c-1.462 0-2.658 1.196-2.658 2.685z" fill="#FCFFFF"/><path d="M113.641 31.926a2.876 2.876 0 002.871-2.87v-1.277a2.876 2.876 0 00-2.871-2.87v7.017z" fill="#182852"/></svg>