<svg width="71" height="85" fill="none" xmlns="http://www.w3.org/2000/svg"><path d="M36.246 62.024L.283 23.994a.997.997 0 01.046-1.418L23.933.273a.997.997 0 011.418.047l35.963 38.03a.997.997 0 01-.047 1.418L37.663 62.07a1.018 1.018 0 01-1.417-.047z" fill="#8EBEED"/><path d="M61.034 38.072L25.605.575A1.368 1.368 0 0023.654.53L16.94 6.87a.482.482 0 00-.163.488c.674 3.74 3.345 7.109 6.551 9.316 3.857 2.695 8.434 4.089 12.778 5.901 4.345 1.789 8.712 4.159 11.314 8.062 2.463 3.693 3.044 8.27 4.298 12.545a23.928 23.928 0 001.255 3.392.54.54 0 00.883.162l7.108-6.714a1.348 1.348 0 00.07-1.951z" fill="#504D6C"/><path d="M25.07 11.494c-.325.302-.743.233-1.207-.255l-.907-.953 1.86-1.742.859.906c.441.465.464.883.186 1.162-.186.185-.419.209-.65.139.139.232.092.534-.14.743zm-.162-2.253l-.441.418.395.418c.209.21.371.256.534.116.14-.139.116-.325-.093-.534l-.395-.418zm-.186 1.789c.163-.14.116-.325-.093-.558l-.464-.51-.465.44.465.512c.209.209.395.255.557.116zm1.696 2.114l-.813-.86-.557.21-.419-.442 2.626-.93.395.419-1.07 2.579-.417-.442.255-.534zm.21-.442l.44-.975-.998.371.557.604zm3.623 1.58l-1.858 1.743-.326-.349.256-1.998-1.115 1.069-.395-.418 1.859-1.743.325.349-.256 1.975 1.115-1.069.395.441zm-.07 2.161h-.487l-.465.441-.395-.418 1.859-1.742.394.418-.86.813h1.65l.442.488-1.557.023-.255 1.789-.465-.511.14-1.301zM17.033 18.44l-.325-.348-.442.419-.162-.163.441-.418-.906-.976.116-.116 1.975-.163.186.186-1.905.186.697.743.395-.371.162.162-.395.372.326.349-.163.139zm1.231 1.209c-.278.279-.697.279-1.091-.14-.233-.255-.372-.557-.372-.813l.209-.046c0 .209.093.488.302.72.255.279.534.302.766.116.21-.186.21-.464-.092-.79l-.117-.116.14-.116 1.045-.093-.813-.86.163-.139 1.045 1.092-.116.116-1.069.093c.302.349.28.72 0 .976zm1.302 1.371c-.28.279-.697.279-1.092-.14-.233-.255-.372-.557-.349-.813l.21-.046c0 .209.092.488.301.697.279.279.558.302.767.116.209-.21.232-.465-.186-.906l-.348-.372.929-.72.883.93-.163.139-.743-.767-.604.465.209.209c.51.534.488.906.186 1.208zm1.44 1.487c-.325.302-.767.232-1.069-.093-.418-.442-.348-1 .186-1.51.58-.558 1.185-.512 1.626-.047.14.163.256.325.28.488l-.21.07c-.023-.14-.116-.279-.232-.395-.349-.372-.814-.372-1.278.046l-.14.14c.28-.093.558 0 .79.255.326.326.349.744.047 1.046zm-.163-.163c.233-.21.21-.511-.046-.767-.256-.255-.581-.278-.79-.093-.186.186-.21.511.07.79.232.233.534.28.766.07zm3.137 4.321l.162-.906-.93.093-.185-.186 1.138-.116.163-1.069.186.186-.14.86.86-.093.186.186-1.069.116-.162 1.138-.21-.209zm1.207 1.301l.163-.906-.93.093-.185-.186 1.138-.116.163-1.069.186.186-.14.86.86-.093.186.186-1.069.116-.163 1.138-.209-.209zm1.232 1.278l.162-.906-.929.093-.186-.186 1.139-.116.162-1.069.186.186-.14.86.86-.093.186.185-1.069.117-.162 1.138-.21-.21zm1.231 1.301l.163-.906-.929.093-.186-.186 1.139-.116.162-1.069.186.186-.14.86.86-.093.186.186-1.069.116-.162 1.138-.21-.209zm4.228 4.484l.163-.907-.93.093-.185-.185 1.138-.117.163-1.068.186.186-.14.86.86-.094.186.186-1.069.116-.163 1.139-.209-.21zm1.232 1.301l.162-.906-.929.093-.186-.186 1.139-.116.162-1.069.186.186-.14.86.86-.093.186.185-1.069.117-.162 1.138-.21-.21zm1.231 1.3l.163-.906-.93.094-.185-.186 1.138-.116.163-1.07.186.187-.14.86.86-.094.186.186-1.07.116-.162 1.139-.209-.21zm1.231 1.302l.163-.906-.93.093-.185-.186 1.138-.116.163-1.069.185.186-.139.86.86-.093.186.185-1.07.117-.162 1.138-.209-.21zm5.506 2.416l-1.696 1.603-.162-.186 1.556-1.464-.371-.395.162-.139.511.58zm.232 2.672c-.279.278-.697.278-1.092-.14-.232-.256-.371-.558-.371-.813l.209-.047c0 .21.093.488.302.72.255.28.534.303.766.117.21-.186.21-.465-.093-.79l-.116-.116.14-.116 1.045-.093-.813-.86.163-.14 1.045 1.093-.116.116-1.069.093c.302.348.28.72 0 .975zm1.557 1.742l-.325-.349-.442.418-.162-.185.441-.419-.906-.952.116-.116 1.975-.163.186.186-1.928.163.697.743.395-.372.162.163-.395.372.326.348-.14.163zm.953 1.58l-.163.14-1.138-1.186.116-.116 1.37.047c.373.023.512-.07.628-.163.186-.186.186-.441-.07-.697-.185-.209-.395-.302-.627-.279v-.232c.279-.023.558.116.813.372.326.348.349.72.07.999-.163.162-.349.232-.79.232l-1.115-.046.906.929zM10.83 19.834c.255-.232.604-.209.836.047a.53.53 0 01.163.465l-.232-.024a.467.467 0 00-.093-.302c-.14-.162-.349-.162-.511-.023-.163.14-.163.349-.024.511.07.07.163.116.28.116v.233c-.164.023-.326-.047-.466-.21-.185-.208-.185-.58.047-.813zm1.115 1.65l-.349-.372-.232.093-.186-.185 1.162-.395.186.185-.465 1.139-.186-.186.07-.279zm.093-.186l.186-.418-.442.163.256.255zm.558 1.232l.07-.372-.14-.186-.232.209-.186-.186.813-.767.325.349c.21.21.233.465.047.627a.355.355 0 01-.418.07l-.093.418-.186-.163zm.488-.814l-.14-.162-.279.279.14.162c.116.116.209.116.302.047.093-.093.093-.21-.023-.326zm-.14.999l.21-.07c.023.117.07.256.162.349.116.116.186.116.232.07.163-.14-.395-.512-.093-.814.14-.139.349-.116.581.093a.73.73 0 01.186.349l-.186.07a.53.53 0 00-.14-.28c-.115-.115-.185-.115-.232-.069-.139.14.396.511.094.79-.14.14-.349.116-.581-.116a.442.442 0 01-.233-.372zm2.509 1.185l-.813.767-.186-.186.325-.325-.348-.372-.325.325-.186-.186.813-.766.186.186-.325.302.348.371.325-.302.186.186zm-.279.535c.233-.233.604-.21.837.046.232.256.232.604 0 .836-.233.233-.604.21-.837-.046-.232-.256-.232-.604 0-.836zm.674.697a.32.32 0 00.023-.488c-.14-.14-.348-.163-.51 0-.164.14-.164.348-.024.51.14.117.348.117.511-.023zm.72-.047l.186.186-.65.627.395.418-.163.14-.558-.604.79-.767zm.651.697l.348.372c.256.256.256.604.024.836-.256.233-.581.21-.837-.07l-.348-.371.813-.767zm-.325.976c.162.163.348.186.51.023.163-.14.163-.348 0-.51l-.162-.163-.511.464.163.186zm1.161 1.231l-.14.14-.604-.628.814-.767.58.604-.139.14-.395-.418-.186.162.349.372-.14.14-.348-.372-.186.186.395.44zm.488.813l.07-.372-.163-.162-.232.209-.186-.186.813-.767.325.349c.21.209.232.464.047.627a.355.355 0 01-.419.07l-.092.418-.163-.186zm.488-.79l-.14-.162-.278.278.139.163c.116.116.209.116.302.046.093-.116.093-.209-.023-.325zM7.6 22.762l.442-.023c-.023.185 0 .348.093.464.14.14.302.14.465-.023l.743-.697-.534-.58.302-.28.86.907-1.023.952c-.395.372-.766.349-1.115-.023a.788.788 0 01-.232-.697zm1.232 1.301c.14-.116.302-.116.418.023a.294.294 0 010 .418.294.294 0 01-.418 0c-.14-.14-.14-.325 0-.441zm4.158 1.697l-2.044.975-.371-.395.743-1.348-1.394.65-.372-.394 1.069-1.998.348.372-.766 1.394 1.44-.674.325.325-.766 1.394 1.463-.674.326.372zm.163.138a.29.29 0 01.395.023c.117.14.117.302.024.395-.116.116-.28.093-.395-.023-.14-.116-.14-.279-.024-.395zm-.325.395l.325.349-1.208 1.138-.325-.349 1.208-1.138zm1.092.232l.325.349-1.65 1.556-.325-.348 1.65-1.557zm.627.675l.325.348-1.65 1.556-.324-.348 1.649-1.557zm.511.72a.289.289 0 01.395.023c.116.14.116.302.023.395-.116.116-.278.093-.395-.024-.139-.116-.139-.278-.023-.394zm-.325.394l.325.349-1.208 1.138-.325-.348 1.208-1.139zm1.115 2.207l-.697.65-.302-.324.14-.14c-.163.047-.349-.023-.512-.209-.255-.279-.278-.604-.07-.79.21-.209.512-.185.837.186l.256.279c.139-.14.162-.302-.024-.511a.818.818 0 00-.441-.232l.116-.349c.21.047.465.186.627.372.395.372.442.743.07 1.068zm-.627-.046l.116-.116-.232-.233c-.163-.162-.256-.162-.349-.092-.093.093-.07.209.047.325.116.116.255.186.418.116zm2.858 2.393l-.697.65-.326-.348.628-.604c.185-.186.209-.349.07-.488-.14-.163-.35-.163-.558.023l-.604.581-.325-.348.627-.604c.186-.186.209-.349.07-.488-.14-.163-.35-.163-.558.023l-.604.58-.325-.348 1.208-1.138.325.325-.14.14c.186 0 .372.07.512.232a.621.621 0 01.185.58.719.719 0 01.605.256c.232.279.255.628-.093.976zm-.395.743l.371-.116c.023.163.14.372.28.534.162.163.255.186.324.117.186-.186-.697-.72-.209-1.185.233-.21.581-.163.906.186.163.162.302.395.326.557l-.349.116a1.139 1.139 0 00-.232-.441c-.14-.163-.256-.186-.325-.116-.21.186.673.743.209 1.185-.233.209-.581.162-.93-.21-.209-.185-.348-.44-.371-.627zM31.553 47.04c.511-.488 1.069-.488 1.44-.093.372.395.349.952-.186 1.44-.51.488-1.068.488-1.44.093-.349-.372-.325-.953.186-1.44zm.93.975c.348-.325.394-.604.208-.79-.162-.185-.441-.162-.79.163-.348.325-.395.604-.209.79.163.209.442.186.79-.163zm1.439 2.115c-.325.301-.766.232-1.091-.094-.419-.44-.396-.952.116-1.44.534-.511 1.161-.464 1.603 0 .162.163.278.372.302.534l-.395.117a.672.672 0 00-.21-.372c-.255-.256-.557-.279-.859 0 .186 0 .349.093.511.255.279.302.325.72.023 1zm-.348-.326c.14-.14.14-.325-.023-.488-.14-.162-.349-.186-.488-.046-.14.116-.14.325.023.488.163.14.349.162.488.046zm2.44-.255l.302.302-2.811 1.254-.302-.302 2.81-1.254zm-.21 2.974l-.302.278-1.115-1.185.233-.232 1.138.07c.255.023.372-.047.441-.116.117-.117.117-.28-.046-.442a.505.505 0 00-.465-.186l-.07-.418c.302-.046.604.07.883.349.326.348.372.743.093 1.022-.162.14-.325.232-.743.209l-.674-.047.627.697zm1.51 1.51l-.232-.256-.325.302-.326-.348.326-.302-.79-.837.232-.232 1.696-.21.348.373-1.58.209.396.418.302-.279.325.349-.302.278.232.256-.302.279zm7.342-19.353c.883-1.347.534-3.16-.65-4.252a4.202 4.202 0 00-1.232-.813c-1.138-.464-2.625-.116-3.23.953-.487.883-.278 1.975.047 2.904.349.976.93 1.998 1.905 2.37.93.371 2.068.023 2.765-.697.163-.117.279-.28.395-.465z" fill="#fff"/><path d="M70.258 39.303v40.889a4.045 4.045 0 01-4.043 4.042H6.788a4.045 4.045 0 01-4.043-4.042V39.303a4.045 4.045 0 014.043-4.042h59.404c2.23 0 4.066 1.812 4.066 4.042z" fill="#FF7C6E"/><path opacity=".3" d="M26.023 62.419s.024 2.323-.697 3.717c-.72 1.394-.929 1.952-2.416 2.486-1.486.534-20.188 2.602-20.188 2.602v-6.32l23.301-2.485zm-.325-8.759s.21-2.37-5.738-3.252c-6.807-1-17.215-2.254-17.215-2.254v4.484l22.953 1.022z" fill="#000"/><path d="M3.35 66.833h19.352a3.321 3.321 0 003.322-3.322v-8.665a3.322 3.322 0 00-3.322-3.323H3.35a3.322 3.322 0 00-3.323 3.323v8.665a3.321 3.321 0 003.323 3.322z" fill="#8EBEED"/><path d="M18.194 63.553a3.806 3.806 0 100-7.611 3.806 3.806 0 000 7.611z" fill="#fff"/><path d="M19.177 62.855c-.016-.016.397-.095.904-.475.254-.19.523-.444.761-.793.238-.35.428-.777.508-1.237a2.85 2.85 0 00-.096-1.332 3.263 3.263 0 00-.491-.999c-.38-.508-.73-.714-.714-.73 0 0 .016.016.064.032.032.032.095.064.174.127.143.111.333.285.524.54.19.253.38.602.507.998.127.413.174.888.095 1.38a3.16 3.16 0 01-.523 1.268 2.889 2.889 0 01-.793.793 3.05 3.05 0 01-.666.349c-.08.032-.159.048-.19.063-.048.016-.064.016-.064.016z" fill="#fff"/></svg>