<svg width="142" height="154" fill="none" xmlns="http://www.w3.org/2000/svg"><path d="M129.526 126.98c5.489-7.733 16.467-39.218 10.978-69.597-4.94-30.38-25.248-54.13-58.18-56.892-14.82-1.657-27.993 1.104-34.03 4.97 0 0-3.294 2.21-3.294 4.972 0 0 34.03-4.971 48.301 10.495 12.624 13.808 3.293 30.379 3.293 30.379C91.105 62.354 77.933 75.61 77.933 75.61S60.368 92.734 54.88 102.676c-2.745 4.971-4.391 9.942-4.391 14.361 0 9.39 6.586 13.257 8.782 13.809 18.662 8.838 55.436 1.657 70.255-3.866z" fill="#E4002B"/><path d="M13.245 27.02C7.417 34.753-4.24 66.238 1.588 96.617c5.246 30.379 26.81 54.13 61.78 56.892 15.736 1.657 29.724-1.104 36.135-4.971 0 0 3.497-2.209 3.497-4.971 0 0-36.135 4.971-51.289-10.495-13.405-13.809-3.497-30.379-3.497-30.379C54.042 91.646 68.03 78.39 68.03 78.39s18.65-17.124 24.48-27.067c2.914-4.971 4.663-9.942 4.663-14.361 0-9.39-6.994-13.257-9.326-13.809-19.816-8.838-58.865-1.657-74.601 3.866z" fill="#00239C"/></svg>