<svg width="148" height="149" fill="none" xmlns="http://www.w3.org/2000/svg"><path d="M137.439 69.095c-1.7-7.4-1-14.9-2.3-22.4-1-6-4.1-11.1-8.7-14.9-7.3-6.1-15.5-6.6-24.2-8.1-9.7-1.7-14.9-8.5-22.2-14.7-13.7-11.5-35.9-11.4-45.8 5.6-4.9 8.5-5.3 18.9-6.1 28.5-.4 5.6-.9 11.2-1.3 16.8-.3 4.2-.1 9.7-3.7 12.5-3.2 2.5-7.8 2.2-11.3 4.3-3.4 1.9-6 5-8 8.4-4.7 8.4-4.5 18.4-2.5 27.7l144.6-.1c2.6-15.2-5.2-29.3-8.5-43.6z" fill="#fff"/><path d="M.339 108.895c.2 8.1 2.3 19.2 9 25 5.1 4.4 14.2 6.5 21.4 6.8 7.2.3 14.5-.4 21.7.1 11.1.8 18.9 1.7 29.5 4.5 10.7 2.7 22.2 4.6 32.8 1.6 6.7-1.9 12.6-5.6 16.6-10.5 2.3-2.8 4-6 6.4-8.7 2.4-2.7 5.6-5 7.6-8s2.7-7 .2-9.7l-145.2-1.1z" fill="#fff"/><path d="M87.698 48.5h-.2c-1-.2-1.6-1.2-1.6-2.1 0-.6.2-1.2.4-1.8.1-.2.1-.3.2-.5.2-.7.3-1.3 0-1.7l-.3-.4.5-.2c2.1-1.1 4.4-1.8 6.8-2l1.8-.2-3.4 2.7c-.2.1-.3.3-.4.4-.1.3-.1.7.1 1.1.1.2.1.5.1.7.1.9-.2 1.9-.9 2.7-.6.6-1.4 1.1-2.4 1.3h-.7zm-.1-6c.2.6.1 1.2-.2 2-.1.2-.1.3-.2.5-.2.5-.3 1-.4 1.4 0 .5.3 1.1.7 1.1.2 0 .4 0 .5-.1.5-.1 1.3-.4 1.9-1.1.5-.5.7-1.2.7-1.9 0-.2-.1-.4-.1-.6-.1-.6-.3-1.2 0-1.8.2-.3.5-.5.7-.7l.5-.4c-1.4.5-2.8.9-4.1 1.6z" fill="#272525"/><path d="M95.097 55.4h-1.5v61.2h1.5V55.4zM89.297.6h-1.5v30.6h1.5V.6zm2.7 0h-1.5v30.6h1.5V.6zm3.9 0h-1.5v30.6h1.5V.6zm2.4 0h-1.5v30.6h1.5V.6zm2.4 0h-1.5v30.6h1.5V.6z" fill="#0093B7"/><path d="M104.497 56.8l2.6 4V25.9l-2.6 3.9v27z" fill="#233865"/><path d="M108.497 60.7h-1.4V25.9h1.4c1 0 1.7.8 1.7 1.7v31.2c.1 1.1-.7 1.9-1.7 1.9zm-5.5-3.9h-16.9c-.8 0-1.5-.7-1.5-1.5v-24c0-.8.7-1.5 1.5-1.5h16.9c.8 0 1.5.7 1.5 1.5v24c0 .8-.7 1.5-1.5 1.5z" fill="#F96A57"/><path d="M102.597 55.4h-16.1c-.5 0-.9-.4-.9-.9V32.1c0-.5.4-.9.9-.9h16.1c.5 0 .9.4.9.9v22.5c0 .4-.4.8-.9.8z" fill="#233865"/><path d="M90.097 37h-2.8v9.1h2.8V37zm3.9 0h-2.8v9.1h2.8V37zm4 0h-2.8v9.1h2.8V37zm3.9 0h-2.8v9.1h2.8V37z" fill="#B3DEE5"/><path d="M88.897 34.5a.9.9 0 100-1.8.9.9 0 000 1.8zm4 0a.9.9 0 100-1.8.9.9 0 000 1.8zm4 0a.9.9 0 100-1.8.9.9 0 000 1.8zm4 0a.9.9 0 100-1.8.9.9 0 000 1.8z" fill="#F96A57"/><path d="M56.797 95.4c-.3-.8.1-2 .2-2.8.1-.9.2-1.5.1-2.3h4.2c-.2.7.3 1.5.9 1.9.7.4 1.4.5 2.2.7.7.2 1.5.5 2 1.1.2.2.3.5.3.7 0 .1 0 .6-.1.7h-9.8z" fill="#233865"/><path d="M56.497 41.9c1.3 3.1 3.3 5.7 5.1 8.6 1.8 2.8 4.9 10.2 5.1 13.5.2 3-.7 5.9-1.5 8.8-1.4 5.3-3 12.6-3.2 18.1-1.6.2-3.3.4-4.9.6-.5-6.9-.1-15.8 1.7-22.5.1-.5.3-1 .2-1.4-.1-.4-.3-.7-.5-1-3.6-5.2-8.8-14.6-12.4-19.7 3.4-2 6.7-4.2 9.8-6.6l.6 1.6z" fill="#077F93"/><path d="M46.697 20.4c-.9 0-1.9.1-2.6.8-.6.6-.8 1.7-.6 2.5.3 1.4 1.3 2.7 2.7 3.2 1.1.4 2.3.5 3.4.5s2.2 0 3.4-.1c.4-2 .6-4.1.7-6.3-2.3-.3-4.6-.6-7-.6z" fill="#C9433D"/><path d="M66.897 10.2c-.3 0-.5-.2-.7-.4-.4-.5-.5-1.1-.4-1.7.2-.9.8-1.7 1.5-2.1.1-.1.3-.2.5-.2 1-.4 2.1-.5 3.2-.5.1.3-.1.5-.3.7-.1.1-.2.1-.2.1h1c.1 0 .1 0 .2.1s0 .2 0 .3c0 .1-.1.1-.2.2 0 .3-.2.6-.5.7-.3.1-.6.1-.9.2-.6.1-1.2.3-1.7.6-.4.2-.5.5-.4.9 0 .1.1.2.1.4s-.2.3-.3.4c-.3.1-.6.3-.9.3z" fill="#233865"/><path d="M69.797 7.6c-.5 0-1.1.2-1.4.6-.1.3-.2.6-.4.8-.1.2-.3.4-.6.5-.2.1-.5 0-.7-.2v-.7c0-.5.1-.9.2-1.3.1-.3.2-.8.5-.9.3-.1.5-.2.8-.4.3-.2.7-.1 1-.3.3-.2.5-.6.4-.9-1 .1-1.1.1-2 .4-.3.1-1.4.5-1.6.7-.4.4-.6 1-1 1.4-.2.3-.4.5-.6.8-.1.3-.2.6-.2 1.1-.1 1-.1 2-.4 3.1-.3.6-.5 1.3-.8 1.9-.9 2.2-1.8 4.4-3.5 6.2-.4.4-.8.8-1.2 1-.6.2-1.2.2-1.8.1-1-.1-2-.2-3-.4 0 2.3-.2 4.4-.7 6.3 2.1-.1 4.3-.2 6.3-.2.9 0 1.9 0 2.7-.5.7-.5 1.1-1.3 1.4-2 .7-1.6 1.3-3.1 1.8-4.7.6-2.1.7-2.5 1.3-5.2 0-.2.4-1.2.4-1.4v-.1c.2-.5.5-1 .7-1.2.3-.3.7-.6.9-1 .2-.4.2-.9.4-1.4.2-.5.7-.9 1.1-1.3.1-.1.2-.2.2-.4.3-.2 0-.3-.2-.4z" fill="#D39D81"/><path d="M50.497 129.7l-1.5-.2 9.7-71.4h-13.9l-9.7 71.6-1.4-.2 9.8-72.9h16.9l-9.9 73.1z" fill="#233865"/><path d="M53.897 100.2h-15.6v1.5h15.6v-1.5zm2.5-18.9h-15.6v1.5h15.6v-1.5zm2.301-17.8h-15.6V65h15.6v-1.5zm-7.2 54.2h-15.6v1.5h15.6v-1.5z" fill="#233865"/><path d="M70.997 126.5l-9.6-68.4h-13.9l9.6 68.2-1.5.2-9.8-69.9h16.9l9.8 69.7-1.5.2z" fill="#233865"/><path d="M66.897 95.3h-15.6v1.5h15.6v-1.5zm-1.7-17.9h-15.6v1.5h15.6v-1.5zm-2.1-14.2h-15.6v1.5h15.6v-1.5zm7.2 51.9h-15.6v1.5h15.6v-1.5zm-26.2-20.6c.1 1.2.7 2.3 1.7 3 .6.4 1.3.7 1.9 1.1.5.5.9 1.3.5 1.9h-6.5c-.2-.7-.6-1.3-1-1.8-.5-.5-1.2-1-1.4-1.7-.2-.5 0-1.1.2-1.7.2-.6.4-1.1.6-1.7.1-.2.2-.4.3-.5.2-.1.3 0 .5 0 1.1.5 2.1.8 3.2 1.4z" fill="#233865"/><path d="M53.197 47.1c2.3 5.9 3.8 12.2 4.3 18.6.2 2.5.3 5-.5 7.4-.8 2.6-2.6 4.9-4.1 7.2-3.2 4.7-5.9 9.8-7.8 15.1-1.7-.2-4-1.5-5.7-1.7 1.7-6.7 3.5-11.1 6.3-15.6 1.7-2.7 3.1-3.7 3.2-6.8 0-1.9-.7-3.8-1.5-5.6-2.2-5.3-4.4-10.6-6.6-15.8 3.6-.7 8.2-3.3 11.2-5.3l1.2 2.5z" fill="#0093B7"/><path d="M43.197 59.4c.2-.6.8-1 1.3-1.4 2-1.2 4.3-2 6.6-2 1.4 3 2.3 6.2 2.6 9.5-2.2 1.6-4.8 2.9-7.4 3.7-1.2-2.4-2.2-5-3-7.5-.2-.8-.4-1.6-.1-2.3z" fill="#233865"/><path d="M50.297 57c.5.1 1 .3 1.5.6 1.3-3.2 1.8-6.8 1.5-10.3h-.8c-.1 3.4-.8 6.7-2.2 9.7z" fill="#233865"/><path d="M48.997 60a.7.7 0 100-1.4.7.7 0 000 1.4zm-4.1 1.3a.7.7 0 100-1.4.7.7 0 000 1.4zm10.7-13.8c.7-.8 2.1-2.4 2.2-3.4.1-.6-.1-1.1-.3-1.6-1.2-3.2-2.2-4.5-3.4-7.6-1-2.8-2.3-7.5-3.7-10.1-.8-1.5-1.9-3-3.5-3.8-1.3-.6-2.8-.6-4.1-.3-1.4.3-2.6 1-3.8 1.8-3.2 2.1-6 4.8-7.9 8 5.2 7 8.8 17.1 11.7 25.3 3.5 1.3 9.1-4.2 12.8-8.3z" fill="#F96A57"/><path d="M36.996 31.1c1.2 1.5 1.7 3.5 1.7 5.4 0 1.9-.5 3.8-.9 5.7-.9-1.7-1.8-3.5-2.6-5.2 1.2-1.7 1.9-3.8 1.8-5.9zm7.6-9.7c-.5-.5-1.3-.6-2-.6-1.4 0-2.8.5-4.1 1.3-1.4.8-2.6 1.9-3.5 3.3-.2.4-.5.8-.5 1.3-.1.5 0 1 .3 1.3.3.4.8.6 1.3.7 2 .5 4.2.4 6-.5 1.8-1 3.1-3 3-5 .1-.8-.1-1.4-.5-1.8z" fill="#C9433D"/><path d="M35.197 27c.2.5.8.8 1.3.9 1.5.3 3.2.1 4.6-.6 1.4-.7 2.5-2 2.9-3.5.1-.5.2-1.1 0-1.6s-.6-1-1.1-1.1c-.4-.1-.9.1-1.3.2-2.2.9-4.4 2.2-5.9 4.1-.3.5-.7 1.1-.5 1.6z" fill="#D39D81"/><path d="M33.897 18.9c-.1.2 0 .4 0 .5.7 2.1 1.5 4.2 2.2 6.3 2.5-.1 4.8-1.6 6-3.9-1.7-1.3-3.2-3.1-4.3-5-1.2.6-2.5 1.2-3.7 1.7 0 .1-.1.2-.2.4z" fill="#D39D81"/><path d="M40.397 20.1c-.9-1-1.7-2.1-2.4-3.3-1.2.6-2.5 1.2-3.7 1.7-.1 0-.2.1-.2.2 1.2 1.9 3.8 2.7 6.3 1.4z" fill="#233865"/><path d="M39.196 13.7l1.2 3.6c.1.3.2.5.1.8-.1.2-.2.4-.4.5-.9.9-2.2 1.5-3.6 1.5s-2.7-.4-3.7-1.2c-.9-.7-1.4-1.7-1.8-2.7-.4-.9-.7-1.9-.5-2.8.2-1.1 1-2.1 2-2.7 1-.6 2.2-.9 3.5-1 .7.6 1.6 1.2 1.7 2.1 0 .2 0 .5.1.6.2.3.7.3 1 .5.3.3.4.6.4.8z" fill="#D39D81"/><path d="M37.697 8.6c-.1.2-.3.3-.5.3.2-.5.2-1 .1-1.5-.7.6-1.6.9-2.5 1-.9.2-1.8.3-2.7.7-.8.4-1.6 1.1-1.6 2.1-.2-.1-.4 0-.6.1-.2.1-.2.3-.3.5-.5 1.4-.4 3.1.3 4.4.7 1.4 1.9 2.4 3.4 2.9-.1-.6-.2-1.3-.4-1.9-.4-.1-.7-.2-1.1-.4-.3-.2-.6-.5-.8-.8-.2-.3-.1-.8.1-1.1.2-.3.7-.4 1-.2.1.2.3.4.4.6.2.1.5.2.7.1-.6-.7-1-1.5-1.2-2.4-.1-.3-.1-.6.1-.8.1-.2.4-.2.6-.3 1-.2 2.1-.5 3-1 .9-.5 1.7-1.3 2-2.3z" fill="#233865"/><path d="M41.797 62.8l.3.3c.2.2.3.5.6.7.2.2.6.3.9.1-.2-.4-.4-.8-.5-1.2l-1.3.1z" fill="#D39D81"/><path d="M45.297 64c-.1-.5-.3-1-.4-1.5 1.8-.1 3.7-.2 5.4-.6 0 .2.1.2.1.4-1.6.5-3.2 1.1-5.1 1.7z" fill="#F96A57"/><path d="M45.697 63.4a.3.3 0 100-.6.3.3 0 000 .6z" fill="#233865"/><path d="M44.897 63.5c-1.5-.2-3 0-4.5.5-.3.1-.7.3-1 .2-.4 0-.7-.4-.6-.7 1-.4 2.1-.7 3.2-.7s2.4.2 3-.8c.3.4 0 .8.1 1 .1.2.1.5-.1.6l-.1-.1z" fill="#0093B7"/><path d="M44.796 63.2c-1.3.7-2.9 1-4.3 1.1-.4 0-.7 0-1.1.2-.3.2-.6.5-.4.8 1.1 0 2.2-.1 3.3-.5 1.1-.3 2.2-.9 3.1-.3.1-.4-.2-.7-.2-.9 0-.2 0-.5-.2-.4h-.2z" fill="#0093B7"/><path d="M35.597 40.5v-.2c.3-1.4 1.1-3.1 1.6-4.4.5-1.3.4-3.7 0-5-.4-1.4-1.7-2.5-3.1-2.4-1 .1-1.9.7-2.5 1.6-.6.8-.9 1.8-1.1 2.8-.6 2.1-1 4.3-1.2 6.6 2 .8 4.2 1.1 6.3 1z" fill="#F96A57"/><path d="M42.897 62.3c0-.1 0-.1-.1-.2l-.1-.1c-.5-.3-1-.8-1.4-1.3-.1-.1-.1-.2-.2-.2-.1-.1-.3-.1-.4-.1-.5-.1-1.1-.2-1.6-.4-.3-.1-.5-.2-.7-.4-.3-.2-.5-.5-.7-.7-.1-.1-.1-.2-.2-.3-.7-2.3-1.1-4.2-1.7-6.6-.9-4-1.2-6.9-.2-11.5-2.1.1-4.3-.1-6.4-1.1-.3 2.9-.3 5.9.3 8.8.9 4.9 3.2 9.4 5.9 13.5.6 1.3 1.1 2.6 1.9 3.8l.3.3c.2.1.4.1.5.2.3.1.5.3.7.3.3.1.6.1.7-.1l.1-.1h.2c.2 0 .3.1.5.1s.4-.1.4-.2v-.2c.1-.2.4-.1.6-.1.4 0 .5-.6.9-.8.1-.1.3-.1.4-.2.1-.1.3-.2.3-.3 0-.2-.2-.3-.4-.4-.3-.2-.7-.3-1-.6-.3-.2-.5-.6-.6-.9.3.1.5.2.8.4h1.2c.1-.3.1-.5 0-.6z" fill="#D39D81"/><path d="M72.597 12.8a3.9 3.9 0 100-7.8 3.9 3.9 0 000 7.8z" fill="#F96A57"/><path d="M74.097 3.5h-3.1v3.4h3.1V3.5z" fill="#F96A57"/><path d="M74.597.6h-4.1V4h4.1V.6z" fill="#233865"/><path d="M137.697 0h-102v1h102V0z" fill="#0093B7"/></svg>