<svg width="148" height="148" fill="none" xmlns="http://www.w3.org/2000/svg"><path d="M137.439 68.095c-1.7-7.4-1-14.9-2.3-22.4-1-6-4.1-11.1-8.7-14.9-7.3-6.1-15.5-6.6-24.2-8.1-9.7-1.7-14.9-8.5-22.2-14.7-13.7-11.5-35.9-11.4-45.8 5.6-4.9 8.5-5.3 18.9-6.1 28.5-.4 5.6-.9 11.2-1.3 16.8-.3 4.2-.1 9.7-3.7 12.5-3.2 2.5-7.8 2.2-11.3 4.3-3.4 1.9-6 5-8 8.4-4.7 8.4-4.5 18.4-2.5 27.7l144.6-.1c2.6-15.2-5.2-29.3-8.5-43.6z" fill="#fff"/><path d="M.339 107.895c.2 8.1 2.3 19.2 9 25 5.1 4.4 14.2 6.5 21.4 6.8 7.2.3 14.5-.4 21.7.1 11.1.8 18.9 1.7 29.5 4.5 10.7 2.7 22.2 4.6 32.8 1.6 6.7-1.9 12.6-5.6 16.6-10.5 2.3-2.8 4-6 6.4-8.7 2.4-2.7 5.6-5 7.6-8s2.7-7 .2-9.7l-145.2-1.1z" fill="#fff"/><path d="M68.2 10.2h-4.9v106.9h4.9V10.2z" fill="#AD685C"/><path d="M68.2 16.9h-4.9v6.5h4.9v-6.5z" fill="#233865"/><path d="M91.7 10.2h-4.9v106.9h4.9V10.2z" fill="#AD685C"/><path d="M91.7 16.9h-4.9v6.5h4.9v-6.5zm0 15.7h-4.9v6.5h4.9v-6.5z" fill="#233865"/><path d="M114.3 11.4H33v6.2h81.3v-6.2z" fill="#AD685C"/><path d="M58.5 45.4c0-1.6-.4-3.3-1.3-4.7-2-2.8-5.9-3.4-8.6-5.5-1.8-1.4-2.9-2-4-4.1 0 0-5.7 4.9-6.1 8.3-.5 3.4.1 6.9.5 10.3.5 4.7.8 10.3.9 15 5.6 2.2 11.8 1.7 17.7.4-.8-4.9-.4-9.9.4-14.8.2-1.7.5-3.3.5-4.9z" fill="#F96A57"/><path d="M60.9 36.1c-2.1 1.8-4.4 3.5-6.9 4.9-.5.3-1 .6-1.3 1.1-1.5 2.7 1.6 7.6 4.8 6 1.6-.8 3.1-3.9 4.5-5.2.9-.8 1.8-1.7 2.6-2.7-1.9-.7-3.3-2-3.7-4.1z" fill="#E25247"/><path d="M77.8 20.2c-.1 0-.1 0-.1.1-.6.5-1.2 1.1-2 1.1.5-.9 1.1-1.8 1.3-2.8.1-.4.1-.7-.2-.9-.3-.1-.4.8-.7 1.3-.3.5-.8 1.1-1.3 1.4.5-1.4.8-2.6.9-4 0-.1 0-.2-.1-.3-.1-.1-.3.1-.4.2-.2.3-.3.7-.4 1-.1.6-.3 1.1-.6 1.6-.1.3-.3.7-.6.7.3-1 .6-2.3.6-3.3 0-.2-.2-.4-.4-.5-.4.3-.4.9-.5 1.3-.2 1-.6 2-1.3 2.8-.1.1-.1.2-.2.2s-.1 0-.2-.1c-.3-.2-.3-.7-.3-1.1.1-.4.1-.9-.2-1.1-.1-.1-.2-.1-.3-.1h-.3v.2c.1.4 0 .9-.1 1.3s-.3.7-.4 1.1c-.2 1.1.7 2.1.6 3.2-2.4 4.8-6 9.3-9.8 12.6.4 2.1 1.8 3.4 3.7 4.1 3.8-4.2 6.9-9.9 8.8-15.4.2-.2.5-.4.8-.6.2-.2.4-.5.6-.8.9-1.1 2.3-1.5 3.1-2.6.1-.1.1-.2.1-.3.1-.2 0-.3-.1-.3z" fill="#D39D81"/><path d="M54.3 122.1c-.3-.8.1-2 .2-2.8.2-.9.3-1.5.2-2.3h5.1c-.2.7.4 1.5 1.1 1.9.8.4 1.7.5 2.6.7.9.2 1.8.5 2.4 1.1.2.2.3.5.3.7 0 .1 0 .6-.1.7H54.3z" fill="#233865"/><path d="M47.4 64.4c-.7 10.1 1.9 20 3.6 30 1.4 8 2.2 16 2.4 24.1 2.3 0 4.5-.3 6.7-1 .9-17.7 0-35.6-2.7-53.1h-10z" fill="#077F93"/><path d="M43.1 124.3c.8 0 1.7 0 2.5-.1.5 0 1-.1 1.3-.5.3-.3.2-.8.2-1.2 0-1.7.2-3.2-.5-5.3-1.2.1-2.4-.1-3.5-.5.3.6.1 1.2-.2 1.8-.3.5-.8 1-1.1 1.5-.4.7-.7 1.5-.7 2.3 0 .5.1 1.2.5 1.5.3.4.9.4 1.5.5z" fill="#233865"/><path d="M40.1 64.4c1.8 18.2 2.2 36.5 1.2 54.7 2.6.4 5.3.4 7.9-.1.4-18.2 3.9-36.4 2.4-54.6H40.1z" fill="#0093B7"/><path d="M52.5 24.7c-1.1-1-2.8-1.3-4.2-.8-1.4.5-2.5 1.7-3 3.1-.5 1.4-.5 3 0 4.4.3.9.8 1.8 1.6 2.3 1.3.8 3 .5 4.2-.5 1.2-1 1.8-2.4 2.1-3.9.3-1.1.4-2.2 0-3.3-.3-1.1-1.2-2-2.3-2.2l1.6.9z" fill="#E25247"/><path d="M52.9 25.6c-.9-.9-2.4-1.1-3.6-.7-1.2.4-2.2 1.5-2.6 2.7-.5 1.2-.4 2.6 0 3.8.3.8.7 1.6 1.4 2 1.1.7 2.6.4 3.6-.4s1.6-2.1 1.9-3.4c.2-.9.3-1.9 0-2.9-.3-.9-1-1.7-2-1.9l1.3.8z" fill="#233865"/><path d="M56.1 29.8c-.1-.8-.5-1.7-1-2.4V27c0-.2 0-.4-.1-.6-.2-.3-.6-.2-.9-.2-.3 0-.5 0-.8.1-.1 0-.1-.1-.2-.1-.5-.3-.6-.7-1.2-.9-.8-.3-1.9-.4-2.7-.1-1.5.6-2.5 3.1-2.3 4.7.1.8.5 1.4 1.1 1.9 0 1.7-.2 3.4-.6 5.1l6.6 2.7c-.6-1.5-.9-3.1-1.1-4.7.7-.3 1.7-1.1 1.9-1.3.3-.3 1.7-.9 1.7-1.4.3-.9-.3-1.5-.4-2.4z" fill="#D39D81"/><path d="M48.9 30.3c-.5-.6-1-1.2-1.3-1.9-.1-.3-.2-.6-.2-.9 0-.3.1-.6.4-.8.7 1.8 2 3.3 3.6 4.4 1.6 1 3.4 1.4 5.4 1.4-.1.3-.3.6-.6.7-.3.1-.6.1-.9 0-2.4-.3-4.8-1.2-6.4-2.9z" fill="#233865"/><path d="M49 30.2c-.3.8-.5 2-1 2.8-.7-.9-1.2-2.3-1.2-3.5 0-1.2.4-2.3 1.2-3.2-.2.7 0 1.1.5 1.7-.6 0-1.2 1-1.1 1.6 0 .6 1 .8 1.6.6z" fill="#233865"/><path d="M58.5 45.4c0-1.6-.4-3.3-1.3-4.7-2-2.8-5.9-3.4-8.6-5.5-1.8-1.4-2.9-2-4-4.1 0 0-5.7 4.9-6.1 8.3-.5 3.4.1 6.9.5 10.3.5 4.7.8 10.3.9 15 5.6 2.2 11.8 1.7 17.7.4-.8-4.9-.4-9.9.4-14.8.2-1.7.5-3.3.5-4.9z" fill="#F96A57"/><path d="M43.8 50c-.5.4-1.1.7-1.7.6-.9-.2-1.4-1.2-1.6-2-.7-2.4-1-4.9-.9-7.3.1-2.9 1-6 3.3-7.8.6-.5 1.4-.8 2.1-.4.4.2.7.7.9 1.2 1.2 2.6 1.9 5.5 1.7 8.4-.2 2.7-1.5 5.6-3.8 7.3z" fill="#E25247"/><path d="M58 50.4c-5.8-1.5-11.5-1.5-15.2 4.9-.5.5-2 1.1-3.2.8.2 2.9.3 5.9.3 8.6 5.6 2.2 11.8 1.7 17.7.4-.8-4.9-.2-6.7.2-12.1-.1-.2.1-2.3.2-2.6z" fill="#0093B7"/><path d="M48.8 36.8c-.1-.5-.2-1.1-.5-1.5-.4-.8-1.3-1.4-2.1-1.9 1.3 3.1 1.8 6.4 2 9.8.2 3.3-.1 6.7-.4 10 .7 0 1.4-.1 2.1-.1.3-5.6 0-11-1.1-16.3zm8.7 7.9c0-1.1 0-2.2-.3-3.2s-.9-2.1-1.9-2.5c1.2 4 1.5 8.3.8 12.3.4 0 .9.2 1.3.4.1-2.4.1-4.7.1-7z" fill="#0093B7"/><path d="M39.4 30.5c-.5 2.3-.7 4.6-.9 6.9-.1 1.4-.1 2.9.4 4.3s1.6 2.6 3 2.8c1.6.3 3.2-.8 4-2.2.8-1.4.9-3.1.7-4.7-.2-1.6-.5-3.2-.6-4.8v-1.7c-2.1 1-4.6 1.2-6.6-.6z" fill="#F96A57"/><path d="M55.7 10.2c-.1-.1-.3-.1-.5-.1H55c-.3-.1-.3-.5-.5-.6-.3-.2-.6.1-.9 0-.4 0-.5-.5-.8-.5-.3 0-.5.4-.8.4-.3 0-.5-.4-.8-.3-.1 0-.2.1-.3.2-.5.5-1.1 1-1.6 1.5-.3.3-.6.5-.7.9-.1.3-.1.7-.3 1-.1.1-.1.3-.2.4-.4.5-.7 1.1-1.1 1.6-2.7 3-4.8 6.5-6.1 10.3-.6 1.8-1.1 3.6-1.5 5.4 2 1.8 4.5 1.6 6.6.5.1-2.2.7-4.4 1.3-6.5.7-2.4 1.6-5.2 2.9-7.5.3-.5.6-1 1-1.4 0-.1.1-.1.2-.2.1 0 .3-.4.4-.4.3 0 .6-.1.9-.1.3 0 .7-.1.9-.3.3-.3 1.3-3 1.8-3.1.3-.1.3.1.5-.4 0-.2 0-.6-.2-.8z" fill="#D39D81"/><path d="M105.6 102.2H73.3v17.4h32.3v-17.4z" fill="#233865"/><path d="M100.901 79.3h-3.1v13.1c.6 0 1.1.5 1.1 1.1V105h.9V93.5c0-.6.5-1.1 1.1-1.1V79.3z" fill="#233865"/><path d="M101.101 96.7c0 .3-.2.5-.5.5h-2.5c-.3 0-.5-.2-.5-.5s.2-.5.5-.5h2.5c.3 0 .5.2.5.5z" fill="#F96A57"/><path d="M100.801 97.1h-2.7c.4 2.2.1 4.4-.1 6.6-.2 2.2-.2 4.6.8 6.5h1.4c1-2 1-4.3.8-6.5-.3-2.2-.7-4.5-.2-6.6z" fill="#F96A57"/><path d="M90.6 83.2l-1.3.6 2.9 12.5c.6-.2 1.1.1 1.3.7l3.3 11 .9-.3-3.3-11c-.2-.6.1-1.1.7-1.3l-4.5-12.2z" fill="#233865"/><path d="M96.5 99.5c.1.3-.1.5-.3.6l-2.4.7c-.3.1-.5-.1-.6-.3-.1-.3.1-.5.3-.6l2.4-.7c.3-.1.6.1.6.3z" fill="#F96A57"/><path d="M96.3 100l-2.6.8c1 2 1.3 4.2 1.8 6.4.4 2.2 1.1 4.4 2.7 6l1.3-.4c.4-2.2-.3-4.4-1.1-6.5-.9-2.1-1.9-4.1-2.1-6.3zM74.1 78.3l-3.1.6.5 28.1 9.3 3-6.7-31.7zm-2.5 1.6c-.2 0-.3-.1-.3-.3 0-.2.1-.3.3-.3.2 0 .3.1.3.3 0 .2-.1.3-.3.3z" fill="#F96A57"/><path d="M80.8 110l-6.7-31.7-.4.1 6.2 31.3.9.3zm-.6 1.6l-2.3-1.3c-.3-.1-.4-.4-.5-.7l-.5-1.9-4.8-.9-.4 1.1.3 7.7c0 .4.3.7.7.7h7.4c.4 0 .7-.3.7-.7l-.1-3.3c0-.2-.2-.5-.5-.7zm-1.8 3.3h-4.7c-.5 0-.9-.4-.9-.9s.4-.9.9-.9h4.7c.5 0 .9.4.9.9s-.5.9-.9.9z" fill="#233865"/><path d="M81.3 90.5H79v23.8h2.3V90.5z" fill="#F96A57"/><path d="M74.6 91.6c.6.1 1.2.2 1.8.2 0-.8 1-1.3 1.7-1 .5.2.7.7 1.2 1 .8.5 1.8.1 2.6-.4.8-.4 1.7-.9 2.6-.6.2.1.5.2.7.3.3.1.6 0 .6-.3.1-.2-.1-.4-.2-.6-.7-1-1.8-1.7-3-2.1-1.2-.4-2.4-.4-3.7-.3-.3 0-.7.1-1 .2-.2.1-.5.3-.7.4-.2.1-.5.2-.8.2-.3-.1-.2-.3-.4-.6-.6.1-1.1.2-1.7.2.2 1.2.2 2.3.3 3.4z" fill="#233865"/><path d="M80.3 90.7a.9.9 0 100-1.8.9.9 0 000 1.8z" fill="#F96A57"/><path d="M102 102.2H69.7v17.4H102v-17.4z" fill="#077F93"/></svg>