<svg width="148" height="148" fill="none" xmlns="http://www.w3.org/2000/svg"><path d="M137.439 68.095c-1.7-7.4-1-14.9-2.3-22.4-1-6-4.1-11.1-8.7-14.9-7.3-6.1-15.5-6.6-24.2-8.1-9.7-1.7-14.9-8.5-22.2-14.7-13.7-11.5-35.9-11.4-45.8 5.6-4.9 8.5-5.3 18.9-6.1 28.5-.4 5.6-.9 11.2-1.3 16.8-.3 4.2-.1 9.7-3.7 12.5-3.2 2.5-7.8 2.2-11.3 4.3-3.4 1.9-6 5-8 8.4-4.7 8.4-4.5 18.4-2.5 27.7l144.6-.1c2.6-15.2-5.2-29.3-8.5-43.6z" fill="#fff"/><path d="M.339 107.895c.2 8.1 2.3 19.2 9 25 5.1 4.4 14.2 6.5 21.4 6.8 7.2.3 14.5-.4 21.7.1 11.1.8 18.9 1.7 29.5 4.5 10.7 2.7 22.2 4.6 32.8 1.6 6.7-1.9 12.6-5.6 16.6-10.5 2.3-2.8 4-6 6.4-8.7 2.4-2.7 5.6-5 7.6-8s2.7-7 .2-9.7l-145.2-1.1z" fill="#fff"/><path d="M61.506 37.54c1.659-1.792 3.793-3.277 6.236-3.806 5.274 7.351 8.65 14.908 11.496 23.807.518.502.96 1.123 1.554 1.506.119.077.237.153.377.328.12.076.162.272.204.467.085.391.267.76.45 1.13.16.273.322.545.364.74l.127.587c.093.9.304 1.878.397 2.779-.272.16-.608.029-.846-.124-.259-.251-.322-.545-.385-.838-.064-.293-.03-.607-.093-.9-.127-.587-.352-1.152-.653-1.599-.161-.272-.441-.62-.679-.773-.259-.251-.692-.362-1.083-.278-.391.085-.642.344-.655.756-.034.314.246.663.31.956.343.642.219 1.487-.164 2.082a.764.764 0 01-.447.301c-.097.021-.335-.132-.356-.23l-.085-.39c-.008-.51-.135-1.097-.24-1.586-.204-.467-.582-.795-.785-1.262-.085-.391-.246-.663-.352-1.152-.063-.293-.505-.914-.13-2.018-2.476-5.296-5.438-9.055-8.667-13.574-2.122-2.712-4.019-4.86-5.895-6.91zm.392-10.3c.1-.3.1-.6 0-.9-.5-1.9-.6-3.9-.6-5.9-1.6.3-4.2-.3-5.7-.9.2 2.6-.2 4.8-1.2 6.8 1.9 1.4 4.5 1.9 6.8 1.4.2-.1.5-.2.7-.5z" fill="#D39D81"/><path d="M61.499 24.44c-.2-1.3-.2-2.7-.3-4-1.6.3-3.9-.3-5.4-.8.3 3.6 2 6 5.7 4.8z" fill="#233865"/><path d="M60.498 23.74c-.8 0-1.6-.1-2.3-.4-1-.5-1.9-1.3-2.5-2.3-.7-1.3-1-2.8-1.1-4.3-.1-1.2-.1-2.5.6-3.5.6-.8 1.5-1.2 2.4-1.5 1.6-.5 3.4-.5 5-.2.4.1.9.3 1.2.6.4.5.4 2.2.3 2.8-.4 1.9.1 1.5.1 2.8-.1 1.5-.6 3.1-1.5 4.3-.5.8-.1 1.6-2.2 1.7z" fill="#D39D81"/><path d="M54.898 17.14c0 1 .1 2.6.6 3.5-.8-.3-1.1-1.7-1.3-2.6-.2-.8-.1-1.7 0-2.6 0-.2.1-.5.2-.7.1-.1.3-.2.5-.3l1.8-.6c-.1 1.1-.4 2.2-.8 3.2 0-.2-.1-.4-.2-.6-.1-.2-.3-.3-.5-.2-.3.3-.3.6-.3.9z" fill="#233865"/><path d="M61.498 9.14c-1.3-.2-2.7-.2-4.1.1-.8.1-1.7.4-2.3.9-.7.6-1 1.6-1 2.6-.1.9 0 1.9-.1 2.8 3.5-.9 7-1.8 10.6-1.3-.3-.7 0-1.8-.1-2.5-.1-.8-.6-1.3-1.1-1.8-.5-.6-1.2-.7-1.9-.8z" fill="#C9433D"/><path d="M64.998 15.54c.2.1.3.2.5.2s.4-.1.5-.2c0-.1 0-.3-.1-.4-.7-1.1-1.9-1.7-3.2-1.9-1.3-.2-2.6 0-3.8.3-.9.2-1.7.5-2.5 1 .8.5 1.5 1 2.4 1.4.8.3 1.8.5 2.7.3.6-.1 1.2-.4 1.8-.6.5-.2 1.1-.4 1.7-.1z" fill="#F96A57"/><path d="M61.899 120.54c-.3-.8.1-2.1.2-3 .2-1 .3-1.6.2-2.4h5.4c-.3.8.4 1.6 1.2 2 .8.4 1.8.6 2.8.8 1 .2 1.9.5 2.5 1.1.2.2.4.5.4.8 0 .1 0 .6-.1.7h-12.6z" fill="#233865"/><path d="M53.398 60.04c.9 18.9 9.4 37.2 8.2 56.2 2.1-.1 4.3-.2 6.4-.4.8-18.6-.1-37.3-2.5-55.8h-12.1z" fill="#077F93"/><path d="M50.899 117.04c-.8-.4-1.5-1.2-1.2-2h-5.4c.1.9 0 1.5-.2 2.4-.2.8-.6 2.2-.2 3h9.7c-.3-1.1-.8-2.2-1.6-3-.4 0-.8-.2-1.1-.4z" fill="#233865"/><path d="M48.099 60.04c-.1 0-.1 0-.2.1-.4.3-.5.8-.5 1.2-1.1 8.1-.2 16.4-.7 24.6-.6 9.8-3.2 19.5-3.1 29.4 2.1.4 4.3.5 6.5.3 4.8-18.3 8.4-36.9 10.8-55.6h-12.8z" fill="#0093B7"/><path d="M51.498 25.94c4.6-1.1 9.6-.9 14.1.6 1 .3 2.1.8 2.5 1.8.2.7.1 1.4-.1 2.1-2.4 10.2-2.7 20.9-.6 31.2-6.6 2-13.7 2.6-20.6 1.6.1-6.6 0-13.1-.4-19.7-.2-4.5-.6-9.2.7-13.5.4-1.2.9-2.4 1.8-3.1.7-.5 1.6-.8 2.6-1z" fill="#F96A57"/><path d="M59.598 25.44c-1.7-.2-3.6-.3-5.2.3-.5.2-1 .5-1.2 1-.2.5-.1 1.1.3 1.5.3.4.8.7 1.3 1 1.1.6 2.3 1 3.6 1 1.3 0 2.5-.3 3.5-1 .6-.4 1.1-1 1.3-1.6.1-.4.1-.9-.1-1.3-.2-.2-.5-.4-.8-.5-.9-.2-1.8-.3-2.7-.4zm-13.5 13c.1-.4.3-.8.5-1.1 1.1-1.8 2.3-3.5 3.4-5.3.8 4.9-.3 10.2-3 14.4-.3-2.3-.6-4.7-.9-7v-1z" fill="#C9433D"/><path d="M50 26.34c-1.9.3-3.9 2.1-5.2 3.5-1.3 1.4-2.6 3.8-3.4 5.5-.4.9-.8 1.7-1.2 2.5 2.6 0 5 1 7.1 2.5.7-1.3 1.4-2.7 2.1-4.2 1.3-2.9 1.8-6.8.6-9.8z" fill="#F96A57"/><path d="M33 65.64c-.3.6-.5 1.1-.8 1.7-.1.2-.1.3-.2.5 0 .3.1.5.2.8.4.9.9 1.9 1.3 2.8.3-.3.4-.8.3-1.2-.1-.5-.5-.8-.6-1.3-.1-.4 0-.8.1-1.2.1-.5.3-.9.4-1.4.1-.2.1-.3.1-.5s-.2-.3-.4-.2H33z" fill="#D39D81"/><path d="M32.9 68.44c.5.4.9.9 1.2 1.5.3-.3.3-.8.2-1.1-.1-.4-.3-.7-.5-1.1-.2-.3-.4-.7-.3-1.1-.3.3-.5.6-.6.9v.9z" fill="#D39D81"/><path d="M47.3 39.94c-2-1.4-4.4-2.4-6.9-2.4-3.6 8.3-5.3 16.4-6.2 25.7-.4.6-.7 1.3-1.2 1.8-.1.1-.2.2-.3.4-.1.1-.1.3-.1.5 0 .4-.1.8-.2 1.2-.1.3-.2.6-.2.8v.6c.1.9.1 1.9.2 2.8.3.1.6-.1.8-.3.2-.3.2-.6.2-.9 0-.3-.1-.6-.1-.9 0-.6.1-1.2.3-1.7.1-.3.3-.7.5-.9.2-.3.6-.5 1-.5s.7.2.8.6c.1.3-.1.7-.1 1-.2.7.1 1.5.6 2 .1.1.3.2.5.2.1 0 .3-.2.3-.3v-.4c-.1-.5-.1-1.1-.1-1.6.1-.5.4-.9.5-1.4 0-.4.1-.7.1-1.2 0-.3.3-1-.3-2 1.3-5.7 3.4-10 5.6-15.1 1.5-3.1 2.9-5.6 4.3-8z" fill="#D39D81"/><path d="M72.298 39.04c-.5-1-1-2.1-1.4-3.2-1-3-1.9-6.2-4.1-8.6-1.8 1.8-2.8 4.4-2.9 7-.1 2.6.6 5.1 1.7 7.4.3.5.5 1 .8 1.5 2.4-1 4.3-2.4 5.9-4.1z" fill="#F96A57"/><path d="M71.282 111.226l18.559-.101-.132-6.071-18.559.1.132 6.072z" fill="#233865"/><path d="M70.501 107.712l19.951-.108-.055-2.554-19.951.108.055 2.554z" fill="#C9433D"/><path d="M75.785 105.958h9.098l-.026-1.312a1.1 1.1 0 00-.623-.986l-1.82-.857c-.71-.384-1.228-51.172-1.247-51.972l.205-8.407c-.016-.7-.53-1.288-1.33-1.27-.7.017-1.286.63-1.27 1.33l.596 8.389c.019.8-.363 51.609-1.153 52.027l-1.877 1.044a1.1 1.1 0 00-.576 1.014l.023 1z" fill="#F96A57"/><path d="M46.498 58.44c1.1-.2 1.9-1.1 2.3-2.1.4-1 .5-2.1.6-3.2.2-3.2.5-6.4.7-9.6 5.1.1 10.2-.2 15.3-1-.6 3.4-.1 6.8.5 10.2.6 3.4 1.4 6.7 1.5 10.1-7 1.5-14.3 1.9-21.5 1.2.5-1.9.7-3.7.6-5.6z" fill="#0093B7"/><path d="M51.099 44.64h1.9c.1-3.2.2-6.3 0-9.5-.3-3.1-.8-6.2-1.9-9.2-.4.1-.8.2-1.3.3 1.9 5.9 1.6 12.3 1.3 18.4zm13.8-.7c.6-2.9.6-5.9.6-8.9v-8.5c-.4-.1-.7-.3-1.1-.4-.1 6.1-.4 12.1-.8 18.2.3-.4.8-.5 1.3-.4z" fill="#0093B7"/><path d="M114.973 90.84c0-.6-4.2-1.1-9.4-1.1s-9.4.5-9.4 1.1v23.999c0 .6 4.2 1.1 9.4 1.1s9.4-.5 9.4-1.1v-24z" fill="#077F93"/><path d="M105.673 91.94c4.805 0 8.7-.359 8.7-.8 0-.442-3.895-.8-8.7-.8s-8.7.358-8.7.8c0 .441 3.895.8 8.7.8zm1.1 1.3l-.3.8c-1 3-1.6 4.9-3 7.599-1.7 3.2-4 5.7-6.6 7.3-.4.2-.8.5-1.2.4-.3-.1-.5-.3-.6-.7-.1-.4-.1-.8 0-1.3.2-1.4.5-2.7 1.1-3.9v-2.2c-.9 1.7-1.8 4.1-2.1 6-.1.5-.1 1.1 0 1.7.2.7.7 1.2 1.3 1.4.1 0 .3.1.4.1.6 0 1.1-.3 1.5-.6 2.8-1.7 5.2-4.4 6.9-7.7 1.5-2.8 2.1-4.7 3.1-7.8l.3-.8-.8-.3z" fill="#233865"/><path d="M107.273 94.74a1.1 1.1 0 100-2.202 1.1 1.1 0 000 2.201z" fill="#233865"/></svg>