<svg width="148" height="148" fill="none" xmlns="http://www.w3.org/2000/svg"><path d="M137.439 68.095c-1.7-7.4-1-14.9-2.3-22.4-1-6-4.1-11.1-8.7-14.9-7.3-6.1-15.5-6.6-24.2-8.1-9.7-1.7-14.9-8.5-22.2-14.7-13.7-11.5-35.9-11.4-45.8 5.6-4.9 8.5-5.3 18.9-6.1 28.5-.4 5.6-.9 11.2-1.3 16.8-.3 4.2-.1 9.7-3.7 12.5-3.2 2.5-7.8 2.2-11.3 4.3-3.4 1.9-6 5-8 8.4-4.7 8.4-4.5 18.4-2.5 27.7l144.6-.1c2.6-15.2-5.2-29.3-8.5-43.6z" fill="#fff"/><path d="M.339 107.895c.2 8.1 2.3 19.2 9 25 5.1 4.4 14.2 6.5 21.4 6.8 7.2.3 14.5-.4 21.7.1 11.1.8 18.9 1.7 29.5 4.5 10.7 2.7 22.2 4.6 32.8 1.6 6.7-1.9 12.6-5.6 16.6-10.5 2.3-2.8 4-6 6.4-8.7 2.4-2.7 5.6-5 7.6-8s2.7-7 .2-9.7l-145.2-1.1z" fill="#fff"/><path d="M95.494 111.548c2.327 0 4.213-.725 4.213-1.62 0-.895-1.886-1.62-4.213-1.62-2.326 0-4.212.725-4.212 1.62 0 .895 1.886 1.62 4.212 1.62z" fill="#233865"/><path d="M97.222 109.496c-1.08.54-2.268.54-3.456 0V89.731h3.456v19.765z" fill="#0093B7"/><path d="M84.802 44.154h-2.268v-6.156c0-.324.324-.648.648-.648h.972c.324 0 .648.324.648.648v6.156z" fill="#233865"/><path d="M88.69 40.913h-9.936c-.648 0-1.08-.54-1.08-1.08 0-.648.54-1.08 1.08-1.08h9.936c.648 0 1.08.54 1.08 1.08s-.432 1.08-1.08 1.08z" fill="#233865"/><path d="M95.927 45.99h-23.87v6.912h23.87V45.99z" fill="#0093B7"/><path d="M131.999 47.718H29.179v3.24H132v-3.24z" fill="#0093B7"/><path d="M98.194 44.802H95.71v9.396h2.484v-9.396z" fill="#233865"/><path d="M84.91 52.579h-3.35v30.457h3.349V52.579z" fill="#0093B7"/><path d="M86.206 51.174h-5.94v8.965h5.94v-8.965z" fill="#0093B7"/><path d="M88.258 59.706H78.106v1.837h10.152v-1.837zm-1.081 3.241h-7.884v3.348h7.884v-3.348zm10.262 32.617h-5.833V91.35a.232.232 0 00-.216-.216h-4.968a6.038 6.038 0 01-6.048-6.048v-4.212h5.94v4.212c0 .108.108.216.216.216h4.968c3.349 0 6.049 2.7 6.049 6.048v4.213h-.108z" fill="#233865"/><path d="M83.83 55.602a6.264 6.264 0 100-12.528 6.264 6.264 0 000 12.528z" fill="#0093B7"/><path d="M83.83 52.47a3.132 3.132 0 100-6.264 3.132 3.132 0 000 6.264zm-.757 14.905a3.132 3.132 0 100-6.265 3.132 3.132 0 000 6.265zM72.922 44.802h-2.484v9.396h2.484v-9.396zM61.58 46.314h-2.483v6.588h2.484v-6.588zm47.091 0h-2.484v6.588h2.484v-6.588z" fill="#233865"/><path d="M45.813 49.878c-.972-.648-2.052-1.188-3.24-1.296-1.188-.108-2.484.216-3.132 1.188-.648.972-.648 2.268-.108 3.348.432 1.08 1.296 1.837 2.268 2.593 1.944 1.62 4.86 3.132 7.02 4.536l2.268 1.296a32.42 32.42 0 003.564-6.264c-3.132-1.945-5.508-3.565-8.64-5.4z" fill="#C9433D"/><path d="M84.046 57.547c.108-.216.324-.324.324-.54 0-.216 0-.432-.108-.648-.108-.108-.216-.108-.324-.216.108-.108.108-.216.216-.324.108-.216.108-.324.108-.54 0-.216-.216-.324-.324-.324-.108-.108-.216-.108-.324-.108v-.216l-.108-.108c-.648-.324-1.188-.54-1.836-.864-.756.54-1.944.216-2.7.756-.324.216-.54.54-.756.756l-1.296.972c-.108.108-.432.54-.54.864-5.508 1.188-7.236 1.512-12.852 1.944-1.08.108-2.16.108-3.133-.216-1.08-.324-2.376-1.404-3.348-1.944-.864-.54-1.728-.972-2.484-1.512-.972 2.268-2.268 4.32-3.564 6.264 1.836.864 3.78 1.728 5.508 2.808.864.54 2.16.756 3.132.864.756.108 2.377-.108 3.133-.216 6.372-.54 15.336-4.752 16.848-4.752.54 0 1.08.108 1.728.216.54 0 1.188-.108 1.728-.216.108 0 .324-.108.432-.216h.216c.108 0 .216-.108.324-.216.108-.108.108-.216.108-.324 0-.108-.108-.216-.324-.324.216 0 .432 0 .54-.216a.825.825 0 00.216-.54c0-.216-.108-.432-.324-.432h-.108v-.108c-.216-.216-.108-.216-.108-.324z" fill="#D39D81"/><path d="M32.205 97.94c.972.108 2.052 1.296 2.7 1.944.864.756 1.944.864 2.808 1.296-.864 1.404-.756 3.78-1.62 5.292-.54-.756-2.916-.216-3.78.324-.864.54-1.945 1.188-2.7 1.944-.756.756-2.16 1.728-3.133 1.836-.324.108-.648 0-.972-.108-.108-.108-.54-.432-.648-.54l7.345-11.988z" fill="#233865"/><path d="M50.565 81.74c1.62 5.508 4.86 8.316 7.885 12.744 3.456 4.968 6.048 8.856 2.916 13.608-5.077 1.404-4.86 1.944-10.153 1.512-5.292-.432-10.476-1.404-15.768-2.376-.108-2.376 0-4.752.216-7.128 5.508.54 11.016.648 16.416.324C44.41 97.4 38.47 90.272 37.065 82.171c4.32-.108 9.288 0 13.5-.432z" fill="#077F93"/><path d="M27.344 101.72c.972.108 2.052 1.296 2.7 1.944.864.756 1.944.864 2.808 1.296-.864 1.404-.756 3.78-1.62 5.293-.54-.757-2.916-.216-3.78.324-.864.54-1.944 1.188-2.7 1.944-.756.756-2.16 1.728-3.132 1.836-.324.108-.648 0-.972-.108-.108-.108-.54-.432-.648-.54l7.344-11.989z" fill="#233865"/><path d="M49.161 81.956c-4.212.648-11.556.864-15.877.972.325 5.724 3.133 11.34 7.56 15.012 3.997 3.348 7.129 4.968 10.91 8.532-7.67.324-13.393-.432-20.738-2.808a32.682 32.682 0 000 9.181c10.693-.108 15.013 4.104 27.757 1.404 1.404-1.296 4.212-3.996 3.672-5.616-1.62-4.861-3.348-7.885-6.696-13.069-2.916-4.428-5.94-8.424-6.588-13.608z" fill="#0093B7"/><path d="M45.38 50.85c-.107-.756-.431-1.512-1.08-1.836-.431-.216-.971-.216-1.511-.216-1.836.108-3.78.216-5.4 1.188-.324.216-.649.432-.649.756-.108.432.325.756.649.972 1.836 1.189 4.104 1.729 6.264 2.269.432.108 1.08.216 1.404-.108.216-.217.324-.54.324-.864.216-.649.108-1.405 0-2.16z" fill="#C9433D"/><path d="M44.95 49.23c2.591 3.132 3.887 7.236 4.32 11.34.54 4.105.323 8.209.54 12.313.215 4.104.863 8.316 2.808 11.88-6.157 1.188-12.529 1.404-18.793.756-.432 0-.864-.108-1.188-.432-.432-.432-.432-1.188-.432-1.728.216-4.428-.864-8.856-1.512-13.284-.648-4.428-.648-9.829 1.188-13.933 2.052-4.428 7.452-8.748 10.908-7.452l2.16.54z" fill="#F96A57"/><path d="M34.04 58.843c-.863.54-.971 1.728-1.08 2.808-.323 5.616.109 11.34 1.729 16.74.108.432.324.972.648 1.188.432.324 1.08.216 1.512-.108.432-.324.756-.864.972-1.296 1.512-2.808 2.16-5.94 2.484-9.18.108-1.836.108-3.78-.432-5.616-.54-1.836-1.728-3.456-3.348-4.32-.648-.54-1.728-.756-2.484-.216z" fill="#C9433D"/><path d="M52.617 84.763c-1.944-3.564-2.376-7.776-2.592-11.88-.108-2.268-.216-6.156-.324-8.424-2.916 1.836-7.236 3.564-8.964 6.912-1.296 1.836-.972 5.616-1.62 7.452-1.08 2.916-2.916 3.996-4.428 6.696 5.94.648 11.988.432 17.928-.756z" fill="#0093B7"/><path d="M39.765 55.926c-1.297-1.188-3.025-2.16-4.753-2.376-.864-.108-1.944-.108-2.484 1.188 1.512-.648 3.24-.324 4.645.54 1.404.864 2.376 2.16 3.24 3.565 1.836 3.132 2.808 6.912 2.7 10.584.648-.108.864.324 1.188-.216.216-.54.108-1.404 0-2.052 0-1.944-.756-5.076-1.62-6.805-.864-1.944-1.512-3.132-2.916-4.428z" fill="#0093B7"/><path d="M44.3 52.578c.217-.108.217-.324.217-.54.324-2.376.54-4.644.864-7.02-1.728 0-3.348-.972-4.968-1.62-1.08 3.672-2.268 4.428-3.348 7.02 2.268.756 4.32 2.268 6.696 2.268.324 0 .432 0 .54-.108z" fill="#D39D81"/><path d="M41.817 43.938c-.648 3.024.648 5.4 3.024 6.372.216-1.728.432-3.456.648-5.292-1.296-.108-2.484-.648-3.672-1.08z" fill="#233865"/><path d="M44.948 33.786c-1.08 0-2.16.324-3.024.972-.972.756-1.62 1.836-2.052 2.916-.864 2.592-.324 5.616 1.296 7.776s4.32 3.456 7.128 3.348c1.296-2.16 2.592-4.428 3.024-6.804.432-2.484-.216-5.292-2.16-6.804-1.188-1.08-2.7-1.404-4.212-1.404z" fill="#D39D81"/><path d="M50.24 34.974c-1.295-1.08-2.915-1.62-4.535-1.728-1.188-.108-2.377.108-3.349.756-.972.54-1.728 1.512-2.16 2.592-1.08 2.376-.972 5.184.324 7.452.108-.432.324-.756.54-1.08a.825.825 0 01-.216-.54c-.108-.54-.108-1.188.108-1.728.108-.324.216-.756.54-.864.432-.216.972 0 1.188.324.216.216.325.54.325.864.971-.648 1.944-1.404 2.591-2.376 2.16.648 3.457.972 5.725.648 0-1.512.216-3.24-1.08-4.32z" fill="#233865"/><path d="M52.077 35.298c-.325-.756-1.08-1.404-1.837-1.728-1.944-1.08-4.212-1.296-6.48-1.512-1.836.864-3.24 2.484-3.888 4.428 1.512 1.512 3.564 2.592 5.724 3.132s4.32.54 6.48.432c-.215-1.62.54-3.348 0-4.752z" fill="#C9433D"/><path d="M54.344 42.102c.216 0 .325.108.54.108.217 0 .433 0 .433-.216.108-.216-.108-.432-.324-.648-1.513-1.08-3.133-2.16-4.969-2.484-2.052-.324-4.104.324-6.156-.108.216.432.648.756 1.08.972 1.08.648 2.16 1.296 3.24 1.836.756.432 1.404.864 2.16 1.08.756.216 1.62.324 2.377 0 .54-.216 1.08-.648 1.62-.54zM78.647 60.57l3.24-3.023c.325-.324.865-.324 1.297-.108l1.62 1.296c.324.216.324.648.108.972l-.756.972-1.08-.648.432-.756-.972-.756-2.916 3.24-.973-1.188z" fill="#F96A57"/><path d="M82.103 61.65l-2.268-2.16c-.216-.215-.648-.215-.972 0l-3.24 2.917c.648.648.648 1.728-.108 2.268-3.24 2.7-6.588 5.4-9.828 8.1-.972.756-2.052 1.728-2.377 2.916a2.633 2.633 0 000 1.296c.108.432.54.756.972.864.649.108 1.297-.432 1.729-.864 3.564-3.78 7.236-7.452 10.8-11.232a1.67 1.67 0 012.268-.108l2.916-2.916c.432-.324.432-.756.108-1.08z" fill="#233865"/><path d="M79.117 60.149l-2.088 1.877.722.803 2.088-1.877-.722-.803zm-38.597 1.07c-.432-1.512-.864-3.024-1.836-4.32-.972-1.297-2.484-2.16-3.996-1.837-1.404.325-2.376 1.62-2.7 3.025-.324 1.404-.108 2.808.324 4.212A33.857 33.857 0 0036.2 71.37c2.052-1.188 4.32-2.592 6.696-3.78-.972-2.052-1.728-4.212-2.376-6.372z" fill="#F96A57"/><path d="M71.41 70.29c-.433-.323-.973-.54-1.405-.863-.432-.324-1.08-.54-1.512-.324-.108.108-.216.108-.432.216-.54.216-.972-.324-1.512-.324-.432 0-.756.216-1.08.54-.324.324-.756.54-1.188.648-1.188.324-2.376.432-3.564.648-1.08.216-2.16.432-3.348.54-2.484.432-4.86.864-7.344 1.08-.864.108-1.728.216-2.592.216-.216 0-2.377.216-2.377 0-.755-1.62-1.511-3.24-2.16-4.968-2.376 1.188-4.644 2.592-6.696 3.78 1.512 2.592 3.24 5.076 4.968 7.56.432.54.864 1.188 1.512 1.512 1.08.54 2.484.216 3.673-.108 5.508-1.62 10.908-3.564 16.2-5.616.54-.108.972-.324.972-.216.216 0 .324.108.54.216l.972.648c.432.216.864.216 1.296.216h2.484c.108 0 .216 0 .432-.108.324-.216.216-.648.432-.864.216-.216.756 0 .972-.216.216-.216.108-.756.324-.972.216-.324.757-.324.757-.648.108-.324-.216-.648-.108-.864 0-.108.108-.108.108-.216.108-.108.324-.216.324-.432.107-.648-.325-.864-.649-1.08z" fill="#D39D81"/><path d="M79.04 61.053l-.36.402 1.205 1.082.361-.402-1.206-1.082zm3.17 4.702l-.972-1.62.972-1.512h1.728l.864 1.512-.864 1.62H82.21z" fill="#F96A57"/><path d="M87.719 105.392H65.254v-9.828h22.465v9.828zm-21.385-1.08h20.305v-7.668H66.334v7.668z" fill="#233865"/><path d="M86.206 100.208H66.982l-2.592 5.617v7.236h24.409v-7.236l-2.593-5.617zm-2.484-5.4H69.79V97.4h13.932v-2.592z" fill="#F96A57"/><path d="M88.151 105.608H65.362v.648h22.79v-.648z" fill="#233865"/><path d="M77.567 110.793h-1.62c-.757 0-1.297-.54-1.297-1.296v-4.861c0-.756.54-1.296 1.296-1.296h1.62c.757 0 1.296.54 1.296 1.296v4.861c0 .648-.54 1.296-1.295 1.296zm-1.513-6.481a.232.232 0 00-.216.216v4.861c0 .108.108.216.216.216h1.62a.232.232 0 00.216-.216v-4.861a.232.232 0 00-.216-.216h-1.62z" fill="#233865"/></svg>