<svg width="148" height="148" fill="none" xmlns="http://www.w3.org/2000/svg"><path d="M137.439 68.095c-1.7-7.4-1-14.9-2.3-22.4-1-6-4.1-11.1-8.7-14.9-7.3-6.1-15.5-6.6-24.2-8.1-9.7-1.7-14.9-8.5-22.2-14.7-13.7-11.5-35.9-11.4-45.8 5.6-4.9 8.5-5.3 18.9-6.1 28.5-.4 5.6-.9 11.2-1.3 16.8-.3 4.2-.1 9.7-3.7 12.5-3.2 2.5-7.8 2.2-11.3 4.3-3.4 1.9-6 5-8 8.4-4.7 8.4-4.5 18.4-2.5 27.7l144.6-.1c2.6-15.2-5.2-29.3-8.5-43.6z" fill="#fff"/><path d="M.339 107.895c.2 8.1 2.3 19.2 9 25 5.1 4.4 14.2 6.5 21.4 6.8 7.2.3 14.5-.4 21.7.1 11.1.8 18.9 1.7 29.5 4.5 10.7 2.7 22.2 4.6 32.8 1.6 6.7-1.9 12.6-5.6 16.6-10.5 2.3-2.8 4-6 6.4-8.7 2.4-2.7 5.6-5 7.6-8s2.7-7 .2-9.7l-145.2-1.1z" fill="#fff"/><path fill-rule="evenodd" clip-rule="evenodd" d="M65.64 123.266l-.852 3.417h6.503l-1.636-3.417h-4.016z" fill="#233865"/><path fill-rule="evenodd" clip-rule="evenodd" d="M71.29 126.683c0 .599-2.46-4.561-6.502 0v1.529c2.048.945 4.229.852 6.503 0v-1.529z" fill="#233865"/><path fill-rule="evenodd" clip-rule="evenodd" d="M71.29 128.81s-3.63.426-6.502 0v-1.529s2.939 1.676 6.503 0v1.529zm-12.273-5.544l.85 3.417h-6.502l1.636-3.417h4.016z" fill="#233865"/><path fill-rule="evenodd" clip-rule="evenodd" d="M53.365 126.683c0 .599 2.46-4.561 6.503 0v1.529c-2.048.945-4.229.852-6.503 0v-1.529z" fill="#233865"/><path fill-rule="evenodd" clip-rule="evenodd" d="M53.365 128.81s3.63.426 6.503 0v-1.529s-2.939 1.676-6.503 0v1.529z" fill="#233865"/><path fill-rule="evenodd" clip-rule="evenodd" d="M62.422 66.007v-.027l10.731-.412c-1.396 20.252-1.981 39.4-2.965 58.363H65.16c-.08-16.051-2.606-47.114-2.26-51.302-1.556 18.337-3.019 35.677-3.644 51.341l-4.707-.093c-.838-25.065-1.277-44.174-1.942-58.243l9.814.373z" fill="#0093B7"/><path fill-rule="evenodd" clip-rule="evenodd" d="M76.782 46.446c-.026.04.16.4.173.452.186.506.36 1.01.492 1.53.426 1.595 1.01 3.404.585 5.066-.359 1.423-1.157 2.353-2.274 3.205-.359.266-1.01.412-1.45.478-.026 0-.465-.013-.465-.026-.08-.253-.04-.546-.066-.798-.08-.718-.426-1.782-.146-2.474.2-.491 1.117-1.728 1.077-2.207-.027-.32-.293-.691-.386-1.01-.226-.705-.399-1.41-.665-2.102-.093-.252-.518-.877-.492-1.13.014-.12.745-.306.838-.346.718-.266 1.955-.864 2.753-.598l.026-.04zm-27.112 0c.026.04-.16.4-.173.452a15.21 15.21 0 00-.492 1.53c-.426 1.595-1.011 3.404-.586 5.066.36 1.423 1.157 2.353 2.274 3.205.36.266 1.01.412 1.45.478.026 0 .465-.013.465-.026.08-.253.04-.546.067-.798.08-.718.425-1.782.146-2.474-.2-.491-1.117-1.728-1.077-2.207.026-.32.292-.691.386-1.01.225-.705.398-1.41.664-2.102.093-.252.519-.877.492-1.13-.013-.12-.744-.306-.837-.346-.718-.266-1.955-.864-2.753-.598l-.027-.04z" fill="#D39D81"/><path fill-rule="evenodd" clip-rule="evenodd" d="M73.445 35.423c.24-.213 5.12 6.263 6.17 9.454.106.572-5.758 3.47-6.635 2.832l.465-12.286zm-20.265.173c-.24-.213-5.12 6.063-6.17 9.268-.266.705 4.933 3.165 5.944 2.527l.226-11.795z" fill="#F96A57"/><path fill-rule="evenodd" clip-rule="evenodd" d="M73.591 35.476c-3.31-1.57-7.5-2.58-10.797-2.54-3.271.04-6.343 1.13-9.588 2.593a.486.486 0 00-.279.426c-.04 3.258-.439 32.073-.439 32.073 5.785 2.048 17.38 1.024 20.665.599.438-.067.212-22.114.438-33.151z" fill="#F96A57"/><path fill-rule="evenodd" clip-rule="evenodd" d="M65.28 31.114c0-.532-.292-.212-.677-.585a2.011 2.011 0 00-1.423-.572c-.878.014-2.18-.159-2.061.705.212 1.423.026 2.354-.24 2.394-.425.08.625 5.798 3.046 4.508 1.742-.931 2.393-4.136 1.968-4.548-.133-.133-.705-.186-.719-1.09l.107-.812z" fill="#D39D81"/><path fill-rule="evenodd" clip-rule="evenodd" d="M56.77 22.045c-.027.08-.013-.173-.027-.252-.013-.147-.04-.306-.053-.452-.066-.559-.106-1.117-.04-1.676a4.886 4.886 0 012.434-3.67c3.191-1.822 8.949-1.29 10.04 2.832.305 1.157.319 2.74-.067 3.883-.04.107-.399.133-.479.133-.532.053-1.05.08-1.582.08-.944-.013-1.875.173-2.806.266-1.223.106-2.447.093-3.67.133a7.458 7.458 0 01-.771 0c-.213-.013-.44-.027-.652-.053-.412-.053-2.22-.412-2.22-1.157l-.107-.067z" fill="#C9433D"/><path fill-rule="evenodd" clip-rule="evenodd" d="M67.78 24.612c.2-1.303 2.488-1.01 2.222.638-.12.758-1.516 2.354-2.208 1.303-.319-.492-.04-1.41.133-1.915l-.146-.026zm-9.56-.054c-.2-1.303-2.487-1.01-2.221.639.12.758 1.516 2.353 2.207 1.303.32-.492.04-1.41-.133-1.915l.147-.027z" fill="#D39D81"/><path fill-rule="evenodd" clip-rule="evenodd" d="M57.275 21.633s.32 6.09 1.742 7.939c1.423 1.848 3.764 3.151 4.575 2.952.81-.186 3.417-2.154 4.095-3.404.599-1.09 1.277-6.263 1.224-7.407 0 .013-6.263-5.066-11.636-.08z" fill="#D39D81"/><path fill-rule="evenodd" clip-rule="evenodd" d="M57.395 23.787c.04-.013.067-.212.067-.239.08-.306.186-.612.306-.904.12-.293.239-.585.412-.851.026-.04.2-.213.2-.266 0-.04-.36-.027-.386-.027-.213.027-1.064.133-1.157.372-.067.16.04.466.08.612.12.439.279.878.478 1.303zm11.357.16c-.04-.013-.067-.253-.067-.28a9.518 9.518 0 00-.306-1.05c-.12-.332-.24-.678-.412-.997-.027-.053-.2-.253-.2-.32 0-.052.373-.026.386-.026.213.027 1.077.16 1.184.426.066.186-.04.532-.093.704a11 11 0 01-.492 1.543z" fill="#233865"/><path fill-rule="evenodd" clip-rule="evenodd" d="M56.823 21.873s.665.678 1.53.744c.252.027.531-.106.77-.186.44-.16.878-.32 1.33-.465 1.277-.4 2.62-.585 3.963-.413.652.08 1.29.24 1.915.466.519.2 1.024.638 1.609.612.558-.027 1.05-.639 1.383-1.038-.013-.013-6.33-5.226-12.5.28z" fill="#F96A57"/><path fill-rule="evenodd" clip-rule="evenodd" d="M63.831 37.71s1.33-.067 1.782 1.09c.04.107 2.034-5.545-.293-6.263.226 1.636-.146 3.378-1.489 5.173zm-1.183 0s-1.33-.067-1.782 1.09c-.04.107-2.035-5.545.292-6.263-.212 1.636.16 3.378 1.49 5.173z" fill="#C9433D"/><path fill-rule="evenodd" clip-rule="evenodd" d="M74.084 44.398h-22.1v16.183h22.1V44.398z" fill="#077F93"/><path fill-rule="evenodd" clip-rule="evenodd" d="M75.2 55.116c.013-.013.027.253.027.292l.08.838c.066.718.119 1.423.119 2.141 0 2.061-1.795 3.87-3.577 2.686-.532-.346 1.476-1.622 1.742-1.755.027-.013.093-.027.106-.04.093-.106 0-.878.027-1.064.013-.16.133-.944.027-1.063-.213-.227-.639-.16-.719-.599-.132-.705 1.596-1.636 2.062-1.636l.106.2zm-24.2 0c-.014-.013-.027.253-.027.292l-.08.838c-.066.718-.12 1.423-.12 2.141 0 2.061 1.796 3.87 3.577 2.686.532-.346-1.476-1.622-1.742-1.755-.026-.013-.093-.027-.106-.04-.093-.106 0-.878-.027-1.064-.013-.16-.133-.944-.026-1.063.213-.227.638-.16.718-.599.133-.705-1.596-1.636-2.061-1.636l-.107.2z" fill="#D39D81"/><path fill-rule="evenodd" clip-rule="evenodd" d="M74.084 44.399l-2.314-1.556H53.938l-1.955 1.556h22.1z" fill="#233865"/><path d="M64.337 44.492h-2.486v6.396h2.486v-6.396z" fill="#FEFCED"/><path d="M105.195 103.494l1.879-.581V81.107L105.195 79v24.494z" fill="#233865"/><path d="M105.195 79H82.58v24.509h22.615V79z" fill="#077F93"/><path d="M95.942 127.3L82 125.391v-22.249h13.942V127.3z" fill="#233865"/><path d="M111.258 124.689L95.941 127.3v-24.158l15.317-.458v22.005z" fill="#077F93"/></svg>