<svg width="148" height="148" fill="none" xmlns="http://www.w3.org/2000/svg"><path d="M137.439 68.095c-1.7-7.4-1-14.9-2.3-22.4-1-6-4.1-11.1-8.7-14.9-7.3-6.1-15.5-6.6-24.2-8.1-9.7-1.7-14.9-8.5-22.2-14.7-13.7-11.5-35.9-11.4-45.8 5.6-4.9 8.5-5.3 18.9-6.1 28.5-.4 5.6-.9 11.2-1.3 16.8-.3 4.2-.1 9.7-3.7 12.5-3.2 2.5-7.8 2.2-11.3 4.3-3.4 1.9-6 5-8 8.4-4.7 8.4-4.5 18.4-2.5 27.7l144.6-.1c2.6-15.2-5.2-29.3-8.5-43.6z" fill="#fff"/><path d="M.339 107.895c.2 8.1 2.3 19.2 9 25 5.1 4.4 14.2 6.5 21.4 6.8 7.2.3 14.5-.4 21.7.1 11.1.8 18.9 1.7 29.5 4.5 10.7 2.7 22.2 4.6 32.8 1.6 6.7-1.9 12.6-5.6 16.6-10.5 2.3-2.8 4-6 6.4-8.7 2.4-2.7 5.6-5 7.6-8s2.7-7 .2-9.7l-145.2-1.1z" fill="#fff"/><path d="M78.94 131.489c-.3-.8.1-2.1.2-3 .2-1 .3-1.6.2-2.4h5.4c-.3.8.4 1.6 1.2 2 .8.4 1.8.6 2.8.8 1 .2 1.9.5 2.5 1.1.2.2.4.5.4.8 0 .1 0 .6-.1.7h-12.6z" fill="#233865"/><path d="M83.44 90.59c0-10.3.5-19.2-1.2-29.3l-12.9 1.3c-.7 8.1 1.6 16.6 2.9 24.7 2.2 13.4 3.1 25.1 5.9 39.4 2.3.1 5.8.3 8.1.4-2.5-11-2.8-25.1-2.8-36.5z" fill="#077F93"/><path d="M62.84 132.989c.8 0 1.7 0 2.5-.1.5 0 1-.1 1.3-.5.3-.3.2-.8.2-1.2 0-1.7.2-3.2-.5-5.3-1.2.1-2.4-.1-3.5-.5.3.6.1 1.2-.2 1.8-.3.5-.8 1-1.1 1.5-.4.7-.7 1.5-.7 2.3 0 .5.1 1.2.5 1.5.3.5.9.5 1.5.5z" fill="#233865"/><path d="M61.14 62.59c-2.7 21.7-2.4 43.699.9 65.299 2.2-.2 4.3-.4 6.5-.6.1-13.5 1.9-26.9 3.6-40.3 1.1-8.1 2.1-16.3 3.2-24.4h-14.2z" fill="#0093B7"/><path d="M88.24 37.09c-1.9-2.1-3.7-4.4-5.2-6.9-.6-.9-1-2-1.9-2.4-1.2-.5-2.5.2-3.2 1.4-.9 1.5-.8 3.5-.2 5.1.6 1.7 1.7 3 2.8 4.3 1.4 1.6 2.8 3 4.3 4.3.6-2.2 1.6-4.3 3.4-5.8z" fill="#F96A57"/><path d="M106.139 54.19c1.1-.1 2.1-.2 3.1-.5-.6-.6-1-1.4-1.6-2.1-.6-.7-1.3-1.2-2.2-1.3-.7 0-1.3.2-2 .3h-.4c-5.4-3.8-10.8-9.1-14.8-13.6-1.8 1.5-2.8 3.6-3.5 5.8 4.5 4 9.3 8.1 14.8 10.7.1.3.3.6.6.8.2.1.4.1.6.1.9 0 1.8-.1 2.7-.1.8 0 1.6-.1 2.4-.1h.3z" fill="#D39D81"/><path d="M81.64 27.79c.7.6 1 1.6 1.2 2.5 1.1 5.3-.4 10.7-.9 16.1-.5 5.8 0 11.7 1.1 18.6-7.8 1-14.9.8-22.7.5.9-5.7-.3-12.5-1.3-18.1-.9-5.7-1.6-11.7.4-17 .3-.9.7-1.8 1.4-2.4.9-.9 1.6-1.2 2.7-1.4 4.9-.8 10.6-.7 15.6.2.9.1 1.8.3 2.5 1z" fill="#F96A57"/><path d="M60.84 64.49h5.1c-1.4-12 .4-24.6-6.2-33.8-2.2 5.3-1.5 11.3-.4 17 .9 5.2 2.2 11.4 1.5 16.8zm9-38.2c-.8.2-1.6.4-2.2.9-.7.5-1.2 1.5-1.2 2.5 0 .9.5 1.6 1 2.2 1.2 1.5 2.8 2.5 4.5 2.7 1.7.3 3.4-.2 4.8-1.3.7-.5 1.4-1.9 1.8-2.9.3-1 .3-1.7-.3-2.4-.4-.5-.9-.7-1.4-.9-2.6-.8-5.3-1-8-.4l1-.4z" fill="#C9433D"/><path d="M51.54 54.99c2.2-5 5.3-10 8.5-14.2-1.6-2.3-3.7-4.2-6.3-5.2-.8 1.3-1.6 2.6-2.2 4-2.2 4.6-3.7 9.6-4.8 14.7-.5-.1-1 .1-1.4.4-.5.4-.9 1.1-1.2 1.7-.3.6-.6 1.3-1.1 1.7-.4.4-.9.7-1 1.2-.2.7.4 1.3.9 1.8.3.3.7.6 1.2.6.3 0 .6-.2.9 0 .2.1.2.3.3.4.3.3.9.2 1.3 0s.9-.5 1.3-.4c.2 0 .4.2.6.2.3 0 .5-.2.6-.4.1-.2.2-.5.3-.7.2-.6.6-1.2 1.1-1.7.5-.4.4-.3.6-.9.2-.6.2-2.1.1-3.1.3.1.3 0 .3-.1z" fill="#D39D81"/><path d="M65.04 34.59c.7-1.3 1.1-3 .8-4.5-.3-1.5-1.4-2.9-2.8-3-1-.1-1.9.5-2.7 1.1-3 2.1-5.5 5-7.5 8.2 2.7 1.1 4.9 3 6.7 5.5.9-1.2 1.9-2.5 2.9-3.7.9-1.2 1.9-2.3 2.6-3.6z" fill="#F96A57"/><path d="M69.24 26.99c-.5.2-.9.4-1.2.9-.4.7-.4 1.8-.1 2.7.4.9 1 1.7 1.7 2.1.7.5 1.4.7 2.2.8 1.1.2 2.2.1 3.2-.3 1-.5 1.8-1.4 2.1-2.7.2-.9.2-2.1-.4-2.9-.3-.4-.8-.6-1.2-.7-2.2-.7-4.3-.6-6.3.1z" fill="#D39D81"/><path d="M70.64 18.09c-.4.2-.8.7-.8 1.2 0 3-.9 7.2-1.6 9.3 2.5 1 5.2 1.2 7.8.6-.1-2.6-.2-5.3-.4-7.9-1.2-.1-3.1-3.2-4.3-3.3-.2 0-.4 0-.7.1z" fill="#D39D81"/><path d="M71.44 18.09h-.2c-3 4.1.4 8.2 4.8 8.8-.1-1.8-.2-3.6-.2-5.5-1.4-.1-3.2-3.2-4.4-3.3z" fill="#233865"/><path d="M72.34 9.89c1.5-.3 4.7-.2 6.3.1 1 .3 1.1 3.2 1.5 4.1.2.5-.5 1.3-.5 1.8 0 1.5.4 1.2.1 2.7-.5 2.5-.9 4-2.9 5.7-1 .9-3.3.4-4.3-.5-.9-.8-2-1.5-2.6-2.6-.9-1.7-1.4-3.7-1.5-5.6-.1-1.4 0-2.8.8-3.9.7-1.1 1.9-1.6 3.1-1.8z" fill="#D39D81"/><path d="M82.339 9.19c-.3.4-.6.9-.9 1.3.5.1 1.1.1 1.6-.2-.4 1.3-1.6 2.4-2.9 2.8-1.3.4-2.8.4-4.1.1-.6-.1-1.2-.3-1.8-.2-1.1.2-1.8 1.3-2.3 2.3-.3-.5-.8-1-1.4-.9-.4.1-.8.5-.9.9-.2.6-.1 1.2.2 1.7.3.5.9 1 .8 1.6 0 .8-1.1 1.3-1 2.1-1.5-2-1.8-4.7-2-7.3 0-.5-.1-1.1.3-1.4.3-.3.8-.4 1.1-.7.3-.4.2-.9.4-1.4.2-.7.7-1.2 1.4-1.4.6-.3 1.3-.3 2-.4 1.5-.1 3-.2 4.4.2.8.2 1.6.7 2.5.9.8.3 1.8.4 2.6 0z" fill="#233865"/><path d="M113.939 52.19h-66.3v3.9h66.3v-3.9z" fill="#F8DDBF"/><path d="M56.438 52.09h-1v2.1h1v-2.1zm2.201 0h-1v2.1h1v-2.1zm2.2 0h-1v2.1h1v-2.1zm2.199 0h-1v2.1h1v-2.1zm2.301 0h-1v2.1h1v-2.1zm2.199 0h-1v2.1h1v-2.1zm2.2 0h-1v2.1h1v-2.1zm2.201 0h-1v2.1h1v-2.1zm2.2 0h-1v2.1h1v-2.1zm2.3 0h-1v2.1h1v-2.1zm2.2 0h-1v2.1h1v-2.1zm2.2 0h-1v2.1h1v-2.1zm2.199 0h-1v2.1h1v-2.1zm2.2 0h-1v2.1h1v-2.1zm2.201 0h-1v2.1h1v-2.1zm2.299 0h-1v2.1h1v-2.1zm2.201 0h-1v2.1h1v-2.1zm2.2 0h-1v2.1h1v-2.1zm2.2 0h-1v2.1h1v-2.1zm2.199 0h-1v2.1h1v-2.1zm2.2 0h-1v2.1h1v-2.1zm2.3 0h-1v2.1h1v-2.1zm2.2 0h-1v2.1h1v-2.1zm2.2 0h-1v2.1h1v-2.1zm-64.598 7.9c.5.4 1.1.6 1.7.7 1.6.3 3.3.3 4.5-.8 1.1-.9 1.4-2.4 1.7-3.8.2-.8.4-1.8-.1-2.6-.5-.9-1.5-1.3-2.5-1.4-1.6-.1-3.3.4-4.4 1.5-1.2 1.1-1.8 2.7-1.7 4.3 0 .8.2 1.6.8 2.1z" fill="#233865"/><path d="M46.34 59.39a2.8 2.8 0 10-.001-5.6 2.8 2.8 0 000 5.6z" fill="#F96A57"/><path d="M102.539 51.59c0-.2-.3-.4-.5-.5-.5-.1-1 0-1.5.1-.2 0-.3.1-.4.2-.1.2 0 .4 0 .6l.3.9c.1.2.2.5.3.7.2.2.4.3.7.3.3-.1.5-.4.5-.8.1-.3 0-.7.2-.9.2-.2.5-.4.4-.6zm3.8-.9c.4-.1.8.1 1 .3.3.3.5.6.7.9.1.3.3.5.4.8 0 .1.1.2.1.2 0 .2-.2.2-.3.3-.3 0-.5.1-.8-.1-.6-.3-.9-1.6-1.1-2.4z" fill="#D39D81"/><path d="M110.139 52.99c.1.1.1.1.1.2s-.1.2-.2.2h-.9c-.6-.1-.5-.3-1-.7-.5-.4-.8-.9-.9-1.5.3-.1.6-.2.9-.1.3.1.5.3.7.5.5.4.9.9 1.3 1.4zm-4.5-2.8c-.3-.1-.6.2-.8.5-.1.3 0 .7.1 1 .1.3.3.6.4.9.1.2.1.5.2.7.1.2.3.4.5.4.3 0 .5-.2.6-.4.1-.2.1-.5.1-.8-.1-.6-.3-1.2-.5-1.8-.2-.1-.4-.4-.6-.5z" fill="#D39D81"/><path d="M104.939 53.09c.1-.4.2-.9.2-1.3 0-.3 0-.7-.2-.9-.2-.2-.5-.5-.8-.4-.2.1-.4.3-.5.5-.1.2-.1.5-.1.7 0 .5 0 1 .2 1.5.1.2.2.5.5.5.2 0 .4 0 .5-.2.1-.1.2-.3.2-.4z" fill="#D39D81"/><path d="M53.34 68.59l-4.1 58.099h1.7l7.9-58.1h-5.5zm50.3 0l4.2 58.099h-1.7l-8-58.1h5.5z" fill="#233865"/><path d="M55.74 69.19c-.7 4.3-1.7 8.5-3 12.7 2.2.3 4.4.8 6.4 1.6 1.1-2.1 4-2.9 6.6-2.7 2.6.2 4.9 1.3 7.3 2.2 1.3.5 2.8.9 4.2 1 .2 0 .5 0 .7.1h1c.2 0 .5 0 .7-.1 1.4-.2 2.9-.6 4.2-1 2.4-.9 4.8-1.9 7.3-2.2 2.6-.2 5.5.7 6.6 2.7 2-.8 4.199-1.4 6.399-1.6-1.3-4.2-2.2-8.4-3-12.7h-45.4z" fill="#AD685C"/><path d="M100.04 79.09h3.4c-.6-2.3-1.2-4.7-1.6-7-.2-.9-.4-1.9-.5-2.8h-45.6c-.2 1-.4 1.9-.5 2.9-.5 2.3-1 4.7-1.6 7h3.4c.7-2.3 1.2-4.6 1.7-6.9h39.6c.4 2.2 1 4.5 1.7 6.8z" fill="#233865"/><path d="M113.04 66.29h-67.9v3.7h67.9v-3.7z" fill="#AD685C"/><path d="M113.04 65.09h-67.9v1.2h67.9v-1.2z" fill="#fff"/><path d="M50.94 68.59l-4.6 63.799h1.9l8.7-63.8h-6zm55.2 0l4.5 63.799h-1.8l-8.8-63.8h6.1z" fill="#AD685C"/></svg>