<svg width="1082" height="652" fill="none" xmlns="http://www.w3.org/2000/svg"><mask id="mask0_276_1672" style="mask-type:alpha" maskUnits="userSpaceOnUse" x="19" y="14" width="1044" height="616"><path d="M80.478 448.014c-.454-.519-1.166-4.146-1.555-8.033-.389-3.951-1.036-7.384-1.36-7.708-.389-.324-2.073-1.101-3.757-1.749-2.591-.907-3.563-1.814-5.441-4.729-2.138-3.368-2.203-3.692-1.49-6.089.388-1.36 1.101-2.655 1.554-2.785 1.296-.518 6.025 1.49 9.263 3.887 2.008 1.554 3.693 2.332 5.118 2.332 1.749 0 2.526.518 4.404 2.785 2.138 2.591 2.332 3.174 2.332 6.996-.064 6.218-.842 8.68-3.951 12.178-3.368 3.757-4.146 4.145-5.117 2.915zm-6.348-53.311c-.713-.454-.713-1.037-.065-3.174 1.166-4.081.648-4.664-4.145-4.664h-4.146l-.454-3.304c-.388-2.915-.647-3.368-2.655-4.34-1.231-.583-2.267-1.425-2.267-1.943 0-1.101 5.052-8.55 5.83-8.55.323 0 .777.583.97 1.23.649 2.008 9.329 4.016 11.078 2.591.583-.518 3.498-1.036 6.801-1.23 5.312-.324 5.7-.26 6.024.971.713 2.591.324 4.47-1.295 6.672-2.073 2.591-3.239 7.644-2.138 8.939.583.713.454.907-.583.907-.777 0-2.397 1.296-4.016 3.239-2.461 2.915-2.98 3.239-5.376 3.239-1.49-.065-3.11-.259-3.563-.583zm128.516-4.405l-4.47-2.98-2.397 1.425c-3.562 2.009-6.995 1.749-10.947-.777-2.72-1.749-3.239-2.332-3.044-3.692.194-1.166-.518-2.397-3.174-5.117-3.304-3.433-3.498-3.563-5.053-2.721-1.684.842-5.052.583-6.866-.518-1.36-.907 2.526-4.146 8.356-7.126 2.656-1.425 5.765-2.979 6.802-3.562 1.36-.713 3.627-1.037 7.319-1.037 6.672 0 9.652 1.296 12.632 5.636 4.404 6.348 5.829 7.514 11.4 9.198 4.923 1.425 5.312 1.49 6.413.454 1.49-1.296 4.664-1.426 4.664-.195 0 .518-.454 1.296-.972 1.749-.648.518-.971 1.943-.971 4.211v3.433l-3.628-.324c-3.044-.259-4.016-.065-6.024 1.231-6.219 4.145-5.117 4.08-10.04.712z" fill="#F4F4F4"/><path d="M91.945 387.642c-3.045-1.036-3.174-1.166-2.85-3.109.194-1.166 1.23-3.304 2.331-4.793 1.814-2.527 1.944-3.045 1.62-6.478-.389-3.174-.26-3.757.712-4.146.778-.324 1.75.065 2.915 1.166 1.62 1.62 1.944 1.684 7.838 1.296 3.368-.195 6.802-.454 7.708-.583 1.296-.195 1.879.194 2.721 1.619.648 1.101 1.555 1.943 2.073 1.943 1.425 0 2.98 2.592 2.98 5.053 0 1.619-.519 2.656-2.009 4.081-2.267 2.137-3.692 2.267-7.837.842l-2.98-1.036-4.211 2.655c-4.534 2.915-6.088 3.11-11.011 1.49zm74.815 4.794c-4.923-6.283-8.227-9.458-9.652-9.458-.712 0-1.684-.453-2.137-.971-.648-.842-.583-1.231.388-2.332.972-1.101 1.037-1.555.389-2.591-1.166-1.879-.453-2.526 2.721-2.526 1.878 0 3.368.453 4.923 1.554 2.85 2.138 8.615 3.498 10.04 2.332.842-.712 1.231-.648 2.397.389 3.238 2.785 4.34 4.405 3.951 6.154-.259 1.489.065 1.943 2.332 3.174 2.98 1.684 3.368 2.591 1.231 2.591-.778 0-2.073.583-2.85 1.36-1.166 1.036-1.685 1.166-2.721.648-2.462-1.361-4.534-.907-5.636 1.166-.518 1.036-1.23 2.072-1.554 2.267-.324.194-2.073-1.49-3.822-3.757zm-78.379 32.063c-1.619-2.008-2.655-2.656-4.793-2.98-1.684-.323-4.08-1.425-6.024-2.915-1.75-1.295-4.47-2.72-5.96-3.174-2.267-.647-2.785-1.101-2.785-2.267 0-.842-.583-3.174-1.295-5.247-1.685-4.923-1.685-5.117.971-6.348 1.231-.583 2.72-2.008 3.239-3.109 1.036-2.008 1.23-2.073 4.405-1.749 3.109.324 3.563.648 6.801 4.146 4.794 5.312 5.247 6.024 6.024 10.17.583 3.174 1.102 4.145 4.21 7.19 1.944 1.943 3.499 3.822 3.499 4.146 0 .323-.778 1.101-1.75 1.748-4.922 3.174-4.34 3.11-6.542.389zm21.764 8.291c-1.619-.842-2.591-1.943-3.109-3.497-.389-1.231-1.101-2.527-1.49-2.786-.453-.259-1.295-1.231-1.878-2.202-.648-.972-2.008-1.879-3.11-2.138-1.1-.259-2.785-1.49-3.886-2.85l-1.944-2.332 2.268-.194c1.943-.195 2.72-.778 4.987-3.887 1.425-2.073 2.851-3.951 3.174-4.275.26-.324 1.231.259 2.073 1.231l1.555 1.813 2.85-1.165c1.555-.583 3.174-1.231 3.563-1.426.647-.259 7.384 7.838 7.384 8.81 0 .194-1.619 1.555-3.562 2.98l-3.563 2.591.129 4.793c.195 4.664.13 4.858-1.489 5.247-1.037.324-2.462.065-3.952-.713zm18.008-52.014c-.194-.777-.388-2.332-.388-3.433 0-1.943.194-2.073 2.85-2.526 3.692-.519 4.275-.13 4.275 2.979 0 2.85-.13 2.915-3.692 3.757-2.462.519-2.721.454-3.045-.777z" fill="#F4F4F4"/><path d="M124.266 398.071c-.129-.194.13-1.231.583-2.332.777-1.878.648-2.397-1.425-6.931-1.878-4.146-2.202-5.312-1.814-7.903.454-3.562-1.166-7.643-2.979-7.643-.583 0-1.749-1.037-2.527-2.267l-1.36-2.268 2.138-3.886c1.749-3.174 2.526-4.016 4.405-4.534 3.692-1.037 4.987-.778 6.671 1.36 1.426 1.814 2.268 2.138 7.903 3.239 8.097 1.554 12.567 4.728 8.097 5.765-1.166.259-1.814 1.295-2.98 4.793-1.36 3.887-1.425 4.794-.777 6.996.389 1.36 1.555 3.239 2.591 4.081 2.138 1.749 2.203 2.332.583 5.83-1.166 2.591-1.295 2.656-5.959 3.498-2.656.453-6.607 1.23-8.81 1.684-2.202.453-4.145.648-4.34.518zm8.032-15.028l4.211-1.166.194-3.498c.259-5.117-.453-5.765-6.024-5.247l-4.534.454.194 4.534c.194 4.793.453 6.154 1.231 6.154.324 0 2.396-.583 4.728-1.231zM91.75 413.941c-.324-.453-.907-2.591-1.36-4.664-.648-3.174-1.36-4.34-4.73-7.967-2.266-2.462-3.756-4.47-3.432-4.923 1.684-3.045 4.275-5.571 5.182-5.182.583.194 1.36-.065 1.878-.778.778-1.036 1.231-1.036 5.377-.259l4.534.842.389 3.174c.324 2.138 1.101 3.822 2.332 5.247 2.85 3.239 2.655 6.867-.583 11.401-2.332 3.433-2.527 3.563-5.765 3.757-2.203.129-3.498-.13-3.822-.648zm48.387 7.06c-2.008-2.008-2.073-2.008-5.053-1.23-2.137.583-3.174.647-3.303.129-.519-1.49-2.268-2.591-4.211-2.591-2.656-.065-2.98-.259-6.542-4.858-3.239-4.211-3.433-4.599-2.008-5.117.518-.195 1.684-1.814 2.591-3.628 1.036-2.073 2.137-3.368 3.109-3.563 3.433-.842 15.158-2.914 16.388-2.914 1.361 0 6.607 6.024 10.235 11.789l1.878 3.109-4.793 5.053c-2.656 2.85-5.117 5.246-5.571 5.506-.388.194-1.619-.584-2.72-1.685zm-60.502-51.756c-1.943-1.101-1.425-8.226 1.101-15.999 2.073-6.219 2.527-7.061 6.09-10.624 3.821-3.821 3.886-3.821 6.088-3.044 1.814.648 2.98 1.943 5.96 6.866l3.757 6.089h9.587l2.591 3.304c1.425 1.814 2.591 3.498 2.591 3.822 0 .712-3.822 7.837-4.794 8.874-.518.518-3.303 1.036-7.319 1.231l-6.543.453-1.62-1.878-1.619-1.879-3.109 1.425c-3.433 1.49-11.077 2.332-12.76 1.36z" fill="#F4F4F4"/><path d="M120.899 445.617c-4.794-5.182-5.895-6.607-6.348-8.421-.324-1.49-.195-1.814 1.295-2.138 1.62-.453 1.62-.518 1.49-5.506-.129-2.785-.065-5.182.13-5.311 4.664-3.822 6.866-4.988 9.133-4.988 2.008 0 2.656.259 3.239 1.619.842 1.814.907 1.879 4.793.842 2.721-.647 3.11-.583 4.34.713l1.425 1.425-1.813 1.296-1.814 1.36.453 7.643.454 7.644-6.543 3.304c-3.627 1.813-6.801 3.303-7.125 3.303-.259 0-1.684-1.231-3.109-2.785zm23.642-79.74c-1.231-1.101-3.433-1.813-7.838-2.591-5.635-1.036-6.218-1.295-7.903-3.433-1.748-2.202-1.943-2.267-4.728-1.814-1.62.195-3.304.519-3.692.713-.454.129-2.138-1.49-3.822-3.628l-3.045-3.886h-4.34c-2.461-.065-4.728-.259-5.117-.518-.972-.648-6.737-9.976-6.737-10.883 0-.453.907-1.166 1.944-1.554 2.396-1.037 2.915-1.944 3.562-6.154.778-5.506 2.397-6.996 4.34-4.081.713 1.101 2.462 1.749 7.385 2.785 3.498.778 7.319 1.814 8.485 2.268 1.814.777 2.462.712 6.413-.972l4.34-1.879 3.757 4.017c3.239 3.497 3.952 3.951 5.053 3.368 1.943-1.037 3.044-.842 6.348 1.295 2.267 1.425 3.822 1.944 6.089 1.944 2.656 0 3.109.194 3.433 1.554.583 2.332-.583 4.664-4.016 8.033-3.822 3.692-6.089 9.068-4.729 11.206.713 1.166.583 1.619-.907 3.498-.907 1.23-1.878 2.267-2.137 2.202-.259 0-1.231-.648-2.138-1.49zm-36.727 41.651c-.583-1.037-1.296-1.879-1.555-1.879-.324 0-.518-1.036-.518-2.267 0-1.619-.583-2.915-2.008-4.534-1.749-2.008-2.073-2.85-2.138-6.024l-.065-3.628 2.915-1.814 2.915-1.813 3.822 1.101c3.757 1.036 3.886 1.036 6.218-.324l2.462-1.425 1.814 4.081c2.072 4.664 2.072 4.793.777 8.032-3.822 9.263-3.628 9.004-9.846 11.141l-3.692 1.296-1.101-1.943zm40.355-5.894c-4.793-6.024-4.599-5.247-2.656-9.587l1.685-3.887-2.332-2.137c-3.369-3.045-3.757-4.534-2.462-9.328.583-2.267 1.296-4.081 1.49-4.081.194 0 1.231 1.037 2.267 2.332 1.749 2.203 2.008 2.267 4.599 1.879 3.304-.454 4.276.388 2.527 2.332-1.102 1.166-1.102 1.425-.195 3.044.518.972 1.944 2.073 3.109 2.462 2.915.906 12.632 11.854 11.531 12.955-.648.648-15.547 7.384-16.259 7.319-.389 0-1.879-1.489-3.304-3.303zm-57.974 57.78c-1.62-1.037-3.174-1.879-3.562-1.944-.519 0-3.045-3.692-4.081-5.894-.065-.259 1.554-2.332 3.692-4.664 4.21-4.664 5.247-7.579 5.247-14.639v-3.757l3.627-2.462c4.081-2.72 6.348-2.72 7.385 0 .324.907.907 1.62 1.295 1.62.389 0 1.231 1.295 1.943 2.85.907 2.137 1.814 3.174 3.434 3.821 2.332.972 4.34 3.239 4.34 4.923 0 .583 2.072 3.174 4.534 5.895 4.081 4.405 4.534 5.117 4.534 7.579 0 3.368-1.036 3.627-4.405 1.036-2.072-1.554-2.526-1.684-7.06-1.295-2.656.194-4.988.518-5.182.648-.195.194-.518 1.36-.778 2.526-.388 1.878-.906 2.332-4.21 3.627-5.765 2.267-7.384 2.332-10.753.13z" fill="#F4F4F4"/><path d="M147.585 373.909c-1.425-1.554-.971-3.303 1.879-6.801 2.915-3.692 3.044-4.016 2.202-5.635-1.231-2.268.454-6.219 4.34-10.106 4.34-4.275 5.765-4.34 9.198-.647l2.591 2.72 1.814-1.23c1.62-1.102 1.814-1.102 2.591-.065.778 1.101 2.203 9.263 2.203 12.955 0 1.684-.324 2.267-1.49 2.526-.778.195-2.98 1.749-4.923 3.369-2.721 2.332-3.822 2.915-4.858 2.526-2.332-.777-10.17-.259-11.207.712-1.295 1.296-3.044 1.166-4.34-.324zM31.83 524.319a97.681 97.681 0 00-1.101-2.267c-.13-.259.453-.453 1.296-.453.842-.065 1.943-.324 2.461-.648.777-.518.842-.842.194-1.943-1.36-2.138-.971-2.98 1.684-4.211 2.462-1.101 4.34-3.692 3.628-4.923-.26-.324-1.36-.583-2.591-.583-2.462 0-5.247-2.397-5.895-5.052-.583-2.267.13-2.462 2.332-.583 1.49 1.23 2.786 1.749 4.6 1.749 2.331 0 2.655.194 3.562 2.267 1.295 3.109 1.943 10.17 1.036 11.724-.647 1.101-.777 1.037-1.425-.907-.453-1.166-1.1-2.072-1.554-2.072-.389 0-2.008 2.137-3.628 4.858-1.554 2.656-3.044 4.858-3.303 4.858-.195 0-.778-.842-1.296-1.814zm85.245 26.688c-4.275-.453-8.291-.712-8.874-.518-.648.195-1.555.065-2.138-.259-.777-.453-.453-1.036 1.879-3.368l2.914-2.786-1.295-2.526c-1.425-2.85-1.619-2.656 4.081-3.757 2.073-.453 3.886-.972 4.016-1.231.129-.194 0-1.878-.324-3.627-.583-2.98-.453-3.304 1.684-6.478 1.231-1.813 2.267-3.498 2.267-3.757 0-.259-1.489-.453-3.303-.453h-3.369l.454-5.182c.259-3.304.129-6.154-.389-8.032-.388-1.62-.583-3.174-.324-3.434.324-.259 2.786-.453 5.506-.388 4.276.065 5.118.324 6.089 1.49 1.425 1.749 1.49 2.979.195 4.275-1.037 1.036-1.166 3.044-.389 5.117.324.777.065 2.591-.648 4.729-1.425 4.145-1.166 4.793 2.915 7.838 1.619 1.23 3.109 2.656 3.239 3.238.194.583.518 3.628.712 6.867l.454 5.894-2.721 1.102c-2.72 1.036-2.785 1.036-2.332 3.627.454 3.044 1.425 2.915-10.299 1.619zm-51.626 25.392c-.583-1.166-.842-2.461-.648-2.785.26-.389 3.628-2.721 7.579-5.247 6.996-4.534 7.125-4.599 8.291-3.368.648.712 1.75 1.295 2.397 1.295 2.267 0 1.555 2.462-.972 3.693-1.749.842-2.461 1.684-3.239 4.08l-1.036 3.045-4.664.453c-2.526.259-5.117.583-5.7.713-.648.194-1.36-.454-2.008-1.879z" fill="#F4F4F4"/><path d="M72.446 605.614c-.195-.778-.389-3.498-.389-5.96 0-4.275-.13-4.664-3.303-9.457-2.915-4.47-3.174-5.247-2.786-7.385.519-2.914 1.944-3.562 8.032-3.562 4.859 0 4.923-.065 6.478-4.211.583-1.425 1.62-2.915 2.397-3.303 2.85-1.361 3.498-2.397 3.303-4.729-.13-2.008-.453-2.397-1.943-2.526-1.749-.259-2.656-1.231-5.57-6.089l-1.426-2.332 5.571-3.045 5.57-3.109 3.499 3.498c3.821 3.757 4.08 4.275 2.396 4.923-3.174 1.101-3.433 1.879-2.98 9.263.454 7.773.519 7.449-4.404 13.927l-2.462 3.304-.194 10.299-.194 10.364-3.239.713c-1.749.453-4.275.777-5.57.842-1.944.064-2.462-.195-2.786-1.425z" fill="#F4F4F4"/><path d="M62.598 571.153c-.259-.648.13-1.684 1.037-2.591 1.295-1.36 1.425-2.008 1.036-5.182l-.453-3.563h4.793c5.83 0 8.68.519 9.134 1.62.259.712-2.397 2.591-13.668 9.911-1.296.777-1.49.777-1.879-.195zm-14.12-16.713c-.648-2.202-1.684-4.664-2.462-5.441l-1.295-1.425 3.239-1.619 3.238-1.684 3.498 1.943c1.879 1.036 5.377 2.915 7.773 4.21l4.34 2.267-1.295 2.203c-1.296 2.137-1.296 2.202-5.053 1.814-2.59-.195-4.793 0-6.93.712-1.685.583-3.24 1.101-3.499 1.101-.259 0-.906-1.813-1.554-4.081zm45.407-1.295c-3.174-2.915-3.951-4.146-5.052-7.579-.713-2.267-2.267-6.283-3.498-8.939-1.231-2.656-2.462-6.024-2.656-7.514-.454-2.786-4.21-10.17-6.219-12.178-.647-.713-2.072-1.166-3.368-1.166-1.814 0-2.267-.259-2.461-1.49-.13-1.166-.519-1.425-2.203-1.231-1.166.065-2.332-.259-2.72-.777-.648-.713-.195-.972 2.59-1.36 1.88-.259 3.952-.907 4.535-1.425.972-.907 1.23-.713 2.785 1.749.972 1.489 2.073 3.627 2.527 4.793 1.49 4.016 2.008 4.469 5.7 4.729 3.498.323 3.563.259 4.405-1.749.842-2.008.906-2.073 3.886-1.62l3.11.389 2.396-3.887c1.296-2.202 2.203-4.275 1.943-4.599-.194-.388-1.554-.648-2.98-.648-2.137 0-2.59-.194-2.396-1.165.194-.907 1.036-1.166 5.052-1.296 3.758-.194 5.183-.518 6.219-1.49 1.49-1.425 2.202-1.101 2.202.972s1.231 3.044 2.786 2.202c2.202-1.166 2.72.324 2.72 8.097v7.255l2.462.194c1.295.13 2.397.454 2.397.778s-.713 1.619-1.62 2.915c-1.036 1.619-1.425 2.915-1.231 4.081.843 4.275.907 4.275-3.627 5.117-2.267.518-4.47 1.166-4.793 1.49-.389.324-.13 1.619.583 3.238l1.23 2.656-3.109 2.98c-3.109 3.044-3.109 3.044-1.749 4.146 1.814 1.49 1.749 1.943-.712 3.627-4.017 2.656-4.988 2.462-9.134-1.295zm-51.819-7.643c-1.49-1.166-9.199-13.409-8.745-13.862.13-.13 1.684-.907 3.433-1.62l3.174-1.36 2.008 2.397 2.073 2.397 2.138-1.102c2.915-1.425 3.433-1.36 4.663.778 1.037 1.684 1.037 1.813 0 2.461-1.036.648-1.036.907 0 3.628l1.037 2.979-1.943.778c-1.037.453-2.915 1.49-4.081 2.332-2.138 1.425-2.203 1.425-3.757.194z" fill="#F4F4F4"/><path d="M42.583 529.049c-.971-1.231-2.072-2.267-2.526-2.267-.389 0-2.397.842-4.405 1.813-2.072.972-3.951 1.62-4.21 1.361-.26-.259-1.555-.778-2.85-1.166-2.786-.907-3.174-2.203-3.174-11.206 0-4.6-.324-6.608-2.008-11.336-2.591-7.385-3.693-11.336-4.21-15.223-.39-2.785-.26-3.109.841-3.109.648 0 1.75.842 2.332 1.943 1.49 2.462 2.462 2.397 6.024-.129 2.656-1.943 3.045-2.008 6.996-1.62 4.923.454 5.441.065 5.7-4.469.195-3.498 0-3.368 5.506-2.526 1.879.324 2.073.518 1.75 2.137-.519 2.462 1.165 4.146 3.238 3.369 1.23-.454 1.814-.259 2.785.842 2.98 3.433 2.98 3.433 1.814 6.931l-1.1 3.238 2.396 3.563c1.878 2.786 2.332 4.081 2.137 5.96-.194 2.396-.259 2.461-2.914 2.461-2.462 0-2.915.259-4.405 2.397-1.879 2.785-1.944 3.498-.583 6.996 1.036 2.461.971 2.591-.324 3.692-.713.648-1.75 2.332-2.203 3.757-.582 1.619-1.619 2.98-2.914 3.757l-1.944 1.166-1.749-2.332zm-5.506-5.377l2.786-4.34.907 2.073c1.165 2.85 2.396 2.656 3.692-.647.842-2.332.907-3.628.453-7.644-1.036-7.967-2.267-9.652-7.06-9.652-.907 0-2.462-.777-3.498-1.749-1.555-1.489-2.008-1.619-3.433-.971-2.203 1.036-2.073 3.627.388 6.931 1.36 1.749 2.591 2.656 3.952 2.915 3.109.453 2.85 1.619-.843 3.109-3.368 1.425-3.497 1.684-2.267 4.729.389.777 0 1.101-1.49 1.425-1.23.259-2.008.777-2.008 1.425 0 1.813 3.304 6.801 4.535 6.801.712 0 2.202-1.619 3.886-4.405zm19.435 43.335c-4.275-1.101-4.923-1.749-6.089-5.636-.324-1.23 0-1.489 2.98-2.202 1.878-.389 4.728-.648 6.348-.583l2.915.259.194 3.757c.194 3.433-.518 5.765-1.749 5.571-.194-.065-2.267-.583-4.6-1.166z" fill="#F4F4F4"/><path d="M67.716 557.939c-1.814-.194-1.814-.518-.195-2.98 1.75-2.72 1.685-3.174-1.1-4.469-1.361-.648-4.794-2.462-7.71-4.081-4.857-2.785-5.246-3.174-5.829-5.83-.583-2.461-.518-2.785.454-2.785 2.072 0 1.943-1.231-.324-4.664-1.296-1.879-2.332-3.952-2.332-4.599 0-1.62 1.166-3.822 2.72-5.053 1.296-1.036 1.296-1.101.195-4.664-1.102-3.433-1.102-3.692-.065-5.311.777-1.166 1.554-1.62 2.85-1.555.972.065 2.462-.194 3.303-.648 1.36-.777 1.75-.647 4.211 1.814 1.943 1.879 3.11 2.526 3.887 2.267.777-.324 1.23-.065 1.49.907.258 1.166.841 1.425 3.044 1.425 2.526 0 2.785.13 5.182 3.951 1.684 2.527 2.85 5.377 3.368 7.903.389 2.203 1.814 6.089 3.045 8.615 2.98 6.024 3.951 9.393 2.85 10.364-.389.389-2.785 1.814-5.312 3.174-5.83 3.11-6.283 3.498-5.894 5.118.323 1.231.064 1.36-3.045 1.36-1.878 0-4.016-.129-4.793-.259zm15.676-38.802c-2.397-.324-3.563-1.23-3.563-2.85 0-1.684-4.404-9.587-5.57-10.04-.519-.194-1.555.388-2.267 1.36-1.296 1.62-1.685 1.684-5.636 1.555l-4.34-.195-.324-2.591c-.194-1.425-1.36-4.016-2.526-5.765l-2.138-3.174 1.102-3.368 1.165-3.433-2.396-2.98c-2.526-3.044-2.85-3.239-5.441-3.044-1.166.129-1.49-.13-1.296-1.037.194-.971.842-1.166 3.239-1.166 1.684 0 3.433-.388 3.886-.907.907-.906.065-1.813-4.34-5.052-1.878-1.36-1.878-1.425-.712-2.721.907-1.036 2.008-1.36 4.08-1.36 2.527 0 3.24.389 6.802 3.627l3.952 3.693 2.008-2.267c1.1-1.231 3.044-3.693 4.275-5.377 1.684-2.332 2.915-3.368 4.858-3.886 4.146-1.231 5.377-2.138 6.154-4.729 1.23-3.692 1.62-3.822 5.311-1.49 2.85 1.749 3.757 2.008 5.7 1.684 4.859-.971 4.729-1.036 5.766 3.433 1.101 4.535 1.166 4.405-3.498 7.644-1.296.907-1.296.907.194 3.692 1.49 2.786 1.49 2.85.389 5.182-1.101 2.267-1.296 2.397-4.275 2.397-3.24 0-6.996 1.425-6.996 2.591 0 .389.453 1.619 1.036 2.656.842 1.684.907 2.526.324 4.858-.971 3.692.13 7.579 2.526 9.328 1.36.971 1.684 1.619 1.425 3.174-.259 1.943-.194 2.008 2.462 2.008h2.656l-1.49 2.656c-1.49 2.655-1.49 2.655-4.534 2.267-2.915-.324-3.174-.259-4.081 1.554-1.166 2.203-1.425 2.332-3.887 2.073z" fill="#F4F4F4"/><path d="M128.152 506.442c-.972-2.268-2.138-2.721-8.486-3.174-2.137-.195-8.356.906-9.198 1.619-.842.712-1.036.389-1.749-2.915-.518-2.332-1.295-2.202-3.692.518-1.943 2.138-2.203 2.267-6.413 2.267-5.895 0-7.45-.712-8.42-3.627-.584-1.814-.584-2.98 0-5.117.647-2.332.582-3.11-.325-4.859-1.49-2.914-.712-3.433 5.377-3.562 2.656 0 2.85-.195 4.534-3.174l1.684-3.109-1.36-2.462-1.425-2.461 2.656-2.203 2.72-2.267-.842-3.822c-.453-2.137-.972-4.405-1.101-5.117-.259-.972.259-1.62 2.073-2.591 2.332-1.296 3.044-2.073 3.757-4.405.259-.907 1.101-1.101 4.21-1.101 2.138 0 4.081.324 4.34.712.195.324 1.296 1.231 2.397 1.879 1.036.648 2.72 2.591 3.627 4.275 1.62 2.98 1.879 3.174 6.413 4.47 2.591.712 4.988 1.749 5.377 2.267.712 1.231.777 5.571 0 8.162-.778 2.655.064 3.886 2.914 4.404 1.685.324 2.656 1.037 3.628 2.721.777 1.296 2.267 2.721 3.304 3.174 1.36.518 2.202 1.555 2.785 3.239.453 1.36.712 2.72.518 2.98-.129.259-2.721 1.813-5.7 3.433-6.219 3.368-6.672 3.821-6.996 6.736-.13 1.685-.713 2.397-2.915 3.693l-2.721 1.619-.971-2.202zm120.095-139.657c-.907-.324-2.462-.583-3.434-.583-1.166-.065-2.396-.713-3.174-1.749-1.166-1.425-1.619-1.62-3.821-1.231l-2.527.389v-2.527c0-2.008-.259-2.656-1.23-2.915-.713-.194-1.879-1.554-2.591-2.979-1.361-2.656-2.656-3.239-4.535-2.073-.453.259-1.619.324-2.591.065-1.36-.324-1.749-.907-2.008-2.98-.259-2.073-.583-2.526-1.619-2.397-.713.13-2.591.389-4.211.583-2.785.389-3.044.259-4.664-1.878-1.101-1.425-3.497-3.045-6.607-4.535-3.757-1.813-4.987-2.72-5.311-4.016-.259-.971-.972-1.814-1.944-2.008-1.813-.453-9.975-8.939-9.975-10.364 0-.518.712-2.721 1.619-4.793.907-2.138 1.62-4.276 1.62-4.859 0-.518 1.166-1.554 2.526-2.267 2.267-1.101 2.656-1.684 3.239-4.599.388-1.878 1.425-4.21 2.332-5.247 1.49-1.813 1.554-1.943.647-4.923-1.619-5.311-1.295-6.996 2.203-11.659 1.36-1.749 2.008-2.073 4.34-2.073 2.137 0 2.785.259 3.044 1.231.259 1.166 3.952 3.951 5.118 3.951.712 0 5.052-3.951 5.765-5.247.388-.777.324-2.138-.195-4.016-.907-3.433-.129-8.097 1.555-9.133 1.749-1.102 2.397.064 3.044 5.959l.583 5.376 4.146 4.34c5.441 5.701 6.478 5.83 8.227.972 3.238-9.004 4.404-9.846 13.991-9.846 8.356.065 8.551.13 10.753 5.441 2.656 6.154 3.304 6.737 5.765 5.312l1.879-1.166 4.599 8.745 4.599 8.744 4.016-.388c2.915-.259 4.34-.065 5.247.583 1.101.842 1.036 1.101-1.361 6.024l-2.591 5.182 1.425 4.664c1.231 3.886 1.296 4.858.648 5.83-.777.971-1.166 1.036-3.822.323-1.619-.453-4.145-.777-5.635-.777-2.202 0-3.045-.453-5.765-3.109-1.749-1.684-5.053-4.081-7.385-5.312-3.951-2.073-4.34-2.137-6.801-1.425-1.49.454-2.656 1.231-2.656 1.684 0 .454.907 2.786 1.943 5.053 1.685 3.627 1.879 4.469 1.296 6.089-.453 1.036-.583 3.174-.389 4.858.454 3.304.583 3.174-3.562 4.016-1.361.324-1.879 1.101-3.174 5.312l-1.555 4.923 1.943 1.554c2.591 2.138 3.628 2.008 6.024-.971 1.749-2.203 2.462-2.591 4.535-2.591 1.943 0 2.72.324 3.498 1.49.971 1.489.842 1.684-4.47 6.995-4.729 4.599-5.441 5.701-5.182 7.126.713 3.627-2.591 5.311-7.384 3.822z" fill="#F4F4F4"/><path d="M350.787 323.45c-11.854-5.247-16.065-7.45-24.421-13.02-7.643-4.988-10.493-6.543-11.595-6.284-1.295.324-19.627.389-29.797.13-2.396-.065-4.599-.389-4.923-.713-.323-.323-2.396-4.08-4.599-8.291-3.303-6.154-3.886-7.773-3.174-8.291.518-.324 1.879-1.166 3.11-1.943l2.137-1.361-.389-4.469-.453-4.405 2.785-1.231c3.822-1.619 9.587-7.967 9.587-10.494 0-.971.259-2.008.583-2.202 1.037-.648 4.081 2.397 5.312 5.312 1.554 3.692 1.554 6.153 0 7.579-1.231 1.101-1.425 1.101-4.599 0-3.174-1.166-3.239-1.166-6.154.259-1.619.777-3.109 1.878-3.368 2.461-.389 1.101.907 11.206 1.619 12.372.518.778 7.061 3.433 8.551 3.433.583 0 2.591-1.619 4.534-3.562l3.498-3.563h18.331c10.17 0 18.397.259 18.591.583.259.324-1.231 1.49-3.174 2.591-2.008 1.101-3.757 2.462-4.016 3.045-.389 1.036 3.822 5.829 5.959 6.671.842.324 2.591.065 4.794-.712 4.405-1.49 5.7-1.49 9.781.13 2.656 1.036 4.081 1.165 8.162.842l4.923-.389-.454 2.98c-.453 2.85-.388 3.044 1.361 3.757 3.109 1.295 6.283.907 9.327-1.102l2.786-1.878-.389-4.34c-.324-3.433-.13-4.599.648-5.376 1.036-1.102.907-1.102 11.012 4.663 1.554.907 3.562 2.851 4.793 4.794l2.073 3.239-1.36 1.878c-1.749 2.332-1.749 2.073.323 6.931.907 2.267 1.49 4.275 1.231 4.534-.259.26-1.36.065-2.526-.388-2.008-.777-2.138-.713-4.47 1.878-1.684 1.879-3.238 2.85-5.117 3.304-1.49.324-3.886 1.619-5.376 2.785-1.62 1.361-4.146 2.591-6.607 3.239-2.203.583-4.081.972-4.211.972-.129 0-6.737-2.915-14.639-6.348zm9.457-58.364c-2.786-2.138-5.117-4.534-5.312-5.312-.194-.842-.971-4.728-1.684-8.68-1.231-6.283-1.231-7.514-.518-9.716.712-2.073 1.36-2.721 3.368-3.368 1.49-.518 4.794-3.045 8.615-6.672 5.442-5.117 6.413-5.765 7.968-5.441 1.554.324 2.073-.065 4.793-3.563 1.62-2.138 4.34-4.793 6.024-5.959 1.685-1.166 5.83-4.146 9.199-6.672 3.368-2.591 6.931-5.118 7.837-5.765 2.009-1.296 15.093-3.369 27.401-4.34 5.117-.389 11.076-1.296 13.732-2.008 2.591-.778 5.118-1.166 5.701-.972 1.813.712 1.166 4.081-1.231 6.477-2.462 2.462-2.462 2.462-16.907 4.017-10.493 1.101-13.473 2.202-22.153 7.967-2.008 1.296-5.441 3.109-7.514 3.951-2.073.907-5.765 3.174-8.097 5.053-2.332 1.943-6.607 5.247-9.457 7.384-5.442 4.016-12.243 11.271-15.028 16-1.62 2.721-1.62 3.044-1.296 10.688.194 4.34.453 8.421.583 9.133.389 2.203-1.036 1.685-6.024-2.202zm86.542-134.41c-1.231-3.174.972-5.571 3.887-4.275 1.878.906 1.943 1.425.194 3.562-1.49 1.944-3.498 2.267-4.081.713zm10.752 0c-1.749-.777-2.008-1.166-1.425-2.137.907-1.684 7.061-3.239 7.838-1.943 1.166 1.813.583 3.238-1.684 4.145-1.231.518-2.332.907-2.397.907-.129-.065-1.166-.453-2.332-.972zm-18.914-1.23c0-2.786 4.47-2.98 4.534-.195 0 .518-2.785 1.814-3.951 1.814-.324 0-.583-.713-.583-1.619zm-.584-7.904c-1.295-4.599-.777-4.923 4.729-3.044 2.85.971 3.045 1.166 2.85 3.044-.194 2.008-.324 2.073-3.562 2.267l-3.369.195-.648-2.462zm-24.875-2.137c-1.101-1.231-1.101-1.295 1.037-2.137 7.773-3.239 11.66-4.47 12.243-3.887.518.583.129 5.376-.454 5.376-.129 0-2.461.389-5.247.972-6.348 1.231-6.218 1.231-7.579-.324zm29.669-4.145l-1.943-.842 3.562-1.102c3.045-.906 3.628-.971 4.47-.129.777.777.777 1.101.065 1.943-.972 1.231-3.498 1.231-6.154.13zm-25.846-3.628c-.194-.389-1.425-.648-2.656-.648-2.72 0-2.85-1.231-.323-3.109l1.878-1.36 3.627 1.425c2.009.777 3.563 1.619 3.563 1.943 0 .518-3.886 2.397-5.052 2.397-.324 0-.842-.324-1.037-.648zM31.44 289.248c-1.036-1.361-3.886-5.377-6.348-8.875-4.793-6.931-4.793-7.514-.194-7.514 2.008 0 2.591.324 3.692 2.138.713 1.166 1.944 2.656 2.656 3.368 1.296 1.166 1.36 1.166 3.239-.194 1.166-.907 2.008-1.166 2.267-.777.713 1.101 3.563 10.558 3.563 11.789 0 1.36-.324 1.555-3.952 2.138-2.85.388-3.044.323-4.923-2.073zm119.123 35.95c-.454-.453-.778-1.036-.778-1.296 0-.323-1.23-3.174-2.72-6.348l-2.656-5.829h-2.526c-2.267 0-2.527-.195-2.138-1.296.259-.842-.129-2.202-.972-3.563-1.425-2.332-2.461-2.655-5.829-1.684-2.527.713-6.996-.388-8.81-2.202-1.555-1.555-1.684-1.62-3.498-.648-1.036.518-2.008.972-2.202.972-.13 0-.454-1.684-.648-3.757-.259-2.008-1.036-5.701-1.814-8.097-1.684-5.053-1.554-5.247 3.11-5.96 2.072-.324 3.562-.064 6.024.972 3.433 1.49 4.016 2.397 4.987 7.903.389 2.267.519 2.396 3.758 2.785 1.813.194 4.339.324 5.57.194 2.008-.194 2.397-.583 3.952-3.757.971-2.008 1.619-3.821 1.425-4.081-.13-.259-2.073-1.489-4.405-2.72-3.045-1.749-4.275-2.85-4.794-4.34-1.036-3.045-.906-3.628 1.49-6.089 1.944-2.073 2.527-2.267 5.053-2.073 2.72.194 2.85.324 4.664 3.887 1.036 2.072 3.627 7.708 5.83 12.631l3.951 8.939 3.757.518c3.498.518 3.886.454 5.441-.971l1.619-1.49 1.555 1.943c.842 1.036 2.462 3.109 3.498 4.599l1.943 2.721-2.332.777c-1.295.453-4.469 2.656-7.06 4.923-3.757 3.304-4.794 4.599-4.988 6.219-.13 1.684-.842 2.396-4.081 4.469-4.469 2.785-4.34 2.721-5.376 1.749z" fill="#F4F4F4"/><path d="M188.716 310.818c-1.878-2.008-2.591-2.267-6.801-2.655l-4.729-.454-4.469-6.089c-2.462-3.303-4.858-6.089-5.247-6.089-.454 0-1.49.713-2.267 1.62-1.361 1.554-3.304 1.943-6.089 1.23-1.101-.323-2.591-2.979-6.348-11.53-2.721-6.089-4.923-11.465-4.923-11.918 0-.583 1.295-.778 4.405-.778 5.311 0 22.153-2.979 23.189-4.081.454-.453 1.231-3.821 1.814-7.578s1.296-6.996 1.555-7.32c.324-.259 1.813-.842 3.433-1.296 2.72-.777 3.044-1.166 6.413-7.19 3.238-5.765 3.886-6.542 7.449-8.615 4.988-2.915 6.348-4.21 9.522-8.81 1.36-2.008 2.785-3.692 3.109-3.692.389 0 2.138 1.037 3.952 2.332 3.044 2.203 3.238 2.526 2.85 4.405-.972 4.081-.065 6.218 2.655 6.218 1.749 0 1.814.324 2.915 8.033l.778 5.829-1.814 1.296c-3.822 2.721-6.672 5.636-10.364 10.494l-3.822 4.923 1.231 5.894c.648 3.239 1.295 6.413 1.49 7.061.259.972-.13 1.166-2.656 1.166-2.721 0-3.045.194-5.571 3.433s-2.656 3.692-2.591 7.644c.065 2.267.259 4.858.518 5.765.389 1.166.13 2.072-.907 3.303-.842.972-1.684 3.109-1.878 4.729-.389 2.397-.842 3.174-2.332 3.951-1.036.518-2.008.972-2.073.972-.129 0-1.231-1.037-2.397-2.203zm120.743 82.654c-6.607-2.656-9.651-2.915-17.295-1.49-4.664.842-5.312.842-9.392-.324-4.211-1.166-4.47-1.36-6.089-4.469l-1.62-3.239-4.858-.453c-6.737-.583-7.061-.454-7.061 3.433 0 4.599-1.36 4.987-9.845 2.85-6.931-1.684-7.514-1.62-10.17 1.23-.907.907-1.944 1.685-2.332 1.685-.778 0-2.915-6.413-2.915-8.745 0-.648.971-2.267 2.202-3.563 1.684-1.878 2.462-3.692 3.369-7.449l1.166-4.988 2.331.389c7.126 1.36 7.514 1.295 9.263-1.036 1.102-1.426 1.555-2.721 1.361-3.758-.259-1.36.583-2.591 5.247-7.125 3.044-3.044 5.506-5.765 5.506-6.024 0-.324-.778-1.555-1.749-2.785-1.62-1.944-2.138-2.203-4.859-2.203-2.72 0-3.174.195-5.182 2.656-2.008 2.397-2.396 2.591-3.627 1.943-1.684-.907-1.684-1.295-.194-5.57 1.036-3.045 1.36-3.304 4.016-3.952l2.85-.712-.195-3.887c-.129-2.073.13-4.664.519-5.7.583-1.555.388-2.462-1.296-6.024-1.554-3.304-1.814-4.405-1.166-4.794 1.49-.907 2.98-.583 6.478 1.49 5.376 3.174 7.06 4.47 7.708 6.154.454 1.295.972 1.554 3.433 1.554 1.555 0 4.729.583 6.996 1.296 2.267.648 4.146 1.231 4.211 1.296.064 0 .842-1.037 1.748-2.332l1.555-2.332-1.555-4.535-1.489-4.534 1.684-3.368c.907-1.814 2.332-4.34 3.174-5.636l1.49-2.397 11.918.13 11.919.065 9.976 6.542c7.06 4.599 12.566 7.644 18.72 10.235 4.793 2.073 9.911 4.275 11.336 4.858 9.392 4.21 8.291 4.016 13.279 2.656 3.044-.778 5.311-1.879 7.125-3.433 1.684-1.425 3.563-2.397 5.182-2.591 1.814-.26 3.045-.972 4.599-2.656 2.98-3.433 6.154-2.915 3.498.583-1.36 1.878-1.166 3.433.713 5.052l1.619 1.425-1.814 2.591c-.971 1.49-3.109 3.887-4.728 5.312-2.721 2.461-3.498 2.785-9.069 3.757-6.089 1.036-9.263 2.462-12.048 5.571-.583.648-3.109 1.813-5.506 2.526-2.462.713-6.219 2.526-8.356 4.016-3.563 2.462-4.016 2.656-4.599 1.62-1.037-1.814-2.008-1.361-6.348 2.979-3.498 3.563-4.081 4.535-4.34 6.931-.13 1.555-.324 2.85-.389 2.85-.13.065-1.943 1.49-4.146 3.174-3.821 2.915-4.081 3.304-6.995 10.624-4.664 11.465-6.349 14.704-7.838 14.833-.713.065-3.887-.907-7.126-2.202z" fill="#F4F4F4"/><path d="M246.498 267.418c-4.081-1.684-5.377-2.85-9.004-7.902-3.692-5.182-6.478-12.891-7.838-21.83-1.036-6.477-1.295-7.319-2.526-7.449-.972-.13-2.138.713-4.081 3.045-1.943 2.267-3.239 3.303-4.34 3.303-2.073 0-2.462-1.166-1.231-4.081.907-2.267.907-2.332-.842-3.822-.972-.842-2.915-2.267-4.21-3.109-2.591-1.749-2.786-2.332-1.62-4.858.778-1.749.972-1.879 6.672-2.98 5.182-.971 6.543-1.943 7.061-4.923 1.619-9.327 2.396-11.724 4.145-12.501 6.348-2.915 8.486-3.304 16.259-2.591 11.53 1.036 11.725 1.101 11.725 2.914 0 1.361-.324 1.62-1.944 1.62-1.101 0-2.137.388-2.332.907-.647 1.619 1.62 8.161 4.988 14.639 3.045 5.765 3.304 6.607 4.211 14.251.518 4.405 1.554 9.781 2.267 11.919 1.49 4.599 1.49 7.708.065 16.258l-1.102 6.478-3.886 1.036c-5.182 1.49-8.421 1.361-12.437-.324zm-97.683 68.533c-1.944-1.231-3.174-1.555-4.859-1.296-2.072.324-2.591 0-5.959-3.368l-3.757-3.692-2.721 1.101a198.824 198.824 0 00-4.793 1.878c-1.684.648-2.397.648-4.21-.259-1.231-.518-4.405-1.36-7.061-1.813-3.887-.648-5.312-1.166-6.931-2.721l-2.073-2.008 4.275-4.793 4.276-4.729-.778-2.526c-.388-1.296-.712-3.174-.712-4.081 0-1.425.324-1.684 2.461-1.944 1.296-.129 3.304-.647 4.405-1.166 1.814-.712 2.202-.712 3.433.519 1.749 1.554 6.219 2.396 9.911 1.749 3.109-.519 4.34.712 4.405 4.404 0 2.397.064 2.462 2.591 2.462h2.591l2.656 5.635c3.368 7.32 3.562 8.227 2.202 10.365-1.101 1.619-1.101 1.749.129 2.72.778.583 1.814 1.296 2.462 1.684.648.389 1.036 1.231.907 2.073l-.259 1.36-2.591-1.554z" fill="#F4F4F4"/><path d="M92.266 335.174c-2.85-5.571-7.838-18.915-7.45-20.016.583-1.684 8.616-15.222 9.781-16.583.519-.583 1.879-1.101 2.98-1.101 2.721 0 4.34-1.231 6.802-5.117 2.008-3.109 4.404-4.599 7.19-4.599 1.554 0 3.757 5.894 4.275 11.465l.453 4.729h-1.619c-2.397 0-3.303 1.49-2.915 4.664.194 1.554.518 3.368.777 4.081.26.906-.453 2.137-2.591 4.534-7.902 8.55-8.615 9.587-9.327 13.538-.389 2.138-.713 3.951-.713 4.081 0 .518-4.275 2.785-5.247 2.785-.583 0-1.684-1.101-2.396-2.461zm39.837-40.161c-.454-.713-1.166-5.312-.907-5.312.194 0 1.36.454 2.72.972 3.045 1.295 4.47.842 4.081-1.296-.194-.907-.064-1.619.259-1.619.454 0 2.851 1.295 4.34 2.397.13.064-.259 1.36-.906 2.785l-1.166 2.591h-4.081c-2.203 0-4.211-.259-4.34-.518zm80.581 81.229c-4.017-1.296-4.405-1.62-7.644-6.219-2.785-3.951-4.081-5.182-7.125-6.737-3.563-1.813-3.952-1.878-9.911-1.425-4.34.324-6.737.778-8.291 1.685-1.231.712-2.397 1.166-2.527 1.036-.194-.194-.712-3.109-1.166-6.607-.712-4.794-1.23-6.607-2.332-7.838-1.619-1.684-2.591-1.879-4.534-.713-1.166.713-1.554.583-3.303-1.684-1.102-1.36-2.721-2.72-3.563-3.044-1.166-.454-1.49-1.037-1.49-2.721 0-2.85-.972-3.692-4.34-3.692-2.721 0-2.785-.065-2.785-2.138 0-1.554-.519-2.526-2.073-3.821-2.073-1.685-2.138-1.749-.842-3.11.648-.777 2.979-2.461 5.182-3.692 5.376-3.239 6.154-4.016 6.154-6.089 0-1.36.906-2.591 4.08-5.376 2.268-1.944 4.859-3.887 5.701-4.211 1.036-.388 4.081-.388 7.708-.129 5.895.518 6.154.583 8.227 2.85l2.137 2.332-1.943 5.247c-1.036 2.915-1.943 5.635-1.943 6.024 0 1.101 9.846 11.465 10.882 11.465.453 0 1.101.713 1.425 1.555.389 1.101 2.202 2.397 5.636 4.145 3.303 1.685 5.765 3.434 7.125 5.118l2.073 2.591 3.303-.648c3.693-.713 4.535-.259 4.535 2.591 0 1.749 2.202 2.462 5.765 1.879 2.332-.389 2.591-.26 3.303 1.619.454 1.036 1.555 2.397 2.397 2.98 1.49.971 1.879 2.915 1.101 4.987-.194.519-2.137 1.749-4.21 2.721-3.952 1.749-4.664 3.044-2.721 4.47.907.647 1.037 1.166.454 2.655-.583 1.685-.842 1.814-3.369 1.685-1.684-.13-3.239.129-4.145.777-1.749 1.231-1.749 1.231-6.931-.518zm653.914 145.227c-3.627-3.304-10.105-9.198-14.38-13.15-14.64-13.473-14.121-13.149-18.461-13.603-3.174-.388-4.211-.259-5.636.648-1.425.972-2.591 1.036-7.708.648-6.543-.454-8.032 0-14.38 4.34-3.369 2.332-4.535 2.137-8.551-1.425l-2.915-2.527 1.166-1.943c1.555-2.591 1.425-3.498-.712-5.117-1.361-.972-2.138-2.462-2.98-5.441-2.073-7.514-2.397-8.292-3.563-8.292-.648 0-1.813.713-2.656 1.62-.842.842-1.684 1.619-1.943 1.619-.194 0-1.295-1.36-2.461-2.915-1.102-1.619-2.397-2.915-2.851-2.915-.388 0-1.554.778-2.591 1.685-2.267 2.202-3.821 1.295-3.303-1.944.324-1.943.129-2.202-2.98-3.886-1.814-.972-3.303-2.138-3.303-2.527 0-.453 1.489-1.813 3.303-3.044 3.109-2.073 3.433-2.138 5.96-1.555 4.21 1.102 12.501.519 17.36-1.166l4.34-1.425 3.174 2.073c3.886 2.462 4.793 2.526 9.651.389 2.98-1.361 4.47-1.62 6.802-1.36 2.85.323 3.368.129 8.421-3.239 3.303-2.203 7.254-4.211 9.91-4.988 2.85-.907 4.729-1.879 5.182-2.656 2.527-4.664 3.887-6.154 6.024-6.542 1.361-.259 4.405-2.203 7.709-4.794 7.19-5.7 8.291-6.218 10.494-5.441 2.526.842 2.655 4.016.259 10.04-1.749 4.47-4.016 15.028-4.016 18.915 0 2.073.388 2.073 5.7.453 2.267-.712 4.469-1.295 4.923-1.295.453 0 1.49 1.166 2.267 2.591.777 1.425 1.749 2.591 2.138 2.591.388 0 3.433-2.073 6.801-4.534 5.571-4.276 6.024-4.729 6.024-6.802 0-2.008.195-2.267 1.555-2.267 1.101 0 2.526-1.036 4.534-3.368l2.915-3.304 2.008 4.47c1.166 2.461 2.462 5.376 2.98 6.477l.842 2.073-5.117 2.073c-2.851 1.101-5.182 2.397-5.182 2.785 0 .389.906 1.62 2.008 2.786l2.008 2.073-1.62 1.425c-1.036.906-1.813 2.461-2.073 4.08-.259 1.49-1.36 4.47-2.396 6.672-1.814 3.822-1.944 4.405-1.684 11.012.194 6.413.388 7.32 2.008 9.781 1.684 2.656 1.878 2.786 5.182 2.786 3.238 0 3.562.129 6.801 3.433 1.879 1.878 3.369 3.822 3.369 4.275 0 .518-.584 3.174-1.361 5.96-1.036 3.821-1.684 5.182-2.656 5.441-.712.259-4.016.065-7.255-.389-5.57-.712-6.088-.712-9.133.583-2.98 1.296-11.66 4.016-12.826 4.016-.259 0-3.433-2.72-7.125-5.959zm50.008 12.566c-.583-.259-2.591-2.332-4.534-4.599-6.219-7.319-5.83-6.477-4.858-10.688.518-2.008.971-3.821 1.101-3.886 1.036-.842 13.538-7.514 14.121-7.514.389 0 1.749.453 2.98 1.101 2.267 1.036 2.591 1.036 8.161-.389 3.174-.842 5.96-1.425 6.154-1.23.13.194-1.49 2.979-3.627 6.283-2.138 3.239-4.729 7.579-5.765 9.587-2.138 4.275-8.68 10.947-11.077 11.465-.907.13-2.073.13-2.656-.13zm76.073-247.705c-2.315-8.965.109.067-1.187-5.698-1.36-5.83-1.107-6.284-3.957-8.81l-2.98-2.656 1.101-4.663c1.36-5.571 1.879-3.563-6.931-28.567l-6.542-18.461-.454-8.291c-.583-9.652-.842-10.3-6.931-14.64a150.782 150.782 0 01-5.83-4.275l-1.489-1.295 1.619-3.11c2.332-4.34 1.814-5.635-2.267-5.635h-3.174l-2.98 5.506c-2.137 3.951-2.915 5.959-2.656 6.996.259.777 2.332 2.979 4.599 4.858 2.591 2.073 4.211 3.951 4.211 4.664 0 .712-.194 1.295-.454 1.295-.259 0-2.526-2.008-5.052-4.469-4.923-4.794-7.514-6.154-9.911-5.053-1.814.778-2.137.454-4.016-4.275-1.295-3.433-1.619-3.692-3.498-3.692-2.72-.065-3.109-.389-5.571-4.729-1.813-3.303-2.332-3.757-4.599-4.146-2.202-.323-2.526-.582-2.526-2.137 0-2.138 2.073-4.988 7.32-9.976 2.202-2.137 4.923-5.376 5.959-7.125 1.62-2.721 2.267-3.304 4.081-3.498 1.619-.129 2.462-.648 3.239-2.073.907-1.554 1.878-2.008 5.441-2.85 6.478-1.49 6.413-1.49 9.198 3.563 1.36 2.526 2.85 4.728 3.369 4.923.518.194 2.331-.842 4.016-2.267 2.979-2.462 3.433-2.656 7.902-2.786l4.729-.194 1.166-4.21c.648-2.332 1.231-5.118 1.231-6.219s.712-3.822 1.619-6.089c.907-2.267 1.62-5.117 1.62-6.283v-2.138h3.756c2.009 0 4.017.195 4.405.454.389.259 2.656 7.319 5.053 15.74 2.85 10.105 4.922 16.259 6.222 18.332 1.1 1.684 1.94 3.368 1.94 3.627 0 .259-2.59 1.296-5.765 2.203-3.175.906-6.025 2.072-6.349 2.461-.388.454-.971 4.081-1.36 8.097-.583 6.089-.583 7.579.195 9.522 1.489 3.563 1.23 3.822-2.009 2.073-5.7-3.174-6.348-2.073-3.174 5.376 1.231 2.915 2.268 5.636 2.268 5.96 0 .324-1.166 2.073-2.591 3.886-1.426 1.814-2.591 3.498-2.591 3.757 0 1.49 15.805 25.716 17.295 26.494.651.324 2.651.388 4.401.194l1.08-2.008.45-2.833c1.45-1.627 2.34-1.103 3.38-1.427 1.36-.389 2.22 1.151 3.26 3.029.38.778 2.32 1.756 3.43 3.547 4.18 2.833 9.49 1.716 13.39 3.642-1.5 5.853-1.02 12.404-1.51 9.549-.96-5.675 1.67 3.158 4 7.368l10.38 3.357.65 4.238c-4.99 4.275-3.11 16.361-3.54 15.64-2.42-4.058-.18.084 10.03 6.646 2.59 1.749-.76 13.152 2.47 17.417 5.4 5.189 5.88 5.831 8.39 10.783l3.24 13.935-56.83-27.855c-3.26-3.028-6.488-7.3-6.682-7.235-.194.064-4.691-5.262-6.699-7.464z" fill="#F4F4F4"/><path d="M950.743 526.716c-.778-1.879-.972-3.563-.648-5.83.389-2.98.259-3.368-2.915-8.291-1.814-2.85-3.563-5.96-3.951-6.867-.324-.906-.842-1.619-1.102-1.619-.259 0-3.238.842-6.607 1.943-7.19 2.268-7.19 2.268-10.493.583l-2.591-1.295-6.348 3.563c-3.563 2.008-6.608 3.627-6.802 3.627-.194 0-.389-.453-.389-1.036s-1.878-2.915-4.21-5.183c-4.016-3.951-4.405-4.145-7.384-4.145-2.851 0-3.175-.195-4.405-2.462-.972-1.749-1.425-3.951-1.62-8.226-.259-5.506-.194-6.089 1.879-10.559 1.166-2.591 2.137-5.441 2.137-6.348 0-.842.907-2.526 2.009-3.757 1.619-1.878 1.813-2.526 1.295-3.562-.389-.713-1.231-1.62-1.878-1.944-1.49-.907-.648-1.619 4.08-3.562 2.138-.842 4.146-1.944 4.405-2.462.583-.971-6.154-16.064-7.19-16.064-.324 0-1.943 1.554-3.627 3.498-2.527 2.915-3.434 3.562-5.442 3.757-2.396.194-2.396.194-2.202 2.85.259 2.656.194 2.72-4.664 6.348-2.72 2.008-5.182 3.627-5.506 3.627-.324 0-1.231-1.101-1.943-2.396-1.555-2.591-2.202-2.591-8.615-.583-2.85.906-3.11.842-3.11-.13 0-3.044 2.138-12.696 4.017-17.813 1.684-4.794 1.943-6.154 1.425-8.097-.519-2.073-.972-2.527-3.304-3.369l-2.785-.971-4.858 3.433c-2.656 1.813-5.118 3.368-5.442 3.368-.712 0-2.655-6.348-2.655-8.745 0-.971.323-2.267.647-2.979 1.296-2.397.065-4.405-4.34-6.931l-4.145-2.397.453-2.591c.713-4.275.713-4.405-1.878-6.089-2.073-1.425-2.332-1.749-1.49-2.526.712-.778.842-2.721.583-10.105l-.324-9.134 6.413-3.303 6.348-3.239-.13-3.887-.129-3.951 4.016-1.231 4.016-1.231.324-4.858.324-4.858 2.267-.259c4.469-.389 4.404-.518-3.433-10.623-4.146-5.312-4.988-6.802-5.571-9.976-.907-4.793-.972-4.34 1.295-6.996 2.268-2.526 2.203-3.238-.712-8.097-.972-1.684-2.138-4.08-2.656-5.441-.777-2.073-.713-2.461.259-3.498.907-.842 2.073-1.101 5.182-.907 2.203.065 5.312-.259 6.931-.712 2.462-.777 3.174-1.36 4.535-3.951l1.619-2.98h7.579l-.454-3.433-.388-3.369 3.174-2.461c3.174-2.397 3.303-2.462 6.283-1.749 4.664 1.036 7.838 2.98 9.975 6.024l1.944 2.85-1.879 2.591-1.878 2.527 1.619 2.396c1.814 2.656 3.109 2.915 5.441 1.102 1.425-1.102 2.656-1.296 9.587-1.296 6.413 0 7.903.13 7.903.907 0 .518-1.425 1.36-3.369 2.008-4.469 1.49-5.117 2.073-4.923 4.405.195 1.813-.064 2.072-2.591 2.979-1.554.583-3.174 1.62-3.562 2.332-.389.713-3.369 4.47-6.607 8.421a646.76 646.76 0 00-6.737 8.227c-.713.971-.648 1.684.648 4.728 1.619 3.887 1.554 4.729-1.037 11.401l-1.166 2.98 2.397 3.886 2.461 3.952-2.008 8.032-2.008 8.097 1.037 9.068 1.036 9.134-2.979 13.991c-1.685 7.709-2.851 14.316-2.656 14.64.259.324 1.684.647 3.174.647 2.267 0 3.692-.582 7.06-2.914 2.397-1.62 4.599-2.915 4.923-2.915.389 0 1.879 1.425 3.433 3.238 3.239 3.757 5.247 4.276 5.182 1.296 0-.194-.194-.972-.388-1.749-.324-1.101-.065-1.619.971-2.202 1.749-.907 2.656-.065 3.757 3.757.519 1.943 1.102 2.785 1.944 2.785 1.295 0 7.19-5.959 7.19-7.19 0-.454-.907-2.397-2.073-4.34l-2.008-3.563 2.721-2.591c2.591-2.397 2.914-2.526 5.765-2.137 1.684.194 5.765.583 9.068.777 6.413.389 6.089.194 6.737 4.405.13.777 2.202 2.332 5.7 4.275l5.506 3.044 1.101 5.118c1.685 8.097 5.506 15.611 11.595 22.671 2.915 3.369 7.32 9.522 9.781 13.733l4.6 7.514.453 9.068c.259 5.053.194 9.393-.065 9.717-.712.777-2.526-.778-2.526-2.267 0-1.102-6.542-6.413-7.838-6.413-1.036 0-7.061 8.745-6.866 9.975.065.778 1.231 1.944 2.656 2.721 2.008 1.101 2.915 1.295 4.534.842 1.101-.324 2.073-.583 2.202-.583.065 0 .13 1.749.13 3.887v3.886h-2.008c-1.037 0-2.526.259-3.239.648-1.231.712-1.231.842.777 4.34l2.073 3.627-2.656 2.462c-2.655 2.461-2.72 2.526-7.838 2.526h-5.182l-2.332 3.563c-2.396 3.822-2.655 4.793-1.554 5.959.777.713.324 2.138-.648 2.138-.324 0-1.036-1.231-1.619-2.656z" fill="#F4F4F4"/><path d="M897.107 309.457c-.583-1.36-.453-1.943 1.101-3.951l1.749-2.332-2.332-3.498c-2.461-3.692-6.218-6.154-10.753-7.061a402.34 402.34 0 01-3.303-.712c-.583-.195-2.397.712-4.016 2.008-1.685 1.295-3.369 2.137-3.693 1.943-.323-.259-.647-1.425-.647-2.72 0-1.944-.648-2.98-4.47-6.932-5.7-5.894-7.838-10.04-7.838-15.222v-3.822l4.275-2.202c2.397-1.166 4.47-2.526 4.664-2.98.13-.518-.907-2.137-2.396-3.692l-2.721-2.721 3.757-3.368c2.721-2.397 4.146-3.239 5.053-2.98.712.195 2.072.519 3.044.713l1.749.389-.389-3.304c-.324-3.109-.259-3.433 2.203-6.348 1.425-1.749 2.785-3.498 3.044-3.951.259-.454-1.101-2.397-3.498-5.053l-4.016-4.275.454-3.109c.388-3.045.388-3.11-1.944-4.535-1.878-1.166-2.267-1.749-1.943-2.85 1.166-3.757 1.101-4.081-.907-5.571-1.101-.777-2.008-1.619-2.008-1.943 0-.259 1.943-1.749 4.275-3.303 2.332-1.555 4.535-3.434 4.859-4.276.388-1.101 1.036-1.489 2.461-1.489 2.332 0 2.332 0 3.498-5.118.907-3.757.842-4.081-.324-5.57-1.166-1.555-1.166-1.555.065-2.268.907-.453 1.425-.388 2.137.454.454.583 1.944 1.814 3.304 2.785l2.397 1.814 5.894-2.202c3.628-1.361 6.867-3.045 8.356-4.405 1.879-1.684 3.174-2.267 5.96-2.656 2.267-.259 4.405-1.036 5.765-2.008 3.433-2.526 4.793-2.138 7.579 2.332 2.072 3.368 2.655 3.886 4.404 3.886 2.397 0 2.851.519 4.405 4.599.583 1.62 1.425 3.434 1.879 4.081.842 1.102.971 1.102 2.979.065 1.944-1.036 2.203-.972 4.146.259 1.166.713 3.822 3.045 5.959 5.182 2.138 2.138 4.211 3.952 4.6 3.952.583 0 4.145 15.352 4.145 17.748 0 .583-3.044.389-4.988-.324-.971-.388-3.044-2.137-4.599-3.886-1.554-1.749-3.368-3.174-4.081-3.174-.842 0-2.785 2.332-6.283 7.579-2.785 4.21-5.247 8.097-5.441 8.68-.453 1.101.259 3.757 5.636 21.246 3.497 11.336 5.57 15.805 8.42 18.137.907.778 1.296.713 2.915-.518 2.073-1.49 3.239-1.749 3.239-.712 0 .388-1.425 2.332-3.109 4.404-2.721 3.304-3.304 4.599-4.923 10.818-2.202 8.356-2.656 9.392-4.146 9.392-2.267-.064-2.656-.842-1.878-3.757.842-3.044.259-4.016-2.462-4.016-1.684 0-15.87 8.292-16.323 9.587-.259.518.129 2.462.777 4.34.648 1.879.972 3.692.713 4.081-.195.389-1.425.972-2.656 1.425-1.231.389-2.267.972-2.267 1.296 0 .388-3.498.647-7.903.647-6.866 0-8.227.195-9.911 1.296-2.461 1.619-2.785 1.619-3.692-.324z" fill="#F4F4F4"/><path d="M890.566 187.873c-2.85-2.397-3.239-2.591-4.793-1.879-1.555.713-1.879.519-4.211-1.684l-2.461-2.461-5.182.194-5.247.194-2.526-2.785c-2.462-2.656-2.591-3.045-2.591-6.931 0-3.757.194-4.34 2.267-6.866 1.684-2.008 2.267-3.369 2.267-5.118 0-1.684.583-3.109 2.073-4.923 2.008-2.526 2.008-2.526.777-3.886-2.332-2.591-7.061-5.571-11.271-7.061-2.332-.842-4.47-1.749-4.793-2.073-.907-.777 1.036-4.469 6.348-11.854 5.57-7.643 6.218-8.809 6.218-10.947 0-.907.389-1.878.777-2.137.454-.259 4.016-.648 7.903-.907 4.47-.324 7.32-.777 7.838-1.36 1.101-1.166 1.684-9.328.712-10.494-.453-.648-2.331-1.037-5.57-1.166-3.887-.194-5.247-.518-6.931-1.814-1.166-.842-2.138-2.008-2.138-2.461 0-.907 7.125-13.927 11.206-20.405 2.008-3.239 9.522-10.234 18.656-17.295 9.004-6.996 31.287-22.024 32.647-22.024.712 0 2.915.583 4.858 1.296 1.943.712 4.146 1.295 4.858 1.23 1.749 0 8.356-4.663 8.68-6.089.324-1.619-.842-2.137-6.218-2.655-4.794-.454-5.765-1.166-3.757-2.85.518-.454 1.554-2.721 2.267-5.118 1.295-4.275 1.295-4.34 6.607-7.773 2.85-1.943 5.7-3.627 6.283-3.757.583-.13 2.073.648 3.304 1.684l2.267 1.879-1.166 4.405c-1.943 7.578-2.267 7.255 9.587 9.327 4.21.713 8.097 1.62 8.55 2.008 2.138 1.814 0 6.413-2.979 6.413-2.267 0-3.11.713-6.543 5.377-2.591 3.562-2.85 3.821-4.923 3.498-1.813-.324-2.655 0-5.376 2.202-3.368 2.656-3.627 3.11-4.275 7.384-.842 5.182-.454 4.858-6.348 4.405-6.543-.453-7.19 0-6.543 4.923.259 1.749.778 3.692 1.166 4.21.454.648 3.109 1.36 7.126 1.944 3.497.518 6.672 1.166 6.931 1.49.324.324 1.166 2.85 1.878 5.7l1.296 5.117-2.85 4.21c-3.563 5.118-3.239 5.895 2.461 5.895 3.498 0 4.405-.324 7.32-2.267 3.757-2.526 4.145-2.59 9.263-1.555 3.174.648 4.016.584 7.514-.647 5.182-1.814 6.801-1.75 8.939.453l1.813 1.879-4.858 5.182-4.858 5.182 2.526 10.234c1.425 5.636 2.462 10.624 2.268 11.077-.26.648-1.685.907-4.923.907h-4.535v2.915c0 1.684-.712 4.599-1.619 6.801-.907 2.073-1.62 4.794-1.62 5.96 0 1.166-.388 3.562-.842 5.376l-.842 3.239-4.534.324c-4.016.259-4.858.583-6.996 2.397-1.295 1.166-2.72 2.137-3.174 2.137-.389-.065-1.878-2.073-3.239-4.534-2.72-5.182-2.85-5.182-9.781-3.563-5.635 1.296-5.959 1.425-6.737 3.174-.453 1.101-1.425 1.684-3.174 1.943-2.202.389-2.72.907-4.987 4.664-1.361 2.332-4.081 5.571-5.96 7.19-5.311 4.535-6.736 6.932-6.736 11.336 0 4.405-1.102 5.441-6.543 6.089-2.72.324-3.951.842-6.024 2.786-2.267 2.008-10.753 5.829-13.02 5.829-.324 0-2.073-1.23-3.757-2.72zm-23.319-134.54c-2.137-2.332-2.396-2.98-2.396-6.154 0-3.044.194-3.562 1.489-3.95.778-.26 2.203-.973 3.174-1.685.907-.648 2.008-1.166 2.397-1.166 1.684 0 .13 14.769-1.619 15.352-.389.13-1.749-.972-3.045-2.397zm87.188 550.012c-.583-.388-.13-1.813 1.749-5.376 1.425-2.656 2.591-5.182 2.591-5.636 0-.453-1.879-3.821-4.211-7.514-2.915-4.728-5.247-7.514-7.773-9.522-1.943-1.554-3.562-3.303-3.562-3.886 0-1.296 1.943-7.19 2.72-8.162.324-.389 2.526-1.036 4.923-1.49 5.182-.842 7.903-1.814 7.903-2.85 0-.389-.389-1.878-.907-3.304-.518-1.425-1.101-5.7-1.36-9.392-.324-5.117-.843-7.708-2.009-10.299-1.619-3.628-1.943-5.247-1.036-5.247.324 0 1.036-.389 1.684-.907 1.166-.777 1.166-.972.13-2.462-.972-1.554-.972-1.749.648-4.663l1.684-2.98h9.975l3.563-3.174 3.498-3.174-1.749-3.628-1.749-3.562 2.397-.195c1.878-.194 2.461-.518 2.785-1.813.713-2.527.648-8.94-.065-9.393-.324-.259-1.684-.129-2.979.259-1.814.518-2.786.389-4.211-.324-1.036-.518-1.878-1.166-1.878-1.49 0-.259 1.166-2.202 2.655-4.21l2.656-3.692 2.98 2.137c2.138 1.555 3.109 2.721 3.239 3.952.194 1.295.777 2.008 2.332 2.656 1.749.712 2.202 1.295 2.526 3.368.259 1.36 1.036 4.988 1.749 8.032 1.295 4.988 1.425 7.838 1.749 32.388l.324 26.882-4.146 9.069-4.146 9.004-7.967 2.396c-4.34 1.361-8.291 2.721-8.745 3.11-.518.388-.971 2.655-1.166 5.182-.194 2.461-.907 5.765-1.554 7.449-.972 2.397-1.555 2.98-2.851 2.98-.906-.065-1.943-.26-2.396-.519z" fill="#F4F4F4"/><path d="M759.265 461.876c-4.534-3.433-4.987-4.081-7.06-9.652-1.231-3.109-3.563-6.477-12.308-17.424l-1.749-2.203-4.081 1.749-4.08 1.749-4.081-3.951-4.146-3.952-4.729.389c-2.591.259-5.182.583-5.765.777-.518.13-2.656 3.693-4.664 7.838-2.785 5.765-3.821 8.615-4.08 11.66-.324 2.785-.843 4.405-1.685 5.182-1.23 1.101-1.36 1.036-3.044-1.101-1.231-1.49-2.138-2.073-2.85-1.749-2.008.712-11.142 7.06-13.474 9.328l-2.332 2.202-2.008-1.749c-2.461-2.008-2.526-2.526-1.036-17.23.583-5.701.842-10.753.712-11.207-.194-.453-1.295-1.036-2.396-1.295-1.425-.324-2.721-1.49-4.599-4.016-2.332-3.174-2.591-3.887-2.267-6.089.194-1.296.583-2.915.777-3.433.259-.713-.454-1.555-2.591-2.85-1.814-1.102-2.915-2.268-2.98-2.98 0-1.36-2.461-5.895-4.988-9.328-1.101-1.555-2.267-2.202-4.145-2.526-2.397-.389-2.527-.454-1.49-1.555.842-.971.907-1.554.324-3.368-1.361-4.016-2.073-4.275-11.725-4.534l-8.744-.13-.195-3.109c-.129-2.008.259-4.016 1.166-6.024.713-1.685 1.296-3.628 1.296-4.276 0-.712-1.361-3.174-2.98-5.441-2.397-3.368-3.044-4.923-3.498-8.291-.712-4.729-1.166-6.219-2.008-6.219-1.49 0-1.166-2.072.777-4.728l2.073-2.98-2.397-12.178-2.331-12.178-3.304-3.303-3.304-3.369 3.693-3.692c3.498-3.498 3.886-3.692 6.218-3.433 3.433.518 4.146-.648 5.053-7.903.453-3.433.971-6.672 1.166-7.319.129-.648 2.202-3.304 4.469-5.83 2.267-2.591 4.146-5.182 4.146-5.765 0-1.814-9.976-16.259-12.955-18.85-2.656-2.267-2.915-2.785-4.211-8.745-.777-3.433-1.295-6.737-1.166-7.255.259-1.036 4.211-3.886 5.377-3.886.323 0 1.23 1.166 1.943 2.591 1.749 3.433 3.239 3.368 5.052-.324 1.749-3.628 3.11-4.47 9.782-6.154 5.441-1.295 6.542-1.295 6.542.259 0 1.361 3.822 4.275 5.571 4.275.842 0 4.987-1.425 9.198-3.174 4.146-1.749 8.226-3.368 9.004-3.562 2.137-.713 2.267-2.073.518-6.024-1.879-4.146-1.943-5.312-.713-7.061.778-1.036 1.62-1.166 5.83-1.036 4.729.194 5.053.129 7.255-1.814 1.231-1.037 2.526-1.943 2.785-1.943.324 0 3.563 2.655 7.255 5.959 5.118 4.664 6.348 6.024 5.377 6.218-1.36.26-2.85 1.296-2.85 2.073 0 .259 2.267 2.138 4.987 4.211 4.405 3.303 6.154 4.145 13.733 6.607 11.595 3.692 11.66 3.627 8.291-6.478-1.295-4.016-2.396-7.838-2.396-8.421 0-.906.842-1.036 6.024-.906l5.959.129 1.296-3.757c.712-2.008 1.684-3.822 2.202-4.016.518-.194 2.721-.583 4.858-.777 5.117-.519 6.348-1.166 5.895-2.98-.324-1.101.324-2.073 2.591-4.275 1.619-1.555 2.915-3.045 2.915-3.369 0-.323-2.008-2.137-4.535-3.951-4.663-3.368-4.923-3.757-5.376-9.133-.324-3.628-.065-4.016 5.247-6.996 11.66-6.607 19.238-11.336 23.125-14.575 3.951-3.239 4.664-3.562 7.06-3.368 2.851.194 2.786.065 1.879 4.469-.194 1.037 0 1.814.583 2.009.907.323 21.765-4.081 23.06-4.923.454-.26 3.239-5.377 6.284-11.336l5.505-10.883 5.183-2.72c5.117-2.656 5.246-2.656 8.874-2.008 2.785.518 4.081 1.166 5.182 2.461.777.972 1.49 2.008 1.49 2.267 0 .195.583.583 1.295.842 1.944.583 8.939-4.404 10.105-7.254 1.102-2.527.972-2.527 7.579.129 3.887 1.555 8.874 5.117 8.874 6.219 0 .388-.583 1.425-1.295 2.332-.713.906-1.296 2.526-1.296 3.562 0 2.267-.842 3.952-3.303 6.866-1.684 1.879-1.879 2.527-1.879 6.737 0 3.952.259 4.988 1.296 5.895.712.648 1.425 1.684 1.619 2.332.648 2.073 4.988 3.433 9.587 2.915l4.146-.454 3.562 3.952 3.628 4.016-.777 3.368c-.713 3.109-.907 3.368-2.98 3.692-1.684.259-2.267.713-2.591 1.879-.259 1.101-2.008 2.656-5.312 4.858-2.785 1.814-4.988 3.692-4.988 4.275-.064.518.972 1.62 2.268 2.462 1.878 1.23 2.267 1.749 1.878 2.915-1.231 3.951-1.166 4.21 1.231 5.7 2.267 1.49 2.397 1.619 2.008 4.469-.389 2.915-.324 3.045 3.174 6.802 2.008 2.137 3.627 4.21 3.627 4.599 0 .389-1.166 2.073-2.655 3.757-2.268 2.526-2.591 3.304-2.397 5.312.259 2.267.259 2.267-1.879 1.878-2.008-.389-2.591-.065-6.672 3.563-2.526 2.202-4.534 4.34-4.534 4.793 0 .389 1.037 1.749 2.267 2.98 1.296 1.231 2.203 2.461 2.073 2.785-.065.259-1.878 1.49-4.016 2.591l-3.887 2.073-.194 4.211c-.259 5.959 2.267 11.271 7.903 16.647l4.081 3.951.907 5.377c1.295 7.708 1.425 7.384-2.268 7.384-3.174 0-3.238 0-4.728 2.98-1.879 3.757-4.081 4.664-11.142 4.534-4.793-.129-4.987-.065-6.089 1.749-.583 1.101-1.101 2.332-1.101 2.85 0 .518 1.36 3.433 2.98 6.543l2.915 5.635-2.008 2.526-2.073 2.527 1.036 4.858c.907 4.599 1.361 5.376 6.219 11.53 5.311 6.737 5.57 7.644 2.202 7.708-1.49 0-2.202 2.268-2.202 7.45v2.591l-4.016 1.295-4.081 1.296.194 3.886.194 3.887-6.348 3.368-6.348 3.304.259 9.392c.195 9.004.13 9.393-1.166 10.105-2.072 1.101-1.619 2.397 1.426 4.081 2.85 1.62 2.85 1.684 2.137 6.154l-.453 2.656 4.21 2.461c2.332 1.36 4.405 2.85 4.599 3.369.195.518 0 1.943-.453 3.174-.713 1.878-.583 2.979.648 7.773 1.619 6.348 1.489 6.801-2.786 7.902-2.461.583-3.109 1.166-5.182 4.47-2.202 3.563-2.526 3.886-6.024 4.664-2.397.583-5.571 2.202-9.328 4.728-5.376 3.628-5.894 3.822-8.55 3.369-2.203-.324-3.563-.065-6.543 1.23-4.728 2.138-5.376 2.073-9.392-.388l-3.304-2.073-5.376 1.749c-5.83 1.878-11.984 2.267-16.777.972-2.721-.713-2.85-.713-6.931 2.267-2.267 1.684-4.275 2.979-4.47 2.979-.194 0-2.267-1.489-4.599-3.303zm-21.636-276.335c-.648-4.21-.518-4.729 1.943-5.7 2.591-1.102 8.097-1.037 8.486.129.259.713-5.765 5.701-8.68 7.255-1.166.648-1.36.454-1.749-1.684zm-25.585-11.53c-1.619-.518-3.174-1.166-3.498-1.555-.648-.648-2.332-8.291-2.397-10.882 0-1.425.13-1.49 5.701-1.296l5.635.259-.194-1.943c-.065-1.101-.194-2.72-.324-3.562-.065-1.231.194-1.62 1.166-1.62.907 0 1.425.648 1.814 2.462.583 2.332.971 2.72 5.052 4.534l4.405 2.073-3.239 4.21c-6.866 8.874-7.773 9.328-14.121 7.32zm14.508-16.259c-4.988-2.721-4.728-6.218.518-7.061 2.073-.323 2.268-.194 2.98 1.749.777 2.397.972 7.126.259 7.061-.324 0-1.943-.777-3.757-1.749zm10.82-9.328c-1.749-1.813-.712-2.85 6.025-6.218 8.744-4.34 9.068-4.34 8.485-.13-.259 1.749-.583 3.628-.777 4.081-.194.518-2.591 1.361-5.312 1.944-5.959 1.295-7.384 1.36-8.421.323zm281.318 335.799c-1.03-.583-2.46-1.49-3.17-2.073-2.46-2.138-8.75-10.947-11.73-16.453-2.65-4.923-3.37-5.83-5.762-6.867-2.267-.971-4.923-3.821-14.38-15.352l-11.595-14.056-5.247-2.461c-6.542-2.98-9.651-5.766-13.797-12.243-3.498-5.441-3.952-7.32-2.203-9.198.843-.972.972-1.749.454-4.276-.583-3.109-.842-3.368-5.765-5.505-2.203-.907-2.526-2.268-.778-3.304.972-.648 1.749-.065 5.312 3.627 2.267 2.397 6.478 6.413 9.393 8.939 3.303 2.915 5.57 5.506 6.218 6.996.842 2.203 2.073 3.045 12.761 8.939 20.145 11.207 26.039 14.575 26.619 15.158.39.324-1.1 1.36-3.69 2.526-2.395 1.101-4.533 2.397-4.727 2.915-.194.518 1.166 4.405 2.98 8.615 1.877 4.211 4.077 9.263 4.987 11.271 1.88 4.276 2.4 4.535 15.87 9.004 8.36 2.721 12.5 5.182 8.55 5.118-1.04 0-3.5-.26-5.44-.583-2.59-.389-3.82-.324-4.4.259-.91.842-.98.647 2.2 7.967 1.1 2.462.45 2.721-2.66 1.037zM504.179 628.609c-1.749-.195-2.526-.842-4.016-3.239-1.101-1.619-2.073-3.498-2.267-4.081-.519-1.619-1.879-1.943-3.887-.907-1.814.972-7.19 1.166-10.04.389-1.684-.453-10.559-12.243-9.976-13.214.195-.259 1.037-.454 1.879-.454 1.295 0 1.749-.518 2.396-2.656.648-2.267.648-2.785-.194-3.238-3.563-2.073-3.498-2.138 2.203-4.017 5.311-1.748 5.57-1.943 8.161-5.635 2.85-4.081 3.304-4.275 7.32-3.304 2.85.648 3.368.195 4.081-3.498.842-4.858.907-4.922 6.737-3.627 2.785.648 5.376 1.36 5.765 1.619 1.036.583.194 2.397-1.944 4.276-1.813 1.489-1.878 1.813-1.684 6.089l.195 4.534 2.85.842c2.461.648 3.109.648 4.275-.13 1.36-.842 1.49-.712 3.433 3.434 1.101 2.396 2.656 5.441 3.433 6.736l1.49 2.462-1.814 1.878-1.878 1.944 2.008 2.267c1.943 2.202 2.137 3.886.583 4.404-.454.195-3.239.843-6.219 1.555-4.793 1.101-5.635 1.49-7.384 3.628-1.101 1.36-2.267 2.396-2.656 2.331-.389-.064-1.684-.194-2.85-.388z" fill="#F4F4F4"/><path d="M450.284 550.165l-6.672 2.785c-4.793 1.944-8.745 3.11-13.927 3.887l-8.162 1.878c1.944 3.11 3.369 7.385 9.393 24.291 2.591 7.255 4.858 13.085 5.052 13.085.26 0 1.555-1.49 2.915-3.303 3.563-4.794 4.859-4.016 7.191 4.145l1.036 3.693 3.304.064c1.878.065 6.671.065 10.623-.064l7.19-.13 2.073 2.915c1.749 2.397 2.396 2.85 3.692 2.591.907-.194 1.878-.907 2.332-1.619.777-1.49.518-1.685-3.368-3.887-1.749-.972-1.944-1.36-1.296-2.138.453-.583 1.036-.971 1.425-.971s3.109-.778 6.154-1.684c5.247-1.62 5.376-1.685 8.356-5.83l2.98-4.211 3.498.324c3.368.454 3.433.518 3.821-1.295a62.51 62.51 0 011.361-4.535c.712-1.943.842-4.016.518-8.097l-.454-5.441-6.218-7.255c-3.433-4.016-6.543-7.319-6.931-7.319-.389 0-1.101.453-1.555.971-1.425 1.749-2.915 2.203-9.068 2.915l-6.025.648-3.238 3.563c-1.814 2.008-3.628 3.562-4.017 3.497-.388-.129-3.368-3.174-6.348-6.801l-5.635-6.672zm201.13 50.849l-5.83-1.425-2.008-5.7c-1.166-3.11-2.202-5.765-2.332-5.96-.518-.453-27.206-6.218-29.537-6.348-3.045-.194-4.211-1.943-3.822-5.57.259-2.009.777-3.239 1.878-4.017 1.749-1.36 1.62-1.23 4.794-4.923 2.915-3.368 4.923-3.497 5.441-.453.324 1.749 1.101 2.332 8.421 5.959 5.57 2.721 8.874 4.017 10.623 4.017 1.814 0 3.692.777 6.283 2.461 3.369 2.138 3.757 2.656 3.628 4.405-.13 1.749.064 1.943 2.137 2.137 1.49.13 2.721.713 3.693 1.879l1.425 1.749 2.979-1.49c3.757-1.878 4.859-3.044 4.859-5.052 0-1.102 1.36-3.175 4.145-6.284 2.267-2.526 4.47-5.7 4.858-6.931.648-1.943 5.636-8.162 13.733-16.971.712-.777 1.36-3.304 1.814-7.125 1.489-12.956 1.554-14.51.518-16.13-.518-.842-1.814-4.081-2.786-7.19-1.813-5.635-1.813-5.7-.777-9.587 1.166-4.34 1.425-3.757-3.174-7.514-2.202-1.749-1.295-3.821 2.462-5.765 2.267-1.166 3.174-2.008 3.498-3.433.388-1.749.582-1.878 5.052-2.267 4.793-.389 6.283-1.296 6.283-3.757 0-1.36.648-1.425 4.081-.518 2.073.583 2.721.518 3.628-.324 1.554-1.36 2.332-1.231 3.174.648.842 1.813.907 1.813 6.348.907 3.303-.583 4.664-1.231 6.995-3.304 2.397-2.073 2.98-3.045 3.369-5.571.324-2.332.971-3.562 2.785-5.182 3.433-3.174 5.312-2.72 2.656.648-1.878 2.461-1.619 5.052 1.166 10.364 4.34 8.356 6.996 11.984 9.004 12.437.972.194 3.368 1.296 5.247 2.332 3.174 1.814 3.368 2.138 3.368 4.47 0 2.137-.259 2.591-1.943 3.303-2.267.907-6.024 5.182-11.077 12.567-1.943 2.785-3.822 5.57-4.275 6.153-1.36 1.814.453 6.672 2.915 7.773 3.627 1.62 3.303 4.081-1.425 9.717-1.944 2.397-4.34 4.275-7.32 5.83-4.081 2.137-4.405 2.526-4.923 4.987-.389 2.008-1.166 3.174-3.044 4.729-1.425 1.101-3.174 3.239-3.887 4.599-1.231 2.397-1.49 2.591-4.081 2.591-2.073 0-3.433.454-5.506 1.943-1.749 1.361-3.109 1.879-3.951 1.62-1.684-.518-5.895 1.555-5.895 2.98 0 .647.324 1.878.713 2.72.648 1.36.518 1.943-.648 3.563-2.008 2.85-1.749 4.405.972 5.83l2.332 1.166-2.268 1.554c-1.684 1.166-2.396 2.138-2.655 4.016-.454 2.851-.842 2.915-7.709 1.361-3.498-.778-6.218-.907-11.012-.648l-6.412.453-5.053 3.563c-2.98 2.073-5.7 3.498-6.542 3.498-.842-.065-4.146-.713-7.385-1.49z" fill="#F4F4F4"/><path d="M699.736 599.784c-2.267-1.814-2.591-2.397-2.462-4.34.13-1.814.648-2.591 2.851-4.211 1.489-1.101 2.72-2.332 2.72-2.85.065-.453-1.101-1.295-2.526-1.943-2.98-1.231-3.109-1.814-1.231-4.275 1.231-1.555 1.361-2.008.713-4.146-.648-2.008-.583-2.462.388-3.174.648-.518 1.879-.713 2.98-.518 1.425.259 2.397-.065 4.405-1.62 1.749-1.425 3.498-2.137 5.894-2.461 2.98-.389 3.498-.648 4.341-2.526.582-1.166 2.331-3.369 4.016-4.988 2.008-1.943 3.109-3.563 3.368-5.182.389-2.073.842-2.527 4.469-4.146 3.304-1.555 4.664-2.721 7.774-6.607 3.497-4.405 3.757-4.988 3.562-7.708-.194-2.591-.453-3.045-2.267-3.887-2.98-1.231-4.081-4.729-2.267-6.737.712-.777 2.397-3.109 3.822-5.247 4.016-6.348 8.162-11.206 9.91-11.659 2.592-.713 3.239-1.62 3.239-4.664 0-2.202-.388-3.174-1.554-4.34-1.879-1.684-6.931-4.275-8.421-4.275-1.62 0-9.781-13.409-10.235-16.842-.194-1.425.13-1.619 4.081-2.332 7.644-1.425 10.04-3.433 9.328-7.903-.842-5.182-.907-5.246-3.239-5.7-2.98-.583-4.21-2.85-4.21-7.967 0-4.535.129-4.599 6.348-4.599h4.34l1.295 3.303c1.101 2.85 2.138 4.081 6.478 7.449 2.85 2.268 6.866 4.988 8.874 6.154 3.498 1.879 3.692 2.138 3.563 4.275-.13 1.944.194 2.397 2.267 3.628l2.397 1.36 1.554-1.425c.842-.777 1.684-1.425 1.943-1.425.195 0 1.296 1.295 2.462 2.915 1.166 1.554 2.461 2.915 2.85 2.915.454 0 1.555-.648 2.526-1.361.972-.777 1.879-1.295 2.008-1.166.065.13.778 2.332 1.555 4.859.777 2.655 2.073 5.311 2.98 6.218l1.619 1.62-1.36 1.684c-.713.971-1.231 2.137-1.101 2.591.129.518 2.072 2.396 4.34 4.275l4.081 3.433-3.628 3.628c-2.656 2.72-4.016 4.793-5.182 8.032-1.879 4.858-1.749 6.024.777 6.607.972.259 3.045 1.878 4.599 3.627l2.851 3.239-1.749 3.887c-1.685 3.757-1.749 4.21-1.555 13.538.194 9.133.259 9.716 1.749 11.336 1.814 1.878 1.295 2.915-1.943 4.275-1.425.583-2.397 1.749-3.498 4.275-.972 2.203-2.073 3.692-3.045 4.016-3.303 1.296-7.319 1.425-10.558.454-4.923-1.49-5.765-1.296-7.773 1.619s-2.332 2.98-7.255 1.555c-4.275-1.231-9.522-.972-11.077.647-.583.583-2.526 3.563-4.34 6.672-3.109 5.377-3.627 5.895-11.401 11.595l-8.097 6.024-10.817 1.296c-14.639 1.814-15.287 1.814-18.526-.777z" fill="#F4F4F4"/><path d="M656.143 585.792c-.259-.842-1.166-1.36-2.915-1.684-2.267-.389-2.527-.648-2.332-1.878.453-2.138-7.773-7.515-11.401-7.515-1.878 0-4.793-1.101-10.04-3.692-6.672-3.239-7.514-3.886-7.903-5.635-.842-4.081-4.016-4.146-7.902-.13-2.786 2.85-2.851 2.915-4.405 1.879-1.296-.842-1.943-.907-3.239-.324-1.49.712-2.332.389-8.227-2.915-5.635-3.109-7.125-3.692-10.04-3.757-3.303 0-3.562-.194-6.283-3.239-1.555-1.814-2.85-3.433-2.915-3.692 0-.194 1.49-1.36 3.239-2.462 1.814-1.166 3.239-2.137 3.303-2.202 0-.065.519-3.174 1.166-6.866 1.037-5.96 1.037-7.126.324-9.328-1.036-2.85-1.36-2.202 4.535-9.133l2.526-2.98-2.073-5.312c-1.101-2.979-2.008-5.765-2.008-6.218 0-.389.842-2.462 1.943-4.599l1.943-3.822 3.693-.389c5.83-.648 6.348-.842 7.319-2.591.519-.907 1.102-1.619 1.361-1.49.259.065 1.684 1.749 3.174 3.628 2.332 2.98 2.915 3.368 4.728 3.239 2.073-.195 2.073-.259 2.138-3.822 0-3.369.324-4.081 4.988-11.206l4.987-7.514-.971-2.397c-1.36-3.174-1.296-3.368 1.295-3.822 1.879-.324 2.851 0 6.284 2.138 4.016 2.526 8.485 4.081 10.105 3.562.388-.129.777-1.036.777-2.008 0-.907.583-2.979 1.296-4.534 1.748-3.887 1.684-4.34-1.296-6.283-2.85-1.879-2.98-2.397-1.619-4.794.518-.907.971-3.174.971-4.987 0-3.239-.065-3.369-2.137-4.081-1.231-.389-2.98-1.555-3.952-2.527-1.619-1.749-1.749-2.072-1.101-4.404.389-1.361.713-3.498.713-4.664 0-1.684.712-3.045 2.85-5.506 2.72-3.239 2.85-3.628 4.016-10.688l1.166-7.32-2.462-2.073-2.461-2.008.518-6.931.454-6.931 4.404-2.98c3.952-2.591 4.47-2.785 5.053-1.813.518.907.194 1.619-1.425 3.239-2.462 2.591-2.008 3.174 3.044 3.821l3.822.583 2.462 4.016c1.36 2.203 2.526 4.859 2.655 5.83.13 1.231 1.037 2.332 2.915 3.563 2.462 1.684 2.656 2.008 2.138 3.498-.389.907-.648 2.202-.648 2.85 0 1.814 5.83 10.364 7.061 10.364 2.785 0 2.85.389 1.684 14.251l-1.166 13.149 2.526 2.138c3.822 3.304 4.534 3.304 7.644.389 2.526-2.397 11.53-8.551 12.566-8.551.259 0 1.296.972 2.267 2.267.972 1.231 2.073 2.267 2.397 2.267.324 0 1.62-1.36 2.915-3.044 1.879-2.461 2.267-3.563 2.267-6.089 0-2.397.777-4.793 3.498-10.494 3.433-7.319 3.498-7.384 5.959-7.838 5.96-.971 6.802-.712 10.948 3.498 2.137 2.138 4.145 3.887 4.534 3.822.324 0 1.814-.583 3.239-1.231 1.425-.712 3.109-1.295 3.692-1.295 1.101 0 10.947 12.048 11.401 13.927.129.583-1.102.971-4.729 1.295-5.7.518-6.154.972-6.154 6.413 0 4.858 1.814 8.55 4.535 9.133 2.267.454 3.433 2.592 3.109 5.766-.259 2.396-2.721 3.951-7.255 4.599l-3.174.453 1.101-1.49c1.425-2.073 1.36-2.332-.842-3.498-1.814-.907-1.943-.907-5.182 1.685-2.786 2.331-3.304 3.109-3.692 5.57a9.638 9.638 0 01-2.397 5.118c-2.462 2.85-3.239 3.238-7.644 3.821-3.627.454-3.627.454-4.34-1.554-.842-2.397-1.554-2.527-4.081-.648-1.813 1.231-2.072 1.295-4.728.389-3.239-1.166-4.016-.842-4.664 1.813-.583 2.527-1.231 2.85-5.571 2.915-4.664 0-5.7.389-5.7 2.267 0 1.814-.648 2.462-4.211 4.405-1.943 1.101-2.655 1.943-2.979 3.628-.518 2.655-.195 3.757 1.295 4.21.648.194 1.749.972 2.462 1.619 1.295 1.231 1.36 1.426.388 5.118-.971 3.886-.971 3.951 1.102 10.234 1.166 3.563 2.332 6.672 2.655 6.996.778.842.713 6.802-.064 11.984-.389 2.332-.842 5.182-1.037 6.283-.194 1.425-2.332 4.34-7.06 9.716-4.146 4.664-7.061 8.616-7.514 10.041-.389 1.295-2.721 4.599-5.182 7.319-3.239 3.628-4.47 5.442-4.47 6.737 0 1.425-.518 2.073-2.397 3.045-1.36.712-2.655 1.36-2.85 1.425-.259.129-.583-.324-.712-1.037zm-144.322 10.753c-1.295-.648-1.619-1.361-1.814-3.822-.194-2.656.001-3.174 1.555-4.211 3.239-2.202 9.976-9.198 9.976-10.364 0-.647-.454-2.915-.972-5.052-1.296-5.441-1.231-6.737.713-9.263 1.684-2.138 1.684-2.267.712-4.729-.777-2.008-.842-2.98-.259-4.793.842-2.85.453-3.304-2.202-2.332-1.166.388-2.203.583-2.332.453-.13-.129.324-1.554.906-3.174 1.102-2.98 1.102-3.044-.388-5.635-1.36-2.462-1.49-4.599-.259-4.535.324 0 1.36 1.361 2.332 2.915 2.137 3.304 2.979 3.498 10.169 1.944 2.332-.519 4.47-.648 4.729-.389.324.324.842 1.814 1.166 3.368.324 1.555 2.526 6.543 4.794 11.012 2.331 4.534 4.21 8.551 4.21 9.069 0 .453-.972 1.878-2.138 3.109-1.23 1.296-2.526 3.563-2.979 5.053-.583 2.267-1.749 3.562-6.219 7.319-3.692 3.045-5.635 5.182-5.894 6.348-.907 4.276-1.166 4.535-5.895 4.988-5.83.518-6.737.842-6.542 2.138.259 1.36-1.296 1.619-3.369.583z" fill="#F4F4F4"/><path d="M514.413 582.164c0-.971-1.425-1.425-8.486-2.979-3.497-.713-3.692-.907-4.08-3.11-.195-1.295-.389-4.016-.389-6.089 0-3.627-.065-3.821-4.016-8.42-2.267-2.591-5.571-6.478-7.449-8.616l-3.369-3.951-.971-8.032c-.519-4.47-1.166-9.393-1.425-11.012l-.389-2.98 4.858-1.036c2.656-.583 6.413-2.008 8.291-3.109 2.915-1.749 4.276-2.073 10.818-2.591 4.081-.389 7.449-.583 7.579-.454 3.303 4.146 6.153 8.874 6.153 10.235 0 1.036-.842 2.526-2.396 4.016-1.361 1.295-2.98 3.433-3.692 4.664-1.231 2.267-1.231 2.267.323 5.182l1.49 2.85-1.425 3.498c-.777 1.878-1.425 3.822-1.425 4.34 0 .842.194.842 4.146-.454 1.036-.259 1.166-.129.842 1.102-.194.842.129 2.461.648 3.627 1.036 2.138 1.036 2.267-.778 4.858-1.813 2.591-1.813 2.786-1.036 6.348 1.749 8.032 1.749 8.421-.583 10.818-2.397 2.461-3.239 2.785-3.239 1.295zm48.647-396.623c0-.583.518-4.728 1.166-9.068.907-6.089 1.49-8.162 2.396-8.81 1.814-1.36 2.656-1.166 3.628.777.777 1.426 1.295 1.685 3.174 1.62 2.267-.13 2.332-.065 4.275 4.34 1.49 3.239 1.814 4.599 1.296 5.052-.778.583-15.158 7.255-15.676 7.255-.194 0-.324-.518-.259-1.166zm-11.595-11.854c-2.915-.648-5.571-1.36-5.895-1.49-.259-.194-1.036-2.008-1.684-3.951-.842-2.85-.972-4.405-.583-6.996.583-3.109.713-3.368 3.109-4.146 4.016-1.295 9.263-1.166 11.271.324 1.684 1.231 1.749 1.49 1.944 8.68.129 6.283 0 7.385-.907 8.097-.648.454-1.296.778-1.49.778-.194-.065-2.785-.583-5.765-1.296zm-12.307-20.922c-1.749-1.944-1.879-2.527-1.425-4.34a427.6 427.6 0 001.295-4.859c.713-2.85 3.433-6.671 4.729-6.671 1.295 0 5.57 7.254 6.024 10.169.712 4.599.065 5.765-3.887 6.931-4.599 1.361-4.469 1.361-6.736-1.23z" fill="#F4F4F4"/><path d="M613.002 319.498c1.943.518 3.692 1.749 5.765 3.886l2.979 3.11 2.009 10.688c1.165 5.83 2.072 11.012 2.072 11.465 0 .389-1.036 2.008-2.267 3.498-2.72 3.368-2.785 4.275-.388 6.024 1.554 1.166 1.878 1.943 2.267 5.441.324 3.369.907 4.859 3.303 8.486 1.62 2.397 2.915 4.793 2.915 5.376 0 .583-.583 2.203-1.36 3.693-1.166 2.267-1.296 3.433-.972 6.866.195 2.332.518 4.34.778 4.599.453.453 1.684.518 10.493.583l6.284.129-3.822 2.527c-2.138 1.425-4.081 2.979-4.34 3.433-.259.453-.583 4.146-.648 8.226l-.13 7.32 2.138 1.814c2.008 1.619 2.138 1.943 1.749 4.599-1.749 11.724-1.555 10.947-4.405 13.927-2.461 2.526-2.85 3.239-3.239 6.866-.259 2.267-.712 4.664-.906 5.441-.519 1.749 2.85 5.765 5.959 7.061 2.656 1.101 2.785 2.785.518 7.06-.907 1.685-1.619 3.304-1.619 3.563 0 .324 1.36 1.36 2.98 2.332 2.072 1.231 2.85 2.008 2.655 2.785-.194.583-.712 2.073-1.166 3.369-.388 1.23-.842 2.591-.971 3.044-.259.972-1.879.972-4.081.13-.842-.389-3.239-1.684-5.312-2.915-3.109-1.879-4.145-2.203-5.959-1.879-1.814.324-3.952.778-4.405 1.361-.453.583-.453 1.166 0 2.072 2.202 4.017 2.202 4.081-2.915 11.79-4.275 6.542-4.793 7.708-4.793 10.493 0 4.211-1.102 4.016-4.859-.777-1.619-2.138-3.238-3.887-3.562-3.887-.259 0-1.361 1.037-2.397 2.332-1.814 2.203-2.202 2.397-6.413 2.786l-4.469.388-2.397 4.535c-1.36 2.461-2.397 4.988-2.461 5.506 0 .518.906 3.303 1.943 6.089 2.202 5.7 2.461 4.987-2.786 11.012l-3.174 3.562.972 2.915c.907 2.656.907 3.563 0 9.069l-1.036 6.089-3.433 2.396c-1.944 1.361-3.498 2.851-3.498 3.369 0 .518 1.684 2.785 3.757 5.052 2.008 2.332 3.692 4.405 3.692 4.599 0 .26-3.174 1.361-7.126 2.527l-7.125 2.073-.583 2.72c-.388 1.749-1.166 3.109-2.137 3.757-.843.518-2.656 2.915-4.017 5.312-4.275 7.255-6.607 8.939-14.963 10.688-.518.129-3.239-.13-5.959-.518-4.146-.583-5.377-1.037-6.802-2.527l-1.813-1.813 3.692-3.369c2.591-2.332 3.886-4.145 4.34-5.83.324-1.295 1.684-3.627 2.915-5.117 1.295-1.49 2.332-3.109 2.332-3.627 0-.454-2.008-4.859-4.47-9.717-2.397-4.923-4.664-10.105-4.858-11.595-.842-4.663-1.296-4.923-6.737-3.821-6.931 1.489-7.967 1.36-9.651-1.102-2.268-3.368-2.332-3.951-.195-5.959 1.62-1.555 1.944-2.397 1.944-4.729 0-2.332-.519-3.627-2.851-6.931l-2.85-4.081 1.166-1.813c.778-1.166 1.101-2.462.842-3.757-.259-1.684.195-2.656 2.332-5.377 2.138-2.655 2.656-3.821 2.656-5.959 0-2.462-.129-2.656-2.397-3.239-8.68-2.267-7.967-1.878-7.967-4.469 0-2.98.259-3.304 4.081-5.895 3.368-2.332 3.498-2.785 2.008-6.542-.972-2.462-1.166-2.591-3.822-2.591s-2.98-.26-6.154-4.211c-3.757-4.599-3.757-4.599-12.825-5.247-7.32-.518-8.615-1.36-6.672-4.34 1.231-1.943 1.231-2.008-.195-5.83-.971-2.785-1.165-3.951-.583-4.145 1.166-.454 10.818-7.449 11.336-8.227.842-1.231.583-1.554-3.627-4.016-3.109-1.814-4.47-3.044-5.312-4.923-1.295-2.85-1.166-3.044 4.599-9.263 3.887-4.21 4.081-5.052 2.527-9.651-1.037-3.045-1.037-3.045.777-5.636 3.174-4.405 3.498-5.312 3.498-10.429 0-5.895-.778-7.125-5.312-8.291-3.433-.907-3.109-.13-3.433-8.421-.065-2.008-.194-3.951-.259-4.405 0-.453-1.036-1.295-2.267-1.749l-2.138-.907-.453-6.607c-.454-5.571-.778-7.06-2.332-9.651-1.166-2.009-2.073-4.859-2.591-8.033-.648-4.404-.583-5.052.583-7.319 1.166-2.268 3.886-6.413 4.534-8.292.648-1.878.453-2.85-1.619-8.744l-2.397-6.608-2.332.454c-4.599.842-4.729.777-7.579-3.239-1.554-2.138-2.785-4.081-2.85-4.34 0-.259 1.749-1.684 3.887-3.239 4.08-2.979 5.57-5.441 6.218-10.493.389-2.462.13-2.98-2.267-5.895-1.425-1.814-2.656-3.563-2.656-3.887 0-.388 1.49-2.202 3.304-4.081l3.303-3.433 1.037 1.425c2.202 3.11 3.368 3.887 5.83 3.693l2.396-.195.195-4.016c.194-3.822.129-4.081-2.98-8.097-1.684-2.267-3.304-4.599-3.563-5.247-.453-1.23.713-10.817 1.425-11.595.195-.259 5.377-.906 11.401-1.489 15.805-1.49 16.518-1.62 16.971-2.721.194-.583-.388-2.526-1.295-4.47l-1.685-3.433 2.721-4.016c1.49-2.267 4.21-5.765 6.089-7.773 2.915-3.109 4.47-4.081 11.271-7.125 5.636-2.526 8.097-3.952 8.55-5.053.648-1.295 5.96-4.599 7.514-4.599.324 0 .907.842 1.361 1.879 1.425 3.498 1.878 3.498 9.004.064l6.607-3.238-.195-2.397c-.194-2.202-.064-2.397 2.073-2.98 3.757-.971 4.081-1.619 3.174-6.089l-.777-3.886 3.174-5.053c1.749-2.785 3.757-5.441 4.47-5.894 1.554-1.166 4.275-1.166 5.7-.13.971.777.842 1.101-1.555 3.887-3.692 4.34-3.174 5.311 2.591 4.728 4.275-.453 4.47-.388 4.858 1.037.195.842.389 2.137.389 2.915 0 1.166 1.101 2.202 2.332 2.202.13 0 1.684-1.36 3.498-2.915l3.304-2.915h11.659l4.211 3.368c2.396 1.879 4.404 4.081 4.599 4.988.259.907.453 4.599.518 8.162v6.478l-4.275 6.477c-2.332 3.563-5.765 9.198-7.644 12.502-1.878 3.368-4.664 8.162-6.283 10.688-2.785 4.534-3.433 6.478-2.267 7.19.388.194 2.267.194 4.34-.065 3.498-.388 4.016-.712 9.263-5.506 3.044-2.785 5.765-5.052 6.024-5.052.518 0 .712.518 2.202 7.32 1.037 4.469 1.425 5.311 3.628 7.06 1.425 1.037 4.469 4.923 6.931 8.551 6.801 10.169 6.607 8.809 2.008 13.991-4.405 4.988-4.858 6.089-5.506 13.085-.583 6.154-.907 6.672-4.081 6.413-2.332-.13-2.721.129-7.125 4.728M419.386 502.49h-.129c-.324.194-.648 1.36-.648 2.461 0 1.296-.583 2.591-1.619 3.693l-1.684 1.813 1.36 2.268c1.619 2.785 1.295 3.044-4.599 4.599l-4.275 1.101-1.426 4.988-1.425 4.923 2.203 3.238c2.461 3.434 2.461 3.757.129 9.069l-1.036 2.526 1.425-.324c.842-.194 2.915-.777 4.664-1.23 2.461-.713 3.109-.648 3.757 0 .648.647.648 1.23-.518 3.303-.842 1.361-1.49 2.98-1.49 3.433 0 .454 1.878 2.915 4.081 5.636 1.036 1.295 1.878 2.202 2.591 3.239 2.915-1.166 5.959-1.749 9.133-2.267 5.182-.843 9.004-1.879 13.927-3.952l6.801-2.915 3.563 4.016c1.943 2.203 4.599 5.247 5.96 6.672l2.396 2.656 3.304-3.303 3.303-3.434 5.83-.453c6.737-.518 9.652-2.138 9.652-5.376 0-3.11-2.138-19.822-2.591-20.405-.259-.259-2.332.389-4.535 1.555-2.202 1.101-4.275 1.813-4.599 1.554-.323-.323-.971-2.915-1.554-5.765-.518-2.785-1.231-5.311-1.49-5.57-.259-.26-2.915-.065-5.895.323-4.858.583-5.506.454-6.283-.518-.518-.777-2.461-1.295-5.312-1.749l-4.534-.647-2.267-3.757c-1.166-2.008-3.045-4.211-4.21-4.988-2.203-1.555-20.016-6.672-21.96-6.413z" fill="#F4F4F4"/><path d="M384.796 546.732c-.194-.324-.194-1.62.065-2.915.518-2.785-.065-3.628-5.247-6.931-3.045-2.008-4.405-2.462-6.348-2.332-1.684.129-2.656-.13-2.98-.777-.324-.519-.907-4.923-1.36-9.846l-.778-8.875 3.174-6.348 3.11-6.348 3.886-.971 3.887-.972-.13-3.887c-.324-6.348-.842-7.578-3.757-8.356-2.461-.712-2.591-.842-2.785-3.627-.13-2.332.259-3.628 2.008-6.478 1.166-1.943 2.397-3.498 2.721-3.368.388.065 1.036 1.295 1.554 2.721.907 2.785.518 2.591 9.457 4.793 2.138.518 6.478 1.101 9.587 1.36 5.377.389 5.895.324 8.551-1.231 1.554-.906 2.979-1.684 3.174-1.684.194 0 0 1.037-.324 2.332-.583 2.008-.324 3.304 2.008 9.781 3.239 9.199 3.368 11.66.518 14.834-2.008 2.332-2.073 2.397-.972 4.275.648 1.101.972 2.138.843 2.397-.195.259-1.944.842-3.887 1.296-2.008.453-3.951 1.166-4.405 1.619-.453.453-1.554 3.174-2.332 6.089l-1.554 5.312 2.332 3.238 2.332 3.239-1.296 3.304c-.712 1.813-1.231 3.757-1.101 4.275.389 2.397-18.591 6.283-19.951 4.081zm88.095-22.736l-.971-5.311h-6.154c-3.757 0-6.542-.324-7.125-.778-.518-.388-2.786-.971-4.988-1.23-4.47-.519-4.47-.519-7.255-4.923-2.656-4.276-5.441-5.765-16.194-8.616-5.182-1.36-9.716-2.655-10.234-2.914-.519-.26-2.073-3.693-3.434-7.579-2.461-6.672-2.526-7.19-1.813-10.494.647-2.721 1.619-4.405 5.052-8.486 4.016-4.858 4.405-5.117 6.931-5.182 1.49 0 3.045-.388 3.433-.907.389-.453 2.008-4.275 3.628-8.485 1.554-4.211 3.044-7.773 3.174-7.968.129-.129 2.915-.064 6.218.195 5.636.453 5.96.583 6.867 2.332l.971 1.878 5.312-.453c5.182-.389 5.441-.324 9.975 1.943 2.591 1.296 5.118 2.397 5.571 2.397.518 0 2.915-1.296 5.376-2.915 3.434-2.203 4.664-2.721 5.571-2.203.648.324 1.166.907 1.166 1.231 0 .389.713.907 1.555 1.231.971.389 2.137 1.749 2.915 3.627l1.36 3.045-1.296 1.814c-1.23 1.748-1.295 2.008-.388 3.757 1.101 2.072 1.684 2.202 11.66 3.109 5.117.388 5.182.453 7.773 3.368 5.117 5.7 5.441 5.96 7.837 5.96 1.879 0 2.397.259 2.915 1.619.972 2.526.907 2.591-2.526 4.793-3.303 2.138-3.951 3.498-3.951 8.227 0 1.943.194 2.202 2.785 2.85 6.348 1.749 7.903 2.397 8.097 3.304.13.583-1.166 2.85-2.785 5.052-2.526 3.433-2.98 4.405-2.656 6.089.648 3.757-.518 4.405-9.457 5.117-7.19.583-8.292.842-11.595 2.786-2.138 1.23-5.765 2.526-8.615 3.109-2.656.583-6.608 1.943-8.745 2.98-2.138 1.101-4.146 2.008-4.47 2.008-.324 0-.971-2.397-1.49-5.377zm51.236 91.787c-.712-.777-.582-1.23.583-2.461 1.814-1.943 1.749-2.591-.583-6.283-1.036-1.749-2.591-4.859-3.497-6.931-1.814-4.276-1.555-4.664 2.979-4.664 3.628 0 4.923-1.101 5.441-4.599.26-1.361.972-2.98 1.62-3.628 1.231-1.036 1.36-.971 3.498 1.037 2.008 1.943 2.72 2.202 8.097 2.785 10.882 1.231 16.712-1.49 21.829-10.17 1.231-2.138 3.239-4.793 4.47-5.959 1.36-1.231 2.202-2.591 2.202-3.628 0-2.073.842-2.656 5.182-3.886 11.401-3.239 11.142-3.11 10.818-4.405-.583-2.332 2.915-1.425 10.234 2.591 6.219 3.368 7.191 3.757 8.875 3.174 1.36-.518 2.137-.453 2.785.13.842.712.777.971-.518 2.202-2.267 2.138-2.915 7.579-1.101 10.04.712 1.037 1.295 2.138 1.295 2.462 0 .324-2.008 3.433-4.534 6.995-2.462 3.498-4.534 6.543-4.534 6.802 0 .194 1.166 3.304 2.591 6.931 1.425 3.627 2.591 6.866 2.591 7.255 0 .389-1.425 1.425-3.239 2.332-3.109 1.554-3.628 1.619-15.805 1.619h-12.567l-.777-3.303c-.519-2.073-1.296-3.563-2.203-4.081-.712-.454-5.441-1.49-10.429-2.332l-9.068-1.425-12.502 6.218c-6.866 3.433-12.567 6.219-12.696 6.219-.13 0-.583-.454-1.037-1.037zm-191.67-102.411c-6.931-.777-10.04-.842-11.984-.324-1.943.519-4.34.389-9.846-.453-3.951-.583-7.449-1.296-7.708-1.555-.194-.259.389-1.489 1.36-2.785.972-1.231 1.62-2.656 1.425-3.109-.194-.454-2.267-1.361-4.599-2.008-2.332-.583-4.275-1.361-4.275-1.555 0-1.036 3.887-6.348 6.089-8.486 2.267-2.202 2.332-2.332 2.332-7.125v-4.988l2.267-1.036c1.296-.648 2.98-1.101 3.822-1.101 2.656 0 7.579 2.073 8.615 3.627 1.231 1.943 1.943 1.943 4.405 0 2.72-2.202 4.405-1.295 3.822 2.073-.583 3.563 3.433 11.595 6.089 12.113 3.368.713 7.19 2.85 8.291 4.664.648.972 2.397 2.98 3.886 4.405 3.757 3.498 4.081 4.987 1.62 6.736-2.721 1.944-4.664 2.009-15.611.907z" fill="#F4F4F4"/><path d="M320.731 480.725c-.907-1.36-7.255-3.822-9.975-3.822-.713 0-2.462.583-3.952 1.36l-2.591 1.426-2.526-1.749c-1.425-.907-2.915-1.685-3.303-1.685-.648 0-2.591-.842-10.429-4.34-1.361-.583-2.138-1.36-2.138-2.137 0-1.879-1.166-2.203-3.822-1.037l-2.461 1.102-4.275-2.332c-4.664-2.591-4.664-2.591-3.434-7.773l.713-3.239 3.563-.324c3.498-.324 3.562-.389 5.117-3.433 1.555-3.239 2.008-3.433 5.895-2.527 3.174.778 3.821.389 4.275-2.591.453-2.72.129-2.461 7.255-5.441 1.813-.777 2.073-1.231 1.943-3.044-.065-1.231.389-2.85.972-3.757 1.425-2.008 1.36-3.304-.195-6.284-1.813-3.368-1.684-5.182.519-6.088 1.684-.778 6.412-5.377 10.752-10.559 1.231-1.49 2.397-3.757 2.656-5.182.518-3.044 2.073-6.283 3.304-6.996.518-.324.907-1.036.907-1.684 0-.648.388-1.684.906-2.397.907-1.23.972-1.166 1.62.713 1.166 3.239 1.684 3.822 4.793 5.506 2.462 1.295 3.628 2.656 6.672 7.708l3.692 6.024-1.425 6.089-1.36 6.024 1.425 2.851c1.296 2.785 1.296 3.044.389 6.866l-1.037 3.951 1.944 1.62c1.036.842 2.137 1.619 2.332 1.619.259 0 1.295.712 2.267 1.619 1.49 1.425 1.749 2.138 1.749 5.377.064 2.008.453 4.404.971 5.311.519.842.972 3.11.972 4.923v3.304l-2.397.389c-3.757.647-6.348.518-7.125-.324-1.166-1.101-5.377 8.485-5.377 12.178 0 1.554-.129 2.85-.323 2.85-.195 0-1.231-.454-2.332-1.037-1.814-.907-2.008-.907-4.081.713l-2.138 1.619-.907-1.36z" fill="#F4F4F4"/><path d="M357.912 512.984c-5.506-1.879-6.089-2.203-6.737-4.146-.324-1.166-1.814-3.045-3.174-4.146-1.425-1.101-2.915-2.785-3.368-3.692-1.102-2.267-5.377-5.117-8.421-5.571-2.203-.388-2.591-.777-4.405-4.34-2.267-4.664-2.397-5.7-.648-7.902.907-1.166 1.296-2.656 1.296-4.988 0-2.202.518-4.34 1.619-6.478 1.749-3.433 2.267-3.627 10.04-4.081l2.915-.129.195-3.433c.194-3.174.323-3.369 1.878-3.369.972 0 2.915-.583 4.34-1.23 1.49-.713 5.247-1.879 8.421-2.656 6.478-1.555 12.113-4.923 13.409-7.968.388-.971 1.036-1.749 1.425-1.749.388 0 3.498 1.555 6.931 3.498 6.218 3.563 6.283 3.628 9.91 9.587 2.009 3.304 4.211 7.32 4.923 9.004 1.296 2.915 1.49 3.045 7.32 5.053 3.304 1.166 6.283 2.332 6.607 2.655.259.259-1.036 1.555-2.915 2.786-3.498 2.202-3.498 2.267-8.032 1.619-6.089-.777-11.141-1.684-14.056-2.526-2.138-.583-2.527-1.037-3.822-4.534-.972-2.591-1.749-3.822-2.526-3.822-.648 0-2.332 1.943-4.276 4.988-2.979 4.728-3.174 5.311-3.174 9.457 0 4.599.583 5.571 3.304 5.635 1.943 0 2.721 1.166 3.174 4.923l.453 3.239-3.627.842-3.692.778-3.692 7.449c-2.332 4.728-4.017 7.319-4.664 7.319-.519-.064-3.693-.971-6.931-2.072z" fill="#F4F4F4"/><path d="M407.531 473.47c-5.765-2.137-7.708-3.303-7.708-4.664 0-.388-2.008-4.081-4.47-8.161l-4.404-7.385-7.32-4.21c-6.737-3.822-7.384-4.081-8.032-2.98-3.109 5.247-7.255 7.903-15.223 9.781-3.433.842-7.125 2.008-8.161 2.526-3.369 1.749-4.664 1.361-6.154-1.878-.777-1.749-1.296-4.211-1.296-6.348v-3.498l-3.562-2.397c-3.887-2.591-4.016-2.979-2.85-7.967.647-2.786.583-3.433-.648-5.636l-1.425-2.526 1.36-6.089 1.425-6.089-4.081-6.866c-3.562-6.089-4.404-6.996-6.931-8.162-2.137-.907-3.109-1.814-3.822-3.627-1.554-3.693-1.23-6.284 1.944-14.316 3.044-7.643 3.692-8.55 9.781-13.149 2.008-1.555 2.332-2.203 2.332-4.405 0-2.202.453-3.109 2.85-5.636 2.721-2.85 2.98-2.979 4.47-2.137 1.554.777 1.943.648 6.348-2.462 2.591-1.813 5.376-3.303 6.218-3.303 1.425 0 1.49.259 1.49 4.081 0 3.368-.389 4.793-2.008 7.773l-2.008 3.692 2.332 3.109 2.267 3.109 6.996.843c4.34.518 8.226 1.36 10.299 2.267 3.239 1.49 3.304 1.554 3.239 4.275-.065 2.721.065 2.915 3.109 4.664l3.174 1.878 4.729-1.425 4.793-1.425 3.109 2.591c2.786 2.332 3.11 2.85 3.434 6.089.194 2.203 1.23 5.312 2.85 8.486l2.526 5.052h4.146c4.016 0 4.275.065 8.55 3.498 4.016 3.174 4.858 3.563 10.105 4.47l5.7 1.036 4.535 4.923 4.534 4.858h12.502l3.692-3.044 3.692-3.045 3.693 4.017c3.497 3.757 3.886 4.016 6.607 4.016 2.073 0 3.821.583 6.736 2.267 2.138 1.295 4.34 2.591 4.859 2.85.583.324.906 1.166.777 2.202-.389 3.174 2.137 7.385 5.635 9.587 1.814 1.101 3.11 2.332 2.915 2.656-.777 1.166-9.263 6.348-10.493 6.348-.648 0-1.749-.583-2.397-1.296-.648-.712-1.555-1.295-2.008-1.295-.454 0-3.109 1.36-5.83 3.044l-4.923 3.045-4.793-2.462c-4.729-2.461-4.923-2.461-9.652-2.072-4.793.453-4.858.453-5.571-1.231-.453-.907-1.425-1.814-2.137-1.943-2.721-.519-13.15-.907-13.798-.454-.388.259-1.878 3.563-3.303 7.32-3.628 9.651-3.628 9.651-6.543 9.651-2.332 0-2.785.324-6.542 4.794-2.267 2.72-4.599 4.858-5.117 4.858-.518 0-3.498-.972-6.543-2.073z" fill="#F4F4F4"/><path d="M484.486 429.293c-3.692-2.202-5.7-2.915-7.643-2.915-2.332 0-2.98-.388-5.96-3.627-4.858-5.247-4.858-5.247-9.198-1.555l-3.757 3.239h-11.206l-4.34-4.793-4.34-4.794-5.895-1.101c-5.441-1.101-6.283-1.49-10.299-4.664-4.275-3.303-4.599-3.433-8.551-3.498h-4.08l-2.462-5.311c-1.555-3.498-2.397-6.284-2.397-8.033 0-2.461-.324-2.979-3.368-5.7-1.879-1.619-3.887-2.915-4.47-2.915-.647 0-2.914.518-5.182 1.231l-4.016 1.295-2.72-1.619c-2.462-1.425-2.721-1.814-2.721-4.275 0-4.146-3.304-5.765-14.315-7.061-6.608-.777-6.672-.777-8.227-3.109-2.008-2.915-2.008-3.174 0-6.672 1.296-2.332 1.619-3.692 1.619-7.773v-4.988l1.944-.388c1.036-.26 3.368-1.749 5.117-3.304 2.98-2.721 3.692-2.98 8.939-3.887 7.773-1.36 7.19-1.101 12.308-5.959 3.368-3.239 4.858-5.182 5.441-7.19.712-2.397.712-2.915-.13-3.368-2.85-1.749-2.85-1.62-.388-5.247 1.36-1.879 2.396-3.822 2.396-4.211 0-.388-.777-2.267-1.684-4.081-1.684-3.368-1.684-5.182-.065-5.182.454 0 3.692 4.34 7.19 9.717 4.535 6.866 6.737 9.716 7.579 9.716.777 0 2.008-1.166 3.239-3.109 2.526-4.016 2.85-5.506 1.555-7.514-.842-1.296-.972-2.397-.583-5.312.453-3.692.453-3.692-1.944-5.7l-2.461-2.008 1.554-1.943c.778-1.037 2.592-4.211 3.887-7.061 2.267-4.988 2.332-5.247 1.36-6.931-1.749-2.98-.777-4.599 5.247-8.356 4.858-3.045 5.96-4.146 10.364-10.105 3.174-4.34 5.377-6.737 6.154-6.737 1.231 0 8.421 2.462 9.263 3.239.324.259.324 1.943.065 3.822-.389 2.85-1.101 4.145-4.858 8.874-2.462 3.109-4.47 6.154-4.47 6.931 0 .713.454 3.044 1.036 5.117 1.037 3.693 1.037 3.822-.647 8.875-.907 2.85-1.684 5.7-1.684 6.348 0 .647-1.037 4.275-2.268 7.967-1.23 3.692-2.267 7.32-2.267 8.032 0 .713.778 3.11 1.684 5.247l1.62 3.952-2.656 4.987c-1.49 2.721-2.915 4.988-3.239 4.988-.324 0-2.332 2.138-4.534 4.858-3.822 4.729-3.951 4.858-6.866 4.858-1.555 0-4.923-.647-7.32-1.36-9.069-2.785-10.688-.712-4.405 5.7 4.47 4.6 9.263 7.255 12.955 7.32 3.887 0 11.401-3.822 14.251-7.384 1.36-1.685 4.211-4.211 6.348-5.636l3.822-2.591v-7.384c0-8.292.324-9.069 4.34-9.782 3.692-.712 5.441.648 6.542 4.923 2.138 8.68 2.008 8.421 3.887 8.421.971 0 2.72-.647 3.951-1.36l2.138-1.296-.454-4.663c-.259-2.591-.712-5.312-.971-6.025-.324-.777-2.527-2.785-4.923-4.534-3.693-2.656-5.118-3.239-8.939-3.822-4.016-.583-4.599-.842-4.988-2.267-1.101-4.081-.648-6.154 2.656-11.336 1.813-2.85 3.238-5.441 3.238-5.829 0-.389-.712-3.563-1.554-7.126-1.814-7.255-1.62-8.097 2.332-11.724 3.303-3.109 7.967-6.219 8.162-5.571.129.389-.842 3.368-2.073 6.802-1.296 3.368-2.332 6.477-2.332 6.866 0 1.425 12.372 8.485 14.963 8.485 1.49 0 3.109-1.684 3.174-3.174 0-.453-1.878-2.979-4.21-5.57s-4.211-5.182-4.211-5.701c0-1.749 1.296-2.008 2.85-.518 1.62 1.49 3.045 1.684 4.988.648 1.684-.842 1.555-2.073-.453-5.506-1.361-2.332-1.555-3.045-.907-3.887 1.943-2.267 4.664-.194 3.044 2.397-.647 1.037-.583 1.425.195 2.073.583.389 2.332 2.138 3.886 3.887l2.786 3.109-2.98 3.044c-1.684 1.684-3.045 3.369-3.045 3.757 0 .454 1.296 2.203 2.915 4.016 3.11 3.369 3.369 4.599 2.203 8.616-.583 1.878-1.814 3.303-5.182 5.894-2.397 1.879-4.535 3.757-4.729 4.211-.324.712 2.591 5.376 6.218 9.91 1.749 2.203 1.814 2.203 4.535 1.49 1.554-.453 2.979-.583 3.239-.324.259.259 1.23 2.591 2.137 5.182l1.62 4.664-3.239 6.413-3.239 6.348.713 5.117c.518 3.498 1.36 6.219 2.72 8.68 1.749 3.11 2.008 4.34 2.267 9.717.324 6.672.842 8.421 2.591 8.421 2.203 0 2.721 1.36 2.721 7.19 0 6.283.453 6.996 4.858 8.032 3.239.777 3.563 1.425 3.563 6.413 0 4.469-.13 4.858-2.656 8.421l-2.721 3.757 1.102 3.368c.583 1.879 1.036 3.822 1.036 4.34 0 1.166-6.348 8.356-7.32 8.356-.453 0-3.044-1.36-5.765-2.915zm-218.49 99.755c-.195-.518-.065-1.879.323-3.045.907-2.591.195-3.562-3.368-4.145-4.923-.778-5.182-1.166-3.498-4.664.842-1.684 2.203-4.858 3.045-7.126 1.878-5.182 6.283-9.586 8.939-8.939 4.405 1.102 4.858.907 7.06-3.174 3.433-6.348 2.656-8.68-2.461-7.514-2.203.454-4.081.324-8.291-.583-2.98-.647-5.571-1.425-5.83-1.749-.259-.323-1.037-1.813-1.684-3.368L259 481.956l1.619-1.231c2.786-2.202 4.211-2.202 6.866-.13 2.073 1.685 3.239 2.008 7.709 2.397 6.089.583 5.959.648 8.032-5.635.777-2.397 1.619-4.34 1.814-4.34 1.36 0 14.963 5.959 16.582 7.255 1.555 1.23 1.944 2.072 2.203 5.117.259 3.627.259 3.627-2.98 7.255-3.304 3.627-5.959 7.967-5.959 9.716 0 .583 1.554 1.36 4.21 2.073 2.332.648 4.211 1.295 4.211 1.425 0 .194-.648 1.425-1.361 2.785-1.684 2.98-2.332 2.98-10.817-.129-6.024-2.203-7.514-2.008-9.522.972-.972 1.554-.972 1.943.583 6.671 1.684 5.377 1.36 6.348-1.49 4.794-1.879-1.037-6.931-.842-8.097.324-.518.518-1.166 2.267-1.425 3.886-.195 1.62-.842 3.369-1.361 3.887-1.23 1.231-3.368 1.231-3.821 0z" fill="#F4F4F4"/><path d="M261.008 547.638c-3.109-1.944-3.951-2.203-4.858-1.555-3.369 2.397-3.887 2.397-6.543-.194-2.072-1.944-2.655-3.109-2.979-5.701-.778-5.246-4.275-7.514-9.004-5.7-1.814.713-1.684.777-6.413-4.793l-1.619-1.944-5.377 1.102c-2.979.647-5.765 1.166-6.218 1.166-.454 0-1.101-1.166-1.49-2.527-.324-1.425-1.166-3.174-1.814-4.016-1.036-1.23-1.36-1.295-2.591-.647-.777.388-1.684.582-2.008.388-.324-.194-1.036-3.044-1.684-6.348-.648-3.303-1.425-6.477-1.684-7.06-.324-.648-1.879-1.685-3.498-2.397-2.85-1.296-2.915-1.36-2.915-4.47 0-4.21-.648-4.728-5.506-4.21l-4.016.324-.389-2.073c-.648-3.045-.712-2.98 2.138-3.822 1.554-.453 3.174-1.554 4.081-2.785.907-1.231 3.368-2.85 6.607-4.405 4.469-2.138 5.894-3.174 10.558-8.291 2.915-3.239 5.312-6.413 5.312-7.061 0-.712.907.13 2.267 2.202 2.073 3.045 2.267 3.757 2.332 8.097 0 4.081.389 5.701 3.109 12.437 2.85 6.996 3.045 7.903 2.527 10.624-.778 4.21-.389 4.858 2.72 4.469 1.425-.194 2.721-.129 2.915.195.518.777-.842 3.951-2.073 4.858-.971.712-.907.971.324 2.979 1.231 2.073 1.296 2.397.454 4.081-1.62 3.045-1.231 4.016 1.489 4.47 3.693.648 5.83.518 7.255-.389 1.102-.648 1.62-.453 3.822 1.749 3.045 2.915 4.016 2.786 5.895-.907.712-1.425 1.813-2.591 2.396-2.591 2.591 0 9.263 1.555 9.263 2.203 0 .388-.453 2.072-1.101 3.757l-1.101 3.044 3.627 5.377c5.506 8.356 5.377 7.837 3.045 10.493-1.101 1.296-2.332 2.332-2.721 2.267-.453 0-2.461-1.036-4.534-2.396z" fill="#F4F4F4"/><path d="M246.109 524.06c-2.137-1.749-2.656-1.943-4.081-1.295-1.684.777-6.218 1.036-6.866.388-.194-.194-.065-1.36.324-2.591.453-1.425.453-2.656.065-3.627-.454-1.037-.324-2.397.518-4.923 1.684-5.182 1.684-5.312-2.008-5.312h-3.174l.324-3.433c.324-3.044 0-4.21-2.656-10.429-2.397-5.7-2.98-7.708-2.98-10.817 0-3.498.259-4.276 3.045-8.421 2.137-3.239 3.174-5.506 3.433-7.579l.324-3.045 4.858-1.489c5.83-1.814 6.348-2.203 5.247-4.276-1.296-2.332-.713-2.979 3.627-4.664l4.016-1.489 1.62 2.137c1.295 1.749 2.202 2.203 4.858 2.591 3.433.454 4.858 1.749 7.19 6.413.518 1.037 1.684 2.138 2.591 2.462.907.388 2.202 1.166 2.915 1.813 2.461 2.203 10.04 6.024 11.336 5.701 1.619-.454 1.619.583.065 5.052l-1.166 3.239-3.693.194c-3.886.195-6.542-.907-9.133-3.757-.648-.712-1.555-1.295-2.073-1.295-1.619 0-7.967 4.664-7.967 5.83 0 2.008 3.368 9.003 4.469 9.327 4.405 1.296 10.623 2.332 13.15 2.203 1.684-.065 3.303.064 3.498.259.259.259-.324 1.749-1.296 3.368-1.619 2.785-1.749 2.85-3.627 2.203-1.102-.389-2.591-.519-3.433-.324-1.685.453-8.227 6.477-8.227 7.578 0 .454-1.296 3.952-2.98 7.774-2.332 5.57-3.239 7.06-4.34 7.254-.842.065-1.943 1.102-2.72 2.591-.713 1.361-1.555 2.462-1.944 2.397-.323 0-1.749-.907-3.109-2.008zm-92.306-21.052c-.324-.648-.842-2.203-1.101-3.433-.259-1.296-1.49-4.988-2.786-8.292-2.008-5.247-2.526-6.089-4.081-6.413-1.101-.194-2.202-1.165-3.109-2.85-1.036-1.878-1.943-2.591-3.498-2.915l-2.137-.388.064-5.636c0-3.627-.259-6.089-.777-6.672-.453-.518-3.044-1.49-5.765-2.202-4.469-1.101-5.052-1.425-5.959-3.304-.778-1.684-.842-2.461-.259-3.627.388-.777.842-2.591.907-4.016.194-2.526.323-2.656 5.052-5.053 2.656-1.295 5.182-2.396 5.571-2.396.324 0 1.813 1.166 3.239 2.655 1.36 1.425 4.534 4.405 6.931 6.543 4.016 3.562 4.923 4.081 10.105 5.441 4.404 1.166 6.283 2.073 8.226 3.757 1.36 1.295 3.757 2.785 5.377 3.303 1.684.583 3.368 1.296 3.886 1.49 2.526 1.296 12.631 23.449 11.077 24.421-.842.518-13.992 2.72-19.563 3.303-4.793.454-6.153 1.426-7.319 4.988-.778 2.397-3.109 3.109-4.081 1.296zm31.676-15.223c-1.295-4.21-6.218-14.315-8.032-16.582-.518-.648-.259-.972.842-1.231 1.361-.389 1.425-.583.972-4.923-.518-5.506-.389-5.636 5.895-5.636 4.34 0 4.728.13 8.032 2.591 1.943 1.425 3.627 2.591 3.757 2.591.129 0 1.749-1.295 3.627-2.914l3.433-2.915 1.425 1.943c1.62 2.267 2.656 2.397 4.276.648 1.489-1.685 2.396-1.684 4.34.194 1.036.972 1.878 2.785 2.461 5.441l.842 4.016-4.793 5.377c-5.701 6.348-5.053 5.83-10.3 8.097-2.591 1.101-5.246 2.85-6.866 4.534-1.684 1.684-3.303 2.785-4.21 2.785-.842 0-2.138.13-2.85.324-1.166.324-1.555-.194-2.851-4.34z" fill="#F4F4F4"/><path d="M222.337 471.009c-1.49-2.138-2.915-3.693-3.239-3.498-.518.324-1.944-3.498-1.944-5.312 0-.842-4.08-4.081-5.182-4.081-.453 0-1.554.583-2.461 1.296l-1.749 1.36-1.425-1.814c-.842-1.036-1.49-2.137-1.49-2.526 0-.389-.713-1.36-1.49-2.137-.842-.778-1.878-2.592-2.332-4.017-.648-2.267-.971-2.526-2.85-2.526-2.397-.065-3.044-.389-4.534-2.72-.907-1.49-1.62-1.814-4.47-1.944-2.396-.129-3.498-.518-3.627-1.166-.13-.712.388-1.036 1.619-1.036 1.037 0 3.239-.065 4.923-.13l3.174-.129-.259-2.721-.194-2.72 3.562-1.166c1.944-.648 6.219-2.008 9.522-3.045l5.895-1.878 2.332 1.554c1.555 1.101 2.785 1.425 3.887 1.166 1.684-.388 1.813-.129 3.368 8.421.518 2.85 2.591 7.903 3.433 8.421.324.194 3.109-.518 6.219-1.555 3.109-1.101 5.959-1.749 6.218-1.619 1.166.712.518 2.915-1.36 5.053-2.397 2.72-2.397 3.433-.324 3.951 2.073.518 3.757 3.627 2.267 4.146-.518.194-2.721.971-4.858 1.684l-3.887 1.36-.324 2.98c-.259 1.943-1.166 4.275-2.785 6.672-1.295 1.943-2.526 3.627-2.721 3.627-.129 0-1.489-1.749-2.914-3.951z" fill="#F4F4F4"/><path d="M172.912 466.862c-1.749-.518-4.34-1.684-5.765-2.656l-2.656-1.684 3.757-3.368 3.822-3.369-.842-3.886c-.454-2.138-.713-4.988-.583-6.413l.194-2.591 3.498-.194c3.174-.195 3.498-.389 4.146-2.138.388-1.036 1.036-1.878 1.425-1.878 1.49 0 3.498 2.008 3.692 3.692.13.971.648 1.814 1.166 1.878 7.19.972 7.125.972 8.097 2.85.842 1.555 1.425 1.944 3.304 1.944 2.008 0 2.396.259 3.303 2.396.518 1.361 1.62 3.11 2.332 3.952l1.425 1.49-3.044 2.915-3.109 2.914-3.434-2.655c-3.238-2.397-3.757-2.591-7.643-2.591-2.267 0-5.247.324-6.672.712l-2.462.648.389 4.469c.518 5.053.713 4.923-4.34 3.563zm93.796-4.08c-.388-.259-1.684-2.073-2.85-4.016-1.166-2.008-2.202-3.628-2.267-3.757-.13-.065-1.749-.454-3.692-.778-2.721-.518-3.887-1.166-5.312-2.785-1.619-1.878-3.951-6.283-3.563-6.672.13-.065 1.296-.583 2.656-1.166 1.296-.518 2.397-1.36 2.397-1.878 0-.454 1.166-3.304 2.591-6.219 1.619-3.368 2.591-6.283 2.591-7.838 0-3.886.713-6.348 2.267-7.967.777-.777 1.879-2.332 2.397-3.369.907-1.684.907-2.202.065-4.534-.842-2.526-.842-2.656.583-3.822 2.461-1.943 6.801-6.089 7.319-6.866.195-.389-1.23-2.397-3.238-4.469-3.563-3.822-3.628-3.887-3.434-7.32.195-3.304.324-3.433 2.073-3.692 1.037-.065 2.85 0 4.081.194 1.814.389 2.462.972 3.628 3.498 1.425 2.915 1.554 3.044 6.801 4.599l5.312 1.555 6.477-1.166c7.19-1.361 8.097-1.231 17.036 2.008 2.721.971 4.988 2.202 4.988 2.656 0 .453-.583 1.943-1.295 3.238-.713 1.361-1.296 3.174-1.296 4.146 0 2.98-9.392 13.538-13.279 14.834l-2.397.777.324 3.044c.195 1.685.842 4.081 1.49 5.377 1.036 2.202 1.036 2.461.065 4.016-.583.907-1.101 2.461-1.101 3.563 0 1.749-.324 2.008-3.693 3.238-4.145 1.555-5.376 2.721-5.376 5.118 0 1.554-.065 1.554-3.887 1.166l-3.821-.454-1.62 3.239-1.684 3.239-3.692.194-3.757.195-.972 4.469c-.971 4.405-1.619 5.376-2.915 4.405z" fill="#F4F4F4"/><path d="M157.043 458.895c-5.895-1.684-6.283-1.943-12.113-7.255-3.304-3.045-6.219-5.959-6.413-6.413-.259-.518.065-1.231.583-1.619.842-.648.972-2.073.842-8.486l-.194-7.708 1.749-.648c2.526-.907 9.651 3.822 12.566 8.421 2.656 4.081 2.98 4.34 4.535 3.174 1.036-.713 1.684-.648 4.793.712 5.376 2.397 5.635 2.851 6.024 10.17l.259 6.283-2.979 2.592c-1.62 1.425-3.11 2.526-3.304 2.526-.194 0-3.045-.842-6.348-1.749zm82.653-7.449c1.101-1.166 1.425-2.332 1.425-4.858 0-4.081-.065-4.081-7.644-1.62-5.311 1.749-5.441 1.749-6.348.518-1.23-1.684-1.166-2.914.454-7.125.907-2.526 1.684-3.563 2.526-3.563 1.619 0 2.397-1.166 2.915-4.534.648-3.951.907-4.21 3.822-4.21 2.461 0 2.655-.195 5.57-4.859 3.563-5.57 3.239-5.505 10.365-2.072l4.858 2.396-.195 4.535c-.129 2.85-.583 5.247-1.295 6.477-.648 1.037-1.814 3.498-2.591 5.506-1.231 2.98-1.879 3.692-4.081 4.664-2.332.972-2.591 1.296-2.202 2.591 1.23 3.822.906 4.534-3.239 6.089-5.053 2.008-6.154 2.008-4.34.065z" fill="#F4F4F4"/><path d="M164.816 437.843c-4.017-1.943-5.571-2.396-6.089-1.878-1.231 1.166-1.555.971-3.433-2.203-1.166-2.008-3.11-3.886-6.154-5.894l-4.535-2.98 2.462-2.656c1.36-1.49 3.433-3.822 4.664-5.182 3.303-3.627 4.081-3.886 7.838-2.656l3.174 1.037v4.534c0 3.822.324 4.988 2.008 8.032 1.101 1.944 2.202 3.693 2.526 3.822.259.194 2.591-.712 5.117-1.943 2.591-1.231 4.794-2.203 4.923-2.203.13 0 .842 1.166 1.555 2.591l1.36 2.591-1.943 3.887-1.943 3.887-3.11-.065c-2.202-.065-4.534-.777-8.42-2.721zm17.942.194c-1.878-1.554-2.008-1.878-1.425-3.692.453-1.166.453-2.332.13-2.85-.972-1.555-.648-2.202 1.554-3.174 1.879-.907 2.073-1.295 2.267-4.34.195-3.304.259-3.433 2.462-3.822 1.231-.259 3.822 0 5.894.518l3.757.907 1.166 3.498c.583 1.944 1.296 4.016 1.49 4.664.259.842-.518 1.555-3.433 2.915-3.563 1.684-3.757 1.943-3.563 3.887.195 2.396-.064 2.526-4.858 2.914-2.915.26-3.627.065-5.441-1.425zm41.91-.129c-.194-.454-1.101-5.377-2.073-10.818-1.036-5.506-2.202-10.364-2.591-10.753-.842-.842-11.012-3.303-12.501-2.979-.519.065-1.749.777-2.721 1.49-1.037.777-1.943 1.23-2.073 1.101-.129-.13-.453-1.62-.648-3.239-.324-2.656-.194-3.109 1.944-5.312 1.36-1.49 2.655-2.332 3.368-2.137.583.129 1.749.453 2.526.712 1.101.324 2.267-.064 4.081-1.36 1.36-.972 2.526-2.008 2.526-2.267 0-.324-1.554-1.814-3.498-3.304-1.943-1.554-3.562-3.109-3.562-3.562-.065-.389 1.36-1.62 3.044-2.721 2.786-1.814 3.692-2.008 7.773-2.008h4.664v-4.146c0-3.498.259-4.275 1.62-5.57.907-.843 1.619-1.944 1.619-2.397 0-.518.648-2.138 1.36-3.628 1.102-2.072 1.231-2.915.648-3.821-.648-1.037-.194-1.426 3.822-3.434 2.461-1.23 4.793-2.267 5.117-2.267.324 0 1.101.778 1.684 1.749 1.102 1.62 1.102 1.944.065 5.96-.842 3.109-1.749 4.923-3.498 6.672l-2.332 2.461.713 3.368c1.295 6.284 2.85 10.883 3.692 10.883.453 0 2.332-1.361 4.21-2.915 1.879-1.62 3.434-2.915 3.498-2.915.065 0 2.332.583 4.988 1.295 2.656.713 6.348 1.296 8.097 1.296 3.109.065 3.368.194 6.478 3.692l3.239 3.628-4.535 4.145-4.469 4.146 1.036 2.85c1.037 2.785 1.037 2.785-.907 5.441-1.036 1.425-2.073 2.656-2.202 2.656-.194 0-1.684-.712-3.433-1.619-5.636-2.85-9.911-4.275-10.818-3.498-.453.324-2.008 2.656-3.433 5.117-2.656 4.405-2.721 4.47-5.7 4.664l-3.11.194-.842 4.016c-.712 3.174-1.166 4.081-2.072 4.081-1.426 0-2.332 1.037-2.915 3.369-.519 2.072-1.49 2.915-1.879 1.684z" fill="#F4F4F4"/><path d="M202.062 430.458c-.13-.324-.972-2.785-1.749-5.57-.907-3.11-1.878-5.118-2.526-5.247-.583-.195-2.721-.648-4.794-1.037l-3.757-.777.195-3.627.194-3.563 2.915-.842c2.461-.778 3.109-.713 4.34.065.777.518 1.878.971 2.332.971.648 0 1.101 1.166 1.36 3.887.518 4.534 1.101 4.728 4.923 2.008l2.591-1.879 5.312 1.231c2.915.713 5.441 1.36 5.506 1.49.129.065.647 2.591 1.166 5.571.842 4.793.842 5.57 0 6.412-.842.843-1.166.778-2.786-.453-1.036-.713-2.267-1.425-2.785-1.555-.777-.129-7.903 1.814-11.206 3.11-.454.194-1.037.064-1.231-.195z" fill="#F4F4F4"/><path d="M165.981 426.507c-1.037-2.073-1.684-4.599-1.944-7.903l-.323-4.793-3.952-1.166c-3.951-1.166-6.607-3.498-5.894-5.312.194-.389 4.469-2.591 9.522-4.923 7.19-3.304 9.392-4.599 10.105-6.024 1.101-2.008.971-2.008 4.21-1.037 2.267.648 2.591.583 4.34-.842 1.62-1.36 2.85-1.684 7.385-2.008 3.044-.194 6.089-.712 6.866-1.23 1.295-.778 1.749-.648 4.405.777 1.619.907 5.246 3.498 8.097 5.765 5.052 3.951 5.117 4.146 4.016 5.376-1.101 1.166-3.369 1.231-6.284.13-.518-.194-2.267 1.101-3.951 2.915l-3.044 3.239-1.749-1.296c-1.62-1.231-1.814-1.231-5.895-.129l-4.21 1.166-.195 4.404c-.194 4.211-.259 4.405-2.073 5.053-1.813.648-1.943.907-1.943 4.081 0 2.979-.194 3.498-1.684 4.275-1.49.842-1.749.777-2.526-.194-1.037-1.49-1.49-1.426-6.284.842-2.202 1.036-4.404 1.943-4.728 1.943-.389 0-1.425-1.425-2.267-3.109z" fill="#F4F4F4"/></mask><g mask="url(#mask0_276_1672)"><path d="M993.142 726.444c44.738-62.499 134.208-316.963 89.468-562.496-40.26-245.531-205.775-437.493-474.176-459.814-120.786-13.393-228.147 8.928-277.353 40.178 0 0-26.84 17.857-26.84 40.178 0 0 277.349-40.178 393.66 84.82C800.788-19.084 724.74 114.841 724.74 114.841 680.006 204.129 572.645 311.27 572.645 311.27s-143.15 138.392-187.883 218.745c-22.367 40.181-35.787 80.357-35.787 116.072 0 75.892 53.681 107.142 71.575 111.603 152.095 71.43 451.811 13.396 572.592-31.246z" fill="#E4002B"/><path d="M98.309-79.969C53.462-17.355-36.231 237.571 8.615 483.552 48.977 729.534 214.91 921.845 483.993 944.209c121.086 13.417 228.718-8.943 278.046-40.25 0 0 26.911-17.89 26.911-40.254 0 0-278.05 40.254-394.654-84.974C291.15 666.92 367.389 532.75 367.389 532.75c44.846-89.448 152.479-196.785 152.479-196.785s143.511-138.644 188.357-219.148C730.646 76.565 744.104 36.314 744.104.534c0-76.03-53.818-107.337-71.758-111.809-152.479-71.558-452.951-13.418-574.037 31.306z" fill="#00239C"/></g></svg>