<svg width="533" height="336" fill="none" xmlns="http://www.w3.org/2000/svg"><mask id="mask0_259_677" style="mask-type:alpha" maskUnits="userSpaceOnUse" x="11" y="14" width="507" height="299"><path d="M40.815 224.485c-.22-.251-.566-2.01-.754-3.895-.188-1.917-.503-3.582-.66-3.739-.188-.157-1.005-.534-1.822-.848-1.256-.44-1.727-.879-2.639-2.293-1.036-1.634-1.068-1.791-.722-2.953.188-.66.534-1.288.754-1.351.628-.251 2.921.723 4.492 1.885.974.754 1.79 1.131 2.482 1.131.848 0 1.225.251 2.136 1.351 1.037 1.256 1.131 1.539 1.131 3.393-.031 3.015-.408 4.209-1.916 5.905-1.634 1.823-2.01 2.011-2.482 1.414zm-3.078-25.854c-.346-.22-.346-.503-.032-1.54.566-1.979.314-2.261-2.01-2.261h-2.01l-.22-1.603c-.19-1.413-.315-1.633-1.289-2.104-.597-.283-1.1-.691-1.1-.943 0-.534 2.451-4.147 2.828-4.147.157 0 .377.283.471.597.314.974 4.524 1.948 5.372 1.257.283-.251 1.697-.503 3.299-.597 2.576-.157 2.764-.126 2.921.471.346 1.257.157 2.168-.628 3.236-1.005 1.257-1.57 3.707-1.037 4.335.283.346.22.44-.282.44-.378 0-1.163.628-1.948 1.571-1.194 1.413-1.445 1.57-2.608 1.57-.722-.031-1.508-.125-1.727-.282zm62.326-2.136l-2.167-1.445-1.163.691c-1.728.973-3.392.848-5.309-.377-1.32-.849-1.57-1.131-1.476-1.791.094-.565-.252-1.162-1.54-2.482-1.602-1.665-1.696-1.728-2.45-1.319-.817.408-2.45.283-3.33-.251-.66-.44 1.225-2.011 4.053-3.456 1.288-.691 2.796-1.445 3.298-1.728.66-.345 1.76-.503 3.55-.503 3.236 0 4.68.629 6.126 2.734 2.136 3.078 2.827 3.644 5.529 4.46 2.387.692 2.576.723 3.11.22.722-.628 2.262-.691 2.262-.094 0 .251-.22.628-.471.848-.315.252-.472.943-.472 2.042v1.665l-1.759-.157c-1.476-.125-1.948-.031-2.921.597-3.016 2.011-2.482 1.979-4.87.346z" fill="#F4F4F4"/><path d="M46.376 195.207c-1.476-.503-1.539-.566-1.382-1.508.094-.566.597-1.602 1.131-2.325.88-1.225.943-1.476.785-3.141-.188-1.54-.125-1.823.346-2.011.377-.157.848.031 1.414.565.785.786.942.817 3.8.629 1.634-.094 3.3-.22 3.74-.283.627-.094.91.094 1.319.785.314.534.753.943 1.005.943.69 0 1.445 1.256 1.445 2.45 0 .786-.251 1.288-.974 1.979-1.1 1.037-1.79 1.1-3.801.409l-1.445-.503-2.042 1.288c-2.2 1.414-2.953 1.508-5.34.723zm36.284 2.324c-2.388-3.047-3.99-4.586-4.68-4.586-.347 0-.818-.22-1.038-.471-.314-.409-.282-.597.189-1.131s.502-.754.188-1.257c-.565-.911-.22-1.225 1.32-1.225.91 0 1.633.22 2.387.754 1.383 1.036 4.178 1.696 4.87 1.131.408-.346.597-.314 1.162.188 1.57 1.351 2.105 2.136 1.916 2.985-.125.722.032.942 1.131 1.539 1.445.817 1.634 1.257.597 1.257-.377 0-1.005.282-1.382.659-.566.503-.817.566-1.32.314-1.193-.659-2.199-.439-2.733.566-.251.502-.597 1.005-.754 1.099-.157.095-1.005-.722-1.853-1.822zm-38.012 15.551c-.785-.974-1.288-1.289-2.325-1.446-.816-.157-1.979-.691-2.921-1.413-.849-.629-2.168-1.32-2.89-1.54-1.1-.314-1.351-.534-1.351-1.099 0-.408-.283-1.539-.629-2.545-.816-2.387-.816-2.481.472-3.078.596-.283 1.319-.974 1.57-1.508.503-.974.597-1.005 2.137-.848 1.508.157 1.727.314 3.298 2.01 2.325 2.576 2.545 2.922 2.922 4.932.282 1.54.534 2.011 2.042 3.487.942.943 1.696 1.854 1.696 2.011 0 .157-.377.534-.848.848-2.388 1.539-2.105 1.508-3.173.189zm10.555 4.021c-.785-.409-1.256-.943-1.508-1.697-.188-.597-.534-1.225-.722-1.351-.22-.125-.629-.596-.911-1.068-.314-.471-.974-.911-1.508-1.036-.534-.126-1.35-.723-1.885-1.383l-.942-1.131 1.1-.094c.942-.094 1.319-.377 2.418-1.885.691-1.005 1.382-1.916 1.54-2.073.125-.157.596.126 1.005.597l.754.879 1.382-.565c.754-.283 1.54-.597 1.728-.691.314-.126 3.58 3.801 3.58 4.272 0 .094-.785.754-1.727 1.445l-1.728 1.257.063 2.325c.094 2.261.063 2.356-.722 2.544-.503.157-1.194.032-1.917-.345zm8.734-25.226a8.397 8.397 0 01-.189-1.665c0-.943.094-1.006 1.382-1.226 1.79-.251 2.074-.062 2.074 1.446 0 1.382-.063 1.413-1.791 1.822-1.194.251-1.32.22-1.476-.377z" fill="#F4F4F4"/><path d="M62.051 200.264c-.063-.094.063-.596.283-1.131.377-.911.314-1.162-.691-3.361-.911-2.01-1.068-2.576-.88-3.832.22-1.728-.565-3.707-1.445-3.707-.283 0-.848-.503-1.225-1.1l-.66-1.099 1.037-1.885c.848-1.54 1.225-1.948 2.136-2.199 1.79-.503 2.419-.377 3.236.659.69.88 1.1 1.037 3.832 1.571 3.927.754 6.095 2.293 3.927 2.796-.565.126-.88.628-1.445 2.325-.66 1.885-.691 2.324-.377 3.392.189.66.754 1.571 1.257 1.98 1.036.848 1.068 1.13.282 2.827-.565 1.256-.628 1.288-2.89 1.696-1.288.22-3.204.597-4.272.817-1.068.22-2.01.314-2.105.251zm3.895-7.288l2.042-.565.095-1.697c.125-2.481-.22-2.796-2.922-2.544l-2.199.22.094 2.199c.095 2.324.22 2.984.597 2.984.157 0 1.163-.283 2.294-.597zm-19.664 14.985c-.158-.22-.44-1.257-.66-2.262-.314-1.539-.66-2.105-2.294-3.864-1.099-1.194-1.822-2.167-1.665-2.387.817-1.477 2.074-2.702 2.514-2.514.282.095.66-.031.91-.377.378-.502.598-.502 2.608-.125l2.2.408.188 1.54c.157 1.036.534 1.853 1.13 2.544 1.383 1.571 1.289 3.33-.282 5.529-1.131 1.665-1.225 1.728-2.796 1.822-1.068.063-1.697-.063-1.853-.314zm23.466 3.424c-.974-.974-1.006-.974-2.45-.597-1.037.283-1.54.314-1.603.063-.251-.722-1.1-1.256-2.042-1.256-1.288-.032-1.445-.126-3.173-2.357-1.57-2.042-1.665-2.23-.974-2.481.252-.095.817-.88 1.257-1.76.503-1.005 1.037-1.633 1.508-1.727 1.665-.409 7.351-1.414 7.948-1.414.66 0 3.204 2.922 4.963 5.717l.911 1.508-2.324 2.451c-1.288 1.382-2.482 2.544-2.702 2.67-.188.094-.785-.283-1.32-.817zm-29.341-25.1c-.943-.534-.691-3.99.534-7.76 1.005-3.015 1.225-3.424 2.953-5.152 1.853-1.853 1.885-1.853 2.953-1.476.88.314 1.445.942 2.89 3.33l1.822 2.953h4.649l1.257 1.602c.691.88 1.257 1.696 1.257 1.853 0 .346-1.854 3.802-2.325 4.304-.251.252-1.602.503-3.55.597l-3.173.22-.785-.911-.786-.911-1.508.691c-1.664.723-5.371 1.131-6.188.66z" fill="#F4F4F4"/><path d="M60.418 223.323c-2.324-2.514-2.858-3.205-3.078-4.084-.158-.723-.095-.88.628-1.037.785-.22.785-.251.722-2.67-.062-1.351-.031-2.513.063-2.576 2.262-1.854 3.33-2.419 4.43-2.419.974 0 1.288.126 1.57.785.409.88.44.911 2.325.409 1.32-.315 1.508-.283 2.105.345l.691.691-.88.629-.88.659.22 3.707.22 3.707-3.172 1.602c-1.76.88-3.299 1.602-3.456 1.602-.126 0-.817-.596-1.508-1.35zm11.466-38.672c-.597-.534-1.665-.879-3.801-1.256-2.733-.503-3.016-.629-3.833-1.665-.848-1.068-.942-1.1-2.293-.88-.785.094-1.602.251-1.79.346-.22.062-1.037-.723-1.854-1.76l-1.476-1.885h-2.105c-1.194-.031-2.294-.125-2.482-.251-.471-.314-3.267-4.838-3.267-5.277 0-.22.44-.566.942-.754 1.163-.503 1.414-.943 1.728-2.985.377-2.67 1.163-3.393 2.105-1.979.345.534 1.194.848 3.581 1.351 1.697.377 3.55.879 4.116 1.099.88.377 1.193.346 3.11-.471l2.104-.911 1.822 1.948c1.571 1.696 1.917 1.916 2.45 1.633.943-.502 1.477-.408 3.08.629 1.099.691 1.853.942 2.952.942 1.288 0 1.508.094 1.665.754.283 1.131-.282 2.262-1.947 3.896-1.854 1.79-2.953 4.398-2.294 5.434.346.566.283.786-.44 1.697-.44.597-.91 1.099-1.036 1.068-.126 0-.597-.314-1.037-.723zm-17.811 20.2c-.283-.503-.629-.911-.754-.911-.157 0-.252-.503-.252-1.1 0-.785-.282-1.413-.974-2.199-.848-.973-1.005-1.382-1.036-2.921l-.032-1.759 1.414-.88 1.414-.88 1.853.534c1.822.503 1.885.503 3.016-.157l1.194-.691.88 1.979c1.005 2.262 1.005 2.325.376 3.896-1.853 4.492-1.759 4.366-4.775 5.403l-1.79.628-.534-.942zm19.571-2.859c-2.325-2.921-2.231-2.544-1.288-4.649l.816-1.885-1.13-1.037c-1.634-1.476-1.823-2.199-1.194-4.523.282-1.1.628-1.98.722-1.98.094 0 .597.503 1.1 1.131.848 1.068.974 1.1 2.23.911 1.602-.219 2.073.189 1.225 1.131-.534.566-.534.691-.094 1.477.251.471.942 1.005 1.508 1.194 1.413.439 6.126 5.748 5.592 6.283-.314.314-7.54 3.581-7.885 3.549-.189 0-.911-.722-1.602-1.602zm-28.116 28.022c-.786-.503-1.54-.911-1.728-.942-.252 0-1.477-1.791-1.98-2.859-.03-.126.755-1.131 1.791-2.262 2.042-2.262 2.545-3.675 2.545-7.1v-1.822l1.76-1.193c1.978-1.32 3.078-1.32 3.58 0 .157.439.44.785.629.785.188 0 .597.628.942 1.382.44 1.037.88 1.539 1.665 1.854 1.131.471 2.105 1.57 2.105 2.387 0 .283 1.005 1.539 2.199 2.859 1.98 2.136 2.199 2.482 2.199 3.675 0 1.634-.503 1.76-2.136.503-1.005-.754-1.225-.817-3.424-.628-1.288.094-2.42.251-2.514.314-.094.094-.25.66-.377 1.225-.188.911-.44 1.131-2.041 1.759-2.796 1.1-3.582 1.131-5.215.063z" fill="#F4F4F4"/><path d="M73.361 188.547c-.691-.754-.471-1.602.911-3.299 1.414-1.791 1.477-1.948 1.068-2.733-.597-1.099.22-3.016 2.105-4.901 2.105-2.073 2.796-2.104 4.46-.314l1.257 1.32.88-.597c.785-.534.88-.534 1.257-.032.376.534 1.068 4.493 1.068 6.283 0 .817-.157 1.1-.723 1.225-.377.095-1.445.849-2.387 1.634-1.32 1.131-1.854 1.414-2.357 1.225-1.13-.377-4.932-.125-5.434.346-.629.628-1.477.565-2.105-.157zm-56.138 72.945c-.22-.471-.471-.974-.534-1.1-.063-.125.22-.22.628-.22.409-.031.943-.157 1.194-.314.377-.251.408-.408.094-.942-.66-1.037-.471-1.445.817-2.042 1.194-.534 2.105-1.791 1.76-2.388-.126-.157-.66-.282-1.257-.282-1.194 0-2.545-1.163-2.86-2.451-.282-1.099.064-1.193 1.132-.282.722.596 1.35.848 2.23.848 1.131 0 1.288.094 1.728 1.099.628 1.508.942 4.932.503 5.686-.314.534-.377.503-.691-.44-.22-.565-.534-1.005-.754-1.005-.189 0-.974 1.037-1.76 2.356-.753 1.288-1.476 2.356-1.602 2.356-.094 0-.377-.408-.628-.879zm41.342 12.943c-2.074-.22-4.021-.346-4.304-.252-.314.094-.754.032-1.037-.125-.377-.22-.22-.503.911-1.634l1.414-1.351-.629-1.225c-.69-1.382-.785-1.288 1.98-1.822 1.005-.22 1.885-.471 1.947-.597.063-.094 0-.911-.157-1.759-.282-1.445-.22-1.602.817-3.142.597-.879 1.1-1.696 1.1-1.822 0-.125-.723-.22-1.603-.22h-1.633l.22-2.513c.125-1.602.063-2.984-.189-3.895-.188-.786-.282-1.539-.157-1.665.157-.126 1.351-.22 2.67-.189 2.074.032 2.482.157 2.953.723.691.848.723 1.445.095 2.073-.503.503-.566 1.477-.189 2.482.157.377.032 1.257-.314 2.293-.691 2.011-.566 2.325 1.414 3.801.785.597 1.508 1.288 1.57 1.571.095.283.252 1.759.346 3.33l.22 2.859-1.32.534c-1.319.503-1.35.503-1.13 1.759.22 1.477.69 1.414-4.995.786zm-25.038 12.314c-.282-.565-.408-1.194-.314-1.351.126-.188 1.76-1.319 3.676-2.544 3.392-2.199 3.455-2.231 4.02-1.634.315.346.849.628 1.163.628 1.1 0 .754 1.194-.471 1.791-.848.408-1.194.817-1.57 1.979l-.504 1.477-2.261.22c-1.226.125-2.482.282-2.765.345-.314.094-.66-.22-.974-.911z" fill="#F4F4F4"/><path d="M36.92 300.917c-.095-.377-.19-1.696-.19-2.89 0-2.074-.062-2.262-1.601-4.587-1.414-2.167-1.54-2.544-1.351-3.581.251-1.414.942-1.728 3.895-1.728 2.356 0 2.388-.031 3.142-2.042.282-.691.785-1.413 1.162-1.602 1.382-.66 1.697-1.162 1.602-2.293-.063-.974-.22-1.162-.942-1.225-.848-.126-1.288-.597-2.702-2.953l-.69-1.131 2.7-1.477 2.702-1.508 1.697 1.697c1.853 1.822 1.979 2.073 1.162 2.387-1.54.534-1.665.911-1.445 4.493.22 3.769.251 3.612-2.136 6.754l-1.194 1.602-.094 4.995-.094 5.026-1.571.346c-.848.22-2.074.377-2.702.408-.942.032-1.194-.094-1.35-.691z" fill="#F4F4F4"/><path d="M32.145 284.205c-.126-.315.063-.817.502-1.257.629-.66.691-.974.503-2.513l-.22-1.728h2.325c2.827 0 4.21.251 4.43.785.125.346-1.163 1.257-6.63 4.807-.628.377-.722.377-.91-.094zm-6.849-8.105c-.314-1.069-.817-2.262-1.194-2.639l-.628-.691 1.57-.786 1.572-.817 1.696.943c.911.503 2.607 1.414 3.77 2.042l2.105 1.099-.629 1.068c-.628 1.037-.628 1.069-2.45.88-1.257-.094-2.325 0-3.361.346-.817.282-1.571.534-1.697.534-.126 0-.44-.88-.754-1.979zm22.022-.629c-1.54-1.413-1.917-2.01-2.45-3.675-.346-1.1-1.1-3.047-1.697-4.335-.597-1.288-1.194-2.922-1.288-3.645-.22-1.35-2.042-4.932-3.016-5.905-.314-.346-1.005-.566-1.634-.566-.88 0-1.1-.126-1.193-.722-.063-.566-.252-.692-1.068-.597-.566.031-1.131-.126-1.32-.377-.314-.346-.094-.472 1.257-.66.91-.126 1.916-.44 2.199-.691.471-.44.597-.346 1.35.848.472.723 1.006 1.759 1.226 2.325.722 1.947.974 2.167 2.764 2.293 1.697.157 1.728.126 2.136-.848.409-.974.44-1.005 1.885-.786l1.508.189 1.163-1.885c.628-1.068 1.068-2.073.942-2.23-.094-.189-.754-.315-1.445-.315-1.037 0-1.257-.094-1.162-.565.094-.44.502-.566 2.45-.628 1.822-.095 2.513-.252 3.016-.723.722-.691 1.068-.534 1.068.471 0 1.006.597 1.477 1.35 1.068 1.069-.565 1.32.158 1.32 3.927v3.519l1.194.094c.628.063 1.162.22 1.162.377s-.345.785-.785 1.414c-.503.785-.691 1.413-.597 1.979.408 2.073.44 2.073-1.76 2.481-1.099.252-2.167.566-2.324.723-.189.157-.063.785.283 1.571l.597 1.288-1.508 1.445c-1.508 1.476-1.508 1.476-.849 2.01.88.723.849.943-.345 1.76-1.948 1.288-2.419 1.193-4.43-.629zm-25.132-3.707c-.723-.565-4.461-6.503-4.241-6.722.063-.063.817-.44 1.665-.786l1.54-.66.973 1.163 1.005 1.162 1.037-.534c1.414-.691 1.665-.66 2.262.377.503.817.503.88 0 1.194-.503.314-.503.44 0 1.759l.503 1.445-.943.377c-.503.22-1.414.723-1.98 1.131-1.036.691-1.067.691-1.821.094z" fill="#F4F4F4"/><path d="M22.437 263.785c-.47-.597-1.005-1.1-1.225-1.1-.188 0-1.162.409-2.136.88-1.005.471-1.916.785-2.042.66-.126-.126-.754-.377-1.382-.566-1.351-.439-1.54-1.068-1.54-5.434 0-2.231-.157-3.205-.973-5.498-1.257-3.581-1.791-5.498-2.042-7.382-.189-1.351-.126-1.508.408-1.508.314 0 .848.408 1.13.942.723 1.194 1.195 1.162 2.922-.063 1.289-.942 1.477-.974 3.393-.785 2.388.22 2.64.031 2.765-2.168.094-1.696 0-1.633 2.67-1.225.911.157 1.005.251.848 1.037-.251 1.194.566 2.01 1.57 1.633.598-.22.88-.125 1.352.409 1.445 1.665 1.445 1.665.88 3.361l-.535 1.571 1.163 1.728c.91 1.35 1.13 1.979 1.036 2.89-.094 1.162-.125 1.194-1.413 1.194-1.194 0-1.414.125-2.137 1.162-.91 1.351-.942 1.696-.282 3.393.502 1.193.471 1.256-.157 1.79-.346.314-.849 1.131-1.068 1.822-.283.786-.786 1.445-1.414 1.822l-.943.566-.848-1.131zm-2.67-2.607l1.35-2.105.44 1.005c.566 1.382 1.163 1.288 1.791-.314.409-1.131.44-1.759.22-3.707-.502-3.864-1.1-4.681-3.424-4.681-.44 0-1.194-.377-1.696-.848-.754-.723-.974-.785-1.665-.471-1.068.502-1.006 1.759.188 3.361.66.848 1.257 1.288 1.916 1.414 1.508.22 1.383.785-.408 1.508-1.633.691-1.696.816-1.1 2.293.189.377 0 .534-.722.691-.597.126-.974.377-.974.691 0 .88 1.602 3.299 2.2 3.299.345 0 1.067-.786 1.884-2.136zm9.424 21.016c-2.073-.534-2.387-.848-2.953-2.733-.157-.597 0-.723 1.445-1.068.911-.189 2.294-.314 3.079-.283l1.414.126.094 1.822c.094 1.665-.251 2.796-.848 2.701-.095-.031-1.1-.282-2.23-.565z" fill="#F4F4F4"/><path d="M34.626 277.796c-.88-.094-.88-.251-.094-1.445.848-1.319.817-1.539-.534-2.168-.66-.314-2.325-1.193-3.738-1.979-2.356-1.351-2.545-1.539-2.828-2.827-.282-1.194-.251-1.351.22-1.351 1.005 0 .943-.597-.157-2.262-.628-.911-1.13-1.916-1.13-2.23 0-.786.565-1.854 1.319-2.451.628-.502.628-.534.094-2.261-.534-1.665-.534-1.791-.031-2.576.377-.566.753-.786 1.382-.754.471.031 1.194-.095 1.602-.315.66-.376.848-.314 2.042.88.942.911 1.508 1.225 1.885 1.1.377-.157.597-.032.722.439.126.566.409.692 1.477.692 1.225 0 1.35.062 2.513 1.916.817 1.225 1.382 2.607 1.634 3.832.188 1.069.88 2.953 1.476 4.179 1.445 2.921 1.916 4.555 1.382 5.026-.188.188-1.35.88-2.576 1.539-2.827 1.508-3.047 1.697-2.858 2.482.157.597.03.66-1.477.66-.911 0-1.948-.063-2.325-.126zm7.602-18.817c-1.162-.158-1.728-.597-1.728-1.383 0-.816-2.136-4.649-2.701-4.869-.252-.094-.754.189-1.1.66-.628.785-.817.817-2.733.754l-2.105-.095-.157-1.256c-.094-.691-.66-1.948-1.225-2.796l-1.037-1.539.535-1.634.565-1.665-1.162-1.445c-1.226-1.476-1.383-1.571-2.64-1.476-.565.062-.722-.063-.627-.503.094-.471.408-.566 1.57-.566.817 0 1.665-.188 1.885-.439.44-.44.031-.88-2.105-2.451-.91-.659-.91-.691-.345-1.319.44-.503.974-.66 1.979-.66 1.225 0 1.57.189 3.298 1.759l1.917 1.791.974-1.1c.534-.596 1.476-1.79 2.073-2.607.817-1.131 1.414-1.633 2.356-1.885 2.01-.597 2.607-1.036 2.984-2.293.597-1.791.786-1.854 2.576-.723 1.383.849 1.822.974 2.765.817 2.356-.471 2.293-.502 2.796 1.665.534 2.199.565 2.136-1.697 3.707-.628.44-.628.44.095 1.791.722 1.351.722 1.382.188 2.513-.534 1.099-.628 1.162-2.073 1.162-1.57 0-3.393.691-3.393 1.257 0 .188.22.785.503 1.288.408.817.44 1.225.157 2.356-.471 1.791.063 3.675 1.225 4.524.66.471.817.785.691 1.539-.126.942-.094.974 1.194.974h1.288l-.723 1.288c-.722 1.288-.722 1.288-2.199 1.099-1.413-.157-1.54-.125-1.979.754-.565 1.068-.691 1.131-1.885 1.006z" fill="#F4F4F4"/><path d="M63.936 252.821c-.471-1.099-1.037-1.319-4.116-1.539-1.036-.094-4.052.44-4.46.785-.409.346-.503.189-.849-1.413-.251-1.131-.628-1.068-1.79.251-.943 1.037-1.068 1.099-3.11 1.099-2.86 0-3.613-.345-4.084-1.759-.283-.879-.283-1.445 0-2.481.314-1.131.282-1.508-.157-2.357-.723-1.413-.346-1.665 2.607-1.727 1.288 0 1.382-.095 2.2-1.54l.816-1.508-.66-1.193-.69-1.194 1.287-1.068 1.32-1.1-.409-1.853c-.22-1.037-.471-2.136-.534-2.482-.126-.471.126-.785 1.005-1.257 1.131-.628 1.477-1.005 1.822-2.136.126-.44.534-.534 2.042-.534 1.037 0 1.98.157 2.105.346.094.157.628.597 1.162.911.503.314 1.32 1.256 1.76 2.073.785 1.445.91 1.539 3.11 2.168 1.256.345 2.419.848 2.607 1.099.346.597.377 2.702 0 3.959-.377 1.288.031 1.884 1.414 2.136.817.157 1.288.502 1.759 1.319.377.628 1.1 1.32 1.602 1.539.66.252 1.068.754 1.351 1.571.22.66.346 1.32.251 1.445-.063.126-1.32.88-2.764 1.665-3.016 1.634-3.236 1.854-3.393 3.267-.063.817-.346 1.163-1.414 1.791l-1.319.785-.471-1.068zm58.243-67.73a5.973 5.973 0 00-1.665-.283c-.566-.031-1.163-.345-1.54-.848-.565-.691-.785-.785-1.853-.597l-1.225.189v-1.225c0-.974-.126-1.288-.597-1.414-.346-.094-.911-.754-1.257-1.445-.66-1.288-1.288-1.571-2.199-1.005-.22.125-.785.157-1.256.031-.66-.157-.849-.44-.974-1.445-.126-1.005-.283-1.225-.786-1.162-.345.062-1.256.188-2.042.282-1.35.189-1.476.126-2.262-.911-.534-.691-1.696-1.476-3.204-2.199-1.822-.879-2.419-1.319-2.576-1.947-.125-.472-.471-.88-.942-.974-.88-.22-4.838-4.335-4.838-5.027 0-.251.346-1.319.785-2.324.44-1.037.786-2.074.786-2.356 0-.252.565-.754 1.225-1.1 1.1-.534 1.288-.817 1.57-2.23.189-.911.692-2.042 1.132-2.545.722-.88.753-.942.314-2.387-.786-2.576-.629-3.393 1.068-5.655.659-.848.974-1.005 2.104-1.005 1.037 0 1.351.125 1.477.597.126.565 1.916 1.916 2.482 1.916.345 0 2.45-1.916 2.796-2.545.188-.377.157-1.036-.095-1.947-.439-1.665-.062-3.927.754-4.43.849-.534 1.163.031 1.477 2.89l.283 2.608 2.01 2.104c2.639 2.765 3.142 2.828 3.99.472 1.571-4.367 2.136-4.775 6.785-4.775 4.053.031 4.147.062 5.215 2.638 1.288 2.985 1.602 3.268 2.796 2.576l.911-.565 2.231 4.241 2.23 4.241 1.948-.189c1.413-.125 2.104-.031 2.544.283.534.409.503.534-.659 2.922l-1.257 2.513.691 2.262c.597 1.885.628 2.356.314 2.827-.377.471-.565.503-1.853.157-.786-.22-2.011-.377-2.733-.377-1.068 0-1.477-.22-2.796-1.508-.848-.816-2.451-1.979-3.581-2.576-1.917-1.005-2.105-1.036-3.299-.691-.723.22-1.288.597-1.288.817 0 .22.44 1.351.942 2.45.817 1.76.911 2.168.629 2.953-.22.503-.283 1.54-.189 2.356.22 1.603.283 1.54-1.728 1.948-.659.157-.911.534-1.539 2.576l-.754 2.388.943.754c1.256 1.036 1.759.973 2.921-.472.848-1.068 1.194-1.256 2.199-1.256.943 0 1.32.157 1.697.722.471.723.408.817-2.168 3.393-2.293 2.231-2.639 2.765-2.513 3.456.345 1.759-1.257 2.576-3.581 1.853z" fill="#F4F4F4"/><path d="M171.909 164.075c-5.749-2.545-7.791-3.613-11.843-6.315-3.707-2.418-5.09-3.172-5.624-3.047-.628.157-9.518.189-14.45.063-1.163-.031-2.231-.188-2.388-.346-.157-.157-1.162-1.979-2.23-4.021-1.603-2.984-1.885-3.769-1.54-4.021.252-.157.911-.565 1.508-.942l1.037-.66-.189-2.167-.219-2.137 1.35-.596c1.854-.786 4.65-3.865 4.65-5.09 0-.471.125-.974.282-1.068.503-.314 1.98 1.163 2.576 2.576.754 1.791.754 2.985 0 3.676-.596.534-.691.534-2.23 0-1.539-.566-1.571-.566-2.984.125-.786.377-1.508.911-1.634 1.194-.188.534.44 5.435.785 6 .252.377 3.425 1.665 4.147 1.665.283 0 1.257-.785 2.199-1.727l1.697-1.728h8.89c4.932 0 8.922.125 9.016.282.126.158-.597.723-1.539 1.257-.974.534-1.822 1.194-1.948 1.477-.189.502 1.853 2.827 2.89 3.235.408.157 1.257.032 2.325-.345 2.136-.723 2.764-.723 4.743.063 1.288.502 1.979.565 3.959.408l2.387-.189-.22 1.445c-.22 1.383-.188 1.477.66 1.823 1.508.628 3.047.439 4.524-.535l1.35-.911-.188-2.104c-.157-1.665-.063-2.231.314-2.608.503-.534.44-.534 5.341 2.262.754.44 1.727 1.382 2.324 2.325l1.006 1.571-.66.911c-.848 1.131-.848 1.005.157 3.361.44 1.099.722 2.073.597 2.199-.126.126-.66.031-1.225-.189-.974-.376-1.037-.345-2.168.912-.817.911-1.571 1.382-2.482 1.602-.722.157-1.885.785-2.607 1.35-.785.66-2.011 1.257-3.204 1.571-1.069.283-1.98.471-2.042.471-.063 0-3.268-1.413-7.1-3.078zm4.585-28.305c-1.35-1.037-2.481-2.199-2.576-2.576-.094-.408-.471-2.293-.816-4.209-.597-3.048-.597-3.645-.252-4.713.346-1.005.66-1.319 1.634-1.633.722-.252 2.325-1.477 4.178-3.236 2.639-2.482 3.11-2.796 3.864-2.639.754.157 1.005-.031 2.325-1.728.785-1.036 2.105-2.324 2.921-2.89a179.46 179.46 0 004.461-3.235c1.634-1.257 3.362-2.482 3.801-2.796.974-.629 7.32-1.634 13.289-2.105 2.482-.189 5.372-.628 6.66-.974 1.256-.377 2.481-.565 2.764-.471.88.345.566 1.979-.597 3.141-1.193 1.194-1.193 1.194-8.199 1.948-5.089.534-6.534 1.068-10.744 3.864-.974.628-2.639 1.508-3.644 1.916-1.005.44-2.796 1.54-3.927 2.451-1.131.942-3.204 2.544-4.586 3.581-2.639 1.948-5.938 5.466-7.288 7.759-.786 1.32-.786 1.477-.629 5.184.095 2.105.22 4.084.283 4.429.188 1.068-.503.817-2.922-1.068zm41.971-65.185c-.597-1.54.471-2.702 1.885-2.074.911.44.942.691.094 1.728-.722.942-1.696 1.1-1.979.346zm5.215 0c-.849-.377-.974-.566-.692-1.037.44-.817 3.425-1.57 3.802-.942.565.88.282 1.57-.817 2.01-.597.251-1.131.44-1.163.44-.062-.032-.565-.22-1.13-.471zm-9.174-.597c0-1.351 2.168-1.445 2.199-.094 0 .25-1.35.88-1.916.88-.157 0-.283-.346-.283-.786zm-.282-3.833c-.629-2.23-.377-2.387 2.293-1.476 1.382.471 1.476.565 1.382 1.476-.094.974-.157 1.005-1.728 1.1l-1.633.094-.314-1.194zm-12.064-1.037c-.534-.596-.534-.628.503-1.036 3.77-1.57 5.654-2.168 5.937-1.885.252.283.063 2.607-.22 2.607-.063 0-1.193.189-2.544.472-3.079.596-3.016.596-3.676-.157zm14.388-2.01l-.942-.408 1.728-.535c1.476-.44 1.759-.47 2.167-.062.377.377.377.534.032.942-.471.597-1.697.597-2.985.063zm-12.534-1.759c-.094-.189-.691-.314-1.288-.314-1.319 0-1.382-.597-.157-1.508l.911-.66 1.759.691c.974.377 1.728.785 1.728.943 0 .25-1.885 1.162-2.45 1.162-.157 0-.409-.157-.503-.314zm-186.98 86.139c-.503-.66-1.885-2.608-3.079-4.304-2.325-3.361-2.325-3.644-.094-3.644.974 0 1.256.157 1.79 1.036.346.566.943 1.288 1.289 1.634.628.566.66.566 1.57-.094.566-.44.974-.566 1.1-.377.345.534 1.728 5.12 1.728 5.717 0 .66-.157.754-1.917 1.037-1.382.188-1.476.157-2.387-1.005zm57.771 17.435c-.22-.22-.377-.503-.377-.628 0-.157-.596-1.54-1.319-3.079l-1.288-2.827h-1.225c-1.1 0-1.225-.095-1.037-.629.126-.408-.063-1.068-.471-1.727-.691-1.131-1.194-1.288-2.827-.817-1.226.345-3.393-.189-4.273-1.068-.754-.754-.817-.786-1.696-.314-.503.251-.974.471-1.068.471-.063 0-.22-.817-.314-1.822-.126-.974-.503-2.765-.88-3.927-.817-2.45-.754-2.545 1.508-2.89 1.005-.157 1.728-.032 2.921.471 1.665.723 1.948 1.162 2.42 3.833.188 1.099.25 1.162 1.821 1.35.88.095 2.105.157 2.702.095.974-.095 1.162-.283 1.916-1.822.472-.974.786-1.854.692-1.98-.063-.125-1.006-.722-2.137-1.319-1.476-.848-2.073-1.382-2.324-2.105-.503-1.476-.44-1.759.722-2.953.943-1.005 1.225-1.099 2.45-1.005 1.32.094 1.383.157 2.262 1.885.503 1.005 1.76 3.738 2.828 6.126l1.916 4.335 1.822.251c1.696.252 1.885.22 2.639-.471l.785-.722.754.942a45.253 45.253 0 011.697 2.23l.942 1.32-1.131.377c-.628.22-2.168 1.288-3.424 2.387-1.822 1.602-2.325 2.231-2.42 3.016-.062.817-.407 1.162-1.978 2.168-2.168 1.351-2.105 1.319-2.608.848z" fill="#F4F4F4"/><path d="M93.309 157.949c-.911-.974-1.257-1.1-3.299-1.288l-2.293-.22-2.167-2.953c-1.194-1.602-2.356-2.953-2.545-2.953-.22 0-.723.346-1.1.785-.66.754-1.602.943-2.953.597-.534-.157-1.256-1.445-3.078-5.592-1.32-2.953-2.388-5.56-2.388-5.78 0-.283.629-.377 2.136-.377 2.576 0 10.744-1.445 11.247-1.979.22-.22.597-1.853.88-3.675.282-1.823.628-3.393.754-3.55.157-.126.88-.409 1.665-.629 1.319-.377 1.476-.565 3.11-3.487 1.57-2.796 1.884-3.173 3.612-4.178 2.42-1.413 3.079-2.042 4.618-4.272.66-.974 1.351-1.791 1.508-1.791.189 0 1.037.503 1.916 1.131 1.477 1.068 1.571 1.225 1.383 2.136-.472 1.979-.032 3.016 1.288 3.016.848 0 .879.157 1.413 3.896l.377 2.827-.879.628c-1.854 1.32-3.236 2.733-5.027 5.089l-1.853 2.388.597 2.859c.314 1.57.628 3.11.722 3.424.126.471-.063.565-1.288.565-1.319 0-1.476.094-2.701 1.665s-1.288 1.791-1.257 3.707c.032 1.1.126 2.356.251 2.796.189.566.063 1.005-.44 1.602-.408.471-.816 1.508-.91 2.293-.189 1.163-.409 1.54-1.131 1.917-.503.251-.974.471-1.006.471-.063 0-.597-.503-1.162-1.068zm58.557 40.085c-3.205-1.288-4.681-1.414-8.388-.722-2.262.408-2.576.408-4.555-.158-2.042-.565-2.168-.659-2.953-2.167l-.786-1.571-2.356-.22c-3.267-.283-3.424-.22-3.424 1.665 0 2.231-.66 2.419-4.775 1.382-3.361-.816-3.644-.785-4.932.597-.44.44-.943.817-1.131.817-.377 0-1.414-3.11-1.414-4.241 0-.314.472-1.099 1.068-1.728.817-.911 1.194-1.79 1.634-3.612l.565-2.419 1.131.188c3.456.66 3.645.628 4.493-.502.534-.692.754-1.32.659-1.823-.125-.659.283-1.256 2.545-3.455 1.476-1.477 2.67-2.796 2.67-2.922 0-.157-.377-.754-.848-1.351-.785-.942-1.037-1.068-2.356-1.068s-1.539.095-2.513 1.288c-.974 1.163-1.163 1.257-1.759.943-.817-.44-.817-.628-.095-2.702.503-1.476.66-1.602 1.948-1.916l1.382-.346-.094-1.885c-.063-1.005.063-2.261.251-2.764.283-.754.189-1.194-.628-2.922-.754-1.602-.88-2.136-.565-2.324.722-.44 1.445-.283 3.141.722 2.607 1.54 3.424 2.168 3.738 2.985.22.628.472.754 1.665.754.754 0 2.294.282 3.393.628 1.1.314 2.011.597 2.042.628.032 0 .408-.502.848-1.131l.754-1.131-.754-2.199-.722-2.199.817-1.633c.439-.88 1.13-2.105 1.539-2.733l.722-1.163 5.781.063 5.78.032 4.838 3.172c3.424 2.231 6.094 3.707 9.079 4.964a557.517 557.517 0 005.497 2.356c4.555 2.042 4.021 1.948 6.44 1.288 1.477-.377 2.576-.911 3.456-1.665.817-.691 1.728-1.162 2.513-1.257.88-.125 1.477-.471 2.231-1.288 1.445-1.665 2.984-1.413 1.696.283-.66.911-.566 1.665.345 2.451l.786.691-.88 1.256c-.471.723-1.508 1.885-2.293 2.576-1.319 1.194-1.696 1.351-4.398 1.822-2.953.503-4.492 1.194-5.843 2.702-.283.314-1.508.88-2.67 1.225-1.194.346-3.016 1.225-4.053 1.948-1.728 1.194-1.948 1.288-2.23.785-.503-.879-.974-.659-3.079 1.445-1.696 1.728-1.979 2.199-2.105 3.362-.063.754-.157 1.382-.188 1.382-.063.031-.943.722-2.011 1.539-1.853 1.414-1.979 1.602-3.393 5.152-2.262 5.561-3.078 7.131-3.801 7.194-.345.032-1.885-.44-3.455-1.068z" fill="#F4F4F4"/><path d="M121.33 136.901c-1.979-.817-2.607-1.382-4.366-3.833-1.791-2.513-3.142-6.251-3.802-10.586-.502-3.142-.628-3.55-1.225-3.613-.471-.063-1.036.345-1.979 1.476-.942 1.1-1.571 1.603-2.105 1.603-1.005 0-1.193-.566-.597-1.98.44-1.099.44-1.13-.408-1.853-.471-.408-1.414-1.1-2.042-1.508-1.256-.848-1.351-1.131-.785-2.356.377-.848.471-.911 3.235-1.445 2.514-.471 3.173-.943 3.425-2.388.785-4.523 1.162-5.686 2.01-6.063 3.079-1.413 4.116-1.602 7.885-1.256 5.592.502 5.686.534 5.686 1.413 0 .66-.157.786-.942.786-.534 0-1.037.188-1.131.44-.314.785.785 3.958 2.419 7.099 1.476 2.796 1.602 3.205 2.042 6.912.251 2.136.754 4.743 1.099 5.78.723 2.23.723 3.738.032 7.885l-.534 3.141-1.885.503c-2.513.723-4.084.66-6.032-.157zm-47.373 33.237c-.942-.597-1.539-.754-2.356-.629-1.005.157-1.256 0-2.89-1.633l-1.822-1.791-1.32.534c-.753.283-1.79.691-2.324.911-.817.314-1.162.314-2.042-.125-.597-.252-2.136-.66-3.424-.88-1.885-.314-2.576-.565-3.362-1.319l-1.005-.974 2.074-2.325 2.073-2.293-.377-1.225c-.189-.629-.346-1.54-.346-1.98 0-.691.157-.816 1.194-.942.628-.063 1.602-.314 2.136-.565.88-.346 1.068-.346 1.665.251.848.754 3.016 1.162 4.807.848 1.508-.251 2.105.346 2.136 2.136 0 1.163.031 1.194 1.257 1.194h1.256l1.288 2.733c1.634 3.55 1.728 3.99 1.068 5.026-.534.786-.534.849.063 1.32.377.283.88.628 1.194.817.314.188.502.597.44 1.005l-.126.66-1.257-.754z" fill="#F4F4F4"/><path d="M46.532 169.761c-1.382-2.702-3.8-9.173-3.612-9.707.282-.817 4.178-7.383 4.743-8.043.252-.282.911-.534 1.445-.534 1.32 0 2.105-.597 3.299-2.481.974-1.508 2.136-2.231 3.487-2.231.754 0 1.822 2.859 2.073 5.561l.22 2.293h-.785c-1.163 0-1.602.722-1.414 2.262.094.754.251 1.633.377 1.979.126.44-.22 1.036-1.257 2.199-3.832 4.147-4.178 4.649-4.523 6.565-.189 1.037-.346 1.917-.346 1.98 0 .251-2.073 1.35-2.544 1.35-.283 0-.817-.534-1.163-1.193zm19.32-19.477c-.22-.346-.566-2.576-.44-2.576.094 0 .66.219 1.32.471 1.476.628 2.167.408 1.979-.628-.095-.44-.032-.786.125-.786.22 0 1.383.628 2.105 1.162.063.032-.126.66-.44 1.351l-.565 1.257h-1.98c-1.068 0-2.041-.126-2.104-.251zm39.08 39.394c-1.948-.629-2.136-.786-3.707-3.016-1.35-1.917-1.98-2.513-3.456-3.267-1.727-.88-1.916-.911-4.806-.691-2.105.157-3.267.377-4.021.816-.597.346-1.162.566-1.225.503-.094-.094-.346-1.508-.566-3.204-.345-2.325-.597-3.205-1.13-3.802-.786-.816-1.257-.911-2.2-.345-.565.345-.754.283-1.602-.817-.534-.66-1.32-1.319-1.728-1.476-.565-.22-.722-.503-.722-1.32 0-1.382-.471-1.79-2.105-1.79-1.32 0-1.35-.032-1.35-1.037 0-.754-.252-1.225-1.006-1.854-1.005-.816-1.037-.848-.408-1.507.314-.377 1.445-1.194 2.513-1.791 2.607-1.571 2.984-1.948 2.984-2.953 0-.66.44-1.257 1.98-2.607 1.099-.943 2.355-1.885 2.764-2.042.502-.189 1.979-.189 3.738-.063 2.859.251 2.984.282 3.99 1.382l1.036 1.131-.942 2.544c-.503 1.414-.942 2.734-.942 2.922 0 .534 4.775 5.56 5.277 5.56.22 0 .534.346.691.754.189.534 1.069 1.163 2.733 2.011 1.603.817 2.796 1.665 3.456 2.482l1.005 1.256 1.602-.314c1.791-.345 2.199-.126 2.199 1.257 0 .848 1.069 1.193 2.796.911 1.131-.189 1.257-.126 1.603.785.219.503.753 1.162 1.162 1.445.722.471.911 1.414.534 2.419-.094.251-1.037.848-2.042 1.32-1.916.848-2.262 1.476-1.319 2.167.439.314.502.566.219 1.288-.282.817-.408.88-1.633.817-.817-.063-1.571.063-2.011.377-.848.597-.848.597-3.361-.251zm317.131 70.431c-1.759-1.602-4.901-4.461-6.974-6.377-7.1-6.534-6.849-6.377-8.953-6.597-1.54-.188-2.042-.126-2.733.314-.692.471-1.257.503-3.739.314-3.173-.22-3.895 0-6.974 2.105-1.633 1.131-2.199 1.037-4.147-.691l-1.413-1.225.565-.943c.754-1.256.691-1.696-.345-2.481-.66-.472-1.037-1.194-1.445-2.639-1.006-3.644-1.163-4.021-1.728-4.021-.314 0-.88.345-1.288.785-.409.409-.817.785-.943.785-.094 0-.628-.659-1.193-1.413-.535-.786-1.163-1.414-1.383-1.414-.188 0-.754.377-1.256.817-1.1 1.068-1.854.628-1.602-.942.157-.943.062-1.069-1.446-1.885-.879-.472-1.602-1.037-1.602-1.226 0-.219.723-.879 1.602-1.476 1.508-1.005 1.665-1.037 2.891-.754 2.042.534 6.063.251 8.419-.565l2.105-.692 1.539 1.006c1.885 1.193 2.325 1.225 4.681.188 1.445-.66 2.167-.785 3.298-.66 1.382.158 1.634.063 4.084-1.57 1.602-1.068 3.519-2.042 4.807-2.419 1.382-.44 2.293-.911 2.513-1.288 1.225-2.262 1.885-2.985 2.921-3.173.66-.126 2.136-1.068 3.739-2.325 3.487-2.764 4.021-3.016 5.089-2.639 1.225.409 1.288 1.948.125 4.87-.848 2.167-1.947 7.288-1.947 9.173 0 1.005.188 1.005 2.764.22 1.1-.346 2.168-.629 2.388-.629.22 0 .722.566 1.099 1.257s.848 1.257 1.037 1.257c.188 0 1.665-1.006 3.299-2.199 2.701-2.074 2.921-2.294 2.921-3.299 0-.974.094-1.1.754-1.1.534 0 1.225-.502 2.199-1.633l1.414-1.602.974 2.167c.565 1.194 1.193 2.608 1.445 3.142l.408 1.005-2.482 1.005c-1.382.534-2.513 1.163-2.513 1.351 0 .189.44.786.974 1.351l.974 1.005-.786.691c-.502.44-.879 1.194-1.005 1.98-.125.722-.66 2.167-1.162 3.235-.88 1.854-.943 2.136-.817 5.341.094 3.11.189 3.55.974 4.743.817 1.288.911 1.351 2.513 1.351 1.571 0 1.728.063 3.299 1.665.911.911 1.633 1.854 1.633 2.074 0 .251-.283 1.539-.66 2.89-.502 1.853-.816 2.513-1.288 2.639-.345.125-1.947.031-3.518-.189-2.702-.346-2.953-.346-4.429.283-1.446.628-5.655 1.947-6.221 1.947-.125 0-1.665-1.319-3.455-2.89zm24.253 6.095c-.283-.126-1.257-1.131-2.199-2.231-3.016-3.549-2.828-3.141-2.356-5.183.251-.974.471-1.854.534-1.885.502-.408 6.565-3.644 6.848-3.644.188 0 .848.22 1.445.534 1.1.503 1.257.503 3.958-.188 1.54-.409 2.89-.692 2.985-.597.063.094-.723 1.445-1.759 3.047-1.037 1.571-2.294 3.675-2.796 4.649-1.037 2.074-4.21 5.309-5.372 5.561-.44.062-1.006.062-1.288-.063zm36.893-120.131c-1.123-4.348.053.033-.576-2.763-.659-2.828-.537-3.048-1.919-4.273l-1.445-1.288.534-2.262c.66-2.701.911-1.727-3.361-13.854l-3.173-8.953-.22-4.021c-.283-4.681-.409-4.995-3.362-7.099a74.902 74.902 0 01-2.827-2.074l-.722-.628.785-1.508c1.131-2.105.88-2.733-1.1-2.733h-1.539l-1.445 2.67c-1.037 1.916-1.414 2.89-1.288 3.393.126.377 1.131 1.445 2.231 2.356 1.256 1.005 2.041 1.916 2.041 2.262 0 .345-.094.628-.219.628-.126 0-1.226-.974-2.451-2.167-2.387-2.325-3.644-2.985-4.806-2.451-.88.377-1.037.22-1.948-2.073-.628-1.665-.785-1.79-1.696-1.79-1.32-.032-1.508-.19-2.702-2.294-.88-1.602-1.131-1.822-2.23-2.01-1.069-.158-1.226-.283-1.226-1.037 0-1.037 1.006-2.42 3.55-4.838 1.068-1.037 2.388-2.608 2.89-3.456.786-1.32 1.1-1.602 1.98-1.696.785-.063 1.193-.314 1.57-1.005.44-.754.911-.974 2.639-1.383 3.142-.722 3.11-.722 4.461 1.728.66 1.225 1.382 2.293 1.634 2.388.251.094 1.13-.409 1.947-1.1 1.445-1.194 1.665-1.288 3.833-1.35l2.293-.095.566-2.042c.314-1.13.596-2.482.596-3.016 0-.534.346-1.853.786-2.953.44-1.1.785-2.481.785-3.047v-1.037h1.822c.974 0 1.948.095 2.136.22.189.126 1.288 3.55 2.451 7.634 1.382 4.9 2.387 7.885 3.016 8.89.534.817.942 1.634.942 1.76 0 .125-1.257.628-2.796 1.068-1.539.44-2.921 1.005-3.079 1.194-.188.22-.471 1.979-.659 3.926-.283 2.953-.283 3.676.094 4.618.723 1.728.597 1.854-.974 1.006-2.764-1.54-3.078-1.006-1.539 2.607.597 1.414 1.099 2.733 1.099 2.89 0 .157-.565 1.005-1.256 1.885-.691.88-1.257 1.696-1.257 1.822 0 .723 7.665 12.472 8.388 12.849.314.157 1.288.188 2.136.094l.524-.974.217-1.374c.704-.789 1.137-.535 1.639-.692.66-.188 1.076.558 1.578 1.469.189.377 1.129.852 1.665 1.72 2.027 1.374 4.601.832 6.495 1.767-.728 2.838-.494 6.015-.73 4.63-.469-2.752.808 1.532 1.939 3.574l5.033 1.628.313 2.055c-2.419 2.073-1.507 7.935-1.716 7.585-1.173-1.968-.085.041 4.867 3.223 1.257.848-.37 6.379 1.195 8.447 2.62 2.517 2.854 2.828 4.071 5.23l1.57 6.757-27.56-13.508c-1.582-1.469-3.147-3.541-3.241-3.509-.094.031-2.275-2.552-3.249-3.62z" fill="#F4F4F4"/><path d="M462.871 262.654c-.377-.911-.472-1.728-.314-2.827.188-1.445.125-1.634-1.414-4.021-.88-1.383-1.728-2.891-1.916-3.33-.157-.44-.409-.786-.534-.786-.126 0-1.571.409-3.205.943-3.487 1.099-3.487 1.099-5.089.282l-1.257-.628-3.078 1.728c-1.728.974-3.204 1.759-3.299 1.759-.094 0-.188-.22-.188-.502 0-.283-.911-1.414-2.042-2.514-1.948-1.916-2.136-2.01-3.581-2.01-1.383 0-1.54-.094-2.137-1.194-.471-.848-.691-1.916-.785-3.99-.126-2.67-.094-2.953.911-5.12.566-1.257 1.037-2.639 1.037-3.079 0-.408.44-1.225.974-1.822.785-.911.879-1.225.628-1.728-.189-.345-.597-.785-.911-.942-.723-.44-.314-.786 1.979-1.728 1.037-.408 2.011-.942 2.136-1.194.283-.471-2.984-7.791-3.487-7.791-.157 0-.942.754-1.759 1.697-1.225 1.413-1.665 1.728-2.639 1.822-1.162.094-1.162.094-1.068 1.382.126 1.288.094 1.32-2.262 3.079-1.319.974-2.513 1.759-2.67 1.759-.157 0-.597-.534-.943-1.162-.753-1.257-1.068-1.257-4.178-.283-1.382.44-1.508.408-1.508-.063 0-1.476 1.037-6.157 1.948-8.639.817-2.325.943-2.984.691-3.927-.251-1.005-.471-1.225-1.602-1.633l-1.351-.472-2.356 1.665c-1.288.88-2.482 1.634-2.639 1.634-.345 0-1.288-3.079-1.288-4.241 0-.471.157-1.1.314-1.445.629-1.162.032-2.136-2.104-3.361l-2.011-1.163.22-1.256c.346-2.074.346-2.137-.911-2.953-1.005-.691-1.131-.849-.723-1.226.346-.377.409-1.319.283-4.9l-.157-4.43 3.11-1.602 3.079-1.571-.063-1.884-.063-1.917 1.948-.597 1.948-.597.157-2.356.157-2.356 1.099-.125c2.168-.189 2.136-.252-1.665-5.152-2.01-2.576-2.419-3.299-2.701-4.838-.44-2.325-.472-2.105.628-3.393 1.099-1.225 1.068-1.571-.346-3.927-.471-.817-1.036-1.979-1.288-2.639-.377-1.005-.345-1.193.126-1.696.44-.408 1.005-.534 2.513-.44 1.068.032 2.576-.126 3.362-.345 1.193-.377 1.539-.66 2.199-1.917l.785-1.445h3.675l-.219-1.665-.189-1.633 1.539-1.194c1.54-1.162 1.603-1.194 3.048-.848 2.261.502 3.801 1.445 4.837 2.921l.943 1.383-.911 1.256-.911 1.225.785 1.163c.88 1.288 1.508 1.413 2.639.534.691-.534 1.288-.629 4.649-.629 3.11 0 3.833.063 3.833.44 0 .251-.691.66-1.634.974-2.167.723-2.481 1.005-2.387 2.136.094.88-.031 1.006-1.257 1.445-.754.283-1.539.786-1.727 1.131-.189.346-1.634 2.168-3.205 4.084a319.484 319.484 0 00-3.267 3.99c-.345.471-.314.817.314 2.293.786 1.885.754 2.293-.502 5.529l-.566 1.445 1.163 1.885 1.193 1.916-.974 3.896-.973 3.927.502 4.398.503 4.429-1.445 6.786c-.817 3.738-1.382 6.942-1.288 7.099.125.157.817.314 1.539.314 1.1 0 1.791-.282 3.424-1.413 1.163-.786 2.231-1.414 2.388-1.414.188 0 .911.691 1.665 1.571 1.571 1.822 2.544 2.073 2.513.628 0-.094-.094-.471-.189-.848-.157-.534-.031-.785.472-1.068.848-.44 1.288-.031 1.822 1.822.251.942.534 1.351.942 1.351.628 0 3.487-2.89 3.487-3.487 0-.22-.44-1.163-1.005-2.105l-.974-1.728 1.319-1.256c1.257-1.163 1.414-1.226 2.796-1.037.817.094 2.796.283 4.398.377 3.11.188 2.953.094 3.268 2.136.062.377 1.068 1.131 2.764 2.073l2.67 1.477.534 2.482c.817 3.927 2.671 7.571 5.624 10.995 1.413 1.633 3.549 4.618 4.743 6.66l2.231 3.644.22 4.398c.125 2.45.094 4.555-.032 4.712-.345.377-1.225-.377-1.225-1.099 0-.534-3.173-3.11-3.801-3.11-.503 0-3.424 4.241-3.33 4.837.031.377.597.943 1.288 1.32.974.534 1.413.628 2.199.408.534-.157 1.005-.283 1.068-.283.031 0 .063.849.063 1.885v1.885h-.974c-.503 0-1.225.126-1.571.314-.597.346-.597.409.377 2.105l1.005 1.759-1.288 1.194c-1.288 1.194-1.319 1.225-3.801 1.225h-2.513l-1.131 1.728c-1.162 1.854-1.288 2.325-.754 2.89.377.346.157 1.037-.314 1.037-.157 0-.503-.597-.785-1.288z" fill="#F4F4F4"/><path d="M436.859 157.289c-.283-.66-.22-.942.534-1.916l.848-1.131-1.131-1.696c-1.194-1.791-3.016-2.985-5.215-3.425-.596-.125-1.319-.282-1.602-.345-.283-.094-1.162.345-1.947.974-.817.628-1.634 1.036-1.791.942-.157-.126-.314-.691-.314-1.319 0-.943-.314-1.445-2.168-3.362-2.764-2.858-3.801-4.869-3.801-7.382v-1.854l2.073-1.068c1.163-.565 2.168-1.225 2.262-1.445.063-.251-.44-1.036-1.162-1.79l-1.32-1.32 1.822-1.633c1.32-1.163 2.011-1.571 2.451-1.445.345.094 1.005.251 1.476.345l.848.189-.188-1.603c-.157-1.507-.126-1.665 1.068-3.078.691-.848 1.351-1.697 1.477-1.916.125-.22-.534-1.163-1.697-2.451l-1.948-2.073.22-1.508c.189-1.477.189-1.508-.942-2.199-.911-.566-1.1-.848-.942-1.382.565-1.822.534-1.979-.44-2.702-.534-.377-.974-.785-.974-.942 0-.126.942-.849 2.073-1.603s2.199-1.665 2.356-2.073c.189-.534.503-.723 1.194-.723 1.131 0 1.131 0 1.696-2.481.44-1.822.409-1.98-.157-2.702-.565-.754-.565-.754.032-1.1.44-.22.691-.188 1.037.22.219.283.942.88 1.602 1.351l1.162.88 2.859-1.068c1.759-.66 3.33-1.477 4.052-2.136.911-.817 1.54-1.1 2.89-1.288 1.1-.126 2.137-.503 2.796-.974 1.665-1.225 2.325-1.037 3.676 1.13 1.005 1.634 1.288 1.886 2.136 1.886 1.162 0 1.382.25 2.136 2.23.283.785.691 1.665.911 1.979.409.534.471.534 1.445.032.943-.503 1.068-.472 2.011.125.565.346 1.853 1.477 2.89 2.513 1.037 1.037 2.042 1.917 2.23 1.917.283 0 2.011 7.445 2.011 8.607 0 .283-1.477.189-2.419-.157-.471-.188-1.476-1.036-2.23-1.885-.754-.848-1.634-1.539-1.98-1.539-.408 0-1.35 1.131-3.047 3.676-1.351 2.041-2.544 3.926-2.639 4.209-.219.534.126 1.822 2.734 10.304 1.696 5.498 2.701 7.665 4.083 8.796.44.377.629.346 1.414-.251 1.005-.723 1.571-.848 1.571-.346 0 .189-.691 1.131-1.508 2.137-1.32 1.602-1.602 2.23-2.388 5.246-1.068 4.052-1.288 4.555-2.01 4.555-1.1-.032-1.288-.408-.911-1.822.408-1.477.125-1.948-1.194-1.948-.817 0-7.697 4.021-7.916 4.65-.126.251.062 1.193.377 2.104.314.911.471 1.791.345 1.979-.094.189-.691.472-1.288.692-.597.188-1.099.471-1.099.628 0 .188-1.697.314-3.833.314-3.33 0-3.99.094-4.806.628-1.194.786-1.351.786-1.791-.157z" fill="#F4F4F4"/><path d="M433.686 98.324c-1.382-1.162-1.571-1.257-2.325-.911-.754.345-.911.251-2.042-.817l-1.193-1.194-2.514.094-2.544.095-1.225-1.351c-1.194-1.288-1.257-1.477-1.257-3.361 0-1.823.094-2.105 1.1-3.33.816-.974 1.099-1.634 1.099-2.482 0-.817.283-1.508 1.005-2.388.974-1.225.974-1.225.377-1.885-1.131-1.256-3.424-2.701-5.466-3.424-1.131-.408-2.168-.848-2.325-1.005-.439-.377.503-2.168 3.079-5.749 2.702-3.707 3.016-4.272 3.016-5.309 0-.44.188-.911.377-1.037.22-.125 1.948-.314 3.832-.44 2.168-.157 3.55-.377 3.802-.66.534-.565.816-4.523.345-5.088-.22-.315-1.131-.503-2.701-.566-1.885-.094-2.545-.251-3.362-.88-.565-.408-1.037-.973-1.037-1.193 0-.44 3.456-6.754 5.435-9.896.974-1.57 4.618-4.963 9.048-8.387 4.366-3.393 15.173-10.681 15.833-10.681.345 0 1.413.282 2.356.628.942.345 2.01.628 2.356.597.848 0 4.052-2.262 4.209-2.953.157-.786-.408-1.037-3.015-1.288-2.325-.22-2.796-.566-1.822-1.383.251-.22.753-1.319 1.099-2.481.628-2.074.628-2.105 3.204-3.77 1.383-.943 2.765-1.76 3.048-1.822.282-.063 1.005.314 1.602.817l1.099.91-.565 2.137c-.943 3.675-1.1 3.518 4.649 4.524 2.042.345 3.927.785 4.147.973 1.037.88 0 3.11-1.445 3.11-1.1 0-1.508.346-3.173 2.608-1.257 1.728-1.382 1.853-2.388 1.696-.879-.157-1.288 0-2.607 1.068-1.634 1.288-1.759 1.508-2.073 3.582-.409 2.513-.22 2.356-3.079 2.136-3.173-.22-3.487 0-3.173 2.387.126.849.377 1.791.566 2.042.219.315 1.507.66 3.455.943 1.697.251 3.236.565 3.362.722.157.157.565 1.383.911 2.765l.628 2.482-1.382 2.041c-1.728 2.482-1.571 2.86 1.193 2.86 1.697 0 2.137-.158 3.55-1.1 1.822-1.225 2.011-1.257 4.493-.754 1.539.314 1.947.282 3.644-.314 2.513-.88 3.298-.849 4.335.22l.879.91-2.356 2.514-2.356 2.513 1.225 4.963c.692 2.734 1.194 5.152 1.1 5.372-.126.314-.817.44-2.388.44h-2.199v1.414c0 .817-.345 2.23-.785 3.298-.44 1.006-.785 2.325-.785 2.89 0 .566-.189 1.728-.409 2.608l-.408 1.57-2.199.158c-1.948.125-2.356.282-3.393 1.162-.628.566-1.319 1.037-1.539 1.037-.189-.032-.911-1.005-1.571-2.2-1.319-2.512-1.382-2.512-4.744-1.727-2.733.628-2.89.691-3.267 1.54-.22.533-.691.816-1.539.942-1.068.188-1.319.44-2.419 2.261-.66 1.132-1.979 2.702-2.89 3.488-2.576 2.199-3.267 3.36-3.267 5.497 0 2.136-.534 2.639-3.173 2.953-1.32.157-1.916.409-2.922 1.35-1.099.975-5.215 2.828-6.314 2.828-.157 0-1.005-.597-1.822-1.32zm-11.31-65.248c-1.036-1.131-1.162-1.445-1.162-2.985 0-1.476.094-1.728.722-1.916.377-.126 1.068-.471 1.54-.817.44-.314.974-.565 1.162-.565.817 0 .063 7.162-.785 7.445-.189.063-.849-.471-1.477-1.162zm42.285 266.742c-.282-.189-.063-.88.848-2.608.692-1.288 1.257-2.513 1.257-2.733 0-.22-.911-1.853-2.042-3.644-1.414-2.293-2.544-3.644-3.77-4.618-.942-.754-1.727-1.602-1.727-1.885 0-.628.942-3.487 1.319-3.958.157-.189 1.225-.503 2.387-.723 2.514-.408 3.833-.879 3.833-1.382 0-.188-.188-.911-.44-1.602-.251-.691-.534-2.765-.659-4.555-.158-2.482-.409-3.739-.974-4.995-.786-1.759-.943-2.545-.503-2.545.157 0 .503-.188.817-.44.565-.377.565-.471.063-1.193-.472-.754-.472-.848.314-2.262l.817-1.445h4.837l1.728-1.54 1.697-1.539-.849-1.759-.848-1.728 1.163-.094c.911-.094 1.193-.251 1.35-.88.346-1.225.315-4.335-.031-4.555-.157-.126-.817-.063-1.445.126-.88.251-1.351.188-2.042-.157-.503-.252-.911-.566-.911-.723 0-.125.565-1.068 1.288-2.042l1.288-1.79 1.445 1.036c1.037.754 1.508 1.32 1.571 1.917.094.628.377.973 1.131 1.288.848.345 1.068.628 1.225 1.633.126.66.503 2.419.848 3.896.628 2.418.691 3.801.848 15.707l.157 13.037-2.01 4.398-2.011 4.367-3.864 1.162c-2.105.66-4.021 1.319-4.241 1.508-.251.188-.471 1.288-.565 2.513-.094 1.194-.44 2.796-.754 3.613-.471 1.162-.754 1.445-1.382 1.445-.44-.032-.943-.126-1.163-.251z" fill="#F4F4F4"/><path d="M370.009 231.208c-2.199-1.665-2.419-1.979-3.424-4.681-.597-1.508-1.728-3.141-5.969-8.45l-.848-1.068-1.979.848-1.98.848-1.979-1.916-2.01-1.917-2.293.189c-1.257.125-2.514.283-2.796.377-.252.063-1.288 1.79-2.262 3.801-1.351 2.796-1.854 4.178-1.979 5.655-.157 1.35-.409 2.136-.817 2.513-.597.534-.66.502-1.477-.534-.596-.723-1.036-1.006-1.382-.848-.974.345-5.403 3.424-6.534 4.523l-1.131 1.068-.974-.848c-1.194-.974-1.225-1.225-.503-8.356.283-2.765.409-5.215.346-5.435-.094-.22-.628-.503-1.162-.628-.691-.157-1.32-.723-2.231-1.948-1.131-1.539-1.256-1.885-1.099-2.953.094-.628.282-1.414.377-1.665.125-.345-.22-.754-1.257-1.382-.879-.534-1.414-1.1-1.445-1.445 0-.66-1.194-2.859-2.419-4.524-.534-.754-1.099-1.068-2.01-1.225-1.163-.189-1.226-.22-.723-.754.408-.471.44-.754.157-1.634-.66-1.947-1.005-2.073-5.686-2.199l-4.241-.062-.094-1.508c-.063-.974.125-1.948.565-2.922.346-.817.629-1.759.629-2.073 0-.346-.66-1.54-1.445-2.639-1.163-1.634-1.477-2.388-1.697-4.021-.345-2.293-.565-3.016-.974-3.016-.722 0-.565-1.005.377-2.293l1.006-1.445-1.163-5.906-1.131-5.906-1.602-1.602-1.602-1.634 1.791-1.791c1.696-1.696 1.884-1.79 3.015-1.665 1.665.252 2.011-.314 2.451-3.832.22-1.665.471-3.236.565-3.55.063-.314 1.068-1.602 2.168-2.827 1.099-1.257 2.01-2.513 2.01-2.796 0-.88-4.838-7.885-6.283-9.142-1.288-1.099-1.413-1.351-2.042-4.241-.377-1.665-.628-3.267-.565-3.518.126-.503 2.042-1.885 2.607-1.885.157 0 .597.565.943 1.256.848 1.665 1.571 1.634 2.45-.157.848-1.759 1.508-2.167 4.744-2.984 2.639-.628 3.173-.628 3.173.126 0 .659 1.853 2.073 2.701 2.073.409 0 2.419-.691 4.461-1.539 2.011-.849 3.99-1.634 4.367-1.728 1.037-.346 1.099-1.005.251-2.922-.911-2.01-.942-2.576-.345-3.424.377-.503.785-.565 2.827-.503 2.293.095 2.45.063 3.518-.879.597-.503 1.226-.943 1.351-.943.157 0 1.728 1.288 3.519 2.891 2.481 2.261 3.078 2.921 2.607 3.015-.66.126-1.382.629-1.382 1.006 0 .125 1.099 1.036 2.419 2.042 2.136 1.602 2.984 2.01 6.66 3.204 5.623 1.79 5.654 1.759 4.021-3.142-.629-1.947-1.163-3.801-1.163-4.084 0-.439.409-.502 2.922-.439l2.89.063.628-1.823c.346-.973.817-1.853 1.069-1.947.251-.094 1.319-.283 2.356-.377 2.481-.252 3.078-.566 2.858-1.445-.157-.534.157-1.006 1.257-2.074.785-.754 1.414-1.476 1.414-1.633 0-.157-.974-1.037-2.199-1.917-2.262-1.633-2.388-1.822-2.608-4.429-.157-1.759-.031-1.948 2.545-3.393 5.654-3.204 9.33-5.497 11.215-7.068 1.916-1.57 2.262-1.728 3.424-1.634 1.382.095 1.351.032.911 2.168-.094.503 0 .88.283.974.44.157 10.555-1.98 11.183-2.388.22-.125 1.571-2.607 3.048-5.497l2.67-5.278 2.513-1.32c2.482-1.287 2.545-1.287 4.304-.973 1.351.251 1.979.565 2.513 1.194.377.47.723.973.723 1.1 0 .093.282.282.628.407.942.283 4.335-2.136 4.901-3.518.534-1.225.471-1.225 3.675.063 1.885.754 4.304 2.482 4.304 3.016 0 .188-.283.69-.628 1.13-.346.44-.629 1.226-.629 1.728 0 1.1-.408 1.917-1.602 3.33-.817.911-.911 1.225-.911 3.267 0 1.917.126 2.42.628 2.86.346.313.692.816.786 1.13.314 1.005 2.419 1.665 4.649 1.414l2.011-.22 1.727 1.916 1.76 1.948-.377 1.633c-.346 1.508-.44 1.634-1.445 1.791-.817.126-1.1.346-1.257.911-.126.534-.974 1.288-2.576 2.356-1.351.88-2.419 1.791-2.419 2.074-.031.251.471.785 1.1 1.193.911.597 1.099.849.911 1.414-.597 1.916-.566 2.042.597 2.765 1.099.722 1.162.785.973 2.167-.188 1.414-.157 1.477 1.54 3.299.974 1.036 1.759 2.042 1.759 2.23 0 .189-.566 1.005-1.288 1.822-1.1 1.225-1.257 1.602-1.162 2.576.125 1.1.125 1.1-.911.911-.974-.188-1.257-.031-3.236 1.728-1.225 1.068-2.199 2.105-2.199 2.325 0 .188.502.848 1.099 1.445.629.597 1.068 1.193 1.006 1.351-.032.125-.911.722-1.948 1.256l-1.885 1.005-.094 2.042c-.126 2.891 1.099 5.467 3.832 8.074l1.979 1.916.44 2.608c.629 3.738.691 3.581-1.099 3.581-1.54 0-1.571 0-2.293 1.445-.912 1.822-1.98 2.262-5.404 2.199-2.324-.063-2.419-.031-2.953.848-.283.534-.534 1.131-.534 1.382 0 .252.66 1.665 1.445 3.173l1.414 2.733-.974 1.226-1.005 1.225.502 2.356c.44 2.23.66 2.607 3.016 5.592 2.576 3.267 2.702 3.707 1.068 3.738-.722 0-1.068 1.1-1.068 3.613v1.256l-1.948.629-1.979.628.095 1.885.094 1.885-3.079 1.633-3.078 1.602.125 4.555c.094 4.367.063 4.556-.565 4.901-1.005.534-.786 1.163.691 1.979 1.382.786 1.382.817 1.037 2.985l-.22 1.288 2.042 1.193c1.131.66 2.136 1.383 2.23 1.634.094.251 0 .942-.22 1.539-.345.911-.283 1.445.314 3.77.786 3.079.723 3.299-1.35 3.833-1.194.282-1.508.565-2.514 2.167-1.068 1.728-1.225 1.885-2.921 2.262-1.163.283-2.702 1.068-4.524 2.293-2.607 1.76-2.859 1.854-4.147 1.634-1.068-.157-1.727-.031-3.173.597-2.293 1.037-2.607 1.005-4.555-.189l-1.602-1.005-2.607.848c-2.828.911-5.812 1.1-8.137.472-1.319-.346-1.382-.346-3.361 1.099-1.1.817-2.073 1.445-2.168 1.445-.094 0-1.099-.722-2.23-1.602zM359.516 97.193c-.314-2.042-.251-2.293.943-2.764 1.256-.535 3.926-.503 4.115.062.125.346-2.796 2.765-4.21 3.519-.565.314-.659.22-.848-.817zm-12.408-5.592c-.786-.251-1.54-.565-1.697-.754-.314-.314-1.131-4.02-1.162-5.277 0-.691.063-.723 2.764-.629l2.734.126-.095-.942a23.15 23.15 0 00-.157-1.728c-.031-.597.095-.786.566-.786.44 0 .691.314.879 1.194.283 1.131.472 1.32 2.451 2.2l2.136 1.004-1.571 2.042c-3.33 4.304-3.77 4.524-6.848 3.55zm7.037-7.885c-2.419-1.32-2.293-3.016.251-3.424 1.006-.157 1.1-.094 1.445.848.377 1.162.472 3.456.126 3.424-.157 0-.942-.377-1.822-.848zm5.246-4.524c-.848-.88-.345-1.382 2.922-3.015 4.241-2.105 4.398-2.105 4.115-.063-.126.848-.283 1.759-.377 1.979-.094.251-1.256.66-2.576.942-2.89.629-3.581.66-4.084.157zm136.434 162.854c-.503-.283-1.194-.723-1.539-1.005-1.194-1.037-4.241-5.309-5.686-7.98-1.288-2.387-1.634-2.827-2.796-3.33-1.1-.471-2.388-1.853-6.974-7.445l-5.624-6.817-2.544-1.194c-3.173-1.445-4.681-2.795-6.692-5.937-1.696-2.639-1.916-3.55-1.068-4.461.409-.471.471-.848.22-2.073-.283-1.508-.408-1.634-2.796-2.67-1.068-.44-1.225-1.1-.377-1.603.472-.314.849-.031 2.576 1.76 1.1 1.162 3.142 3.11 4.555 4.335 1.603 1.414 2.702 2.67 3.016 3.393.409 1.068 1.006 1.476 6.189 4.335 9.77 5.435 12.629 7.068 12.911 7.351.189.157-.534.66-1.79 1.225-1.163.534-2.199 1.162-2.294 1.414-.094.251.566 2.136 1.446 4.178.911 2.042 1.979 4.492 2.418 5.466.911 2.073 1.163 2.199 7.697 4.367 4.053 1.319 6.063 2.513 4.147 2.481-.503 0-1.697-.125-2.639-.282-1.257-.189-1.853-.157-2.136.125-.44.409-.471.315 1.068 3.864.534 1.194.22 1.32-1.288.503zm-249.526 70.023c-.849-.094-1.226-.408-1.948-1.57-.534-.786-1.005-1.697-1.1-1.98-.251-.785-.911-.942-1.885-.439-.879.471-3.487.565-4.869.188-.817-.22-5.12-5.937-4.838-6.409.095-.125.503-.219.911-.219.629 0 .849-.252 1.163-1.288.314-1.1.314-1.351-.095-1.571-1.727-1.005-1.696-1.037 1.069-1.948 2.576-.848 2.701-.942 3.958-2.733 1.382-1.979 1.602-2.073 3.55-1.602 1.382.314 1.633.094 1.979-1.696.408-2.357.44-2.388 3.267-1.76 1.351.314 2.607.66 2.796.786.502.282.094 1.162-.943 2.073-.879.723-.911.88-.816 2.953l.094 2.199 1.382.408c1.194.315 1.508.315 2.073-.062.66-.409.723-.346 1.665 1.665.534 1.162 1.288 2.638 1.665 3.267l.723 1.193-.88.911-.911.943.974 1.099c.943 1.069 1.037 1.885.283 2.137-.22.094-1.571.408-3.016.754-2.325.534-2.733.722-3.581 1.759-.534.66-1.1 1.162-1.288 1.131-.189-.032-.817-.095-1.382-.189z" fill="#F4F4F4"/><path d="M220.161 274.026l-3.235 1.351c-2.325.942-4.241 1.508-6.754 1.885l-3.959.911c.943 1.508 1.634 3.581 4.556 11.78 1.256 3.519 2.356 6.346 2.45 6.346.126 0 .754-.722 1.414-1.602 1.727-2.325 2.356-1.948 3.487 2.011l.502 1.79 1.602.032c.911.031 3.236.031 5.152-.032l3.487-.063 1.006 1.414c.848 1.162 1.162 1.382 1.79 1.257.44-.095.911-.44 1.131-.786.377-.722.251-.817-1.633-1.885-.849-.471-.943-.659-.629-1.036.22-.283.503-.472.691-.472.189 0 1.508-.377 2.985-.816 2.544-.786 2.607-.817 4.052-2.828l1.445-2.042 1.697.157c1.633.22 1.665.252 1.853-.628.126-.502.409-1.476.66-2.199.346-.942.408-1.948.251-3.927l-.22-2.639-3.015-3.518c-1.665-1.948-3.173-3.55-3.362-3.55-.188 0-.534.22-.754.471-.691.849-1.413 1.068-4.398 1.414l-2.921.314-1.571 1.728c-.88.974-1.759 1.728-1.948 1.696-.188-.062-1.633-1.539-3.078-3.298l-2.734-3.236zm97.543 24.661l-2.828-.692-.973-2.764c-.566-1.508-1.068-2.796-1.131-2.89-.252-.22-13.194-3.016-14.325-3.079-1.477-.094-2.042-.942-1.854-2.701.126-.974.377-1.571.911-1.948.848-.66.786-.597 2.325-2.388 1.414-1.633 2.387-1.696 2.639-.22.157.849.534 1.131 4.084 2.891 2.701 1.319 4.303 1.947 5.152 1.947.879 0 1.79.377 3.047 1.194 1.633 1.037 1.822 1.288 1.759 2.136-.063.848.031.943 1.037 1.037.722.063 1.319.345 1.79.911l.692.848 1.445-.722c1.822-.911 2.356-1.477 2.356-2.451 0-.534.659-1.539 2.01-3.047 1.1-1.225 2.168-2.764 2.356-3.361.314-.943 2.733-3.959 6.66-8.231.346-.377.66-1.602.88-3.456.722-6.283.754-7.036.251-7.822-.251-.408-.879-1.979-1.351-3.487-.879-2.733-.879-2.764-.377-4.649.566-2.105.691-1.822-1.539-3.644-1.068-.849-.628-1.854 1.194-2.796 1.099-.566 1.539-.974 1.696-1.665.189-.848.283-.911 2.451-1.1 2.324-.188 3.047-.628 3.047-1.822 0-.66.314-.691 1.979-.251 1.005.283 1.319.251 1.759-.157.754-.66 1.131-.597 1.539.314.409.88.44.88 3.079.44 1.602-.283 2.262-.597 3.393-1.602 1.162-1.006 1.445-1.477 1.633-2.702.157-1.131.472-1.728 1.351-2.513 1.665-1.54 2.576-1.32 1.288.314-.911 1.194-.785 2.45.566 5.026 2.104 4.053 3.392 5.812 4.366 6.032.472.094 1.634.628 2.545 1.131 1.539.879 1.634 1.036 1.634 2.167 0 1.037-.126 1.257-.943 1.603-1.099.439-2.922 2.513-5.372 6.094-.942 1.351-1.853 2.702-2.073 2.984-.66.88.22 3.236 1.413 3.77 1.76.786 1.603 1.979-.691 4.712-.942 1.163-2.104 2.074-3.55 2.828-1.979 1.036-2.136 1.225-2.387 2.419-.189.973-.566 1.539-1.477 2.293-.691.534-1.539 1.571-1.884 2.23-.597 1.163-.723 1.257-1.98 1.257-1.005 0-1.665.22-2.67.942-.848.66-1.508.911-1.916.786-.817-.252-2.859.754-2.859 1.445 0 .314.157.911.346 1.319.314.66.251.943-.314 1.728-.974 1.382-.849 2.136.471 2.827l1.131.566-1.1.754c-.817.565-1.162 1.036-1.288 1.947-.22 1.383-.408 1.414-3.738.66-1.697-.377-3.016-.44-5.341-.314l-3.11.22-2.45 1.728c-1.445 1.005-2.765 1.696-3.173 1.696-.408-.031-2.01-.345-3.581-.722z" fill="#F4F4F4"/><path d="M341.14 298.09c-1.1-.88-1.257-1.163-1.194-2.105.063-.88.314-1.257 1.382-2.042.723-.534 1.32-1.131 1.32-1.382.031-.22-.534-.629-1.226-.943-1.445-.597-1.507-.879-.596-2.073.596-.754.659-.974.345-2.011-.314-.974-.283-1.193.189-1.539.314-.251.911-.346 1.445-.251.691.125 1.162-.032 2.136-.786.848-.691 1.696-1.036 2.859-1.193 1.445-.189 1.696-.315 2.104-1.226.283-.565 1.131-1.633 1.948-2.419.974-.942 1.508-1.727 1.634-2.513.188-1.005.408-1.225 2.167-2.01 1.602-.754 2.262-1.32 3.77-3.205 1.696-2.136 1.822-2.419 1.728-3.738-.094-1.257-.22-1.476-1.1-1.885-1.445-.597-1.979-2.293-1.099-3.267.345-.377 1.162-1.508 1.853-2.545 1.948-3.078 3.959-5.434 4.807-5.654 1.256-.346 1.57-.786 1.57-2.262 0-1.068-.188-1.539-.753-2.105-.911-.817-3.362-2.073-4.084-2.073-.786 0-4.744-6.503-4.964-8.168-.094-.691.063-.785 1.979-1.131 3.707-.691 4.87-1.665 4.524-3.832-.408-2.514-.44-2.545-1.571-2.765-1.445-.283-2.042-1.382-2.042-3.864 0-2.199.063-2.23 3.079-2.23h2.105l.628 1.602c.534 1.382 1.037 1.979 3.141 3.612 1.383 1.1 3.33 2.419 4.304 2.985 1.697.911 1.791 1.036 1.728 2.073-.063.943.094 1.163 1.1 1.759l1.162.66.754-.691c.408-.377.817-.691.942-.691.095 0 .629.628 1.194 1.414.566.753 1.194 1.413 1.382 1.413.22 0 .754-.314 1.225-.66.472-.377.912-.628.974-.565.032.063.377 1.131.754 2.356.377 1.288 1.006 2.576 1.445 3.016l.786.785-.66.817c-.346.471-.597 1.037-.534 1.257.063.251 1.005 1.162 2.105 2.073l1.979 1.665-1.759 1.759c-1.288 1.32-1.948 2.325-2.514 3.896-.911 2.356-.848 2.921.377 3.204.472.126 1.477.911 2.231 1.759l1.382 1.571-.848 1.885c-.817 1.822-.848 2.042-.754 6.565.094 4.43.126 4.713.848 5.498.88.911.628 1.414-.942 2.073-.691.283-1.163.849-1.697 2.074-.471 1.068-1.005 1.79-1.476 1.947-1.602.629-3.55.692-5.121.22-2.387-.722-2.796-.628-3.769.786-.974 1.413-1.131 1.445-3.519.754-2.073-.597-4.618-.472-5.372.314-.283.283-1.225 1.728-2.105 3.236-1.508 2.607-1.759 2.858-5.529 5.623l-3.926 2.921-5.247.629c-7.099.879-7.414.879-8.984-.377z" fill="#F4F4F4"/><path d="M319.998 291.304c-.126-.408-.566-.66-1.414-.817-1.1-.188-1.225-.314-1.131-.911.22-1.036-3.77-3.644-5.529-3.644-.911 0-2.325-.534-4.869-1.79-3.236-1.571-3.644-1.885-3.833-2.734-.408-1.979-1.948-2.01-3.832-.062-1.351 1.382-1.383 1.413-2.137.911-.628-.409-.942-.44-1.57-.157-.723.345-1.131.188-3.99-1.414-2.733-1.508-3.456-1.791-4.869-1.822-1.602 0-1.728-.094-3.048-1.571-.753-.879-1.382-1.665-1.413-1.791 0-.094.722-.659 1.571-1.193a42.447 42.447 0 001.602-1.068c0-.032.251-1.54.565-3.33.503-2.89.503-3.456.157-4.524-.502-1.382-.659-1.068 2.199-4.43l1.225-1.445-1.005-2.576c-.534-1.445-.974-2.795-.974-3.015 0-.189.409-1.194.943-2.231l.942-1.853 1.791-.189c2.827-.314 3.078-.408 3.55-1.256.251-.44.534-.786.659-.723.126.031.817.848 1.54 1.759 1.131 1.445 1.413 1.634 2.293 1.571 1.005-.094 1.005-.126 1.037-1.853 0-1.634.157-1.98 2.419-5.435l2.419-3.644-.472-1.163c-.659-1.539-.628-1.633.629-1.853.911-.157 1.382 0 3.047 1.037 1.948 1.225 4.115 1.979 4.9 1.727.189-.062.377-.502.377-.973 0-.44.283-1.446.629-2.199.848-1.885.817-2.105-.629-3.048-1.382-.911-1.445-1.162-.785-2.324.251-.44.471-1.54.471-2.419 0-1.571-.031-1.634-1.036-1.979-.597-.189-1.445-.754-1.917-1.226-.785-.848-.848-1.005-.534-2.136.189-.66.346-1.696.346-2.262 0-.816.345-1.476 1.382-2.67 1.32-1.571 1.382-1.759 1.948-5.183l.565-3.55-1.193-1.005-1.194-.974.251-3.362.22-3.361 2.136-1.445c1.916-1.257 2.168-1.351 2.451-.88.251.44.094.786-.692 1.571-1.193 1.257-.973 1.539 1.477 1.853l1.853.283 1.194 1.948c.66 1.068 1.225 2.356 1.288 2.827.063.597.503 1.131 1.414 1.728 1.194.817 1.288.974 1.036 1.696-.188.44-.314 1.069-.314 1.383 0 .879 2.828 5.026 3.425 5.026 1.35 0 1.382.188.816 6.911l-.565 6.377 1.225 1.037c1.853 1.602 2.199 1.602 3.707.189 1.225-1.163 5.592-4.147 6.094-4.147.126 0 .629.471 1.1 1.099.471.597 1.005 1.1 1.162 1.1.157 0 .786-.66 1.414-1.477.911-1.193 1.099-1.727 1.099-2.953 0-1.162.377-2.324 1.697-5.089 1.665-3.55 1.696-3.581 2.89-3.801 2.89-.471 3.299-.346 5.309 1.696 1.037 1.037 2.011 1.885 2.199 1.854.157 0 .88-.283 1.571-.597.691-.346 1.508-.628 1.79-.628.534 0 5.31 5.843 5.529 6.754.063.283-.534.471-2.293.628-2.764.252-2.984.471-2.984 3.11 0 2.356.879 4.147 2.199 4.43 1.099.22 1.665 1.256 1.508 2.796-.126 1.162-1.32 1.916-3.519 2.23l-1.539.22.534-.723c.691-1.005.66-1.131-.408-1.696-.88-.44-.943-.44-2.514.817-1.35 1.131-1.602 1.508-1.79 2.701a4.662 4.662 0 01-1.163 2.482c-1.193 1.382-1.57 1.571-3.707 1.854-1.759.22-1.759.22-2.104-.754-.409-1.163-.754-1.225-1.979-.314-.88.596-1.006.628-2.294.188-1.57-.565-1.947-.408-2.262.88-.282 1.225-.596 1.382-2.701 1.413-2.262 0-2.765.189-2.765 1.1 0 .879-.314 1.194-2.042 2.136-.942.534-1.288.943-1.445 1.759-.251 1.288-.094 1.822.629 2.042.314.095.848.471 1.193.786.629.597.66.691.189 2.481-.471 1.885-.471 1.917.534 4.964.565 1.728 1.131 3.236 1.288 3.393.377.408.345 3.298-.032 5.811-.188 1.131-.408 2.514-.502 3.048-.094.691-1.131 2.104-3.424 4.712-2.011 2.262-3.425 4.178-3.644 4.869-.189.628-1.32 2.231-2.514 3.55-1.57 1.759-2.167 2.639-2.167 3.267 0 .691-.252 1.005-1.163 1.477-.659.345-1.288.659-1.382.691-.126.063-.283-.157-.345-.503zm-69.993 5.215c-.628-.314-.785-.66-.88-1.854-.094-1.288 0-1.539.754-2.042 1.571-1.068 4.838-4.46 4.838-5.026 0-.314-.22-1.414-.471-2.45-.628-2.639-.597-3.267.346-4.493.816-1.036.816-1.099.345-2.293-.377-.974-.408-1.445-.126-2.325.409-1.382.22-1.602-1.068-1.13-.565.188-1.068.282-1.131.219-.062-.062.157-.754.44-1.539.534-1.445.534-1.476-.188-2.733-.66-1.194-.723-2.23-.126-2.199.157 0 .66.66 1.131 1.414 1.037 1.602 1.445 1.696 4.932.942 1.131-.251 2.168-.314 2.293-.188.157.157.409.879.566 1.633.157.754 1.225 3.173 2.325 5.341 1.13 2.199 2.041 4.146 2.041 4.398 0 .22-.471.911-1.036 1.508-.597.628-1.225 1.727-1.445 2.45-.283 1.1-.848 1.728-3.016 3.55-1.791 1.476-2.733 2.513-2.859 3.078-.44 2.074-.565 2.2-2.859 2.419-2.827.252-3.267.409-3.172 1.037.125.66-.629.785-1.634.283z" fill="#F4F4F4"/><path d="M251.262 289.545c0-.471-.691-.691-4.116-1.445-1.696-.346-1.79-.44-1.979-1.508-.094-.628-.188-1.948-.188-2.953 0-1.759-.032-1.854-1.948-4.084-1.099-1.257-2.701-3.141-3.613-4.178l-1.633-1.916-.471-3.896c-.252-2.167-.566-4.555-.691-5.34l-.189-1.445 2.356-.503c1.288-.283 3.11-.974 4.021-1.508 1.414-.848 2.074-1.005 5.247-1.257 1.979-.188 3.612-.282 3.675-.219 1.602 2.01 2.984 4.303 2.984 4.963 0 .503-.408 1.225-1.162 1.948-.66.628-1.445 1.665-1.791 2.262-.596 1.099-.596 1.099.158 2.513l.722 1.382-.691 1.696c-.377.911-.691 1.854-.691 2.105 0 .409.094.409 2.01-.22.503-.125.566-.062.409.534-.094.409.063 1.194.314 1.76.503 1.036.503 1.099-.377 2.356-.88 1.256-.88 1.351-.503 3.078.848 3.896.848 4.084-.282 5.247-1.163 1.193-1.571 1.35-1.571.628zm23.593-192.352c0-.283.251-2.294.565-4.398.44-2.953.723-3.959 1.163-4.273.879-.66 1.288-.565 1.759.377.377.691.628.817 1.539.786 1.1-.063 1.131-.032 2.074 2.104.722 1.571.879 2.23.628 2.45-.377.283-7.351 3.52-7.603 3.52-.094 0-.157-.252-.125-.566zm-5.623-5.749c-1.414-.314-2.702-.66-2.859-.722-.125-.095-.502-.974-.816-1.917-.409-1.382-.472-2.136-.283-3.393.283-1.508.345-1.633 1.508-2.01 1.947-.629 4.492-.566 5.466.157.817.597.848.722.942 4.21.063 3.047 0 3.58-.439 3.926-.315.22-.629.377-.723.377-.094-.031-1.351-.282-2.796-.628zm-5.969-10.147c-.849-.942-.911-1.225-.692-2.105.157-.565.44-1.633.629-2.356.345-1.382 1.665-3.236 2.293-3.236.628 0 2.702 3.519 2.922 4.932.345 2.23.031 2.796-1.885 3.362-2.231.66-2.168.66-3.267-.597z" fill="#F4F4F4"/><path d="M299.076 162.158c.942.252 1.79.849 2.796 1.885l1.445 1.508.974 5.184c.565 2.827 1.005 5.34 1.005 5.56 0 .188-.503.974-1.1 1.696-1.319 1.634-1.35 2.074-.188 2.922.754.565.911.942 1.099 2.639.157 1.633.44 2.356 1.603 4.115.785 1.162 1.413 2.325 1.413 2.607 0 .283-.283 1.069-.66 1.791-.565 1.1-.628 1.665-.471 3.33.095 1.131.252 2.105.377 2.231.22.219.817.251 5.089.282l3.048.063-1.854 1.225c-1.037.691-1.979 1.445-2.105 1.665-.125.22-.282 2.011-.314 3.99l-.063 3.55 1.037.879c.974.786 1.037.943.848 2.231-.848 5.686-.754 5.309-2.136 6.754-1.194 1.225-1.382 1.571-1.571 3.33-.125 1.099-.345 2.262-.439 2.639-.252.848 1.382 2.796 2.89 3.424 1.288.534 1.351 1.351.251 3.424-.44.817-.785 1.602-.785 1.728 0 .157.659.66 1.445 1.131 1.005.597 1.382.974 1.288 1.351-.095.282-.346 1.005-.566 1.633-.188.597-.408 1.257-.471 1.477-.126.471-.911.471-1.979.063-.408-.189-1.571-.817-2.576-1.414-1.508-.911-2.011-1.068-2.89-.911-.88.157-1.917.377-2.136.66-.22.282-.22.565 0 1.005 1.068 1.948 1.068 1.979-1.414 5.717-2.073 3.173-2.325 3.739-2.325 5.09 0 2.041-.534 1.947-2.356-.377-.785-1.037-1.571-1.885-1.728-1.885-.125 0-.659.502-1.162 1.131-.88 1.068-1.068 1.162-3.11 1.35l-2.168.189-1.162 2.199c-.66 1.194-1.162 2.419-1.194 2.67 0 .252.44 1.602.943 2.953 1.068 2.765 1.193 2.419-1.351 5.341l-1.54 1.727.472 1.414c.44 1.288.44 1.728 0 4.398l-.503 2.953-1.665 1.163c-.942.659-1.696 1.382-1.696 1.633 0 .251.816 1.351 1.822 2.45.974 1.131 1.79 2.137 1.79 2.231 0 .126-1.539.66-3.455 1.225l-3.456 1.005-.283 1.32c-.188.848-.565 1.508-1.036 1.822-.409.251-1.288 1.413-1.948 2.576-2.073 3.518-3.204 4.335-7.257 5.183-.251.063-1.57-.063-2.89-.251-2.01-.283-2.607-.503-3.298-1.225l-.88-.88 1.791-1.633c1.256-1.131 1.884-2.011 2.104-2.828.157-.628.817-1.759 1.414-2.482.628-.722 1.131-1.507 1.131-1.759 0-.22-.974-2.356-2.168-4.712-1.162-2.387-2.261-4.901-2.356-5.623-.408-2.262-.628-2.388-3.267-1.854-3.361.723-3.864.66-4.681-.534-1.099-1.633-1.131-1.916-.094-2.89.785-.754.943-1.162.943-2.293 0-1.131-.252-1.759-1.383-3.362l-1.382-1.979.566-.879c.376-.566.534-1.194.408-1.822-.126-.817.094-1.288 1.131-2.608 1.037-1.288 1.288-1.853 1.288-2.89 0-1.194-.063-1.288-1.163-1.571-4.209-1.099-3.864-.911-3.864-2.167 0-1.445.126-1.602 1.98-2.859 1.633-1.131 1.696-1.351.973-3.173-.471-1.194-.565-1.256-1.853-1.256s-1.445-.126-2.984-2.042c-1.822-2.231-1.822-2.231-6.221-2.545-3.549-.251-4.178-.66-3.235-2.105.597-.942.597-.974-.094-2.827-.472-1.351-.566-1.916-.283-2.011.565-.219 5.246-3.612 5.497-3.989.409-.597.283-.754-1.759-1.948-1.508-.88-2.167-1.476-2.576-2.387-.628-1.383-.565-1.477 2.231-4.493 1.884-2.042 1.979-2.45 1.225-4.681-.503-1.476-.503-1.476.377-2.733 1.539-2.136 1.696-2.576 1.696-5.057 0-2.859-.377-3.456-2.576-4.021-1.665-.44-1.508-.063-1.665-4.084-.031-.974-.094-1.917-.126-2.137 0-.219-.502-.628-1.099-.848l-1.037-.44-.22-3.204c-.22-2.702-.377-3.424-1.131-4.681-.565-.974-1.005-2.356-1.256-3.895-.314-2.136-.283-2.45.283-3.55.565-1.099 1.884-3.11 2.199-4.021.314-.911.22-1.382-.786-4.241l-1.162-3.204-1.131.22c-2.23.408-2.293.377-3.676-1.571-.753-1.037-1.35-1.979-1.382-2.105 0-.126.848-.817 1.885-1.571 1.979-1.445 2.702-2.638 3.016-5.089.188-1.194.063-1.445-1.1-2.859-.691-.879-1.288-1.727-1.288-1.884 0-.189.723-1.069 1.603-1.98l1.602-1.665.502.692c1.068 1.507 1.634 1.884 2.828 1.79l1.162-.094.094-1.948c.094-1.853.063-1.979-1.445-3.927-.817-1.099-1.602-2.23-1.728-2.544-.22-.597.346-5.246.691-5.623.095-.126 2.608-.44 5.529-.723 7.666-.722 8.011-.785 8.231-1.319.094-.283-.188-1.226-.628-2.168l-.817-1.665 1.319-1.948c.723-1.099 2.042-2.796 2.953-3.769 1.414-1.508 2.168-1.98 5.467-3.456 2.733-1.225 3.926-1.916 4.146-2.45.314-.629 2.89-2.231 3.644-2.231.158 0 .44.409.66.911.691 1.697.911 1.697 4.367.032l3.204-1.571-.094-1.162c-.094-1.069-.032-1.163 1.005-1.446 1.822-.471 1.979-.785 1.539-2.953l-.377-1.884 1.54-2.451c.848-1.351 1.822-2.639 2.167-2.858.754-.566 2.074-.566 2.765-.063.471.377.408.534-.754 1.885-1.791 2.104-1.539 2.576 1.257 2.293 2.073-.22 2.167-.189 2.356.502.094.409.188 1.037.188 1.414 0 .566.534 1.068 1.131 1.068.063 0 .817-.659 1.696-1.413l1.603-1.414h5.654l2.042 1.633c1.163.912 2.136 1.98 2.231 2.419.125.44.219 2.231.251 3.959v3.141l-2.073 3.142a136.795 136.795 0 00-3.707 6.063c-.911 1.633-2.262 3.958-3.048 5.183-1.35 2.199-1.665 3.142-1.099 3.487.188.094 1.099.094 2.105-.031 1.696-.189 1.947-.346 4.492-2.671 1.476-1.35 2.796-2.45 2.922-2.45.251 0 .345.251 1.068 3.55.502 2.168.691 2.576 1.759 3.424.691.503 2.167 2.388 3.361 4.147 3.299 4.932 3.205 4.272.974 6.785-2.136 2.419-2.356 2.953-2.67 6.346-.283 2.985-.44 3.236-1.979 3.11-1.131-.063-1.32.063-3.456 2.294m-96.726 91.762h-.063c-.157.094-.314.659-.314 1.194 0 .628-.283 1.256-.785 1.79l-.817.88.659 1.099c.786 1.351.629 1.477-2.23 2.231l-2.073.534-.691 2.419-.692 2.387 1.068 1.571c1.194 1.665 1.194 1.822.063 4.398l-.502 1.225.691-.157c.408-.094 1.413-.377 2.262-.597 1.193-.345 1.508-.314 1.822 0 .314.314.314.597-.252 1.602-.408.66-.722 1.445-.722 1.665 0 .22.911 1.414 1.979 2.733.503.629.911 1.069 1.257 1.571 1.413-.565 2.89-.848 4.429-1.099 2.513-.409 4.367-.911 6.754-1.917l3.299-1.413 1.728 1.947c.942 1.069 2.23 2.545 2.89 3.236l1.162 1.288 1.602-1.602 1.602-1.665 2.828-.22c3.267-.251 4.68-1.037 4.68-2.607 0-1.508-1.036-9.613-1.256-9.896-.126-.126-1.131.189-2.199.754-1.068.534-2.074.88-2.231.754-.157-.157-.471-1.414-.754-2.796-.251-1.351-.596-2.576-.722-2.702-.126-.125-1.414-.031-2.859.157-2.356.283-2.67.22-3.047-.251-.251-.377-1.194-.628-2.576-.848l-2.199-.314-1.1-1.822c-.565-.974-1.476-2.042-2.042-2.419-1.068-.754-9.707-3.236-10.649-3.11z" fill="#F4F4F4"/><path d="M188.401 272.361c-.094-.157-.094-.785.032-1.414.251-1.35-.032-1.759-2.545-3.361-1.476-.974-2.136-1.194-3.079-1.131-.816.063-1.288-.063-1.445-.377-.157-.251-.439-2.387-.659-4.775l-.377-4.304 1.539-3.078 1.508-3.079 1.885-.471 1.885-.471-.063-1.885c-.157-3.079-.409-3.676-1.822-4.053-1.194-.345-1.257-.408-1.351-1.759-.063-1.131.126-1.759.974-3.141.565-.943 1.162-1.697 1.319-1.634.189.031.503.628.754 1.319.44 1.351.251 1.257 4.587 2.325 1.036.251 3.141.534 4.649.66 2.607.188 2.859.157 4.147-.597.754-.44 1.445-.817 1.539-.817.094 0 0 .503-.157 1.131-.283.974-.157 1.602.974 4.744 1.571 4.461 1.633 5.654.251 7.194-.974 1.131-1.005 1.162-.471 2.073.314.534.471 1.037.408 1.162-.094.126-.942.409-1.885.629-.973.22-1.916.565-2.136.785-.22.22-.754 1.539-1.131 2.953l-.754 2.576 1.131 1.571 1.131 1.57-.628 1.603c-.346.879-.597 1.822-.534 2.073.188 1.162-9.016 3.047-9.676 1.979zm42.724-11.026l-.471-2.576h-2.984c-1.822 0-3.173-.157-3.456-.377-.251-.189-1.351-.472-2.419-.597-2.167-.252-2.167-.252-3.518-2.388-1.288-2.073-2.639-2.796-7.854-4.178-2.513-.66-4.712-1.288-4.963-1.414-.252-.125-1.006-1.79-1.665-3.675-1.194-3.236-1.226-3.487-.88-5.089.314-1.32.785-2.136 2.45-4.116 1.948-2.356 2.137-2.481 3.362-2.513.722 0 1.476-.188 1.665-.44.188-.219.974-2.073 1.759-4.115.754-2.042 1.476-3.77 1.539-3.864.063-.063 1.414-.031 3.016.094 2.733.22 2.89.283 3.33 1.131l.471.911 2.576-.22c2.513-.188 2.639-.157 4.838.943 1.257.628 2.482 1.162 2.702 1.162.251 0 1.413-.628 2.607-1.414 1.665-1.068 2.262-1.319 2.702-1.068.314.157.565.44.565.597 0 .189.346.44.754.597.471.189 1.037.848 1.414 1.759l.66 1.477-.629.879c-.597.849-.628.974-.188 1.823.534 1.005.817 1.068 5.654 1.507 2.482.189 2.514.22 3.77 1.634 2.482 2.765 2.639 2.89 3.801 2.89.911 0 1.163.126 1.414.786.471 1.225.44 1.256-1.225 2.324-1.602 1.037-1.916 1.697-1.916 3.99 0 .942.094 1.068 1.35 1.382 3.079.848 3.833 1.162 3.927 1.602.063.283-.565 1.383-1.351 2.451-1.225 1.665-1.445 2.136-1.288 2.953.315 1.822-.251 2.136-4.586 2.481-3.487.283-4.021.409-5.623 1.351-1.037.597-2.796 1.225-4.179 1.508-1.288.283-3.204.943-4.24 1.445-1.037.534-2.011.974-2.168.974-.157 0-.471-1.162-.723-2.607zm24.848 44.514c-.345-.377-.282-.597.283-1.194.88-.942.848-1.256-.283-3.047-.502-.848-1.256-2.356-1.696-3.361-.88-2.074-.754-2.262 1.445-2.262 1.759 0 2.388-.534 2.639-2.23.126-.66.471-1.446.785-1.76.597-.502.66-.471 1.697.503.974.942 1.319 1.068 3.927 1.351 5.277.597 8.105-.723 10.586-4.932.597-1.037 1.571-2.325 2.168-2.89.66-.597 1.068-1.257 1.068-1.76 0-1.005.408-1.288 2.513-1.885 5.529-1.57 5.403-1.507 5.246-2.136-.282-1.131 1.414-.691 4.964 1.257 3.016 1.633 3.487 1.822 4.304 1.539.659-.251 1.036-.22 1.351.063.408.346.377.471-.252 1.068-1.099 1.037-1.413 3.676-.534 4.869.346.503.628 1.037.628 1.194 0 .157-.973 1.665-2.199 3.393-1.193 1.696-2.199 3.173-2.199 3.298 0 .095.566 1.603 1.257 3.362.691 1.759 1.257 3.33 1.257 3.518 0 .189-.692.691-1.571 1.131-1.508.754-1.759.786-7.665.786h-6.095l-.377-1.603c-.251-1.005-.628-1.727-1.068-1.979-.345-.22-2.639-.722-5.058-1.131l-4.398-.691-6.063 3.016c-3.33 1.665-6.094 3.016-6.157 3.016-.063 0-.283-.22-.503-.503zm-92.954-49.666c-3.362-.377-4.869-.409-5.812-.158-.942.252-2.105.189-4.775-.219-1.916-.283-3.613-.629-3.738-.754-.095-.126.188-.723.659-1.351.472-.597.786-1.288.692-1.508-.095-.22-1.1-.66-2.231-.974-1.131-.283-2.073-.66-2.073-.754 0-.503 1.885-3.079 2.953-4.115 1.099-1.068 1.131-1.131 1.131-3.456v-2.419l1.099-.502c.628-.315 1.445-.535 1.854-.535 1.288 0 3.675 1.006 4.178 1.76.597.942.942.942 2.136 0 1.319-1.068 2.136-.629 1.853 1.005-.282 1.728 1.665 5.623 2.953 5.875 1.634.345 3.487 1.382 4.021 2.261.315.472 1.163 1.445 1.885 2.137 1.822 1.696 1.979 2.419.786 3.267-1.32.942-2.262.974-7.571.44z" fill="#F4F4F4"/><path d="M157.332 240.349c-.44-.659-3.518-1.853-4.838-1.853-.345 0-1.193.283-1.916.66l-1.256.691-1.226-.848c-.691-.44-1.413-.817-1.602-.817-.314 0-1.256-.409-5.058-2.105-.659-.283-1.036-.66-1.036-1.037 0-.911-.566-1.068-1.854-.502l-1.193.534-2.074-1.131c-2.262-1.257-2.262-1.257-1.665-3.77l.346-1.571 1.728-.157c1.696-.157 1.727-.188 2.481-1.665.754-1.57.974-1.665 2.859-1.225 1.539.377 1.854.189 2.073-1.256.22-1.32.063-1.194 3.519-2.639.88-.377 1.005-.597.942-1.477-.031-.597.189-1.382.472-1.822.691-.974.659-1.602-.095-3.047-.879-1.634-.816-2.513.252-2.953.816-.377 3.11-2.608 5.214-5.121.597-.722 1.163-1.822 1.288-2.513.252-1.476 1.006-3.047 1.603-3.393.251-.157.439-.502.439-.816 0-.315.189-.817.44-1.163.44-.597.471-.565.786.346.565 1.571.816 1.853 2.324 2.67 1.194.628 1.759 1.288 3.236 3.738l1.791 2.922-.691 2.953-.66 2.922.691 1.382c.628 1.351.628 1.476.188 3.33l-.502 1.916.942.785c.503.409 1.037.786 1.131.786.126 0 .628.345 1.1.785.722.691.848 1.037.848 2.608.031.973.22 2.136.471 2.576.251.408.471 1.507.471 2.387v1.602l-1.162.189c-1.822.314-3.079.251-3.456-.157-.565-.534-2.607 4.115-2.607 5.906 0 .754-.063 1.382-.157 1.382s-.597-.22-1.131-.503c-.88-.44-.974-.44-1.979.346l-1.037.785-.44-.66z" fill="#F4F4F4"/><path d="M175.364 255.994c-2.67-.911-2.953-1.068-3.267-2.011-.157-.565-.88-1.476-1.539-2.01-.692-.534-1.414-1.351-1.634-1.791-.534-1.099-2.607-2.482-4.084-2.701-1.068-.189-1.256-.377-2.136-2.105-1.1-2.262-1.162-2.765-.314-3.833.44-.565.628-1.288.628-2.419 0-1.068.251-2.105.785-3.141.849-1.665 1.1-1.759 4.87-1.979l1.413-.063.095-1.665c.094-1.54.157-1.634.911-1.634.471 0 1.413-.282 2.104-.597.723-.345 2.545-.911 4.084-1.288 3.142-.754 5.875-2.387 6.503-3.864.189-.471.503-.848.691-.848.189 0 1.697.754 3.362 1.697 3.015 1.727 3.047 1.759 4.806 4.649.974 1.602 2.042 3.55 2.388 4.367.628 1.413.722 1.476 3.549 2.45 1.603.565 3.048 1.131 3.205 1.288.125.126-.503.754-1.414 1.351-1.696 1.068-1.696 1.099-3.895.785-2.953-.377-5.404-.817-6.817-1.225-1.037-.283-1.225-.503-1.854-2.199-.471-1.257-.848-1.854-1.225-1.854-.314 0-1.131.943-2.073 2.419-1.445 2.294-1.54 2.576-1.54 4.587 0 2.23.283 2.702 1.603 2.733.942 0 1.319.565 1.539 2.388l.22 1.57-1.759.409-1.791.377-1.791 3.612c-1.131 2.294-1.947 3.55-2.262 3.55-.251-.031-1.79-.471-3.361-1.005z" fill="#F4F4F4"/><path d="M199.427 236.831c-2.796-1.037-3.738-1.602-3.738-2.262 0-.188-.974-1.979-2.168-3.958l-2.136-3.581-3.55-2.042c-3.267-1.854-3.581-1.979-3.895-1.445-1.508 2.544-3.519 3.832-7.383 4.743-1.665.409-3.455.974-3.958 1.225-1.634.849-2.262.66-2.984-.911-.377-.848-.629-2.042-.629-3.078v-1.697l-1.727-1.162c-1.885-1.257-1.948-1.445-1.383-3.864.314-1.351.283-1.665-.314-2.733l-.691-1.225.66-2.953.691-2.953-1.979-3.33c-1.728-2.953-2.136-3.393-3.362-3.958-1.036-.44-1.508-.88-1.853-1.76-.754-1.79-.597-3.047.942-6.942 1.477-3.707 1.791-4.147 4.744-6.377.974-.754 1.131-1.069 1.131-2.137s.22-1.508 1.382-2.733c1.32-1.382 1.445-1.445 2.168-1.036.754.377.942.314 3.078-1.194 1.257-.88 2.608-1.602 3.016-1.602.691 0 .723.125.723 1.979 0 1.633-.189 2.325-.974 3.77l-.974 1.79 1.131 1.508 1.099 1.508 3.393.408c2.105.252 3.99.66 4.995 1.1 1.571.723 1.602.754 1.571 2.073-.032 1.32.031 1.414 1.508 2.262l1.539.911 2.293-.691 2.325-.691 1.508 1.257c1.351 1.13 1.508 1.382 1.665 2.953.094 1.068.597 2.576 1.382 4.115l1.225 2.45h2.011c1.948 0 2.073.032 4.147 1.697 1.947 1.539 2.356 1.727 4.9 2.167l2.765.503 2.199 2.387 2.199 2.356h6.063l1.791-1.476 1.79-1.477 1.791 1.948c1.696 1.822 1.885 1.948 3.204 1.948 1.005 0 1.854.283 3.267 1.099 1.037.629 2.105 1.257 2.356 1.383.283.157.44.565.377 1.068-.188 1.539 1.037 3.581 2.733 4.649.88.534 1.508 1.131 1.414 1.288-.377.566-4.492 3.079-5.089 3.079-.314 0-.848-.283-1.162-.629-.315-.345-.754-.628-.974-.628-.22 0-1.508.66-2.828 1.477l-2.387 1.476-2.325-1.194c-2.293-1.193-2.387-1.193-4.681-1.005-2.324.22-2.356.22-2.701-.597-.22-.44-.691-.879-1.037-.942-1.319-.252-6.377-.44-6.691-.22-.189.126-.911 1.728-1.602 3.55-1.76 4.681-1.76 4.681-3.173 4.681-1.131 0-1.351.157-3.173 2.324-1.1 1.32-2.231 2.356-2.482 2.356-.251 0-1.696-.471-3.173-1.005z" fill="#F4F4F4"/><path d="M236.748 215.406c-1.79-1.068-2.764-1.413-3.707-1.413-1.131 0-1.445-.189-2.89-1.76-2.356-2.544-2.356-2.544-4.461-.754l-1.822 1.571h-5.435l-2.104-2.325-2.105-2.324-2.859-.534c-2.639-.534-3.047-.723-4.995-2.262-2.073-1.602-2.23-1.665-4.146-1.697h-1.98l-1.193-2.576c-.754-1.696-1.163-3.047-1.163-3.895 0-1.194-.157-1.445-1.633-2.764-.911-.786-1.885-1.414-2.168-1.414-.314 0-1.414.251-2.513.597l-1.948.628-1.319-.785c-1.194-.691-1.32-.88-1.32-2.074 0-2.01-1.602-2.796-6.942-3.424-3.205-.377-3.236-.377-3.99-1.508-.974-1.413-.974-1.539 0-3.236.628-1.13.785-1.79.785-3.769v-2.419l.943-.189c.503-.125 1.633-.848 2.482-1.602 1.445-1.319 1.79-1.445 4.335-1.885 3.77-.659 3.487-.534 5.969-2.89 1.633-1.571 2.356-2.513 2.639-3.487.345-1.162.345-1.414-.063-1.633-1.383-.849-1.383-.786-.189-2.545.66-.911 1.163-1.854 1.163-2.042 0-.188-.377-1.1-.817-1.979-.817-1.634-.817-2.513-.032-2.513.22 0 1.791 2.104 3.487 4.712 2.199 3.33 3.267 4.712 3.676 4.712.377 0 .974-.565 1.571-1.508 1.225-1.948 1.382-2.67.754-3.644-.409-.628-.472-1.162-.283-2.576.22-1.791.22-1.791-.943-2.764l-1.193-.974.754-.943c.377-.502 1.256-2.042 1.884-3.424 1.1-2.419 1.131-2.544.66-3.361-.848-1.445-.377-2.231 2.545-4.053 2.356-1.476 2.89-2.01 5.026-4.9 1.539-2.105 2.608-3.268 2.984-3.268.597 0 4.084 1.194 4.493 1.571.157.126.157.943.031 1.854-.188 1.382-.534 2.01-2.356 4.303-1.194 1.508-2.168 2.985-2.168 3.362 0 .345.22 1.476.503 2.482.503 1.79.503 1.853-.314 4.303-.44 1.383-.817 2.765-.817 3.079 0 .314-.502 2.073-1.099 3.864s-1.1 3.55-1.1 3.895c0 .346.377 1.508.817 2.545l.785 1.916-1.288 2.419c-.722 1.32-1.413 2.419-1.57 2.419-.157 0-1.131 1.037-2.199 2.356-1.854 2.294-1.917 2.356-3.33 2.356-.754 0-2.388-.314-3.55-.659-4.398-1.351-5.184-.346-2.136 2.764 2.167 2.231 4.492 3.519 6.282 3.55 1.885 0 5.529-1.853 6.912-3.581.659-.817 2.042-2.042 3.078-2.733l1.854-1.257v-3.581c0-4.021.157-4.398 2.105-4.744 1.79-.345 2.638.314 3.172 2.388 1.037 4.209.974 4.084 1.885 4.084.472 0 1.32-.315 1.917-.66l1.036-.628-.22-2.262c-.125-1.257-.345-2.576-.471-2.922-.157-.377-1.225-1.351-2.387-2.199-1.791-1.288-2.482-1.571-4.336-1.853-1.947-.283-2.23-.409-2.418-1.1-.534-1.979-.315-2.984 1.288-5.497.879-1.383 1.57-2.639 1.57-2.828 0-.188-.345-1.728-.754-3.455-.879-3.519-.785-3.927 1.131-5.686 1.602-1.508 3.864-3.016 3.959-2.702.062.188-.409 1.634-1.006 3.299-.628 1.633-1.131 3.141-1.131 3.329 0 .692 6.001 4.116 7.257 4.116.723 0 1.508-.817 1.539-1.54 0-.219-.911-1.445-2.042-2.701-1.13-1.257-2.041-2.513-2.041-2.765 0-.848.628-.974 1.382-.251.785.723 1.476.817 2.419.314.816-.408.754-1.005-.22-2.67-.66-1.131-.754-1.477-.44-1.885.942-1.099 2.262-.094 1.476 1.162-.314.503-.282.691.095 1.006.282.188 1.131 1.036 1.885 1.885l1.35 1.507-1.445 1.477c-.816.817-1.476 1.633-1.476 1.822 0 .22.628 1.068 1.414 1.948 1.507 1.633 1.633 2.23 1.068 4.178-.283.911-.88 1.602-2.514 2.859-1.162.911-2.199 1.822-2.293 2.042-.157.345 1.257 2.607 3.016 4.806.848 1.068.88 1.068 2.199.722.754-.219 1.445-.282 1.571-.157.125.126.597 1.257 1.036 2.514l.786 2.261-1.571 3.11-1.571 3.079.346 2.482c.251 1.696.66 3.016 1.319 4.209.848 1.508.974 2.105 1.1 4.713.157 3.235.408 4.084 1.256 4.084 1.069 0 1.32.659 1.32 3.487 0 3.047.22 3.392 2.356 3.895 1.571.377 1.728.691 1.728 3.11 0 2.168-.063 2.356-1.288 4.084l-1.32 1.822.534 1.634c.283.911.503 1.853.503 2.104 0 .566-3.079 4.053-3.55 4.053-.22 0-1.476-.66-2.796-1.414zm-105.961 48.379c-.094-.252-.032-.911.157-1.477.44-1.256.094-1.728-1.634-2.01-2.387-.377-2.513-.566-1.696-2.262.408-.817 1.068-2.356 1.476-3.456.911-2.513 3.048-4.649 4.336-4.335 2.136.534 2.356.44 3.424-1.539 1.665-3.079 1.288-4.21-1.194-3.644-1.068.22-1.979.157-4.021-.283-1.445-.314-2.702-.691-2.827-.848-.126-.157-.503-.88-.817-1.634l-.597-1.351.785-.597c1.351-1.068 2.042-1.068 3.33-.062 1.006.816 1.571.973 3.739 1.162 2.953.283 2.89.314 3.895-2.733.377-1.162.785-2.105.88-2.105.659 0 7.256 2.89 8.042 3.519.754.596.942 1.005 1.068 2.481.126 1.76.126 1.76-1.445 3.519-1.602 1.759-2.89 3.864-2.89 4.712 0 .283.754.66 2.042 1.005 1.131.314 2.042.628 2.042.691 0 .095-.315.691-.66 1.351-.817 1.445-1.131 1.445-5.246-.063-2.922-1.068-3.644-.974-4.618.472-.472.754-.472.942.282 3.235.817 2.608.66 3.079-.722 2.325-.911-.503-3.361-.408-3.927.157-.251.251-.565 1.1-.691 1.885-.094.785-.408 1.633-.66 1.885-.597.597-1.633.597-1.853 0z" fill="#F4F4F4"/><path d="M128.367 272.801c-1.508-.943-1.916-1.068-2.356-.754-1.633 1.162-1.885 1.162-3.173-.094-1.005-.943-1.288-1.508-1.445-2.765-.377-2.544-2.073-3.644-4.366-2.764-.88.345-.817.377-3.11-2.325l-.786-.942-2.607.534c-1.445.314-2.796.565-3.016.565-.22 0-.534-.565-.723-1.225-.157-.691-.565-1.539-.879-1.948-.503-.597-.66-.628-1.257-.314-.377.189-.817.283-.974.189-.157-.095-.502-1.477-.816-3.079-.315-1.602-.692-3.142-.817-3.424-.157-.314-.911-.817-1.697-1.163-1.382-.628-1.413-.659-1.413-2.167 0-2.042-.314-2.293-2.67-2.042l-1.948.157-.189-1.005c-.314-1.477-.345-1.445 1.037-1.854.754-.22 1.54-.754 1.98-1.351.439-.597 1.633-1.382 3.203-2.136 2.168-1.037 2.859-1.539 5.121-4.021 1.414-1.571 2.576-3.11 2.576-3.424 0-.346.44.063 1.099 1.068 1.006 1.476 1.1 1.822 1.131 3.927 0 1.979.189 2.764 1.508 6.031 1.383 3.393 1.477 3.833 1.226 5.152-.377 2.042-.189 2.357 1.319 2.168.691-.094 1.319-.063 1.414.094.251.377-.409 1.917-1.006 2.356-.471.346-.439.472.157 1.445.597 1.006.629 1.163.22 1.98-.785 1.476-.597 1.947.723 2.167 1.79.314 2.827.252 3.518-.188.534-.314.786-.22 1.854.848 1.476 1.414 1.947 1.351 2.858-.44.346-.691.88-1.256 1.163-1.256 1.256 0 4.492.753 4.492 1.068 0 .188-.22 1.005-.534 1.822l-.534 1.476 1.759 2.608c2.67 4.052 2.608 3.801 1.477 5.089-.534.628-1.131 1.131-1.32 1.099-.22 0-1.193-.502-2.199-1.162z" fill="#F4F4F4"/><path d="M121.142 261.366c-1.037-.848-1.288-.942-1.979-.628-.817.377-3.016.502-3.33.188-.094-.094-.031-.66.157-1.256.22-.692.22-1.288.031-1.76-.219-.502-.157-1.162.252-2.387.817-2.513.817-2.576-.974-2.576h-1.539l.157-1.665c.157-1.477 0-2.042-1.288-5.058-1.163-2.764-1.445-3.738-1.445-5.246 0-1.697.125-2.073 1.476-4.084 1.037-1.571 1.539-2.67 1.665-3.676l.157-1.476 2.356-.723c2.828-.879 3.079-1.068 2.545-2.073-.628-1.131-.346-1.445 1.759-2.262l1.948-.722.785 1.036c.628.849 1.068 1.068 2.356 1.257 1.665.22 2.356.848 3.487 3.11.252.503.817 1.037 1.257 1.194.44.188 1.068.565 1.413.879 1.194 1.068 4.87 2.922 5.498 2.765.785-.22.785.283.031 2.45l-.565 1.571-1.791.094c-1.885.094-3.173-.44-4.429-1.822-.314-.345-.754-.628-1.005-.628-.786 0-3.864 2.262-3.864 2.827 0 .974 1.633 4.367 2.167 4.524 2.136.628 5.152 1.131 6.377 1.068.817-.031 1.603.031 1.697.126.125.125-.157.848-.628 1.633-.786 1.351-.849 1.382-1.76 1.068-.534-.188-1.256-.251-1.665-.157-.816.22-3.989 3.142-3.989 3.676 0 .22-.629 1.916-1.445 3.769-1.131 2.702-1.571 3.425-2.105 3.519-.409.031-.943.534-1.32 1.257-.345.659-.754 1.193-.942 1.162-.157 0-.848-.44-1.508-.974zm-44.765-10.21c-.157-.314-.409-1.068-.534-1.665-.126-.628-.723-2.419-1.351-4.021-.974-2.544-1.225-2.953-1.98-3.11-.533-.094-1.067-.565-1.507-1.382-.503-.911-.943-1.257-1.697-1.414l-1.036-.188.031-2.733c0-1.76-.126-2.953-.377-3.236-.22-.251-1.476-.723-2.796-1.068-2.167-.534-2.45-.691-2.89-1.602-.377-.817-.408-1.194-.126-1.76.189-.377.409-1.256.44-1.947.094-1.225.157-1.288 2.45-2.451 1.288-.628 2.514-1.162 2.702-1.162.157 0 .88.565 1.57 1.288.66.691 2.2 2.136 3.362 3.173 1.948 1.728 2.388 1.979 4.9 2.639 2.137.565 3.048 1.005 3.99 1.822.66.628 1.823 1.351 2.608 1.602.817.283 1.634.628 1.885.722 1.225.629 6.126 11.373 5.372 11.844-.409.251-6.786 1.319-9.487 1.602-2.325.22-2.985.691-3.55 2.419-.377 1.162-1.508 1.508-1.98.628zm15.362-7.382c-.629-2.042-3.016-6.943-3.896-8.042-.251-.315-.125-.472.409-.597.66-.189.69-.283.47-2.388-.25-2.67-.188-2.733 2.86-2.733 2.104 0 2.293.063 3.895 1.257.942.691 1.76 1.256 1.822 1.256.063 0 .848-.628 1.76-1.413l1.664-1.414.691.942c.786 1.1 1.288 1.163 2.074.315.722-.817 1.162-.817 2.105.094.502.471.911 1.351 1.193 2.639l.409 1.947-2.325 2.608c-2.764 3.078-2.45 2.827-4.995 3.927-1.257.534-2.544 1.382-3.33 2.199-.817.816-1.602 1.35-2.042 1.35-.408 0-1.037.063-1.382.158-.566.157-.754-.095-1.382-2.105z" fill="#F4F4F4"/><path d="M109.613 235.638c-.722-1.037-1.413-1.791-1.571-1.697-.251.157-.942-1.696-.942-2.576 0-.408-1.979-1.979-2.513-1.979-.22 0-.754.283-1.194.628l-.848.66-.691-.88c-.409-.502-.723-1.036-.723-1.225 0-.188-.345-.659-.722-1.036-.409-.377-.911-1.257-1.131-1.948-.314-1.1-.472-1.225-1.383-1.225-1.162-.032-1.476-.189-2.198-1.32-.44-.722-.786-.879-2.168-.942-1.162-.063-1.697-.251-1.76-.566-.062-.345.19-.502.786-.502.503 0 1.57-.032 2.387-.063l1.54-.063-.126-1.319-.094-1.32 1.728-.565c.942-.314 3.016-.974 4.618-1.477l2.858-.911 1.131.754c.754.534 1.351.691 1.885.566.817-.189.88-.063 1.634 4.084.251 1.382 1.256 3.832 1.665 4.083.157.095 1.508-.251 3.016-.753 1.508-.535 2.89-.849 3.015-.786.566.346.252 1.414-.659 2.451-1.163 1.319-1.163 1.664-.157 1.916 1.005.251 1.822 1.759 1.099 2.01a91.25 91.25 0 01-2.356.817l-1.885.66-.157 1.445c-.126.942-.565 2.073-1.351 3.236-.628.942-1.225 1.759-1.319 1.759-.063 0-.723-.848-1.414-1.916z" fill="#F4F4F4"/><path d="M85.644 233.627c-.848-.252-2.105-.817-2.796-1.288l-1.288-.817 1.822-1.634 1.854-1.633-.409-1.885c-.22-1.037-.345-2.419-.282-3.11l.094-1.257 1.696-.094c1.54-.094 1.697-.188 2.01-1.037.19-.502.503-.911.692-.911.722 0 1.696.974 1.79 1.791.063.471.314.88.566.911 3.487.471 3.456.471 3.927 1.382.408.754.69.943 1.602.943.974 0 1.162.125 1.602 1.162.251.66.785 1.508 1.13 1.916l.692.723-1.477 1.414-1.507 1.413-1.665-1.288c-1.571-1.162-1.822-1.256-3.707-1.256-1.1 0-2.545.157-3.236.345l-1.194.314.189 2.168c.251 2.45.345 2.388-2.105 1.728zm45.488-1.979c-.188-.126-.817-1.005-1.382-1.948-.566-.974-1.068-1.759-1.1-1.822-.062-.031-.848-.22-1.79-.377-1.32-.251-1.885-.565-2.576-1.351-.786-.911-1.916-3.047-1.728-3.235.063-.032.628-.283 1.288-.566.628-.251 1.162-.66 1.162-.911 0-.22.566-1.602 1.257-3.016.785-1.633 1.257-3.047 1.257-3.801 0-1.885.345-3.079 1.099-3.864.377-.377.911-1.131 1.162-1.633.44-.817.44-1.069.032-2.2-.409-1.225-.409-1.288.283-1.853 1.193-.942 3.298-2.953 3.549-3.33.095-.188-.596-1.162-1.57-2.168-1.728-1.853-1.76-1.884-1.665-3.549.094-1.603.157-1.665 1.005-1.791.503-.031 1.382 0 1.979.094.88.189 1.194.471 1.759 1.697.691 1.413.754 1.476 3.299 2.23l2.576.754 3.141-.565c3.487-.66 3.927-.597 8.262.973 1.32.472 2.419 1.068 2.419 1.288 0 .22-.282.943-.628 1.571-.346.66-.628 1.539-.628 2.011 0 1.445-4.555 6.565-6.44 7.194l-1.163.377.157 1.476c.095.817.409 1.979.723 2.608.503 1.068.503 1.193.031 1.947-.282.44-.534 1.194-.534 1.728 0 .848-.157.974-1.79 1.571-2.011.754-2.608 1.319-2.608 2.482 0 .753-.031.753-1.885.565l-1.853-.22-.785 1.571-.817 1.571-1.791.094-1.822.094-.471 2.168c-.471 2.136-.786 2.607-1.414 2.136z" fill="#F4F4F4"/><path d="M77.946 229.763c-2.858-.817-3.047-.943-5.874-3.519-1.602-1.476-3.016-2.89-3.11-3.11-.126-.251.031-.597.282-.785.409-.314.472-1.005.409-4.115l-.094-3.739.848-.314c1.225-.44 4.68 1.854 6.094 4.084 1.288 1.979 1.445 2.105 2.2 1.539.502-.345.816-.314 2.324.346 2.607 1.162 2.733 1.382 2.921 4.932l.126 3.047-1.445 1.257c-.785.691-1.508 1.225-1.602 1.225-.094 0-1.477-.408-3.079-.848zm40.086-3.613c.534-.565.691-1.131.691-2.356 0-1.979-.031-1.979-3.707-.785-2.576.848-2.639.848-3.078.251-.597-.817-.566-1.414.219-3.456.44-1.225.817-1.727 1.226-1.727.785 0 1.162-.566 1.413-2.199.314-1.917.44-2.042 1.854-2.042 1.194 0 1.288-.095 2.701-2.356 1.728-2.702 1.571-2.671 5.027-1.006l2.356 1.163-.094 2.199c-.063 1.382-.283 2.544-.629 3.141-.314.503-.879 1.696-1.256 2.67-.597 1.445-.911 1.791-1.979 2.262-1.131.471-1.257.628-1.068 1.257.596 1.853.439 2.199-1.571 2.953-2.451.974-2.985.974-2.105.031z" fill="#F4F4F4"/><path d="M81.717 219.553c-1.947-.942-2.701-1.162-2.953-.911-.596.565-.754.471-1.665-1.068-.565-.974-1.508-1.885-2.984-2.859l-2.199-1.445 1.194-1.288c.66-.723 1.665-1.853 2.262-2.513 1.602-1.759 1.979-1.885 3.8-1.288l1.54.502v2.2c0 1.853.157 2.418.974 3.895.534.942 1.068 1.791 1.225 1.853.126.095 1.257-.345 2.482-.942 1.257-.597 2.325-1.068 2.387-1.068.063 0 .409.565.754 1.256l.66 1.257-.942 1.885-.943 1.885-1.508-.032c-1.068-.031-2.199-.377-4.084-1.319zm8.703.094c-.911-.753-.974-.911-.692-1.79.22-.566.22-1.131.063-1.382-.47-.754-.314-1.069.754-1.54.911-.44 1.005-.628 1.1-2.104.094-1.603.125-1.665 1.194-1.854.596-.126 1.853 0 2.858.251l1.822.44.566 1.697c.283.942.628 1.947.722 2.261.126.409-.251.754-1.665 1.414-1.727.817-1.822.942-1.727 1.885.094 1.162-.032 1.225-2.357 1.414-1.413.125-1.759.031-2.638-.692zm20.324-.062c-.094-.22-.534-2.608-1.005-5.247-.503-2.67-1.069-5.026-1.257-5.215-.408-.408-5.341-1.602-6.063-1.445-.251.032-.848.377-1.319.723-.503.377-.943.597-1.006.534-.063-.063-.22-.785-.314-1.571-.157-1.288-.094-1.508.943-2.576.659-.722 1.288-1.131 1.633-1.036.283.062.848.219 1.225.345.534.157 1.1-.031 1.979-.66.66-.471 1.226-.973 1.226-1.099 0-.157-.754-.88-1.697-1.602-.942-.754-1.728-1.508-1.728-1.728-.031-.189.66-.785 1.477-1.32 1.351-.879 1.791-.973 3.77-.973h2.261v-2.011c0-1.696.126-2.073.786-2.702.44-.408.785-.942.785-1.162 0-.251.314-1.037.66-1.759.534-1.005.597-1.414.314-1.854-.314-.502-.094-.691 1.854-1.665 1.193-.596 2.324-1.099 2.481-1.099.157 0 .534.377.817.848.534.785.534.943.032 2.89-.409 1.508-.849 2.388-1.697 3.236l-1.131 1.194.346 1.633c.628 3.047 1.382 5.278 1.79 5.278.22 0 1.131-.66 2.042-1.414.911-.785 1.665-1.413 1.697-1.413.031 0 1.131.282 2.419.628 1.288.345 3.078.628 3.926.628 1.508.032 1.634.094 3.142 1.791l1.571 1.759-2.199 2.011-2.168 2.01.503 1.382c.502 1.351.502 1.351-.44 2.639-.503.691-1.005 1.288-1.068 1.288-.094 0-.817-.345-1.665-.785-2.733-1.382-4.807-2.074-5.246-1.697-.22.158-.974 1.288-1.665 2.482-1.288 2.136-1.32 2.168-2.765 2.262l-1.508.094-.408 1.948c-.346 1.539-.566 1.979-1.005 1.979-.692 0-1.131.503-1.414 1.634-.251 1.005-.723 1.413-.911.817z" fill="#F4F4F4"/><path d="M99.78 215.972a41.174 41.174 0 01-.848-2.702c-.44-1.508-.911-2.482-1.225-2.544-.283-.095-1.32-.315-2.325-.503l-1.822-.377.094-1.759.095-1.728 1.413-.408c1.194-.377 1.508-.346 2.105.031.377.251.911.471 1.13.471.315 0 .535.566.66 1.885.252 2.199.535 2.293 2.388.974l1.257-.911 2.576.597c1.413.345 2.639.66 2.67.722.063.032.314 1.257.565 2.702.409 2.325.409 2.702 0 3.11-.408.408-.565.377-1.35-.22-.503-.345-1.1-.691-1.351-.754-.377-.063-3.833.88-5.435 1.508-.22.094-.503.032-.597-.094z" fill="#F4F4F4"/><path d="M82.283 214.056c-.503-1.006-.817-2.231-.943-3.833l-.157-2.325-1.916-.565c-1.916-.566-3.204-1.696-2.859-2.576.094-.189 2.168-1.257 4.618-2.388 3.487-1.602 4.555-2.23 4.9-2.921.535-.974.472-.974 2.043-.503 1.1.314 1.256.283 2.105-.408.785-.66 1.382-.817 3.58-.974 1.477-.094 2.954-.346 3.33-.597.629-.377.849-.314 2.137.377.785.44 2.545 1.696 3.927 2.796 2.45 1.916 2.482 2.01 1.947 2.607-.534.566-1.633.597-3.047.063-.251-.094-1.099.534-1.916 1.414l-1.477 1.571-.848-.629c-.785-.597-.88-.597-2.858-.063l-2.042.566-.095 2.136c-.094 2.042-.125 2.136-1.005 2.45-.88.315-.942.44-.942 1.98 0 1.445-.095 1.696-.817 2.073-.723.408-.848.377-1.225-.094-.503-.723-.723-.691-3.047.408-1.069.503-2.137.943-2.294.943-.188 0-.69-.692-1.1-1.508z" fill="#F4F4F4"/></mask><g mask="url(#mask0_259_677)" fill="#fff"><path d="M483.433 359.517c21.694-30.311 65.086-153.719 43.391-272.796-19.526-119.077-99.797-212.173-229.965-222.998-58.577-6.495-110.645 4.33-134.508 19.485 0 0-13.017 8.66-13.017 19.485 0 0 134.507-19.485 190.915 41.136 49.897 54.126 13.016 119.076 13.016 119.076-21.695 43.302-73.762 95.263-73.762 95.263s-69.424 67.116-91.119 106.086c-10.847 19.486-17.355 38.971-17.355 56.292 0 36.805 26.034 51.961 34.712 54.124 73.762 34.642 219.116 6.497 277.692-15.153z"/><path d="M49.464-31.573c-21.75 30.366-65.249 153.999-43.5 273.294 19.575 119.294 100.048 212.56 230.547 223.406 58.723 6.507 110.922-4.337 134.845-19.52 0 0 13.051-8.676 13.051-19.522 0 0-134.847 19.522-191.397-41.21-50.023-54.226-13.049-119.295-13.049-119.295 21.749-43.379 73.948-95.435 73.948-95.435s69.599-67.239 91.348-106.282c10.874-19.52 17.401-39.041 17.401-56.394 0-36.872-26.101-52.055-34.801-54.224-73.948-34.704-219.669-6.508-278.393 15.183z"/></g></svg>