<svg id="thanksIcon" width="99" height="100" fill="none" xmlns="http://www.w3.org/2000/svg"><path d="M49.181 97.97c26.58 0 48.128-21.549 48.128-48.13 0-26.58-21.547-48.127-48.128-48.127-26.58 0-48.128 21.547-48.128 48.128 0 26.58 21.547 48.128 48.128 48.128z" fill="#0FB063"/><path d="M71.329 39.053a3.336 3.336 0 00-4.669-.57S48.556 53.707 48.011 54.174l-7.133-6.303c-1.478-1.297-3.709-1.427-5.317-.156-1.815 1.427-1.893 3.502-.467 5.343l8.897 12.269c.052.051.104.13.13.155 1.79 2.101 4.954 2.36 7.08.57l19.894-23.135.052-.052c1.116-1.193 1.22-2.516.182-3.813z" fill="#fff"/><path d="M71.328 37.756a3.336 3.336 0 00-4.669-.57S48.555 52.41 48.011 52.877l-7.133-6.303c-1.479-1.297-3.71-1.427-5.317-.156a4.17 4.17 0 00-.727 5.862l9.156 11.75c.052.051.104.13.13.155 1.79 2.101 4.954 2.36 7.08.57L71.096 42.14l.052-.051c1.115-1.193 1.219-3.035.181-4.332z" fill="#fff"/><path d="M35.585 48.494a4.184 4.184 0 015.317.156l5.758 6.588a1.31 1.31 0 001.842.13A15059.12 15059.12 0 0066.683 39.26a3.313 3.313 0 014.67.571c.259.311.414.649.544 1.012a3.272 3.272 0 00-.545-3.087 3.336 3.336 0 00-4.669-.57S48.58 52.41 48.035 52.877l-7.133-6.303c-1.479-1.297-3.71-1.427-5.317-.156a4.208 4.208 0 00-1.479 4.332 4.03 4.03 0 011.479-2.257z" fill="#E6E6E6"/></svg>