<svg width="74" height="89" fill="none" xmlns="http://www.w3.org/2000/svg"><path d="M.806 13.743a2.544 2.544 0 011.973-.678c7.75.698 22.204-3.033 31.652-12.703.658-.67 1.852-.295 2.604.269 10.508 7.85 27.928 9.481 33.974 9.81a2.552 2.552 0 012.395 2.288c5.503 53.112-29.082 72.357-36.255 75.752a2.568 2.568 0 01-2.443-.14C-1.032 66.083.498 37.12.001 15.669a2.56 2.56 0 01.805-1.926z" fill="#FF725E"/><path d="M73.411 12.73a2.552 2.552 0 00-2.395-2.289C64.97 10.106 47.53 8.481 37.02.631 36.551.28 35.901 0 35.311 0v88.622c.59.175 1.254.128 1.825-.14 7.173-3.396 41.77-22.641 36.275-75.753z" fill="#FF5C45"/><path opacity=".74" d="M36.19 84.67a.9.9 0 01-.484-.14C21.997 75.765 13.06 65.283 8.382 52.487 4.208 41.06 4.007 29.43 3.826 19.17l-.027-1.369a.876.876 0 01.255-.637.878.878 0 01.637-.269c8.475 0 21.205-3.744 30.539-12.105a.898.898 0 011.087-.08c4.402 2.919 14.507 8.025 32.706 9.36a.89.89 0 01.818.812c1.819 20.735-2.496 38.269-12.816 52.112-7.71 10.34-16.856 15.729-20.426 17.568a.83.83 0 01-.41.107zM4.697 17.34a.46.46 0 00-.335.134.42.42 0 00-.128.322l.027 1.369c.181 10.226.382 21.821 4.53 33.175 4.636 12.703 13.52 23.11 27.149 31.82a.46.46 0 00.456.02c3.55-1.825 12.622-7.173 20.279-17.44 10.26-13.756 14.54-31.19 12.736-51.816a.46.46 0 00-.423-.416c-3.697-.275-9.374-.9-15.4-2.336-7.053-1.684-12.944-4.073-17.507-7.1a.454.454 0 00-.557.041c-9.42 8.448-22.27 12.227-30.826 12.227z" fill="#fff"/><path d="M65.822 23.956c-.128-2.51-1.752-4.61-3.771-4.879-1.604-.215-3.033.745-3.798 2.288-.765-1.617-2.208-2.724-3.845-2.677-2.08.06-3.771 2.047-3.906 4.597-.087 1.69.497 3.24 1.45 4.287l5.878 5.026c.255.215.584.229.839.027l5.757-4.59c.926-.952 1.483-2.429 1.396-4.08z" fill="#fff"/></svg>