<svg width="60" height="90" fill="none" xmlns="http://www.w3.org/2000/svg"><path d="M54.833 89.068H4.262A4.264 4.264 0 010 84.806V12.262A4.264 4.264 0 014.262 8h50.57a4.264 4.264 0 014.262 4.262V84.8a4.258 4.258 0 01-4.261 4.268z" fill="#A9BAE6"/><path d="M53.984 11.202H5.346v70.657h48.638V11.202z" fill="#F6F5F5"/><path d="M53.984 11.202c.017 27.554.906 60.78-2.191 68.14-13.634 1.33-29.596 1.754-46.453 1.835l6.412-69.763 42.232-.212z" fill="#E4E4E4"/><path d="M49.614 77.116C28.369 80.517 14.166 80.695 2.65 79.84c1.491-15.887 2.093-42.283 2.69-68.632l25.604.057 23.172 1.531c.338 27.342.379 52.608-4.502 64.32z" fill="#fff"/><path d="M41.862 19.602L16.277 19l-.091 3.9 25.584.601.092-3.899zm4.931 9.538l-23.079-.544-.042 1.783 23.08.543.041-1.783z" fill="#708CD5"/><path d="M39.31 32.855l-15.689-.37-.042 1.784 15.688.37.042-1.784z" fill="#D3DFFF"/><path d="M11.871 29.843c.166.648.482 3.35 1.835 2.593.31-.172.58-.637.81-.9.418-.477.837-.953 1.261-1.429l2.518-2.862c.218-.247-.734-.86-1.004-.55-.745.848-1.491 1.697-2.242 2.54L13.93 30.51c-.258.292-.86 1.244-1.245 1.325.207.069.42.137.626.2.149.12-.127-.74-.132-.762a92.924 92.924 0 00-.316-1.2c-.08-.32-1.118-.716-.992-.229z" fill="#EE6F57"/><path d="M42.492 38.98l-19.008-.448-.042 1.783 19.008.448.042-1.784z" fill="#708CD5"/><path d="M46.466 42.962l-23.08-.544-.041 1.784 23.079.543.042-1.783z" fill="#D3DFFF"/><path d="M11.636 39.932c.166.648.482 3.35 1.835 2.593.31-.172.58-.637.809-.9.419-.477.837-.953 1.262-1.429l2.518-2.862c.218-.247-.734-.86-1.004-.55-.746.848-1.491 1.697-2.243 2.54l-1.118 1.274c-.258.292-.86 1.244-1.245 1.325.207.069.419.137.625.2.15.12-.126-.74-.131-.762a91.322 91.322 0 00-.316-1.2c-.08-.326-1.124-.722-.992-.229z" fill="#EE6F57"/><path d="M46.328 49.007l-23.079-.543-.042 1.783 23.08.543.041-1.783z" fill="#708CD5"/><path d="M33.477 52.596l-10.321-.242-.042 1.783 10.32.243.043-1.784z" fill="#D3DFFF"/><path d="M11.475 49.935c.167.648.482 3.35 1.836 2.593.31-.172.579-.637.808-.9.42-.477.838-.953 1.262-1.429l2.518-2.862c.218-.247-.734-.86-1.004-.55-.745.848-1.49 1.697-2.242 2.54l-1.119 1.274c-.258.292-.86 1.244-1.244 1.325.206.069.418.137.625.2.149.12-.126-.74-.132-.762a92.91 92.91 0 00-.316-1.2c-.08-.32-1.118-.716-.992-.229z" fill="#EE6F57"/><path d="M46.093 58.941l-23.079-.543-.042 1.783 23.08.543.041-1.783z" fill="#708CD5"/><path d="M41.156 62.715l-18.234-.429-.042 1.783 18.234.43.042-1.784z" fill="#D3DFFF"/><path d="M11.24 59.8c.166.649.482 3.35 1.835 2.593.31-.172.58-.636.81-.9.418-.476.837-.952 1.261-1.428l2.518-2.863c.218-.246-.734-.86-1.004-.55a471.98 471.98 0 01-2.242 2.54l-1.119 1.274c-.258.293-.86 1.245-1.244 1.325.206.069.418.138.625.2.149.121-.126-.74-.132-.762a92.924 92.924 0 00-.316-1.199c-.074-.321-1.118-.717-.992-.23z" fill="#EE6F57"/><path d="M31.934 68.47l-9.151-.215-.042 1.783 9.151.215.042-1.783z" fill="#708CD5"/><path d="M45.775 72.689l-23.08-.545-.04 1.784c8.93.212 20.297.625 22.62.27.345-.397.534-.884.5-1.51z" fill="#D3DFFF"/><path d="M11.01 69.586c.167.648.482 3.35 1.836 2.592.31-.172.58-.636.809-.9.418-.476.837-.952 1.262-1.428.837-.953 1.68-1.91 2.518-2.862.218-.247-.735-.86-1.004-.551a471.98 471.98 0 01-2.243 2.54l-1.118 1.274c-.258.293-.86 1.245-1.245 1.325.207.069.419.138.625.2.15.121-.126-.74-.132-.762a92.924 92.924 0 00-.315-1.199c-.08-.321-1.119-.717-.992-.23zm29.495-61.16v5.454h-21.91V8.426a3.138 3.138 0 011.147-2.427 3.127 3.127 0 012.008-.722 3.732 3.732 0 002.22-.734 3.707 3.707 0 001.341-1.905A3.704 3.704 0 0126.7.7a3.702 3.702 0 012.173-.7h1.365c.803 0 1.555.258 2.174.7A3.75 3.75 0 0133.8 2.638a3.694 3.694 0 001.95 2.272 3.732 3.732 0 001.612.367c.763 0 1.463.27 2.008.722a3.153 3.153 0 011.135 2.427z" fill="#EE6F57"/><path d="M42.283 11.202v4.055H16.817v-4.055h1.778v2.678h21.91v-2.678h1.778z" fill="#E4E4E4"/><path d="M29.55 5.116c1.074 0 1.944-.827 1.944-1.847s-.87-1.847-1.944-1.847c-1.074 0-1.944.827-1.944 1.847s.87 1.847 1.944 1.847z" fill="#fff"/></svg>