<svg width="86" height="86" fill="none" xmlns="http://www.w3.org/2000/svg"><path d="M49.36 48.65c.297-3.874.484-7.524.595-10.914-.93-.484-2.086-1.08-2.98-1.49-2.794-1.341-6.705-3.13-9.2-4.284-1.454-.67-2.907-1.155-2.907-1.155s-9.983-.968-10.802-.894c-.261 0-1.49.447-3.13 1.08-3.538 1.341-10.355 4.098-11.473 4.88-1.602 1.155-7.301 29.13-7.45 31.03-.15 1.863 7.748 4.359 15.087 6.296 0 2.831-.075 6.817-.112 10.43 0 .634-.037 1.23-.037 1.826h32.036c-.037-.633-.075-1.23-.112-1.826v-.223c-.112-2.459-.596-6.854-.484-11.138 0 0-.075-4.508.372-6.445.075-8.642.596-17.173.596-17.173zM8.717 65.115c.037-3.65 4.917-10.43 4.917-10.43s.224-.112.224-.074l.26-.038.746-.707c.186.633 1.788 9.797 2.16 15.124-4.544-.894-8.344-2.16-8.307-3.874z" fill="#fff"/><path d="M49.955 83.592a216.44 216.44 0 01-.596-4.507v-.037c-.074-.485-.111-.969-.186-1.453v-.075c-.224-2.049-.447-4.023-.559-5.811-.111-1.378 0-2.72.187-4.023.558-9.201.82-18.85.82-18.85.297-3.948.446-7.673.558-11.137 0 0-12.554-5.923-13.671-6.259 0 0 2.384 5.588 4.172 18.067.67 4.806 1.974 12.89 2.868 21.122.484 4.433 1.453 8.977 2.16 13 .112.634.224 1.23.299 1.826h4.21a44.25 44.25 0 01-.262-1.863zM29.057 68.84c.485-4.656.931-9.275.708-11.808-1.714-20.414-6.63-25.815-7.338-26.597-.56.223-2.645 1.005-3.241 1.229-3.353 1.304-10.17 3.725-11.101 4.395C6.483 37.214.187 66.531 0 68.431c-.112 1.266 8.084 3.948 16.465 6.37-.074 2.31.15 5.55-.633 8.903-.149.596-.335.969-.373 1.788l11.66-.037c.075-.596.15-1.192.224-1.826.223-1.825.447-3.687.67-5.662 3.502.894 5.886 1.49 5.886 1.49s3.278-5.55 4.247-7.822c.223-.448-4.024-1.453-9.09-2.794zM13.97 61.8c-.111-4.172-.074-7.078-.074-7.078.41 1.416.968 5.514 1.49 9.574-1.714-.857-1.416-1.64-1.416-2.496z" fill="#A9BAE6"/><path d="M23.581 30.211s1.267-2.384.932-9.201c-.112-1.9 9.909 4.47 9.909 4.47s-.038.633-.075 1.527v2.086c0 .224 0 .447.037.67 0 .262.038.485.038.709.037.41.297 1.154.372 1.34.447 1.007-7.488 1.081-11.213-1.601z" fill="#EEA987"/><path d="M31.963 34.532l1.862 2.496s-1.08 1.453-3.017.373l1.155-2.869z" fill="#E8734D"/><path d="M33.304 37.14s6.78 16.502 5.327 37.512l-2.123 3.874-2.422-3.315s-.372-27.864-2.31-38.146l1.528.075z" fill="#E8734D"/><path d="M33.937 32.223l-1.974 2.31s-3.167-.597-4.098-2.273c-.931-1.64 6.072-.037 6.072-.037z" fill="#EEA987"/><path d="M34.384 30.211s-.223 1.75-2.421 4.321l2.384 3.241 1.304-6.705-1.267-.857zm-10.207-2.123s4.582 5.178 7.786 6.444l-1.49 3.688-7.339-8.046 1.043-2.086zm47.161 46.936s-6.072-5.923-10.095-6.891c-1.863-.447-4.284-3.017-6.594-5.998-.745-.968-1.49-2.011-2.235-3.054-2.831-4.098-5.066-8.01-5.066-8.01s-8.382-9.834-1.64-14.192c0 0 2.869-.075 4.47.782 1.64.894 5.104 8.121 5.663 9.388.596 1.266 6.966 13.187 7.376 13.447.41.261 1.155 1.23 3.688 2.608 3.129 1.676 8.009 6.593 8.009 6.593l-3.576 5.327z" fill="#A9BAE6"/><path d="M42.095 81.879s-.857-.038-1.23-.224c0 0-.632-.41-1.117-.67l-.372-.187c-.373-.149-1.23-.372-2.049-.968-.782-.596-3.427-3.055-3.427-3.055l1.676-2.607.782-2.57s6.073.595 6.892 1.08c.075.037.149.111.224.149.633.484.93 1.117 1.229 1.378.112.112 1.192 1.23 1.117 1.713-.074.634-.41 1.043-.782 1.23 0 0-.223 1.229-.857 1.788 0 0-.149 1.155-1.154 1.602.074.037-.224 1.192-.932 1.34z" fill="#EFAA88"/><path d="M32.41 3.39S43.399.745 41.09 14.677c-2.31 13.932-4.955 15.05-11.66 12.293-6.706-2.794-6.221-11.697-6.631-16.055-.41-4.359 6.11-7.302 9.61-7.525z" fill="#EEA886"/><path d="M26.636 13.038c-.15-1.23-2.608-1.639-2.757.186-.186 1.826 1.192 5.03 2.086 4.731.894-.335.894-3.24.67-4.917z" fill="#EEA886"/><path d="M23.432 18.03s.224-4.396 1.826-4.545c1.601-.149 1.862 1.602 1.862 1.602l1.602.298s-.559-3.837 1.006-4.508c1.602-.707 10.356 1.975 11.622.82 1.267-1.155.559-8.903-1.788-9.946-2.347-1.043-8.754-3.315-13.41-.075 0 0-3.651-.372-4.172 2.608-.41 2.906.447 11.585 1.452 13.746z" fill="#3A4453"/><path d="M38.482 71.597l-4.545 7.823s-12.032-3.092-14.826-3.874l6.407-7.637c0-.037 9.462 2.124 12.964 3.688z" fill="#A9BAE6"/><path d="M34.347 29.727c-5.886-.596-8.195-5.141-8.195-5.141 3.725 3.688 8.158 3.576 8.158 3.576v.895c.037.26.037.483.037.67z" fill="#A77860"/><path d="M47.013 65.153c6.854 7.04 15.869 15.906 15.869 15.906l3.538-6.705s-8.009-9.425-13.447-15.683c-1.677.82-4.731 2.794-5.96 6.482zm-4.21 9.499s1.825.894 2.31 1.304c.484.41 2.42 1.862 2.905 2.197.484.336-.708 1.304-4.21-.186-3.464-1.564-1.005-3.315-1.005-3.315z" fill="#EEA886"/><path d="M42.952 55.877l-3.204 29.839h42.244l3.203-29.839H42.952z" fill="#FF725E"/><path d="M36.414 85.753h7.04V83.07h-7.04v2.682z" fill="#FF725E"/><path d="M64.818 69.89c.337-1.653-.435-3.207-1.725-3.47-1.29-.264-2.61.862-2.947 2.515-.338 1.653.434 3.206 1.724 3.47 1.29.264 2.61-.863 2.948-2.516z" fill="#fff"/></svg>