<svg width="83" height="90" fill="none" xmlns="http://www.w3.org/2000/svg"><path d="M9.027 81.201h10.144l-.874 4.563H0l.728-3.64 10.969-8.591c2.718-2.184 3.543-3.446 3.543-5.048 0-1.601-1.214-2.669-3.543-2.669-1.942 0-3.786.874-5.145 2.524l-3.737-2.718c1.941-2.67 5.533-4.417 9.707-4.417 5.096 0 8.445 2.718 8.445 6.455 0 2.864-1.31 5.29-5.533 8.542l-6.407 5zm34.265-.533h-3.98l-.97 5.047h-5.436l1.02-5.047h-12.96l.729-3.738 14.22-15.288h6.115L28.78 76.154h6.358l.874-4.514h5.193l-.873 4.514h3.98l-1.02 4.514zm15.92-23.928h5.047L46.544 89.21h-4.999l17.667-32.47zm23.005 4.854l-.728 3.64-12.91 20.481h-6.213l12.377-19.56h-7.766l-.776 3.932H61.25l1.699-8.493h19.268z" fill="#fff"/><path d="M12.043 54.46H4.465c0-10.61 4.286-21.429 11.76-29.739 7.891-8.728 18.083-13.536 28.745-13.536 21.794 0 37.003 15.888 37.003 38.675h-7.63c0-18.554-11.812-31.045-29.373-31.045-17.195 0-32.927 16.986-32.927 35.645z" fill="#FF725E"/><path d="M42.88 51.428c-.366 0-.732-.104-1.046-.366l-12.805-9.93c-.731-.575-.888-1.62-.313-2.352.575-.731 1.62-.888 2.352-.313l11.655 9.041 16.15-14.79c.679-.628 1.777-.575 2.404.104.627.68.575 1.777-.105 2.404L44.03 50.958c-.313.314-.731.47-1.15.47zm8.675-45.313H36.921a.45.45 0 01-.418-.418V.418A.45.45 0 0136.921 0h14.687c.209 0 .418.21.418.418V5.75a.458.458 0 01-.47.366z" fill="#FF725E"/><path d="M48.21 3.084h-7.996v7.264h7.997V3.084zm-31.88 19.86l-6.011 7.474c-.21.314-.68.314-.941.105l-4.129-3.346c-.313-.209-.313-.679-.104-.94l6.01-7.422c.21-.313.68-.313.94-.104l4.13 3.345c.313.209.365.627.104.888z" fill="#FF725E"/><path d="M44.238 6.272c4.041 0 7.318-.07 7.318-.157s-3.276-.157-7.318-.157c-4.04 0-7.317.07-7.317.157s3.276.157 7.317.157zM11.05 29.111c-.104.105-1.201-.731-2.56-1.777-1.36-1.045-2.51-1.881-2.405-1.986.053-.104 1.307.575 2.666 1.62 1.359 1.098 2.352 2.091 2.3 2.143zm1.255-1.829c-.105.105-1.202-.732-2.561-1.777-1.36-1.045-2.509-1.881-2.404-1.986.052-.104 1.306.575 2.665 1.62 1.411 1.046 2.404 2.038 2.3 2.143zm1.568-1.62c-.105.104-1.202-.732-2.561-1.777s-2.509-1.882-2.404-1.986c.052-.105 1.306.575 2.665 1.62 1.411 1.098 2.404 2.09 2.3 2.143zm1.515-1.829c-.104.104-1.202-.732-2.56-1.777-1.36-1.046-2.51-1.882-2.405-1.986.053-.105 1.307.575 2.666 1.62 1.41 1.045 2.352 2.038 2.3 2.143z" fill="#fff"/><path d="M76.172 25.662l-6.48-7.056c-.262-.261-.21-.68.052-.94l3.92-3.555c.26-.26.679-.209.94.053l6.48 7.055c.262.262.21.68-.051.941l-3.92 3.554a.718.718 0 01-.941-.052z" fill="#FF725E"/><path d="M70.893 19.495c-.104-.105.941-1.046 2.143-2.248 1.202-1.202 2.195-2.195 2.3-2.09.104.052-.784 1.202-1.986 2.404-1.255 1.202-2.404 2.038-2.457 1.934zm1.621 1.515c-.105-.104.94-1.045 2.142-2.247 1.203-1.202 2.195-2.195 2.3-2.09.105.052-.784 1.202-1.986 2.404s-2.352 2.038-2.456 1.933zm1.359 1.777c-.105-.104.94-1.045 2.142-2.247s2.195-2.195 2.3-2.09c.105.052-.784 1.201-1.986 2.404-1.254 1.202-2.404 2.038-2.456 1.933zm1.62 1.777c-.105-.104.94-1.045 2.142-2.247 1.203-1.202 2.195-2.195 2.3-2.09.105.052-.784 1.201-1.986 2.404-1.254 1.202-2.404 2.038-2.456 1.933zM38.542 6.115c.115 0 .209-1.357.209-3.031 0-1.675-.094-3.032-.21-3.032-.115 0-.208 1.357-.208 3.032 0 1.674.093 3.03.209 3.03zm2.874 0c.116 0 .21-1.357.21-3.031 0-1.675-.094-3.032-.21-3.032-.115 0-.209 1.357-.209 3.032 0 1.674.094 3.03.21 3.03zm2.874 0c.116 0 .21-1.357.21-3.031 0-1.675-.094-3.032-.21-3.032-.115 0-.209 1.357-.209 3.032 0 1.674.094 3.03.21 3.03zm2.875 0c.116 0 .21-1.357.21-3.031 0-1.675-.094-3.032-.21-3.032-.115 0-.209 1.357-.209 3.032 0 1.674.094 3.03.21 3.03zm2.875 0c.115 0 .209-1.357.209-3.031 0-1.675-.094-3.032-.21-3.032-.115 0-.208 1.357-.208 3.032 0 1.674.093 3.03.209 3.03z" fill="#fff"/><path d="M43.298 52.944a3.815 3.815 0 100-7.63 3.815 3.815 0 000 7.63z" fill="#FF725E"/></svg>