<svg id="accountIcon" width="100%" height="100%" viewBox="0 0 13 14" fill="white" xmlns="http://www.w3.org/2000/svg">
    <path fill-rule="evenodd" clip-rule="evenodd" d="M13 13.9817V14L10.7683 14C10.2773 13.3326 9.63498 12.7897 8.89333 12.4155C8.15168 12.0413 7.33172 11.8462 6.5 11.8462C5.66828 11.8462 4.84832 12.0413 4.10667 12.4155C3.36502 12.7897 2.72266 13.3326 2.23173 14L0 14V13.9806C0.52117 12.697 1.42103 11.6003 2.58125 10.8348C3.74147 10.0694 5.10768 9.67108 6.5 9.69231C7.89244 9.67116 9.25865 10.0696 10.4189 10.8353C11.5791 11.6009 12.479 12.6979 13 13.9817ZM6.51084 0H6.5C5.3512 0.00142751 4.25001 0.456274 3.43845 1.26455C2.62688 2.07283 2.17137 3.16837 2.17209 4.31038C2.17281 5.45238 2.6297 6.54737 3.44228 7.35464C4.25486 8.16191 5.35662 8.61538 6.50542 8.61538C7.65422 8.61538 8.75598 8.16191 9.56856 7.35464C10.3811 6.54737 10.838 5.45238 10.8388 4.31038C10.8395 3.16837 10.384 2.07283 9.5724 1.26455C8.76083 0.456274 7.65964 0.00142751 6.51084 0ZM8.65582 4.30769C8.65561 4.73151 8.52904 5.14574 8.29202 5.49802C8.05501 5.85031 7.71822 6.12483 7.32427 6.28687C6.93032 6.44891 6.49693 6.49119 6.07881 6.40838C5.66069 6.32557 5.27663 6.12138 4.97524 5.82162C4.67385 5.52186 4.46866 5.14 4.38557 4.72431C4.30247 4.30863 4.34522 3.87778 4.50842 3.48625C4.67162 3.09471 4.94791 2.76007 5.30241 2.52464C5.65691 2.2892 6.07366 2.16354 6.5 2.16354C6.7832 2.16354 7.06357 2.21901 7.3252 2.32677C7.58682 2.43454 7.82456 2.59249 8.02476 2.79161C8.22496 2.99073 8.38383 3.22711 8.49211 3.48724C8.60038 3.74737 8.65597 4.02617 8.65582 4.30769Z" />
</svg>
