<svg width="158" height="133" viewBox="0 0 158 133" fill="none" xmlns="http://www.w3.org/2000/svg">
<path d="M93.715 132.653C91.8715 133.268 89.8396 133.059 88.1645 132.078C86.4795 131.097 85.3001 129.442 84.9234 127.529L83.9521 122.414C83.8034 121.631 84.3188 120.878 85.1018 120.729C85.8848 120.58 86.6381 121.096 86.7868 121.879L87.7581 126.984C87.9762 128.074 88.6502 129.025 89.6215 129.59C90.5929 130.155 91.7525 130.274 92.823 129.927C95.4892 129.045 96.9462 126.151 96.0641 123.475L55.813 1.89641C55.5652 1.14311 55.9716 0.330344 56.7249 0.072637C57.4781 -0.175158 58.2909 0.231226 58.5486 0.984524L98.7799 122.553C100.167 126.736 97.8878 131.265 93.715 132.653Z" fill="url(#paint0_linear_223_976)"/>
<path d="M0.0996094 91.3108C14.1246 85.0565 28.0306 83.4607 41.8474 85.6314L62.1662 15.3467C62.1662 15.3467 6.00693 29.5999 0.0996094 91.3108Z" fill="url(#paint1_linear_223_976)"/>
<path d="M156.991 39.2937C142.004 42.6538 129.902 49.6813 120.12 59.6724L61.8293 15.4558C61.8293 15.4558 115.382 -6.66735 156.991 39.2937Z" fill="url(#paint2_linear_223_976)"/>
<path d="M61.9396 15.2279C61.9396 15.2279 31.0649 27.3599 42.0173 85.572L46.4577 82.6282C66.7666 69.1581 90.3067 61.3575 114.64 60.0194L119.952 59.7319C93.9541 6.51537 61.9396 15.2279 61.9396 15.2279Z" fill="url(#paint3_linear_223_976)"/>
<path d="M65.0606 14.9603L59.2821 16.8733C59.183 16.903 59.0641 16.8535 59.0343 16.7444L58.7072 15.7533C58.6775 15.6541 58.7271 15.5352 58.8361 15.5055L64.6146 13.5925C64.7137 13.5627 64.8326 13.6123 64.8623 13.7213L65.1894 14.7125C65.2192 14.8116 65.1597 14.9207 65.0606 14.9603Z" fill="url(#paint4_linear_223_976)"/>
<path d="M1.09122 93.1244L0.318118 93.174C0.238825 93.1839 0.169444 93.1145 0.159532 93.0352L0.000946896 90.4581C-0.00896472 90.3788 0.060416 90.3094 0.139709 90.2995L0.922728 90.25C1.00202 90.2401 1.0714 90.3094 1.08131 90.3887L1.2399 92.9658C1.2399 93.055 1.18043 93.1244 1.09122 93.1244Z" fill="url(#paint5_linear_223_976)"/>
<path d="M42.4428 87.3856L41.6598 87.4352C41.5805 87.4451 41.5111 87.3757 41.5012 87.2964L41.3426 84.7194C41.3327 84.6401 41.4021 84.5707 41.4814 84.5608L42.2644 84.5112C42.3437 84.5013 42.4131 84.5707 42.423 84.65L42.5816 87.227C42.5816 87.3063 42.5221 87.3757 42.4428 87.3856Z" fill="url(#paint6_linear_223_976)"/>
<path d="M157.279 41.3457L157.933 40.9195C158.002 40.8699 158.022 40.7807 157.973 40.7114L156.565 38.5506C156.516 38.4812 156.426 38.4614 156.357 38.5109L155.703 38.9371C155.633 38.9867 155.614 39.0759 155.663 39.1453L157.071 41.3061C157.11 41.3655 157.209 41.3854 157.279 41.3457Z" fill="url(#paint7_linear_223_976)"/>
<path d="M120.685 61.437L121.339 61.0108C121.409 60.9612 121.429 60.872 121.379 60.8027L119.972 58.6419C119.922 58.5725 119.833 58.5527 119.763 58.6022L119.109 59.0284C119.04 59.078 119.02 59.1672 119.07 59.2366L120.477 61.3974C120.527 61.4668 120.616 61.4866 120.685 61.437Z" fill="url(#paint8_linear_223_976)"/>
<defs>
<linearGradient id="paint0_linear_223_976" x1="104.851" y1="166.312" x2="67.1854" y2="46.974" gradientUnits="userSpaceOnUse">
<stop stop-color="#E1473D"/>
<stop offset="1" stop-color="#E9605A"/>
</linearGradient>
<linearGradient id="paint1_linear_223_976" x1="-13.1573" y1="-43.3101" x2="17.3716" y2="23.297" gradientUnits="userSpaceOnUse">
<stop stop-color="#E1473D"/>
<stop offset="1" stop-color="#E9605A"/>
</linearGradient>
<linearGradient id="paint2_linear_223_976" x1="127.471" y1="-35.4871" x2="117.559" y2="-0.994127" gradientUnits="userSpaceOnUse">
<stop stop-color="#E1473D"/>
<stop offset="1" stop-color="#E9605A"/>
</linearGradient>
<linearGradient id="paint3_linear_223_976" x1="83.7245" y1="24.075" x2="71.8301" y2="128.347" gradientUnits="userSpaceOnUse">
<stop stop-color="#FE7062"/>
<stop offset="1" stop-color="#FF928E"/>
</linearGradient>
<linearGradient id="paint4_linear_223_976" x1="68.6746" y1="-23.823" x2="64.2138" y2="2.04937" gradientUnits="userSpaceOnUse">
<stop stop-color="#A22B25"/>
<stop offset="1" stop-color="#C0423C"/>
</linearGradient>
<linearGradient id="paint5_linear_223_976" x1="3.23376" y1="37.4142" x2="1.48245" y2="73.7118" gradientUnits="userSpaceOnUse">
<stop stop-color="#A22B25"/>
<stop offset="1" stop-color="#C0423C"/>
</linearGradient>
<linearGradient id="paint6_linear_223_976" x1="44.2066" y1="39.3914" x2="42.4553" y2="75.6886" gradientUnits="userSpaceOnUse">
<stop stop-color="#A22B25"/>
<stop offset="1" stop-color="#C0423C"/>
</linearGradient>
<linearGradient id="paint7_linear_223_976" x1="156.58" y1="44.8138" x2="154.828" y2="81.1112" gradientUnits="userSpaceOnUse">
<stop stop-color="#A22B25"/>
<stop offset="1" stop-color="#C0423C"/>
</linearGradient>
<linearGradient id="paint8_linear_223_976" x1="121.047" y1="43.0994" x2="119.296" y2="79.3969" gradientUnits="userSpaceOnUse">
<stop stop-color="#A22B25"/>
<stop offset="1" stop-color="#C0423C"/>
</linearGradient>
</defs>
</svg>
