<svg width="118" height="131" viewBox="0 0 118 131" fill="none" xmlns="http://www.w3.org/2000/svg">
<path d="M118 129.995H100.386C99.229 121.569 97.8148 111.962 97.8148 111.962C97.8148 111.962 97.0948 119.9 96.2463 129.995H25.7908C25.148 120.902 24.3765 114.12 24.0937 113.965C23.6823 113.76 21.188 121.826 19.0795 129.995H0C4.91131 108.879 14.0654 74.9952 19.3367 72.9658C26.8708 70.0629 57.5729 60.6094 57.5729 60.6094H75.1096C75.1096 60.6094 106.249 69.4978 109.155 79.1312C111.443 86.8379 116.509 112.193 118 129.995Z" fill="#E65353"/>
<path d="M67.138 3.81446C67.138 3.81446 83.4919 6.38335 81.0233 31.9696C78.5291 57.5559 64.0781 55.4494 63.1267 55.4237C62.1495 55.398 48.6242 55.8861 47.5699 24.6482C47.5442 24.6739 47.0813 1.57951 67.138 3.81446Z" fill="#EEA987"/>
<path d="M74.7753 47.8961C74.7753 47.8961 74.3382 58.4286 75.341 60.6892C76.3438 62.9498 61.8413 70.2712 52.9701 62.1278C52.9701 62.1278 55.1043 50.6962 54.5129 46.6373C53.9215 42.6041 74.7753 47.8961 74.7753 47.8961Z" fill="#EEA987"/>
<path d="M81.2544 24.7533C81.2544 24.7533 83.0544 22.8523 83.6972 24.779C84.3658 26.7057 80.9201 35.3629 81.1515 35.7482C81.1515 35.7482 80.8173 36.4932 80.4058 36.0822C79.9687 35.6712 81.2544 24.7533 81.2544 24.7533Z" fill="#EEA987"/>
<path d="M47.7499 24.4447C47.7499 24.4447 46.0014 22.4923 45.3071 24.419C44.6129 26.3457 47.8785 35.0543 47.6471 35.4396C47.6471 35.4396 47.9557 36.1846 48.3928 35.7993C48.8299 35.3883 47.7499 24.4447 47.7499 24.4447Z" fill="#EEA987"/>
<path d="M81.2551 28.6808L78.9151 31.8149C78.9151 31.8149 78.9923 24.9559 78.6065 23.8769C78.2208 22.798 77.6552 19.5098 77.3466 18.7391C77.038 17.9685 63.2812 14.1151 51.1701 19.8695C51.1701 19.8695 51.71 24.8017 50.5529 25.2385C49.3958 25.6752 49.9615 33.2791 49.9615 33.2791L48.033 31.0955C48.033 31.0955 45.0759 11.4178 45.8216 9.36264C46.5416 7.30752 48.8815 -5.02321 73.7724 2.29816C73.7724 2.29816 81.5379 0.65407 83.0807 5.99739C84.5978 11.3664 81.2551 28.6808 81.2551 28.6808Z" fill="#D98B52"/>
<path d="M75.3423 60.6926C75.3423 60.6926 79.0451 61.489 63.5912 76.2602C63.5912 76.2602 52.6371 64.1607 52.9971 62.1312C53.3314 60.1275 75.3423 60.6926 75.3423 60.6926Z" fill="#EEA987"/>
<path d="M63.5914 76.2817L67.8084 83.4746L80.3053 62.2555L74.9054 58.5049L63.5914 76.2817Z" fill="#B84343"/>
<path d="M63.591 76.2797L53.357 60.0186L47.5457 63.7435L57.9597 83.4726L63.591 76.2797Z" fill="#B84343"/>
<path d="M60.4266 121.344C60.5552 123.733 60.6066 126.688 60.6066 130.001H60.0151C60.0151 126.713 59.9637 123.785 59.8352 121.396C58.8838 103.362 63.2551 81.3979 63.2808 76.2344L63.8465 76.3371C63.8208 81.4749 59.4752 103.388 60.4266 121.344Z" fill="#B84343"/>
<path d="M56.0564 52.4165C56.0564 52.4165 59.9392 56.5268 65.4419 55.4221C70.9446 54.3175 73.3617 51.8257 73.3617 51.8257C73.3617 51.8257 71.2017 57.2461 64.8505 57.7599C58.4992 58.2479 56.0564 52.4165 56.0564 52.4165Z" fill="#C78D71"/>
</svg>
