<svg width="693" height="797" viewBox="0 0 693 797" fill="none" xmlns="http://www.w3.org/2000/svg">
<rect width="693" height="797" fill="#F5F5F5"/>
<mask id="mask0_157_604" style="mask-type:alpha" maskUnits="userSpaceOnUse" x="0" y="0" width="693" height="797">
<path d="M693 0H0V797H693V0Z" fill="#8294AD"/>
</mask>
<g mask="url(#mask0_157_604)">
<path d="M1172.55 1073.04C1442.3 1025.5 1541.89 408.482 1462.8 -25.9998C1391.61 -460.479 966.909 -696.485 492.348 -735.984C278.787 -759.683 88.9617 -720.184 1.96099 -664.887C1.96099 -664.887 -45.4951 -633.289 -45.4951 -593.79C-45.4951 -593.79 444.886 -664.887 650.535 -443.697C832.449 -246.205 697.989 -9.21832 697.989 -9.21832C618.896 148.781 429.07 338.372 429.07 338.372C429.07 338.372 175.967 583.262 96.8731 725.451C57.3271 796.552 33.5991 867.646 33.5991 930.846C33.5991 1065.14 128.512 1120.44 160.151 1128.33C429.07 1254.73 958.997 1152.04 1172.55 1073.04Z" fill="#00239C"/>
<path d="M-724.5 -291.499C-803.593 -180.904 -867.094 350.02 -788 784.501C-716.816 1218.98 -235.311 1396.93 239.257 1436.43C452.81 1460.13 642.635 1420.64 729.633 1365.34C729.633 1365.34 777.095 1333.74 777.095 1294.24C777.095 1294.24 286.712 1365.34 81.0626 1144.15C-100.851 946.653 33.6087 709.665 33.6087 709.665C112.702 551.673 302.527 362.081 302.527 362.081C302.527 362.081 555.631 117.191 634.724 -25.0052C674.267 -96.1023 698.001 -167.198 698.001 -230.396C698.001 -364.69 603.085 -419.988 571.446 -427.887C302.527 -554.282 -510.945 -370.496 -724.5 -291.499Z" fill="#00239C"/>
</g>
</svg>
