<svg width="30" height="30" viewBox="0 0 30 30" fill="none" xmlns="http://www.w3.org/2000/svg">
<path d="M13.7501 12.4999C14.4403 12.4999 15.0001 11.9403 15.0001 11.2499C15.0001 10.5596 14.4403 10 13.7501 10C13.0598 10 12.5 10.5596 12.5 11.2499C12.5 11.9403 13.0598 12.4999 13.7501 12.4999Z" fill="white"/>
<path d="M10 6.25014C10 6.94052 10.5596 7.50007 11.2499 7.50007C11.9403 7.50007 12.4999 6.94052 12.4999 6.25014C12.4999 5.55977 11.9403 5 11.2499 5C10.5596 5 10 5.55977 10 6.25014V6.25014Z" fill="white"/>
<path d="M6.25014 11.2501C5.55977 11.2501 5 10.6905 5 10.0001C5 9.30977 5.55977 8.75 6.25014 8.75C6.9403 8.75 7.50007 9.30977 7.50007 10.0001C7.50007 10.6905 6.9403 11.2501 6.25014 11.2501V11.2501Z" fill="white"/>
<path d="M18.75 14.9999C18.75 15.6903 19.3098 16.2499 19.9999 16.2499C20.6903 16.2499 21.2501 15.6903 21.2501 14.9999C21.2501 14.3096 20.6903 13.75 19.9999 13.75C19.3098 13.75 18.75 14.3096 18.75 14.9999Z" fill="white"/>
<path d="M13.3837 17.1337C12.8955 17.622 12.8955 18.4134 13.3837 18.9016C13.8715 19.3896 14.6632 19.3896 15.1514 18.9016C15.6398 18.4134 15.6398 17.6219 15.1514 17.1337C14.6632 16.6455 13.8715 16.6455 13.3837 17.1337Z" fill="white"/>
<path d="M25.1514 18.3836C24.6632 17.8956 23.8721 17.8956 23.3837 18.3836C22.8955 18.8718 22.8955 19.6632 23.3837 20.1514C23.8722 20.6394 24.6632 20.6394 25.1514 20.1514C25.6396 19.6632 25.6396 18.8718 25.1514 18.3836Z" fill="white"/>
<path d="M8.38374 20.8837C8.87216 20.3955 9.66318 20.3955 10.1514 20.8837C10.6396 21.372 10.6396 22.1634 10.1514 22.6516C9.66317 23.1396 8.87215 23.1396 8.38374 22.6516C7.89552 22.1634 7.89552 21.3719 8.38374 20.8837V20.8837Z" fill="white"/>
<path d="M15.8857 22.1336C16.3735 21.6456 17.1651 21.6456 17.6533 22.1336C18.1415 22.6218 18.1415 23.4132 17.6533 23.9014C17.1651 24.3894 16.3735 24.3894 15.8857 23.9014C15.3975 23.4132 15.3975 22.6218 15.8857 22.1336Z" fill="white"/>
<path d="M5.88389 14.6336C6.37211 14.1456 7.16313 14.1456 7.65132 14.6336C8.13974 15.1218 8.13974 15.9132 7.65132 16.4014C7.16311 16.8894 6.37209 16.8894 5.88389 16.4014C5.39547 15.9132 5.39547 15.1218 5.88389 14.6336Z" fill="white"/>
<path fill-rule="evenodd" clip-rule="evenodd" d="M16.3722 0.0615161C16.7529 0.0962539 17.1296 0.145013 17.5021 0.207375C17.6119 6.94613 23.0537 12.3884 29.7924 12.4983C29.9293 13.3119 30 14.1477 30 15C30 23.2843 23.2843 30 15 30C6.71571 30 0 23.2843 0 15C0 6.71571 6.71571 0 15 0C15.4627 0 15.9204 0.0209261 16.3721 0.0617304L16.3722 0.0615161ZM27.5001 14.9999L27.4982 14.7921C21.2186 13.7376 16.2627 8.7814 15.2084 2.50175L15.0002 2.50008C8.09642 2.50008 2.50035 8.09615 2.50035 14.9999C2.50035 21.9037 8.09642 27.4997 15.0002 27.4997C21.9039 27.4997 27.5 21.9037 27.5 14.9999L27.5001 14.9999Z" fill="white"/>
</svg>
