<svg id="declareIcon" width="100%" height="100%" viewBox="0 0 18 14" fill="none" xmlns="http://www.w3.org/2000/svg">
<path d="M15.662 6.28332C15.6601 5.45022 15.4679 4.62928 15.1009 3.88693C14.734 3.14459 14.2025 2.5017 13.5497 2.01029C13.4212 1.91823 13.2629 1.88168 13.1086 1.90848C12.9543 1.93528 12.8163 2.02329 12.7242 2.15365C12.6321 2.28402 12.5933 2.44636 12.616 2.6059C12.6387 2.76543 12.7211 2.90947 12.8456 3.00713C13.3471 3.38295 13.7552 3.87568 14.0365 4.44507C14.3179 5.01446 14.4646 5.64436 14.4646 6.28332C14.4646 6.92228 14.3179 7.55217 14.0365 8.12156C13.7552 8.69095 13.3471 9.18368 12.8456 9.55951C12.7802 9.60638 12.7245 9.66623 12.6819 9.73556C12.6392 9.80489 12.6104 9.88229 12.5972 9.96324C12.5839 10.0442 12.5865 10.127 12.6048 10.2069C12.623 10.2868 12.6566 10.3622 12.7034 10.4286C12.7503 10.4949 12.8096 10.551 12.8778 10.5934C12.9459 10.6359 13.0217 10.6639 13.1005 10.6758C13.1793 10.6877 13.2596 10.6833 13.3368 10.6628C13.4139 10.6422 13.4863 10.6061 13.5497 10.5563C14.2027 10.0651 14.7342 9.42218 15.1011 8.67982C15.4681 7.93745 15.6602 7.11645 15.662 6.28332Z" fill="white"/>
<path d="M14.9478 0.117228C14.8194 0.0251651 14.661 -0.0113838 14.5067 0.0154136C14.3524 0.0422111 14.2145 0.130223 14.1224 0.260587C14.0303 0.390952 13.9914 0.553298 14.0141 0.712833C14.0368 0.872368 14.1193 1.0164 14.2438 1.11406C15.0345 1.70625 15.678 2.48283 16.1217 3.38034C16.5654 4.27785 16.7967 5.27081 16.7967 6.27807C16.7967 7.28532 16.5654 8.27828 16.1217 9.17579C15.678 10.0733 15.0345 10.8499 14.2438 11.4421C14.142 11.5189 14.0664 11.6268 14.0278 11.7505C13.9892 11.8742 13.9894 12.0073 14.0286 12.1309C14.0677 12.2544 14.1438 12.362 14.2458 12.4384C14.3478 12.5147 14.4707 12.5559 14.5968 12.5561C14.7218 12.5591 14.8445 12.5217 14.9478 12.4492C15.8929 11.7441 16.6623 10.8183 17.1928 9.74751C17.7234 8.67675 18 7.49163 18 6.28937C18 5.08712 17.7234 3.90199 17.1928 2.83124C16.6623 1.76048 15.8929 0.834597 14.9478 0.12956V0.117228Z" fill="white"/>
<path d="M5.15456 3.00713C5.27907 2.90947 5.3615 2.76543 5.38418 2.6059C5.40687 2.44636 5.36801 2.28402 5.27593 2.15365C5.18385 2.02329 5.04587 1.93528 4.89158 1.90848C4.73728 1.88168 4.57893 1.91823 4.45047 2.01029C3.79615 2.50028 3.26364 3.14287 2.89647 3.88552C2.5293 4.62818 2.33789 5.44984 2.33789 6.28332C2.33789 7.1168 2.5293 7.93845 2.89647 8.68111C3.26364 9.42377 3.79615 10.0664 4.45047 10.5563C4.51386 10.6061 4.58624 10.6422 4.66337 10.6628C4.74051 10.6833 4.82084 10.6877 4.89966 10.6758C4.97848 10.6639 5.0542 10.6359 5.12238 10.5934C5.19056 10.551 5.24983 10.4949 5.29671 10.4286C5.34358 10.3622 5.37713 10.2868 5.39538 10.2069C5.41362 10.127 5.4162 10.0442 5.40296 9.96324C5.38972 9.88229 5.36093 9.80489 5.31828 9.73556C5.27562 9.66623 5.21996 9.60638 5.15456 9.55951C4.65309 9.18368 4.245 8.69095 3.96363 8.12156C3.68225 7.55217 3.53557 6.92228 3.53557 6.28332C3.53557 5.64436 3.68225 5.01446 3.96363 4.44507C4.245 3.87568 4.65309 3.38295 5.15456 3.00713V3.00713Z" fill="white"/>
<path d="M3.75624 11.4485C2.96553 10.8563 2.32202 10.0797 1.87833 9.18218C1.43463 8.28467 1.20332 7.29171 1.20332 6.28446C1.20332 5.2772 1.43463 4.28424 1.87833 3.38673C2.32202 2.48922 2.96553 1.71264 3.75624 1.12045C3.82015 1.07281 3.87433 1.01267 3.91569 0.943452C3.95704 0.874237 3.98476 0.797306 3.99726 0.717051C4.00976 0.636797 4.0068 0.554791 3.98855 0.475716C3.9703 0.39664 3.9371 0.322044 3.89087 0.256186C3.84464 0.190328 3.78628 0.134498 3.71911 0.0918841C3.65194 0.0492701 3.57728 0.0207063 3.49939 0.00782357C3.42151 -0.00505912 3.34193 -0.0020083 3.26519 0.0168017C3.18845 0.0356116 3.11606 0.0698125 3.05215 0.117451C2.1071 0.822489 1.33773 1.74837 0.807179 2.81913C0.276625 3.88989 0 5.07501 0 6.27726C0 7.47952 0.276625 8.66464 0.807179 9.7354C1.33773 10.8062 2.1071 11.732 3.05215 12.4371C3.15402 12.514 3.2769 12.5557 3.4032 12.5563C3.52931 12.5562 3.65215 12.515 3.75419 12.4386C3.85624 12.3623 3.93226 12.2546 3.97141 12.1311C4.01056 12.0076 4.01083 11.8745 3.97219 11.7508C3.93355 11.6271 3.85797 11.5191 3.75624 11.4423V11.4485Z" fill="white"/>
<path d="M8.86279 2.79959C8.02331 2.84255 7.2303 3.20961 6.64154 3.82772C6.05278 4.44583 5.71143 5.26969 5.6854 6.13538C5.67277 6.71654 5.80471 7.29136 6.06866 7.80511C6.33261 8.31886 6.71978 8.75444 7.19331 9.07039C7.3165 9.15432 7.41747 9.26854 7.48712 9.40274C7.55676 9.53694 7.59288 9.6869 7.59223 9.83908C7.59197 9.91482 7.60622 9.98988 7.63417 10.0599C7.66212 10.13 7.70321 10.1937 7.7551 10.2473C7.80699 10.301 7.86864 10.3436 7.93653 10.3726C8.00442 10.4017 8.07721 10.4166 8.15072 10.4166H9.88601C10.0267 10.4166 10.1617 10.359 10.2612 10.2565C10.3607 10.154 10.4166 10.0149 10.4166 9.86991C10.4139 9.7122 10.4488 9.55623 10.5184 9.41573C10.588 9.27523 10.69 9.15452 10.8155 9.06422C11.4228 8.65524 11.8829 8.05206 12.1251 7.34739C12.3674 6.64272 12.3783 5.87558 12.1562 5.1639C11.9342 4.45221 11.4914 3.83538 10.896 3.40822C10.3006 2.98106 9.58559 2.76723 8.86079 2.79959H8.86279Z" fill="white"/>
<path d="M10.1071 12.1926H7.88509C7.72095 12.1926 7.58789 12.3297 7.58789 12.4989V12.6756C7.58789 12.8448 7.72095 12.9819 7.88509 12.9819H10.1071C10.2712 12.9819 10.4043 12.8448 10.4043 12.6756V12.4989C10.4043 12.3297 10.2712 12.1926 10.1071 12.1926Z" fill="white"/>
<path d="M10.1071 10.9099H7.88509C7.72095 10.9099 7.58789 11.047 7.58789 11.2162V11.3929C7.58789 11.562 7.72095 11.6992 7.88509 11.6992H10.1071C10.2712 11.6992 10.4043 11.562 10.4043 11.3929V11.2162C10.4043 11.047 10.2712 10.9099 10.1071 10.9099Z" fill="white"/>
<path d="M9.03582 13.9992C9.20157 13.9909 9.36236 13.9383 9.50229 13.8463C9.64222 13.7544 9.75644 13.6264 9.83366 13.4751H8.1582C8.24105 13.6393 8.3676 13.7759 8.52303 13.8687C8.67846 13.9615 8.85633 14.0068 9.03582 13.9992V13.9992Z" fill="white"/>
</svg>
