<svg width="147" height="145" viewBox="0 0 147 145" fill="none" xmlns="http://www.w3.org/2000/svg">
<mask id="mask0_106_686" style="mask-type:alpha" maskUnits="userSpaceOnUse" x="4" y="35" width="140" height="74">
<path d="M31.7 108.6C26.1 108.6 21.2667 107.5 17.2 105.3C13.2 103.033 10.1333 100.1 8 96.5C5.86667 92.8333 4.8 88.9333 4.8 84.8H21.5C21.5 88.2667 22.6 90.8333 24.8 92.5C27 94.1667 29.5333 95 32.4 95C35.3333 95 37.7333 94.3 39.6 92.9C41.4667 91.4333 42.4 89.2 42.4 86.2C42.4 83.2667 41.2 80.9 38.8 79.1C36.4 77.3 32.6333 76.4 27.5 76.4V65.5C31.4333 65.5 34.5667 64.5667 36.9 62.7C39.2333 60.8333 40.4 58.6667 40.4 56.2C40.4 54.1333 39.7333 52.4667 38.4 51.2C37.1333 49.8667 35.1667 49.2 32.5 49.2C29.9 49.2 27.7333 50 26 51.6C24.2667 53.1333 23.4 55.1 23.4 57.5H7.8C7.8 53.3 8.8 49.5667 10.8 46.3C12.8667 43.0333 15.7333 40.4667 19.4 38.6C23.1333 36.6667 27.5 35.7 32.5 35.7C37.7667 35.7 42.2333 36.5667 45.9 38.3C49.5667 40.0333 52.3667 42.3667 54.3 45.3C56.2333 48.2333 57.2 51.5 57.2 55.1C57.2 58.7 56.1 61.7667 53.9 64.3C51.7667 66.8333 48.8333 68.8 45.1 70.2C49.5 71.6667 52.9333 73.8667 55.4 76.8C57.9333 79.6667 59.2 83.3667 59.2 87.9C59.2 91.9667 58.1 95.5667 55.9 98.7C53.7 101.767 50.5333 104.2 46.4 106C42.3333 107.733 37.4333 108.6 31.7 108.6ZM66.1094 72C66.1094 64.4 67.3094 57.9 69.7094 52.5C72.176 47.0333 75.576 42.8667 79.9094 40C84.3094 37.1333 89.4094 35.7 95.2094 35.7C101.209 35.7 106.376 37.1333 110.709 40C115.043 42.8667 118.376 47.0333 120.709 52.5C123.109 57.9 124.309 64.4 124.309 72C124.309 79.6 123.109 86.1 120.709 91.5C118.376 96.9 115.043 101.067 110.709 104C106.376 106.867 101.209 108.3 95.2094 108.3C89.4094 108.3 84.3094 106.867 79.9094 104C75.576 101.067 72.176 96.9 69.7094 91.5C67.3094 86.1 66.1094 79.6 66.1094 72ZM82.4094 72C82.4094 78.6 83.576 83.9 85.9094 87.9C88.2427 91.8333 91.3427 93.8 95.2094 93.8C99.076 93.8 102.176 91.8333 104.509 87.9C106.843 83.9 108.009 78.6 108.009 72C108.009 65.4 106.843 60.1333 104.509 56.2C102.176 52.2 99.076 50.2 95.2094 50.2C91.3427 50.2 88.2427 52.2 85.9094 56.2C83.576 60.1333 82.4094 65.4 82.4094 72Z" fill="#202020"/>
<path d="M123.6 52.72V48.44H131.52V40.36H136.04V48.44H143.96V52.72H136.04V60.8H131.52V52.72H123.6Z" fill="#202020"/>
</mask>
<g mask="url(#mask0_106_686)">
<path d="M133.615 129.672C142.167 122.428 164.056 89.5685 166.887 53.0997C170.342 16.7935 154.339 -16.4622 117.709 -29.3833C101.349 -35.673 85.5418 -36.4069 77.5205 -33.7604C77.5205 -33.7604 73.1151 -32.2017 72.2903 -29.0341C72.2903 -29.0341 112.478 -24.6571 124.09 -2.69215C134.323 16.8845 118.762 33.1262 118.762 33.1262C109.22 44.1713 90.2786 55.4742 90.2786 55.4742C90.2786 55.4742 65.1883 69.9113 55.9765 79.6885C51.3705 84.5777 48.0131 89.7914 46.6933 94.8597C43.8887 105.629 50.2249 112.015 52.5572 113.298C71.1419 128.962 115.111 131.618 133.615 129.672Z" fill="#E4002B"/>
<path d="M31.1067 -18.946C22.1166 -11.8165 -0.647931 20.8144 -3.04081 57.3974C-6.10177 93.8063 11.5226 127.484 50.7813 141.09C68.3239 147.687 85.182 148.695 93.6849 146.174C93.6849 146.174 98.3536 144.684 99.1786 141.516C99.1786 141.516 56.2742 136.432 43.5236 114.17C32.2829 94.3313 48.5889 78.2835 48.5889 78.2835C58.5688 67.3529 78.5614 56.3238 78.5614 56.3238C78.5614 56.3238 105.054 42.2518 114.704 32.5881C119.528 27.7562 123.018 22.5766 124.337 17.5085C127.142 6.73879 120.28 0.216495 117.772 -1.11291C97.6981 -17.164 50.7939 -20.584 31.1067 -18.946Z" fill="#00239C"/>
</g>
</svg>
