<svg width="140" height="73" viewBox="0 0 140 73" fill="none" xmlns="http://www.w3.org/2000/svg">
<mask id="mask0_112_472" style="mask-type:alpha" maskUnits="userSpaceOnUse" x="0" y="0" width="140" height="73">
<path d="M26.9 72.9C21.3 72.9 16.4667 71.8 12.4 69.6C8.4 67.333 5.3333 64.4 3.2 60.8C1.06667 57.1333 0 53.2333 0 49.1H16.7C16.7 52.5667 17.8 55.1333 20 56.8C22.2 58.4667 24.7333 59.3 27.6 59.3C30.5333 59.3 32.9333 58.6 34.8 57.2C36.6667 55.7333 37.6 53.5 37.6 50.5C37.6 47.5667 36.4 45.2 34 43.4C31.6 41.6 27.8333 40.7 22.7 40.7V29.8C26.6333 29.8 29.7667 28.8667 32.1 27C34.4333 25.1333 35.6 22.9667 35.6 20.5C35.6 18.4333 34.9333 16.7667 33.6 15.5C32.3333 14.1667 30.3667 13.5 27.7 13.5C25.1 13.5 22.9333 14.3 21.2 15.9C19.4667 17.4333 18.6 19.4 18.6 21.8H3C3 17.6 4 13.8667 6 10.6C8.0667 7.3333 10.9333 4.7667 14.6 2.9C18.3333 0.966698 22.7 0 27.7 0C32.9667 0 37.4333 0.866699 41.1 2.6C44.7667 4.3333 47.5667 6.6667 49.5 9.6C51.4333 12.5333 52.4 15.8 52.4 19.4C52.4 23 51.3 26.0667 49.1 28.6C46.9667 31.1333 44.0333 33.1 40.3 34.5C44.7 35.9667 48.1333 38.1667 50.6 41.1C53.1333 43.9667 54.4 47.6667 54.4 52.2C54.4 56.2667 53.3 59.8667 51.1 63C48.9 66.067 45.7333 68.5 41.6 70.3C37.5333 72.033 32.6333 72.9 26.9 72.9ZM61.3094 36.3C61.3094 28.7 62.5094 22.2 64.9094 16.8C67.376 11.3333 70.776 7.1667 75.1094 4.3C79.5094 1.4333 84.6094 0 90.4094 0C96.409 0 101.576 1.4333 105.909 4.3C110.243 7.1667 113.576 11.3333 115.909 16.8C118.309 22.2 119.509 28.7 119.509 36.3C119.509 43.9 118.309 50.4 115.909 55.8C113.576 61.2 110.243 65.367 105.909 68.3C101.576 71.167 96.409 72.6 90.4094 72.6C84.6094 72.6 79.5094 71.167 75.1094 68.3C70.776 65.367 67.376 61.2 64.9094 55.8C62.5094 50.4 61.3094 43.9 61.3094 36.3ZM77.6094 36.3C77.6094 42.9 78.776 48.2 81.1094 52.2C83.4427 56.1333 86.5427 58.1 90.4094 58.1C94.276 58.1 97.376 56.1333 99.709 52.2C102.043 48.2 103.209 42.9 103.209 36.3C103.209 29.7 102.043 24.4333 99.709 20.5C97.376 16.5 94.276 14.5 90.4094 14.5C86.5427 14.5 83.4427 16.5 81.1094 20.5C78.776 24.4333 77.6094 29.7 77.6094 36.3Z" fill="#202020"/>
<path d="M118.8 17.02V12.74H126.72V4.66H131.24V12.74H139.16V17.02H131.24V25.1H126.72V17.02H118.8Z" fill="#202020"/>
</mask>
<g mask="url(#mask0_112_472)">
<path d="M128.815 93.971C137.367 86.728 159.256 53.8685 162.087 17.3996C165.542 -18.9066 149.538 -52.1623 112.909 -65.0833C96.548 -71.3731 80.7415 -72.1069 72.7202 -69.4604C72.7202 -69.4604 68.3149 -67.9017 67.49 -64.7342C67.49 -64.7342 107.678 -60.3572 119.29 -38.3922C129.523 -18.8155 113.962 -2.57391 113.962 -2.57391C104.42 8.47129 85.4783 19.7742 85.4783 19.7742C85.4783 19.7742 60.3881 34.2112 51.1762 43.9885C46.5702 48.8777 43.2128 54.0914 41.893 59.1597C39.0885 69.929 45.4247 76.315 47.7569 77.598C66.3417 93.262 110.311 95.917 128.815 93.971Z" fill="#E4002B"/>
<path d="M26.3067 -54.646C17.3166 -47.5165 -5.44797 -14.8856 -7.84084 21.6973C-10.9018 58.1063 6.72256 91.784 45.9813 105.39C63.5239 111.987 80.382 112.995 88.8849 110.474C88.8849 110.474 93.5536 108.984 94.3786 105.816C94.3786 105.816 51.4742 100.732 38.7236 78.47C27.4829 58.6313 43.7889 42.5834 43.7889 42.5834C53.7688 31.6529 73.7614 20.6237 73.7614 20.6237C73.7614 20.6237 100.254 6.5518 109.904 -3.112C114.728 -7.9439 118.218 -13.1234 119.537 -18.1915C122.342 -28.9612 115.48 -35.4835 112.972 -36.8129C92.8981 -52.864 45.9939 -56.2841 26.3067 -54.646Z" fill="#00239C"/>
</g>
</svg>
