<svg id="experience1" width="150" height="73" viewBox="0 0 150 73" fill="none" xmlns="http://www.w3.org/2000/svg">
    <mask id="mask0_110_430" style="mask-type:alpha" maskUnits="userSpaceOnUse" x="0" y="0" width="150" height="73">
    <path d="M0 71.4L31.2 39.1C34 36.1 36.2 33.4333 37.8 31.1C39.4 28.7 40.2 26.1333 40.2 23.4C40.2 21.1333 39.4 19.1 37.8 17.3C36.2 15.5 33.8 14.6 30.6 14.6C27.3333 14.6 24.7333 15.8 22.8 18.2C20.9333 20.5333 20 23.5667 20 27.3H3.4C3.4 22.3 4.43333 17.7333 6.5 13.6C8.6333 9.4667 11.7667 6.1667 15.9 3.7C20.0333 1.2333 25.1333 0 31.2 0C37 0 41.8667 1.1333 45.8 3.4C49.7333 5.6 52.7 8.4 54.7 11.8C56.7 15.2 57.7 18.6667 57.7 22.2C57.7 25.9333 56.7667 29.4 54.9 32.6C53.1 35.8 50.6667 38.7 47.6 41.3L31.4 55.9H59.4V71.4H0ZM67.625 36.4C67.625 28.8 68.825 22.3 71.225 16.9C73.6917 11.4333 77.0917 7.2667 81.425 4.4C85.825 1.5333 90.925 0.100002 96.725 0.100002C102.725 0.100002 107.892 1.5333 112.225 4.4C116.558 7.2667 119.892 11.4333 122.225 16.9C124.625 22.3 125.825 28.8 125.825 36.4C125.825 44 124.625 50.5 122.225 55.9C119.892 61.3 116.558 65.467 112.225 68.4C107.892 71.267 102.725 72.7 96.725 72.7C90.925 72.7 85.825 71.267 81.425 68.4C77.0917 65.467 73.6917 61.3 71.225 55.9C68.825 50.5 67.625 44 67.625 36.4ZM83.925 36.4C83.925 43 85.0917 48.3 87.425 52.3C89.7583 56.2333 92.8583 58.2 96.725 58.2C100.592 58.2 103.692 56.2333 106.025 52.3C108.358 48.3 109.525 43 109.525 36.4C109.525 29.8 108.358 24.5333 106.025 20.6C103.692 16.6 100.592 14.6 96.725 14.6C92.8583 14.6 89.7583 16.6 87.425 20.6C85.0917 24.5333 83.925 29.8 83.925 36.4Z" fill="#202020"/>
    <path d="M129.6 17.12V12.84H137.52V4.76001H142.04V12.84H149.96V17.12H142.04V25.2H137.52V17.12H129.6Z" fill="#202020"/>
    </mask>
    <g mask="url(#mask0_110_430)">
    <path d="M132.615 94.071C141.167 86.828 152.789 49.6652 155.62 13.1963C159.075 -23.1099 116.249 10.4471 79.6198 -2.47386C63.2588 -8.76366 72.1411 -30.4502 64.1198 -27.8037C64.1198 -27.8037 79.9495 18.2293 70.6198 -15.8037C70.6198 -15.8037 100.008 -37.7687 111.62 -15.8037C121.853 3.77299 117.762 -2.47386 117.762 -2.47386C108.22 8.57134 89.2783 19.8743 89.2783 19.8743C89.2783 19.8743 64.188 34.3113 54.9762 44.0886C50.3702 48.9778 47.0128 54.1915 45.6929 59.2598C42.8884 70.0291 49.2246 76.415 51.5568 77.698C70.1416 93.362 114.111 96.017 132.615 94.071Z" fill="#E4002B"/>
    <path d="M28.6198 -4.8037C19.6297 2.3258 -1.64804 -14.7856 -4.04092 21.7973C-7.10188 58.2063 10.5225 91.884 49.7813 105.49C67.3238 112.087 -1.07264 110.823 42.5236 94.6963C86.1198 78.57 -15.4385 70.4766 31.6198 94.6963C31.6198 94.6963 55.2741 100.832 42.5236 78.57C31.2828 58.7313 47.5889 42.6835 47.5889 42.6835C57.5687 31.753 77.5614 20.7237 77.5614 20.7237C77.5614 20.7237 104.053 6.65183 113.704 -3.01197C118.528 -7.84387 80.3008 2.05613 81.6198 -3.01197C84.4248 -13.7817 66.6278 20.0257 64.1198 18.6963C44.0459 2.64524 48.3071 -6.4418 28.6198 -4.8037Z" fill="#00239C"/>
    </g>
</svg>
