<svg width="118" height="145" viewBox="0 0 118 145" fill="none" xmlns="http://www.w3.org/2000/svg">
<mask id="mask0_106_693" style="mask-type:alpha" maskUnits="userSpaceOnUse" x="6" y="35" width="108" height="74">
<path d="M6.8 57.2V42.5L40.4 35.7V107H24.1V53L6.8 57.2ZM54.8789 72C54.8789 64.4 56.0789 57.9 58.4789 52.5C60.9456 47.0333 64.3456 42.8667 68.6789 40C73.0789 37.1333 78.1789 35.7 83.9789 35.7C89.9789 35.7 95.1456 37.1333 99.4789 40C103.812 42.8667 107.146 47.0333 109.479 52.5C111.879 57.9 113.079 64.4 113.079 72C113.079 79.6 111.879 86.1 109.479 91.5C107.146 96.9 103.812 101.067 99.4789 104C95.1456 106.867 89.9789 108.3 83.9789 108.3C78.1789 108.3 73.0789 106.867 68.6789 104C64.3456 101.067 60.9456 96.9 58.4789 91.5C56.0789 86.1 54.8789 79.6 54.8789 72ZM71.1789 72C71.1789 78.6 72.3456 83.9 74.6789 87.9C77.0122 91.8333 80.1122 93.8 83.9789 93.8C87.8456 93.8 90.9456 91.8333 93.2789 87.9C95.6122 83.9 96.7789 78.6 96.7789 72C96.7789 65.4 95.6122 60.1333 93.2789 56.2C90.9456 52.2 87.8456 50.2 83.9789 50.2C80.1122 50.2 77.0122 52.2 74.6789 56.2C72.3456 60.1333 71.1789 65.4 71.1789 72Z" fill="#202020"/>
</mask>
<g mask="url(#mask0_106_693)">
<path d="M107.526 121.98C113.015 114.247 123.993 82.7623 118.504 52.3828C113.564 22.0035 93.2558 -1.74765 60.3236 -4.50941C45.5036 -6.16647 32.3306 -3.4047 26.2932 0.461758C26.2932 0.461758 23 2.67115 23 5.4329C23 5.4329 57.03 0.461757 71.301 15.9276C83.9249 29.7365 74.5941 46.3068 74.5941 46.3068C69.1054 57.3543 55.9325 70.6108 55.9325 70.6108C55.9325 70.6108 38.3683 87.7338 32.8796 97.6758C30.1353 102.647 28.4887 107.618 28.4887 112.037C28.4887 121.427 35.0752 125.294 37.2708 125.846C55.9325 134.684 92.7068 127.503 107.526 121.98Z" fill="#E4002B"/>
<path d="M-8.7551 22.0204C-14.5833 29.7534 -26.2398 61.2375 -20.4116 91.617C-15.1662 121.996 6.39832 145.747 41.368 148.509C57.1042 150.166 71.092 147.405 77.5027 143.538C77.5027 143.538 81 141.329 81 138.567C81 138.567 44.8648 143.538 29.7111 128.072C16.3064 114.263 26.2144 97.693 26.2144 97.693C32.0425 86.646 46.0303 73.3895 46.0303 73.3895C46.0303 73.3895 64.6808 56.2665 70.509 46.324C73.4229 41.3528 75.1718 36.3817 75.1718 31.9628C75.1718 22.5728 68.1776 18.7064 65.8463 18.154C46.0303 9.31636 6.98119 16.4969 -8.7551 22.0204Z" fill="#00239C"/>
</g>
</svg>
