<svg width="105" height="73" viewBox="0 0 105 73" fill="none" xmlns="http://www.w3.org/2000/svg">
<mask id="mask0_110_450" style="mask-type:alpha" maskUnits="userSpaceOnUse" x="0" y="0" width="105" height="73">
<path d="M0 21.5V6.8L33.6 0V71.3H17.3V17.3L0 21.5ZM104.579 48.9C104.579 53.0333 103.746 56.6 102.079 59.6C100.479 62.6 98.312 65.067 95.579 67C92.8456 68.867 89.8122 70.267 86.4789 71.2C83.1456 72.133 79.7789 72.6 76.3789 72.6C69.9122 72.6 64.4122 71.7 59.8789 69.9C55.4122 68.1 51.5456 65.967 48.2789 63.5L54.8789 49.6C57.6789 52 60.6789 53.8667 63.8789 55.2C67.0789 56.4667 69.9789 57.1 72.5789 57.1C76.7789 57.1 80.0789 56.3 82.4789 54.7C84.8789 53.0333 86.0789 50.5 86.0789 47.1C86.0789 44.8333 85.4122 43 84.0789 41.6C82.8122 40.1333 81.1456 39.0667 79.0789 38.4C77.0122 37.6667 74.8456 37.3 72.5789 37.3C69.9122 37.3 66.8456 37.6 63.3789 38.2C59.9122 38.7333 56.4122 39.9 52.8789 41.7L62.6789 1.3H103.179V16H75.0789L71.0789 28.4C72.9456 27.4667 74.8789 26.8333 76.8789 26.5C78.9456 26.1667 81.0789 26 83.2789 26C87.0122 26 90.4789 26.9 93.679 28.7C96.946 30.5 99.579 33.1 101.579 36.5C103.579 39.9 104.579 44.0333 104.579 48.9Z" fill="#202020"/>
</mask>
<g mask="url(#mask0_110_450)">
<path d="M100.726 86.28C106.215 78.547 117.193 47.0623 111.704 16.6828C106.764 -13.6965 86.4558 -37.4477 53.5236 -40.2094C38.7036 -41.8665 25.5306 -39.1047 19.4932 -35.2383C19.4932 -35.2383 16.2 -33.0289 16.2 -30.2671C16.2 -30.2671 50.23 -35.2383 64.501 -19.7724C77.1249 -5.96352 67.7941 10.6068 67.7941 10.6068C62.3054 21.6543 49.1325 34.9108 49.1325 34.9108C49.1325 34.9108 31.5683 52.0338 26.0796 61.9758C23.3353 66.947 21.6887 71.918 21.6887 76.337C21.6887 85.727 28.2752 89.594 30.4708 90.146C49.1325 98.984 85.9067 91.803 100.726 86.28Z" fill="#E4002B"/>
<path d="M-15.5551 -13.6796C-21.3833 -5.94661 -33.0398 25.5375 -27.2116 55.917C-21.9662 86.296 -0.401707 110.047 34.568 112.809C50.3042 114.466 64.292 111.705 70.7027 107.838C70.7027 107.838 74.2 105.629 74.2 102.867C74.2 102.867 38.0648 107.838 22.9111 92.372C9.50637 78.563 19.4144 61.993 19.4144 61.993C25.2425 50.946 39.2303 37.6895 39.2303 37.6895C39.2303 37.6895 57.8808 20.5665 63.709 10.624C66.6229 5.65279 68.3718 0.681693 68.3718 -3.73721C68.3718 -13.1272 61.3776 -16.9936 59.0463 -17.546C39.2303 -26.3836 0.181164 -19.2031 -15.5551 -13.6796Z" fill="#00239C"/>
</g>
</svg>