<svg id="experience1" width="155" height="145" viewBox="0 0 155 145" fill="none" xmlns="http://www.w3.org/2000/svg">
<mask id="mask0_106_699" style="mask-type:alpha" maskUnits="userSpaceOnUse" x="2" y="35" width="150" height="74">
<path d="M2 107L33.2 74.7C36 71.7 38.2 69.0333 39.8 66.7C41.4 64.3 42.2 61.7333 42.2 59C42.2 56.7333 41.4 54.7 39.8 52.9C38.2 51.1 35.8 50.2 32.6 50.2C29.3333 50.2 26.7333 51.4 24.8 53.8C22.9333 56.1333 22 59.1667 22 62.9H5.4C5.4 57.9 6.43333 53.3333 8.5 49.2C10.6333 45.0667 13.7667 41.7667 17.9 39.3C22.0333 36.8333 27.1333 35.6 33.2 35.6C39 35.6 43.8667 36.7333 47.8 39C51.7333 41.2 54.7 44 56.7 47.4C58.7 50.8 59.7 54.2667 59.7 57.8C59.7 61.5333 58.7667 65 56.9 68.2C55.1 71.4 52.6667 74.3 49.6 76.9L33.4 91.5H61.4V107H2ZM69.625 72C69.625 64.4 70.825 57.9 73.225 52.5C75.6917 47.0333 79.0917 42.8667 83.425 40C87.825 37.1333 92.925 35.7 98.725 35.7C104.725 35.7 109.892 37.1333 114.225 40C118.558 42.8667 121.892 47.0333 124.225 52.5C126.625 57.9 127.825 64.4 127.825 72C127.825 79.6 126.625 86.1 124.225 91.5C121.892 96.9 118.558 101.067 114.225 104C109.892 106.867 104.725 108.3 98.725 108.3C92.925 108.3 87.825 106.867 83.425 104C79.0917 101.067 75.6917 96.9 73.225 91.5C70.825 86.1 69.625 79.6 69.625 72ZM85.925 72C85.925 78.6 87.0917 83.9 89.425 87.9C91.7583 91.8333 94.8583 93.8 98.725 93.8C102.592 93.8 105.692 91.8333 108.025 87.9C110.358 83.9 111.525 78.6 111.525 72C111.525 65.4 110.358 60.1333 108.025 56.2C105.692 52.2 102.592 50.2 98.725 50.2C94.8583 50.2 91.7583 52.2 89.425 56.2C87.0917 60.1333 85.925 65.4 85.925 72Z" fill="#202020"/>
<path d="M131.6 52.72V48.44H139.52V40.36H144.04V48.44H151.96V52.72H144.04V60.8H139.52V52.72H131.6Z" fill="#202020"/>
</mask>
<g mask="url(#mask0_106_699)">
<path d="M134.615 129.672C143.167 122.428 165.056 89.5685 167.887 53.0997C171.342 16.7935 155.339 -16.4622 118.709 -29.3833C102.349 -35.673 86.5418 -36.4069 78.5205 -33.7604C78.5205 -33.7604 74.1151 -32.2017 73.2903 -29.0341C73.2903 -29.0341 113.478 -24.6571 125.09 -2.69215C135.323 16.8845 119.762 33.1262 119.762 33.1262C110.22 44.1713 91.2786 55.4742 91.2786 55.4742C91.2786 55.4742 66.1883 69.9113 56.9765 79.6885C52.3705 84.5777 49.0131 89.7914 47.6933 94.8597C44.8887 105.629 51.2249 112.015 53.5572 113.298C72.1419 128.962 116.111 131.618 134.615 129.672Z" fill="#E4002B"/>
<path d="M32.1067 -18.946C23.1166 -11.8165 0.352069 20.8144 -2.04081 57.3974C-5.10177 93.8063 12.5226 127.484 51.7813 141.09C69.3239 147.687 86.182 148.695 94.6849 146.174C94.6849 146.174 99.3536 144.684 100.179 141.516C100.179 141.516 57.2742 136.432 44.5236 114.17C33.2829 94.3313 49.5889 78.2835 49.5889 78.2835C59.5688 67.3529 79.5614 56.3238 79.5614 56.3238C79.5614 56.3238 106.054 42.2518 115.704 32.5881C120.528 27.7562 124.018 22.5766 125.337 17.5085C128.142 6.73879 121.28 0.216495 118.772 -1.11291C98.6981 -17.164 51.7939 -20.584 32.1067 -18.946Z" fill="#00239C"/>
</g>
</svg>
