<svg width="116" height="145" viewBox="0 0 116 145" fill="none" xmlns="http://www.w3.org/2000/svg">
<mask id="mask0_106_682" style="mask-type:alpha" maskUnits="userSpaceOnUse" x="6" y="35" width="106" height="74">
<path d="M6.8 57.2V42.5L40.4 35.7V107H24.1V53L6.8 57.2ZM111.379 84.6C111.379 88.7333 110.546 92.3 108.879 95.3C107.279 98.3 105.112 100.767 102.379 102.7C99.6456 104.567 96.6122 105.967 93.2789 106.9C89.9456 107.833 86.5789 108.3 83.1789 108.3C76.7122 108.3 71.2122 107.4 66.6789 105.6C62.2122 103.8 58.3456 101.667 55.0789 99.2L61.6789 85.3C64.4789 87.7 67.4789 89.5667 70.6789 90.9C73.8789 92.1667 76.7789 92.8 79.3789 92.8C83.5789 92.8 86.8789 92 89.2789 90.4C91.6789 88.7333 92.8789 86.2 92.8789 82.8C92.8789 80.5333 92.2122 78.7 90.8789 77.3C89.6122 75.8333 87.9456 74.7667 85.8789 74.1C83.8122 73.3667 81.6456 73 79.3789 73C76.7122 73 73.6456 73.3 70.1789 73.9C66.7122 74.4333 63.2122 75.6 59.6789 77.4L69.4789 37H109.979V51.7H81.8789L77.8789 64.1C79.7456 63.1667 81.6789 62.5333 83.6789 62.2C85.7456 61.8667 87.8789 61.7 90.0789 61.7C93.8122 61.7 97.2789 62.6 100.479 64.4C103.746 66.2 106.379 68.8 108.379 72.2C110.379 75.6 111.379 79.7333 111.379 84.6Z" fill="#202020"/>
</mask>
<g mask="url(#mask0_106_682)">
<path d="M107.526 121.98C113.015 114.247 123.993 82.7623 118.504 52.3828C113.564 22.0035 93.2558 -1.74765 60.3236 -4.50941C45.5036 -6.16647 32.3306 -3.4047 26.2932 0.461758C26.2932 0.461758 23 2.67115 23 5.4329C23 5.4329 57.03 0.461756 71.301 15.9276C83.9249 29.7365 74.5941 46.3068 74.5941 46.3068C69.1054 57.3543 55.9325 70.6108 55.9325 70.6108C55.9325 70.6108 38.3683 87.7338 32.8796 97.6758C30.1353 102.647 28.4887 107.618 28.4887 112.037C28.4887 121.427 35.0752 125.294 37.2708 125.846C55.9325 134.684 92.7067 127.503 107.526 121.98Z" fill="#E4002B"/>
<path d="M-8.7551 22.0204C-14.5833 29.7534 -26.2398 61.2375 -20.4116 91.617C-15.1662 121.996 6.39832 145.747 41.368 148.509C57.1042 150.166 71.092 147.405 77.5027 143.538C77.5027 143.538 81 141.329 81 138.567C81 138.567 44.8648 143.538 29.7111 128.072C16.3064 114.263 26.2144 97.693 26.2144 97.693C32.0425 86.646 46.0303 73.3895 46.0303 73.3895C46.0303 73.3895 64.6808 56.2665 70.509 46.324C73.4229 41.3528 75.1718 36.3817 75.1718 31.9628C75.1718 22.5728 68.1776 18.7064 65.8463 18.154C46.0303 9.31636 6.98119 16.4969 -8.7551 22.0204Z" fill="#00239C"/>
</g>
</svg>
