<svg width="107" height="73" viewBox="0 0 107 73" fill="none" xmlns="http://www.w3.org/2000/svg">
<mask id="mask0_112_483" style="mask-type:alpha" maskUnits="userSpaceOnUse" x="0" y="0" width="107" height="73">
<path d="M0 21.5V6.8L33.6 0V71.3H17.3V17.3L0 21.5ZM48.0789 36.3C48.0789 28.7 49.2789 22.2 51.6789 16.8C54.1456 11.3333 57.5456 7.1667 61.8789 4.3C66.2789 1.4333 71.3789 0 77.1789 0C83.1789 0 88.3456 1.4333 92.6789 4.3C97.012 7.1667 100.346 11.3333 102.679 16.8C105.079 22.2 106.279 28.7 106.279 36.3C106.279 43.9 105.079 50.4 102.679 55.8C100.346 61.2 97.012 65.367 92.6789 68.3C88.3456 71.167 83.1789 72.6 77.1789 72.6C71.3789 72.6 66.2789 71.167 61.8789 68.3C57.5456 65.367 54.1456 61.2 51.6789 55.8C49.2789 50.4 48.0789 43.9 48.0789 36.3ZM64.3789 36.3C64.3789 42.9 65.5456 48.2 67.8789 52.2C70.2122 56.1333 73.3122 58.1 77.1789 58.1C81.0456 58.1 84.1456 56.1333 86.4789 52.2C88.8122 48.2 89.9789 42.9 89.9789 36.3C89.9789 29.7 88.8122 24.4333 86.4789 20.5C84.1456 16.5 81.0456 14.5 77.1789 14.5C73.3122 14.5 70.2122 16.5 67.8789 20.5C65.5456 24.4333 64.3789 29.7 64.3789 36.3Z" fill="#202020"/>
</mask>
<g mask="url(#mask0_112_483)">
<path d="M100.726 86.28C106.215 78.547 117.193 47.0623 111.704 16.6828C106.764 -13.6965 86.4558 -37.4477 53.5236 -40.2094C38.7036 -41.8665 25.5306 -39.1047 19.4932 -35.2383C19.4932 -35.2383 16.2 -33.0289 16.2 -30.2671C16.2 -30.2671 50.23 -35.2383 64.501 -19.7724C77.1249 -5.96352 67.7941 10.6068 67.7941 10.6068C62.3054 21.6543 49.1325 34.9108 49.1325 34.9108C49.1325 34.9108 31.5683 52.0338 26.0796 61.9758C23.3353 66.947 21.6887 71.918 21.6887 76.337C21.6887 85.727 28.2752 89.594 30.4708 90.146C49.1325 98.984 85.9068 91.803 100.726 86.28Z" fill="#E4002B"/>
<path d="M-15.5551 -13.6796C-21.3833 -5.94661 -33.0398 25.5375 -27.2116 55.917C-21.9662 86.296 -0.401707 110.047 34.568 112.809C50.3042 114.466 64.292 111.705 70.7027 107.838C70.7027 107.838 74.2 105.629 74.2 102.867C74.2 102.867 38.0648 107.838 22.9111 92.372C9.50637 78.563 19.4144 61.993 19.4144 61.993C25.2425 50.946 39.2303 37.6895 39.2303 37.6895C39.2303 37.6895 57.8808 20.5665 63.709 10.624C66.6229 5.65279 68.3718 0.681693 68.3718 -3.73721C68.3718 -13.1272 61.3776 -16.9936 59.0463 -17.546C39.2303 -26.3836 0.181164 -19.2031 -15.5551 -13.6796Z" fill="#00239C"/>
</g>
</svg>