<svg width="17" height="17" viewBox="0 0 17 17" fill="none" xmlns="http://www.w3.org/2000/svg">
<path fill-rule="evenodd" clip-rule="evenodd" d="M11.9048 16.6667H4.76191C3.49897 16.6667 2.28776 16.172 1.39473 15.2916C0.501696 14.4111 0 13.217 0 11.9718V4.69484C0 3.44969 0.501696 2.25554 1.39473 1.37509C2.28776 0.494633 3.49897 0 4.76191 0H11.9048C13.1677 0 14.3789 0.494633 15.2719 1.37509C16.165 2.25554 16.6667 3.44969 16.6667 4.69484V11.9718C16.6667 12.5884 16.5435 13.1989 16.3042 13.7685C16.0649 14.3381 15.7141 14.8556 15.2719 15.2916C14.8298 15.7275 14.3048 16.0734 13.7271 16.3093C13.1493 16.5452 12.5301 16.6667 11.9048 16.6667ZM15.119 4.34272C15.119 3.56451 14.8055 2.81816 14.2473 2.26788C13.6892 1.7176 12.9322 1.40845 12.1429 1.40845H4.40476C3.61543 1.40845 2.85843 1.7176 2.30028 2.26788C1.74214 2.81816 1.42857 3.56451 1.42857 4.34272V11.9718C1.42857 12.75 1.74214 13.4964 2.30028 14.0467C2.85843 14.597 3.61543 14.9061 4.40476 14.9061H12.1429C12.9322 14.9061 13.6892 14.597 14.2473 14.0467C14.8055 13.4964 15.119 12.75 15.119 11.9718V4.34272ZM12.7381 4.81221C12.5262 4.81221 12.319 4.75025 12.1428 4.63418C11.9666 4.51811 11.8293 4.35313 11.7482 4.16011C11.6671 3.96709 11.6459 3.7547 11.6873 3.54979C11.7286 3.34488 11.8306 3.15666 11.9805 3.00893C12.1303 2.86119 12.3212 2.76059 12.5291 2.71983C12.7369 2.67907 12.9523 2.69999 13.1481 2.77994C13.3439 2.85989 13.5112 2.99528 13.629 3.169C13.7467 3.34271 13.8095 3.54694 13.8095 3.75587C13.8095 4.03603 13.6966 4.30471 13.4957 4.50281C13.2948 4.70091 13.0223 4.81221 12.7381 4.81221ZM8.27381 12.5587C7.4144 12.5587 6.5743 12.3074 5.85972 11.8367C5.14515 11.366 4.58822 10.6969 4.25934 9.91408C3.93046 9.13127 3.8444 8.2699 4.01206 7.43887C4.17972 6.60785 4.59356 5.84451 5.20126 5.24538C5.80895 4.64624 6.5832 4.23823 7.42609 4.07293C8.26898 3.90763 9.14267 3.99247 9.93666 4.31671C10.7306 4.64096 11.4093 5.19006 11.8867 5.89456C12.3642 6.59907 12.619 7.42735 12.619 8.27465C12.619 9.41085 12.1613 10.5005 11.3464 11.3039C10.5315 12.1073 9.42624 12.5587 8.27381 12.5587ZM8.27381 5.51643C7.72049 5.51643 7.1796 5.6782 6.71954 5.98128C6.25947 6.28435 5.90089 6.71513 5.68915 7.21913C5.4774 7.72312 5.422 8.27771 5.52995 8.81275C5.63789 9.34779 5.90433 9.83926 6.29559 10.225C6.68684 10.6107 7.18534 10.8734 7.72802 10.9799C8.27071 11.0863 8.83321 11.0317 9.34441 10.8229C9.85561 10.6141 10.2925 10.2606 10.5999 9.80703C10.9074 9.35345 11.0714 8.82017 11.0714 8.27465C11.0714 7.54312 10.7767 6.84156 10.252 6.3243C9.72738 5.80703 9.01579 5.51643 8.27381 5.51643Z" fill="#FF20A7"/>
<path fill-rule="evenodd" clip-rule="evenodd" d="M11.9048 16.6667H4.76191C3.49897 16.6667 2.28776 16.172 1.39473 15.2916C0.501696 14.4111 0 13.217 0 11.9718V4.69484C0 3.44969 0.501696 2.25554 1.39473 1.37509C2.28776 0.494633 3.49897 0 4.76191 0H11.9048C13.1677 0 14.3789 0.494633 15.2719 1.37509C16.165 2.25554 16.6667 3.44969 16.6667 4.69484V11.9718C16.6667 12.5884 16.5435 13.1989 16.3042 13.7685C16.0649 14.3381 15.7141 14.8556 15.2719 15.2916C14.8298 15.7275 14.3048 16.0734 13.7271 16.3093C13.1493 16.5452 12.5301 16.6667 11.9048 16.6667ZM15.119 4.34272C15.119 3.56451 14.8055 2.81816 14.2473 2.26788C13.6892 1.7176 12.9322 1.40845 12.1429 1.40845H4.40476C3.61543 1.40845 2.85843 1.7176 2.30028 2.26788C1.74214 2.81816 1.42857 3.56451 1.42857 4.34272V11.9718C1.42857 12.75 1.74214 13.4964 2.30028 14.0467C2.85843 14.597 3.61543 14.9061 4.40476 14.9061H12.1429C12.9322 14.9061 13.6892 14.597 14.2473 14.0467C14.8055 13.4964 15.119 12.75 15.119 11.9718V4.34272ZM12.7381 4.81221C12.5262 4.81221 12.319 4.75025 12.1428 4.63418C11.9666 4.51811 11.8293 4.35313 11.7482 4.16011C11.6671 3.96709 11.6459 3.7547 11.6873 3.54979C11.7286 3.34488 11.8306 3.15666 11.9805 3.00893C12.1303 2.86119 12.3212 2.76059 12.5291 2.71983C12.7369 2.67907 12.9523 2.69999 13.1481 2.77994C13.3439 2.85989 13.5112 2.99528 13.629 3.169C13.7467 3.34271 13.8095 3.54694 13.8095 3.75587C13.8095 4.03603 13.6966 4.30471 13.4957 4.50281C13.2948 4.70091 13.0223 4.81221 12.7381 4.81221ZM8.27381 12.5587C7.4144 12.5587 6.5743 12.3074 5.85972 11.8367C5.14515 11.366 4.58822 10.6969 4.25934 9.91408C3.93046 9.13127 3.8444 8.2699 4.01206 7.43887C4.17972 6.60785 4.59356 5.84451 5.20126 5.24538C5.80895 4.64624 6.5832 4.23823 7.42609 4.07293C8.26898 3.90763 9.14267 3.99247 9.93666 4.31671C10.7306 4.64096 11.4093 5.19006 11.8867 5.89456C12.3642 6.59907 12.619 7.42735 12.619 8.27465C12.619 9.41085 12.1613 10.5005 11.3464 11.3039C10.5315 12.1073 9.42624 12.5587 8.27381 12.5587ZM8.27381 5.51643C7.72049 5.51643 7.1796 5.6782 6.71954 5.98128C6.25947 6.28435 5.90089 6.71513 5.68915 7.21913C5.4774 7.72312 5.422 8.27771 5.52995 8.81275C5.63789 9.34779 5.90433 9.83926 6.29559 10.225C6.68684 10.6107 7.18534 10.8734 7.72802 10.9799C8.27071 11.0863 8.83321 11.0317 9.34441 10.8229C9.85561 10.6141 10.2925 10.2606 10.5999 9.80703C10.9074 9.35345 11.0714 8.82017 11.0714 8.27465C11.0714 7.54312 10.7767 6.84156 10.252 6.3243C9.72738 5.80703 9.01579 5.51643 8.27381 5.51643Z" fill="url(#paint0_radial_498_4316)"/>
<path fill-rule="evenodd" clip-rule="evenodd" d="M11.9048 16.6667H4.76191C3.49897 16.6667 2.28776 16.172 1.39473 15.2916C0.501696 14.4111 0 13.217 0 11.9718V4.69484C0 3.44969 0.501696 2.25554 1.39473 1.37509C2.28776 0.494633 3.49897 0 4.76191 0H11.9048C13.1677 0 14.3789 0.494633 15.2719 1.37509C16.165 2.25554 16.6667 3.44969 16.6667 4.69484V11.9718C16.6667 12.5884 16.5435 13.1989 16.3042 13.7685C16.0649 14.3381 15.7141 14.8556 15.2719 15.2916C14.8298 15.7275 14.3048 16.0734 13.7271 16.3093C13.1493 16.5452 12.5301 16.6667 11.9048 16.6667ZM15.119 4.34272C15.119 3.56451 14.8055 2.81816 14.2473 2.26788C13.6892 1.7176 12.9322 1.40845 12.1429 1.40845H4.40476C3.61543 1.40845 2.85843 1.7176 2.30028 2.26788C1.74214 2.81816 1.42857 3.56451 1.42857 4.34272V11.9718C1.42857 12.75 1.74214 13.4964 2.30028 14.0467C2.85843 14.597 3.61543 14.9061 4.40476 14.9061H12.1429C12.9322 14.9061 13.6892 14.597 14.2473 14.0467C14.8055 13.4964 15.119 12.75 15.119 11.9718V4.34272ZM12.7381 4.81221C12.5262 4.81221 12.319 4.75025 12.1428 4.63418C11.9666 4.51811 11.8293 4.35313 11.7482 4.16011C11.6671 3.96709 11.6459 3.7547 11.6873 3.54979C11.7286 3.34488 11.8306 3.15666 11.9805 3.00893C12.1303 2.86119 12.3212 2.76059 12.5291 2.71983C12.7369 2.67907 12.9523 2.69999 13.1481 2.77994C13.3439 2.85989 13.5112 2.99528 13.629 3.169C13.7467 3.34271 13.8095 3.54694 13.8095 3.75587C13.8095 4.03603 13.6966 4.30471 13.4957 4.50281C13.2948 4.70091 13.0223 4.81221 12.7381 4.81221ZM8.27381 12.5587C7.4144 12.5587 6.5743 12.3074 5.85972 11.8367C5.14515 11.366 4.58822 10.6969 4.25934 9.91408C3.93046 9.13127 3.8444 8.2699 4.01206 7.43887C4.17972 6.60785 4.59356 5.84451 5.20126 5.24538C5.80895 4.64624 6.5832 4.23823 7.42609 4.07293C8.26898 3.90763 9.14267 3.99247 9.93666 4.31671C10.7306 4.64096 11.4093 5.19006 11.8867 5.89456C12.3642 6.59907 12.619 7.42735 12.619 8.27465C12.619 9.41085 12.1613 10.5005 11.3464 11.3039C10.5315 12.1073 9.42624 12.5587 8.27381 12.5587ZM8.27381 5.51643C7.72049 5.51643 7.1796 5.6782 6.71954 5.98128C6.25947 6.28435 5.90089 6.71513 5.68915 7.21913C5.4774 7.72312 5.422 8.27771 5.52995 8.81275C5.63789 9.34779 5.90433 9.83926 6.29559 10.225C6.68684 10.6107 7.18534 10.8734 7.72802 10.9799C8.27071 11.0863 8.83321 11.0317 9.34441 10.8229C9.85561 10.6141 10.2925 10.2606 10.5999 9.80703C10.9074 9.35345 11.0714 8.82017 11.0714 8.27465C11.0714 7.54312 10.7767 6.84156 10.252 6.3243C9.72738 5.80703 9.01579 5.51643 8.27381 5.51643Z" fill="url(#paint1_radial_498_4316)"/>
<defs>
<radialGradient id="paint0_radial_498_4316" cx="0" cy="0" r="1" gradientUnits="userSpaceOnUse" gradientTransform="translate(4.16667 16.1458) rotate(106.302) scale(11.5042)">
<stop stop-color="#FFFCB2"/>
<stop offset="0.233898" stop-color="#FFB21C" stop-opacity="0.81768"/>
<stop offset="1" stop-color="#FF24BE" stop-opacity="0"/>
</radialGradient>
<radialGradient id="paint1_radial_498_4316" cx="0" cy="0" r="1" gradientUnits="userSpaceOnUse" gradientTransform="translate(3.95833) rotate(75.3027) scale(6.56911 15.4049)">
<stop stop-color="#2E62DF"/>
<stop offset="1" stop-color="#6E48D8" stop-opacity="0"/>
</radialGradient>
</defs>
</svg>
