<svg id="logo" width="100%" height="100%" viewBox="0 0 83 70" fill="none" xmlns="http://www.w3.org/2000/svg">
<path d="M28.7212 37.4236C27.8693 37.4236 27.1392 36.8158 27.1392 35.9649C27.1392 35.2356 27.8693 34.5063 28.7212 34.5063C29.6949 34.5063 30.3034 35.114 30.3034 35.9649C30.3034 36.8158 29.5732 37.4236 28.7212 37.4236Z" fill="#00239C"/>
<path d="M21.5411 49.7004C20.2024 49.7004 19.107 49.3358 18.3768 48.9711L19.107 47.1478C19.107 47.1478 19.9589 47.634 21.0543 47.634C21.9062 47.634 22.393 47.1478 22.393 46.5401C22.393 44.9599 18.7419 45.3246 18.6203 42.1642C18.4986 40.3409 20.0807 39.004 22.1496 39.004C23.9751 39.004 25.1921 39.7332 25.1921 39.7332L24.5836 41.435C24.2185 41.3134 23.61 40.9487 22.8797 40.9487C22.0278 40.9487 21.5411 41.435 21.6627 42.0427C21.7845 43.3797 25.5572 43.2583 25.5572 46.5401C25.5572 48.2418 24.0967 49.7004 21.5411 49.7004Z" fill="#00239C"/>
<path d="M34.6847 49.7004C33.3459 49.7004 32.2507 49.3358 31.5205 48.9711L32.2507 47.1478C32.2507 47.1478 33.1026 47.634 34.1979 47.634C35.0498 47.634 35.5366 47.1478 35.5366 46.5401C35.5366 44.9599 31.8856 45.3246 31.7639 42.1642C31.6421 40.3409 33.2243 39.004 35.2932 39.004C37.2404 39.004 38.3357 39.7332 38.3357 39.7332L37.7272 41.435C37.3621 41.3134 36.7536 40.9487 36.0234 40.9487C35.1715 40.9487 34.8064 41.435 34.8064 42.0427C34.928 43.3797 38.7008 43.2583 38.7008 46.5401C38.7008 48.2418 37.2404 49.7004 34.6847 49.7004Z" fill="#00239C"/>
<path d="M13.7522 49.7004C12.4135 49.7004 11.3182 49.3358 10.588 48.9711L11.3182 47.1478C11.3182 47.1478 12.1701 47.634 13.2654 47.634C14.1173 47.634 14.6041 47.1478 14.6041 46.5401C14.6041 44.9599 10.9531 45.3246 10.8314 42.1642C10.7097 40.3409 12.2917 39.004 14.3606 39.004C16.1862 39.004 17.4032 39.7332 17.4032 39.7332L16.7947 41.435C16.4295 41.3134 15.8211 40.9487 15.0909 40.9487C14.239 40.9487 13.7522 41.435 13.8739 42.0427C13.9955 43.3797 17.7683 43.2583 17.7683 46.5401C17.89 48.2418 16.3079 49.7004 13.7522 49.7004Z" fill="#00239C"/>
<path d="M40.1613 36.8159L43.2039 36.0866V39.1253H45.0293V41.0702H43.2039V46.4184C43.2039 47.2693 43.4472 47.6339 44.1774 47.6339C44.4209 47.6339 44.786 47.6339 45.0293 47.5123V49.3356C44.786 49.4571 44.0558 49.5787 43.3255 49.5787C41.135 49.5787 40.283 48.1201 40.283 46.54V36.8159H40.1613Z" fill="#00239C"/>
<path d="M51.6011 43.9871C49.8973 44.1086 49.0454 44.838 49.0454 46.2965C49.0454 47.512 49.7755 47.9983 50.7492 47.9983C51.1143 47.9983 51.3577 47.8767 51.7228 47.7552V43.9871H51.6011ZM50.5058 49.7C47.585 49.7 46.0028 48.6061 46.0028 46.4181C46.0028 43.744 48.5585 42.8931 51.6011 42.65V42.1638C51.6011 41.0699 50.9925 40.8267 50.019 40.8267C48.802 40.8267 47.3415 41.4345 47.3415 41.4345L46.8547 39.6112C46.8547 39.6112 48.3152 38.882 50.5058 38.882C52.6964 38.882 54.5219 39.8544 54.5219 42.65V48.6061C53.67 49.2138 52.2095 49.7 50.5058 49.7Z" fill="#00239C"/>
<path d="M61.824 49.4569V42.1638C61.824 41.4345 61.4588 40.7053 60.3636 40.7053C60.1202 40.7053 59.6334 40.8267 59.3899 40.9483V49.4569H56.3475V39.7328C57.5645 39.2466 59.0248 38.882 60.3636 38.882C63.6495 38.882 64.8665 40.3405 64.8665 42.1638V49.4569H61.824Z" fill="#00239C"/>
<path d="M76.9148 43.8655C76.7932 41.6776 77.28 40.7053 78.497 40.7053C79.5923 40.7053 80.2008 41.556 80.2008 43.3793L76.9148 43.8655ZM78.6187 38.882C75.6978 38.882 73.994 40.9483 73.994 44.2302C73.994 47.512 75.9413 49.7 78.9838 49.7C80.3225 49.7 81.2961 49.4569 82.5131 48.9707V46.7828C81.4179 47.269 80.4442 47.6336 79.3489 47.6336C77.8885 47.6336 77.4017 46.9043 77.1583 45.3242L82.9999 44.4732C82.9999 40.9483 81.5395 38.882 78.6187 38.882Z" fill="#00239C"/>
<path d="M70.9516 49.7C68.2741 49.7 66.2052 47.7552 66.2052 44.2302C66.2052 40.7053 68.3958 38.882 70.9516 38.882C72.2903 38.882 73.2638 39.2466 73.7507 39.6112L73.0205 41.313C72.7771 41.0699 72.2903 40.9483 71.6817 40.9483C70.2214 40.9483 69.2478 42.1638 69.2478 44.2302C69.2478 46.2965 70.343 47.512 71.6817 47.512C72.2903 47.512 72.7771 47.3905 73.0205 47.0258L73.7507 48.8491C73.2638 49.3353 72.0468 49.7 70.9516 49.7Z" fill="#00239C"/>
<path d="M6.4501 43.9871C4.74629 44.1086 3.89439 44.838 3.89439 46.2965C3.89439 47.512 4.62459 47.9983 5.5982 47.9983C5.9633 47.9983 6.2067 47.8767 6.5718 47.7552V43.9871H6.4501ZM5.35479 49.7C2.43397 49.7 0.851868 48.6061 0.851868 46.4181C0.851868 43.744 3.40758 42.8931 6.4501 42.65V42.1638C6.4501 41.0699 5.8416 40.8267 4.868 40.8267C3.65099 40.8267 2.19057 41.4345 2.19057 41.4345L1.70377 39.6112C1.70377 39.6112 3.16418 38.882 5.35479 38.882C7.54541 38.882 9.37092 39.8544 9.37092 42.65V48.6061C8.64072 49.2138 7.1803 49.7 5.35479 49.7Z" fill="#00239C"/>
<path d="M30.3034 39.0045H27.261V49.4578H30.3034V39.0045Z" fill="#00239C"/>
<path d="M61.0938 20.2856C58.0512 20.2856 56.5909 21.3796 56.5909 23.9322V31.2252H59.7551V23.8106C59.7551 23.0812 60.1201 22.4735 61.2155 22.3519C61.4589 22.3519 61.7023 22.3519 61.9457 22.3519L62.3108 20.2856C61.824 20.2856 61.4589 20.2856 61.0938 20.2856Z" fill="#00239C"/>
<path d="M50.2624 31.4681C47.2198 31.4681 45.7593 30.3741 45.7593 27.7V20.5285H48.9236V27.9431C48.9236 28.6724 49.2887 29.4017 50.384 29.4017C50.9925 29.4017 51.3576 29.2802 51.7227 29.1586V20.5285H54.8869V30.4957C53.6699 30.9819 51.8444 31.4681 50.2624 31.4681Z" fill="#00239C"/>
<path d="M66.9354 22.2305C65.5967 22.2305 65.2316 23.9322 65.2316 25.877C65.2316 27.8217 65.4749 29.4019 66.9354 29.4019C68.2741 29.4019 68.6392 27.8217 68.6392 25.877C68.6392 23.9322 68.3958 22.2305 66.9354 22.2305ZM66.9354 31.4682C63.7711 31.4682 62.189 29.1588 62.189 25.877C62.189 22.7167 63.7711 20.2856 66.9354 20.2856C70.0996 20.2856 71.6817 22.5951 71.6817 25.877C71.6817 29.0372 70.0996 31.4682 66.9354 31.4682Z" fill="#00239C"/>
<path d="M77.4017 22.109C76.9149 22.109 76.6715 22.109 76.428 22.2306V29.2805C76.6715 29.402 76.9149 29.402 77.2799 29.402C78.9838 29.402 79.7139 28.0649 79.7139 25.7555C79.5923 23.4461 78.9838 22.109 77.4017 22.109ZM78.0101 31.3469C77.4017 31.3469 76.7932 31.2253 76.428 31.2253V34.7502H73.2639V21.1366C74.2375 20.6503 75.4545 20.4073 77.4017 20.4073C80.5658 20.4073 82.6348 22.2306 82.6348 25.8771C82.6348 29.2805 80.8093 31.3469 78.0101 31.3469Z" fill="#00239C"/>
<path d="M38.0923 25.3907C37.9707 23.2028 38.5791 22.1089 39.7961 22.1089C40.8915 22.1089 41.4999 22.9597 41.4999 24.9045L38.0923 25.3907ZM39.9179 20.2856C36.8753 20.2856 35.0499 22.4735 35.0499 25.7554C35.0499 29.4019 36.997 31.3468 40.2829 31.3468C41.7434 31.3468 42.7169 31.1036 43.9339 30.6174V28.4295C42.7169 28.9158 41.7434 29.2804 40.648 29.2804C39.066 29.2804 38.5791 28.4295 38.3358 26.9709L44.4208 26.12C44.5425 22.3519 42.9604 20.2856 39.9179 20.2856Z" fill="#00239C"/>
<path d="M3.04243 5.69937C1.82543 7.40108 -0.608588 14.3295 0.608419 21.0148C1.70372 27.7001 6.20665 32.9267 13.5088 33.5345C16.7947 33.8991 19.7155 33.2915 21.0541 32.4406C21.0541 32.4406 21.7844 31.9544 21.7844 31.3466C21.7844 31.3466 14.2389 32.4406 11.0746 29.0371C8.27557 25.9983 10.3445 22.3518 10.3445 22.3518C11.5615 19.9208 14.4823 17.0036 14.4823 17.0036C14.4823 17.0036 18.3768 13.2355 19.5938 11.0476C20.2022 9.95365 20.5674 8.8597 20.5674 7.88729C20.5674 5.82093 19.1069 4.97007 18.6201 4.84852C14.4823 2.90371 6.32836 4.48386 3.04243 5.69937Z" fill="#00239C"/>
<path d="M27.8694 27.9431C29.0864 26.2414 31.5205 19.313 30.3035 12.6277C29.2081 5.94239 24.7052 0.715712 17.4032 0.107958C14.1172 -0.256694 11.1964 0.351062 9.8577 1.20191C9.8577 1.20191 9.1275 1.68811 9.1275 2.29586C9.1275 2.29586 16.6729 1.20191 19.8372 4.60533C22.6363 7.6441 20.5674 11.2906 20.5674 11.2906C19.3504 13.7217 16.4296 16.6389 16.4296 16.6389C16.4296 16.6389 12.5351 20.407 11.3181 22.5948C10.7096 23.6888 10.3445 24.7828 10.3445 25.7552C10.3445 27.8216 11.8049 28.6724 12.2917 28.7939C16.4296 30.7388 24.5835 29.1586 27.8694 27.9431Z" fill="#E4002B"/>
<path d="M57.4426 59.0606C57.1992 59.0606 57.0775 59.1821 56.8341 59.4252C55.7388 60.7623 55.1302 61.4916 55.1302 61.7347C55.1302 61.7347 55.252 61.8562 55.4953 61.8562C55.8605 61.8562 56.3474 61.6131 56.8341 61.0053C57.3209 60.3976 57.5644 59.7898 57.5644 59.4252C57.686 59.0606 57.686 59.0606 57.4426 59.0606ZM55.0086 62.2208C54.8869 62.3424 54.7652 62.5856 54.6435 62.9502C54.5218 63.4363 54.5218 63.8011 54.5218 64.0441C54.5218 64.4088 54.7652 64.6519 55.3737 64.6519C55.8605 64.6519 56.5907 64.2872 57.1993 63.6795C57.9294 63.0717 58.4163 62.464 58.6596 61.8562C58.6596 61.8562 59.1464 61.7346 59.0247 62.0994C58.6596 63.0717 58.1728 63.8011 57.4426 64.4088C56.7124 65.0166 56.1039 65.2596 55.3737 65.2596C54.8869 65.2596 54.5218 65.1381 54.1567 64.7734C53.9133 64.4088 53.7916 63.9226 53.7916 63.4363C53.7916 62.5855 54.2785 61.6131 55.1302 60.3976C55.9822 59.0606 56.8341 58.4528 57.5644 58.4528C58.1728 58.4528 58.2945 59.1821 58.2945 59.3036C58.2945 59.7898 58.0511 60.3976 57.5644 61.1269C57.0775 61.9778 56.469 62.3424 55.7388 62.3424C55.252 62.464 55.0086 62.2208 55.0086 62.2208Z" fill="#E4002B"/>
<path d="M81.296 59.0606C81.0527 59.0606 80.9309 59.1821 80.6876 59.4252C79.5922 60.7623 78.9838 61.4916 78.9838 61.7347C78.9838 61.7347 79.1055 61.8562 79.3488 61.8562C79.7139 61.8562 80.2007 61.6131 80.6876 61.0053C81.1744 60.3976 81.4177 59.7898 81.4177 59.4252C81.5395 59.0606 81.4178 59.0606 81.296 59.0606ZM78.862 62.2208C78.7404 62.3424 78.6187 62.5856 78.4969 62.9502C78.3752 63.4363 78.3752 63.8011 78.3752 64.0441C78.3752 64.4088 78.6187 64.6519 79.2271 64.6519C79.7139 64.6519 80.4441 64.2872 81.0527 63.6795C81.7828 63.0717 82.2697 62.464 82.513 61.8562C82.513 61.8562 82.9998 61.7346 82.8781 62.0994C82.513 63.0717 82.0263 63.8011 81.296 64.4088C80.5658 65.0166 79.9573 65.2596 79.2271 65.2596C78.7403 65.2596 78.3752 65.1381 78.0101 64.7734C77.7668 64.4088 77.645 63.9226 77.645 63.4363C77.645 62.5855 78.1318 61.6131 78.9838 60.3976C79.8357 59.0606 80.6876 58.4528 81.4177 58.4528C81.6611 58.4528 81.9046 58.5743 82.0263 58.8174C82.1479 58.939 82.1479 59.1821 82.1479 59.3036C82.1479 59.7898 81.9046 60.3976 81.4177 61.1269C80.9309 61.9778 80.3225 62.3424 79.5922 62.3424C79.1055 62.464 78.862 62.2208 78.862 62.2208Z" fill="#E4002B"/>
<path d="M66.8137 59.7895C66.692 59.7895 66.5703 59.668 66.3269 59.5464C66.0835 59.3033 65.9617 59.3034 65.7184 59.3034C65.1099 59.3034 64.3797 59.9111 63.6495 61.1266C63.041 62.2206 62.6758 63.0713 62.6758 63.6791C62.6758 64.4084 62.9193 64.6516 63.5277 64.6516C64.1363 64.6516 64.6231 64.4084 65.2316 64.0438C65.7184 63.6791 66.2052 63.1929 66.5703 62.7067L66.692 62.5852C66.9354 62.5852 66.9354 62.8283 66.9354 62.9499C65.9617 64.4084 65.2316 64.7731 65.1099 64.8946C64.3797 65.3809 63.8928 65.3809 63.6495 65.3809C63.041 65.3809 62.6758 65.1378 62.4325 64.7731C62.1891 64.4084 62.0674 64.0438 62.0674 63.5576C62.0674 62.7067 62.4325 61.7344 63.1626 60.6403C64.0146 59.3033 64.8665 58.6956 65.7184 58.6956C65.8401 58.6956 66.0835 58.8171 66.4486 58.9386C66.8136 59.0602 67.0571 59.3033 67.0571 59.5464C67.1787 59.5464 67.0571 59.7895 66.8137 59.7895Z" fill="#E4002B"/>
<path d="M75.3327 60.8835C75.9413 59.1819 76.6714 58.3311 77.5234 58.3311C78.0102 58.3311 78.3753 58.5741 78.3753 59.0603C78.3753 59.3034 78.3753 59.425 78.1319 59.425C78.0102 59.425 78.0102 59.425 78.0102 59.3034C78.0102 59.1819 77.8884 59.0603 77.8884 59.0603C77.8884 58.9388 77.7668 58.9387 77.6451 58.9387C77.4017 58.9387 77.0365 59.1819 76.6714 59.7896C76.1847 60.3974 75.8195 61.0051 75.6979 61.6129C75.4544 62.2206 75.4544 62.8284 75.4544 63.6793C75.4544 63.6793 75.4544 64.1655 75.4544 65.0164C75.4544 65.2594 75.0893 65.381 74.9676 65.381C74.7243 65.381 74.4809 65.1378 74.6025 64.6516C74.7243 63.5577 74.7243 62.7068 74.7243 61.9776C74.7243 61.2483 74.7243 60.3974 74.6025 59.425C74.6025 59.3034 74.7243 58.9387 75.0893 58.9387C75.2111 58.9387 75.4544 59.0603 75.4544 59.1819C75.4544 59.3034 75.5762 59.425 75.5762 59.5466C75.3327 60.0328 75.2111 60.5189 75.3327 60.8835Z" fill="#E4002B"/>
<path d="M52.5747 58.5744C52.453 58.3312 52.3313 58.0881 51.9662 58.0881C51.7229 58.0881 51.4794 58.3312 51.4794 58.4528C51.3577 58.5744 51.4794 58.8174 51.6011 58.939C51.7228 59.0606 51.9662 58.939 52.088 58.8174C52.453 59.3036 52.453 60.6407 52.453 61.1269C52.453 62.2209 52.2096 63.1933 51.8445 63.801C51.4794 64.5303 51.1143 64.7734 50.7492 64.7734C50.7492 64.7734 50.019 64.7734 49.654 63.9226C49.4105 63.5579 49.4105 62.9501 49.4105 62.2209C49.4105 61.37 49.5322 60.5191 49.654 59.5467C49.7756 59.0606 49.1671 59.1821 49.1671 59.1821C49.0454 59.1821 48.9237 59.4252 48.8019 59.7899C48.6803 60.1545 48.5586 60.5191 48.5586 60.7623C48.3152 61.4916 48.0718 62.2208 47.7067 62.9501C47.2198 64.0442 46.733 64.6518 46.4897 64.6518C46.3679 64.6518 46.2463 64.2872 46.3679 63.6794C46.3679 63.0717 46.6114 61.8562 46.8548 60.2761C46.9765 59.7899 46.733 59.6683 46.4897 59.6683C46.2463 59.6683 46.0028 60.1545 45.8812 61.0054C45.7595 61.9778 45.7595 62.8287 45.6378 63.4363C45.6378 63.801 45.6378 64.1656 45.7595 64.5303C45.8811 65.1381 46.1246 65.3811 46.4897 65.3811C46.9765 65.3811 47.4633 64.6518 48.0718 63.3148C48.3152 62.5855 48.5586 61.9778 48.8019 61.4916C48.6803 62.8285 48.802 63.5579 49.0454 64.1656C49.5322 65.2597 50.5058 65.5027 50.7492 65.5027C51.4794 65.5027 51.9662 64.895 52.3313 64.1656C52.6964 63.4363 52.9399 62.3424 52.9399 61.1269C53.0615 60.6407 52.9399 59.182 52.5747 58.5744Z" fill="#E4002B"/>
<path d="M73.2638 63.6788C73.0204 63.6788 72.8987 63.8003 72.8987 64.0434C72.8987 64.2866 72.5336 64.2866 72.5336 64.2866C72.2902 64.165 72.1685 63.9218 72.1685 63.3141C72.1685 63.071 72.2902 62.2202 72.5336 60.7615C72.6553 60.3969 72.4118 60.2753 72.1685 60.2753C71.9251 60.2753 71.9251 60.2753 71.8034 60.5185C71.6817 60.7616 71.6817 61.3694 71.5599 61.977C70.8298 63.0711 70.2213 63.8003 69.8561 64.165C69.3694 64.6512 69.1259 64.7727 69.0042 64.7727C68.8826 64.7727 68.7608 64.165 68.7608 63.9218C68.7608 62.8279 69.1259 61.1262 69.491 60.3969C69.9778 59.5461 70.4647 59.303 70.8298 59.303C71.1948 59.303 71.5599 59.5461 71.5599 59.9107C71.5599 60.0323 71.8034 60.2753 71.925 60.1539C72.0468 60.1539 72.2902 59.9107 72.1685 59.7891C72.0468 59.0598 71.4383 58.5736 70.708 58.5736C69.9778 58.5736 69.2477 59.0598 68.7608 60.0323C68.274 60.8831 67.9089 62.5849 67.9089 63.8003C67.9089 64.165 67.9089 64.5296 68.0307 64.7727C68.1523 65.0158 68.3958 65.3805 68.7608 65.3805C69.2477 65.3805 69.6128 65.1374 70.0996 64.6512C70.4647 64.2866 70.8298 63.8003 71.3166 63.1925C71.3166 64.0434 71.6817 64.408 72.0468 64.6512C72.1685 64.6512 73.0204 65.0158 73.2638 64.0434C73.3855 64.0434 73.5072 63.6788 73.2638 63.6788Z" fill="#E4002B"/>
<path d="M10.4663 60.5185C9.61434 61.6124 9.24924 62.7063 9.24924 63.5572C9.24924 63.9219 9.24924 64.6512 9.73604 64.6512C10.2229 64.6512 10.8313 64.165 11.4399 62.9495C11.9266 61.977 12.1701 61.1262 12.1701 60.64C12.1701 59.5461 11.805 59.4245 11.6832 59.4245C11.4399 59.4245 11.0748 59.5461 10.7096 59.9107C10.8313 60.0323 10.7097 60.2753 10.4663 60.5185ZM8.27563 63.6788C8.27563 62.8279 8.51903 61.8555 8.88413 60.8831C9.24923 59.9107 9.73604 59.1814 10.3446 59.303C10.4663 59.0598 10.7097 58.9382 10.9531 58.8168C11.3182 58.6952 11.5615 58.5736 11.6832 58.5736C13.2653 58.5736 13.2653 60.7615 13.2653 60.7615C13.2653 61.3694 12.9002 62.3417 12.4134 63.4357C11.6832 64.6512 10.9531 65.3805 9.97944 65.5021C9.97944 65.5021 8.39733 65.7451 8.27563 63.6788Z" fill="#00239C"/>
<path d="M13.7522 63.8003C13.7522 63.4357 13.8739 62.7063 14.239 61.3694C14.3608 60.64 14.6041 60.0323 14.7258 59.6675C14.8476 59.3029 14.9692 59.0598 15.3344 59.0598C15.456 59.0598 16.0646 59.1814 15.9428 59.5461C15.9428 59.6676 15.6995 60.1537 15.6995 60.1537C14.9692 61.977 14.7258 63.3141 14.7258 64.0434C14.7258 64.408 14.7258 64.5296 14.8476 64.5296C14.9692 64.5296 15.2127 64.2866 15.5778 63.8003C16.0646 63.3141 16.4297 62.5849 16.9165 61.734C17.4032 60.7615 17.6467 60.0323 17.6467 59.6675C17.6467 59.4245 17.7684 58.8168 18.3768 58.8168C18.8637 58.8168 18.9854 59.1814 18.9854 59.4245C18.9854 59.5461 18.9854 59.7891 18.8637 60.2753C18.7419 60.7616 18.7419 61.2478 18.7419 61.6124C18.7419 62.4633 18.8637 63.071 18.9854 63.4357C19.107 63.8004 19.2287 63.9218 19.4722 63.9218C19.4722 63.9218 19.5938 63.9218 19.7156 63.8003C19.8373 63.6788 19.8373 63.6788 20.0807 63.5572C20.0807 63.5572 20.2024 63.5572 20.3241 63.5572C20.4457 63.6788 20.5675 63.8004 20.5675 63.9218C20.5675 64.165 20.3241 64.408 20.0807 64.5296C19.8373 64.6512 19.7156 64.7727 19.4722 64.7727C18.9854 64.7727 18.6203 64.5296 18.3768 64.0434C18.1335 63.6788 18.0118 63.071 17.89 62.3417C17.4033 63.1925 17.1598 63.8004 17.0381 64.0434C16.0646 65.6235 15.0909 65.5021 15.0909 65.5021C14.3608 65.5021 13.7522 65.2589 13.7522 63.8003Z" fill="#00239C"/>
<path d="M29.0864 64.53C28.9647 64.7731 28.843 64.7731 28.843 64.7731C28.843 64.7731 28.5996 64.8946 28.3562 64.1653C28.2345 63.8007 27.8694 62.7068 28.4779 60.5188C28.4779 60.5188 28.7212 59.911 28.7212 59.668C28.7212 59.1818 28.3562 59.0602 28.2345 59.0602C27.9911 59.0602 27.7477 59.3033 27.626 59.5464C27.2609 60.5188 27.1392 62.099 27.1392 62.5852C27.1392 63.0714 27.2609 63.6791 27.3826 64.2869C27.626 65.1378 28.1128 65.624 28.7212 65.624C28.843 65.624 29.5733 65.5024 29.5733 64.8946C29.4515 64.2869 29.0864 64.4084 29.0864 64.53ZM28.9647 57.48C29.2081 57.48 29.3298 57.48 29.4515 57.3585C29.5732 57.237 29.8166 56.8723 29.4515 56.5077C29.0864 56.143 28.7214 56.3861 28.5996 56.5077C28.3562 56.8723 28.4779 57.237 28.5996 57.3585C28.5996 57.48 28.7214 57.48 28.9647 57.48Z" fill="#00239C"/>
<path d="M38.4574 60.7619C39.431 59.5464 39.0659 58.9386 39.0659 58.9386C38.9442 58.9386 38.7008 59.0602 38.4574 59.3033C37.7272 60.0327 36.997 60.8835 36.8753 61.4912C36.8753 61.4912 37.6055 61.9774 38.4574 60.7619ZM35.5367 64.7731C35.0498 64.1654 35.1715 63.3145 35.1715 63.3145C35.1715 62.4637 35.6583 61.3696 36.5102 60.1541C37.3621 58.8172 38.214 58.2094 39.0659 58.2094C39.3093 58.2094 39.6745 58.3309 39.7961 58.574C39.9178 58.8172 39.9178 58.9386 39.9178 59.1818C39.9178 59.7895 39.6745 60.3973 39.1877 61.1266C38.7008 61.9774 37.9707 62.4637 37.2404 62.4637C36.997 62.4637 36.7537 62.4637 36.5102 62.3421C36.5102 62.4637 36.3886 62.7067 36.2668 62.9499C36.1451 63.4361 36.1451 63.8007 36.1451 64.0438C36.1451 64.4084 36.2668 64.53 36.8753 64.53C37.3621 64.53 37.9707 64.2868 38.7008 63.6792C39.431 63.0713 39.7961 62.4637 40.1612 61.8558L40.2829 61.7344C40.2829 61.7344 41.0131 61.6128 40.7697 62.2205C40.4047 63.1929 39.9178 63.9222 39.1877 64.53C38.4575 65.1377 37.7272 65.3809 36.997 65.3809C36.2668 65.3809 35.9017 65.1377 35.5367 64.7731Z" fill="#00239C"/>
<path d="M7.18028 61.3699C7.05858 60.6406 6.81518 58.9389 6.81518 58.9389C6.81518 58.3311 6.57178 57.9664 6.08498 57.9664C5.59818 57.9664 5.47648 58.3311 5.47648 58.5742C5.47648 59.1819 5.47648 59.6682 5.47648 60.1544C5.47648 61.7345 5.35477 62.707 4.98967 63.3146C4.74627 63.9225 4.50286 64.044 4.01606 64.044C3.52926 64.044 3.16415 63.8009 2.79905 63.3146C2.55565 62.8285 2.31225 62.2207 2.31225 61.4915C2.31225 60.6406 2.55566 59.6682 3.04246 58.9389C3.16416 58.6958 3.16415 58.4527 2.92075 58.3311C2.67735 58.2096 2.43395 58.2096 2.31225 58.4527C1.70374 59.4251 1.46034 60.519 1.46034 61.4915C1.46034 62.3423 1.70375 63.1932 2.06885 63.9225C2.43395 64.5301 3.16415 65.0164 4.01606 65.0164C4.01606 65.0164 5.23307 65.0164 5.84157 63.6794C5.96327 63.3147 6.08498 62.95 6.20668 62.4638C6.20668 62.8285 6.20668 63.3148 6.20668 63.5578C6.20668 64.8949 5.96327 66.1104 5.35477 67.2043C4.74626 68.4198 4.01607 69.0276 3.04246 69.0276C2.92076 69.0276 2.43395 69.0276 1.70374 68.5414C1.09524 68.0552 0.973542 67.2043 0.851841 67.0827C0.851841 66.8397 0.608436 66.7181 0.486735 66.7181C0.121633 66.7181 -6.10352e-05 67.0827 -6.10352e-05 67.2043C-6.10352e-05 67.6905 0.243337 68.2982 0.851841 68.906C1.46034 69.6353 2.19055 69.9999 3.04246 69.9999C4.50287 69.9999 5.59817 69.0276 6.32838 67.3259C6.81518 66.1104 7.18028 64.8949 7.18028 63.5578C7.42368 62.2207 7.30198 61.4915 7.18028 61.3699Z" fill="#00239C"/>
<path d="M35.1715 58.9381C34.9281 58.8165 34.6848 58.9381 34.4413 59.0596C34.0762 59.4243 33.7111 59.9105 33.346 60.5182C33.1026 60.8828 32.129 63.557 32.129 63.557C32.129 63.4354 31.5205 61.9769 31.1554 60.8828C30.9119 60.2751 30.912 60.2751 30.7903 59.9105C30.4252 59.1811 30.0601 59.4243 29.9384 59.5459C29.5733 59.7889 29.6949 60.1536 29.6949 60.1536C31.0337 62.3415 31.2771 63.8 31.3987 64.2863C31.5205 64.6509 31.6422 64.8941 31.7638 65.0155C31.8856 65.1371 32.0073 65.2587 32.129 65.2587C32.3724 65.2587 32.3724 65.1371 32.4941 64.8941C32.6157 64.7725 32.7375 64.4079 32.8592 64.1647C33.2243 63.1924 33.7111 62.2199 34.0762 61.3691C34.4413 60.6398 34.6847 60.1536 34.9281 59.9105C35.0499 59.7889 35.1715 59.6673 35.2932 59.5459C35.2932 59.4243 35.4149 59.0596 35.1715 58.9381Z" fill="#00239C"/>
<path d="M24.4618 65.0158C23.975 64.4081 23.7316 63.3141 23.6099 61.3693C23.6099 59.6676 23.8533 57.4796 24.5835 54.4409C24.7052 54.1978 24.9486 54.0763 25.192 54.0763C25.4354 54.1978 25.5572 54.4409 25.5572 54.684C24.8269 57.6012 24.5835 59.7891 24.5835 61.2477C24.5835 63.071 24.9486 64.0435 25.192 64.1649C25.3137 64.2865 25.4354 64.4081 26.0439 64.1649C26.2873 63.9219 26.6524 64.0435 26.7742 64.2865C26.8958 64.5296 26.8958 64.7727 26.6524 65.0158C26.5307 65.0158 26.0439 65.3804 25.6788 65.3804C25.4354 65.502 24.9486 65.6236 24.4618 65.0158Z" fill="#00239C"/>
</svg>
