<svg width="46" height="61" viewBox="0 0 46 61" fill="none" xmlns="http://www.w3.org/2000/svg">
<path fill-rule="evenodd" clip-rule="evenodd" d="M23 0C35.7021 0 46 9.99177 46 22.3138C46 34.6358 23 61 23 61C23 61 0 34.6358 0 22.3138C0 9.99177 10.2979 0 23 0ZM23.0123 12.6392C25.0502 12.6392 27.0424 13.2402 28.7369 14.3663C30.4314 15.4923 31.752 17.0929 32.5319 18.9655C33.3118 20.8381 33.5159 22.8985 33.1183 24.8865C32.7207 26.8744 31.7393 28.7004 30.2983 30.1336C28.8573 31.5669 27.0212 32.5429 25.0225 32.9383C23.0237 33.3337 20.9519 33.1307 19.0691 32.3551C17.1863 31.5794 15.577 30.266 14.4448 28.5807C13.3126 26.8954 12.7082 24.9141 12.7082 22.8872C12.7082 20.1693 13.7939 17.5627 15.7263 15.6408C17.6586 13.7189 20.2795 12.6392 23.0123 12.6392Z" fill="#E4002B"/>
</svg>
