<svg width="66" height="77" viewBox="0 0 66 77" fill="none" xmlns="http://www.w3.org/2000/svg">
<path d="M57.1995 29.1143L58.9002 30.2108" stroke="#AA4944" stroke-width="0.7788" stroke-miterlimit="10" stroke-linecap="round"/>
<path opacity="0.6" d="M60.6458 34.0151C61.5185 34.8879 62.4584 35.8054 63.3535 36.7005C63.5102 34.2389 60.6458 34.0151 60.6458 34.0151Z" fill="#D25C53"/>
<path d="M49.316 11.3761L45.9338 16.8359L50.9752 19.9588L54.3573 14.499L49.316 11.3761Z" fill="#8EBEED"/>
<path d="M49.3081 11.3585L48.0354 13.4131L53.0767 16.536L54.3495 14.4814L49.3081 11.3585Z" fill="#473D59"/>
<path d="M54.4914 16.4035L47.5093 12.0844C46.9499 11.7487 46.7708 11.0103 47.1289 10.4508L48.4716 8.28009C48.8073 7.72063 49.5458 7.5416 50.1052 7.89965L57.0873 12.2187C57.6468 12.5544 57.8258 13.2929 57.4677 13.8523L56.125 16.023C55.767 16.5825 55.0509 16.7391 54.4914 16.4035Z" fill="#D65B47"/>
<path d="M50.1041 7.89775L47.5115 12.083L48.4817 12.684L51.0743 8.49876L50.1041 7.89775Z" fill="#FF7C6E"/>
<path d="M52.1233 9.13652L49.5308 13.3218L50.501 13.9228L53.0936 9.73753L52.1233 9.13652Z" fill="#FF7C6E"/>
<path d="M54.1119 10.3826L51.5193 14.5679L52.4895 15.1689L55.0821 10.9836L54.1119 10.3826Z" fill="#FF7C6E"/>
<path d="M56.1317 11.6214L53.5391 15.8066L54.5093 16.4076L57.1019 12.2224L56.1317 11.6214Z" fill="#FF7C6E"/>
<path d="M15.9386 11.3586L10.8972 14.4814L14.2794 19.9413L19.3207 16.8184L15.9386 11.3586Z" fill="#8EBEED"/>
<path d="M15.931 11.3776L10.8896 14.5005L12.1624 16.5551L17.2037 13.4322L15.931 11.3776Z" fill="#473D59"/>
<path d="M10.7415 16.4035L17.7236 12.0844C18.2831 11.7487 18.4621 11.0103 18.1041 10.4508L16.7613 8.28009C16.4257 7.72063 15.6872 7.5416 15.1277 7.89965L8.16803 12.2187C7.60857 12.5544 7.42954 13.2929 7.78759 13.8523L9.1303 16.023C9.46598 16.5825 10.1821 16.7391 10.7415 16.4035Z" fill="#D65B47"/>
<path d="M15.1326 7.89704L14.1624 8.49805L16.7549 12.6833L17.7252 12.0823L15.1326 7.89704Z" fill="#FF7C6E"/>
<path d="M13.115 9.13483L12.1448 9.73584L14.7374 13.9211L15.7076 13.3201L13.115 9.13483Z" fill="#FF7C6E"/>
<path d="M11.1279 10.3799L10.1577 10.981L12.7503 15.1662L13.7205 14.5652L11.1279 10.3799Z" fill="#FF7C6E"/>
<path d="M9.11011 11.6177L8.13989 12.2188L10.7325 16.404L11.7027 15.803L9.11011 11.6177Z" fill="#FF7C6E"/>
<path d="M37.2375 5.25879H28.0176V15.262H37.2375V5.25879Z" fill="#8EBEED"/>
<path d="M37.2375 5.25879H28.0176V8.99599H37.2375V5.25879Z" fill="#473D59"/>
<path d="M32.6278 76.4001C50.6476 76.4001 65.2555 61.7921 65.2555 43.7723C65.2555 25.7525 50.6476 11.1445 32.6278 11.1445C14.6079 11.1445 0 25.7525 0 43.7723C0 61.7921 14.6079 76.4001 32.6278 76.4001Z" fill="#FF7C6E"/>
<path d="M32.6279 74.2294C49.4612 74.2294 63.1073 60.5833 63.1073 43.7499C63.1073 26.9166 49.4612 13.2705 32.6279 13.2705C15.7945 13.2705 2.14844 26.9166 2.14844 43.7499C2.14844 60.5833 15.7945 74.2294 32.6279 74.2294Z" fill="#D65B47"/>
<path d="M32.6277 72.1705C48.3487 72.1705 61.0931 59.4261 61.0931 43.7051C61.0931 27.9841 48.3487 15.2397 32.6277 15.2397C16.9067 15.2397 4.16235 27.9841 4.16235 43.7051C4.16235 59.4261 16.9067 72.1705 32.6277 72.1705Z" fill="white"/>
<path d="M51.157 55.0735C51.2017 54.4693 51.7836 54.0441 52.2759 54.3126C53.3277 54.8721 54.3571 55.4763 55.3865 56.1029C55.7222 56.3043 55.7893 56.7743 55.5879 57.1099C55.3865 57.4456 54.9613 57.5575 54.5809 57.3561C53.7753 56.9085 52.9696 56.4386 52.164 55.9686C51.985 55.8567 51.7612 55.7672 51.6046 55.633C51.4031 55.4763 51.2913 55.2749 51.157 55.0735Z" fill="#8EBEED"/>
<path d="M33.3662 67.8962C33.3662 68.4333 33.3662 68.9927 33.3662 69.5298C33.3662 69.9998 33.0529 70.3354 32.6277 70.3578C32.1802 70.3578 31.8445 70.0222 31.8445 69.5298C31.8445 68.4333 31.8445 67.3591 31.8445 66.2626C31.8445 65.7479 32.1354 65.4346 32.6053 65.4346C33.0529 65.4346 33.3438 65.7479 33.3438 66.2626C33.3662 66.7997 33.3662 67.3367 33.3662 67.8962Z" fill="#8EBEED"/>
<path d="M56.6845 44.578C56.1474 44.578 55.588 44.578 55.0509 44.578C54.5362 44.578 54.2229 44.287 54.2229 43.8171C54.2229 43.3695 54.5362 43.0786 55.0285 43.0786C56.1251 43.0786 57.2216 43.0786 58.3405 43.0786C58.8105 43.0786 59.1462 43.4143 59.1462 43.8395C59.1462 44.2647 58.8105 44.578 58.3405 44.578C57.7587 44.578 57.2216 44.578 56.6845 44.578Z" fill="#8EBEED"/>
<path d="M22.1995 63.2864C22.1771 63.3535 22.1323 63.5102 22.0428 63.6668C21.5057 64.6067 20.9687 65.5242 20.4316 66.4641C20.1854 66.8893 19.7602 67.0236 19.3798 66.8222C18.977 66.5984 18.8651 66.1732 19.1112 65.7256C19.6483 64.7633 20.2078 63.8235 20.7449 62.8612C20.9463 62.5031 21.3043 62.3465 21.6624 62.4807C22.0204 62.5703 22.1995 62.8164 22.1995 63.2864Z" fill="#8EBEED"/>
<path d="M43.9737 62.4362C44.0855 62.5257 44.3541 62.6599 44.466 62.8613C45.0254 63.7789 45.5625 64.7411 46.0996 65.681C46.3458 66.1286 46.2563 66.5762 45.8758 66.7776C45.473 67.0014 45.0478 66.8895 44.7793 66.4195C44.2198 65.4796 43.6827 64.5397 43.1457 63.5998C42.8547 63.018 43.1904 62.4138 43.9737 62.4362Z" fill="#8EBEED"/>
<path d="M8.57084 44.5777C8.03376 44.5777 7.4743 44.5777 6.93722 44.5777C6.44489 44.5777 6.13159 44.2868 6.13159 43.8393C6.13159 43.3917 6.44489 43.1008 6.93722 43.1008C8.03376 43.1008 9.10792 43.0784 10.2045 43.1008C10.6744 43.1008 11.0325 43.4141 11.0325 43.8393C11.0325 44.2868 10.7192 44.5777 10.2045 44.6001C9.64501 44.5777 9.10792 44.5777 8.57084 44.5777Z" fill="#8EBEED"/>
<path d="M10.3835 57.4455C9.95835 57.4231 9.71219 57.2441 9.62267 56.9084C9.51078 56.5728 9.64505 56.2371 9.98073 56.0357C10.8311 55.5433 11.7039 55.051 12.5542 54.5363C12.6885 54.4692 12.8004 54.3797 12.9347 54.3349C13.3375 54.1335 13.7627 54.2678 13.9641 54.6482C14.1655 55.0063 14.0312 55.4314 13.6732 55.6552C13.0018 56.058 12.3081 56.4385 11.6367 56.8413C11.3682 56.9979 11.0996 57.1546 10.8087 57.3112C10.6297 57.3784 10.4731 57.4231 10.3835 57.4455Z" fill="#8EBEED"/>
<path d="M33.3663 19.7826C33.3663 20.3197 33.3663 20.8791 33.3663 21.4162C33.3663 21.8862 33.053 22.2218 32.6278 22.2218C32.225 22.2442 31.8893 21.8862 31.8893 21.4386C31.867 20.3197 31.8893 19.2231 31.8893 18.1042C31.8893 17.6566 32.225 17.321 32.6278 17.3433C33.0754 17.3433 33.3663 17.6566 33.3663 18.149C33.3663 18.7084 33.3439 19.2455 33.3663 19.7826Z" fill="#8EBEED"/>
<path d="M52.0522 33.3888C51.627 33.3888 51.3808 33.2322 51.2689 32.8965C51.157 32.5384 51.2689 32.2027 51.627 32.0013C52.3431 31.5762 53.0592 31.1733 53.7977 30.7481C54.0438 30.6139 54.29 30.4572 54.5585 30.323C54.939 30.1216 55.3642 30.2334 55.5656 30.5691C55.7894 30.9272 55.6998 31.3747 55.297 31.5985C54.3124 32.1804 53.3277 32.7398 52.3431 33.2993C52.2312 33.3664 52.0969 33.3664 52.0522 33.3888Z" fill="#8EBEED"/>
<path d="M46.2562 21.5283C46.189 21.685 46.1667 21.8416 46.0995 21.9535C45.5624 22.8934 45.0254 23.8333 44.4659 24.7732C44.1974 25.2207 43.7722 25.3326 43.3917 25.1089C43.0113 24.8851 42.9218 24.4599 43.168 24.0347C43.705 23.0724 44.2645 22.1325 44.824 21.1926C45.1373 20.6779 45.6967 20.6332 46.0548 21.0807C46.1667 21.1926 46.189 21.3717 46.2562 21.5283Z" fill="#8EBEED"/>
<path d="M13.1585 33.3889C13.1137 33.3665 12.9571 33.3218 12.8452 33.2546C11.8829 32.7176 10.943 32.1581 9.98072 31.5986C9.60029 31.3748 9.46602 30.9273 9.66743 30.5692C9.86883 30.2336 10.294 30.0993 10.6745 30.3007C11.6591 30.8601 12.6438 31.4196 13.6284 32.0014C13.9641 32.2029 14.076 32.5385 13.9641 32.8742C13.8522 33.2099 13.606 33.3889 13.1585 33.3889Z" fill="#8EBEED"/>
<path d="M22.1771 24.3924C22.1771 24.8176 21.998 25.0861 21.64 25.1756C21.3043 25.2652 21.0134 25.1756 20.8344 24.8624C20.2525 23.8777 19.6707 22.893 19.1112 21.886C18.9098 21.5056 19.0441 21.058 19.3798 20.879C19.7378 20.6776 20.163 20.7671 20.3868 21.1475C20.9686 22.1098 21.5281 23.0945 22.0876 24.0791C22.1547 24.2134 22.1547 24.3253 22.1771 24.3924Z" fill="#8EBEED"/>
<path d="M32.6278 52.0075C37.1513 52.0075 40.8183 48.3405 40.8183 43.817C40.8183 39.2935 37.1513 35.6265 32.6278 35.6265C28.1043 35.6265 24.4373 39.2935 24.4373 43.817C24.4373 48.3405 28.1043 52.0075 32.6278 52.0075Z" fill="#8EBEED"/>
<path d="M32.695 45.9207C33.9185 45.9207 34.9104 44.9288 34.9104 43.7052C34.9104 42.4816 33.9185 41.4897 32.695 41.4897C31.4714 41.4897 30.4795 42.4816 30.4795 43.7052C30.4795 44.9288 31.4714 45.9207 32.695 45.9207Z" fill="#7396C0"/>
<path d="M33.4333 21.1926C33.4333 20.7898 33.0976 20.4541 32.6948 20.4541C32.292 20.4541 31.9563 20.7898 31.9563 21.1926V43.6158C31.9563 44.0186 32.292 44.3543 32.6948 44.3543C33.0976 44.3543 33.4333 44.0186 33.4333 43.6158V21.1926Z" fill="#473D59"/>
<path d="M20.9013 51.4702C20.5433 51.6716 20.0733 51.5597 19.8719 51.2017C19.6705 50.8436 19.7824 50.3737 20.1405 50.1723L32.292 43.1678C32.65 42.9664 33.12 43.0783 33.3214 43.4364C33.5228 43.7944 33.4109 44.2644 33.0528 44.4658L20.9013 51.4702Z" fill="#473D59"/>
<path d="M38.9833 7.65343H26.2276C25.1982 7.65343 24.3926 6.82542 24.3926 5.81839V1.83503C24.3926 0.805624 25.2206 0 26.2276 0H38.9833C40.0127 0 40.8184 0.828002 40.8184 1.83503V5.81839C40.8407 6.82542 40.0127 7.65343 38.9833 7.65343Z" fill="#D65B47"/>
<path d="M28.0178 0H26.2275V7.65343H28.0178V0Z" fill="#FF7C6E"/>
<path d="M31.6877 0H29.8975V7.65343H31.6877V0Z" fill="#FF7C6E"/>
<path d="M35.3579 0H33.5676V7.65343H35.3579V0Z" fill="#FF7C6E"/>
<path d="M39.0281 0H37.2378V7.65343H39.0281V0Z" fill="#FF7C6E"/>
</svg>
