<svg width="71" height="85" viewBox="0 0 71 85" fill="none" xmlns="http://www.w3.org/2000/svg">
<path d="M36.2463 62.0242L0.283 23.9932C-0.0887145 23.5983 -0.0887145 22.971 0.329464 22.5761L23.9333 0.273234C24.3283 -0.0984802 24.9555 -0.0984802 25.3505 0.319698L61.3138 38.3507C61.6855 38.7456 61.6855 39.3729 61.2673 39.7679L37.6635 62.0707C37.2686 62.4424 36.6181 62.4192 36.2463 62.0242Z" fill="#8EBEED"/>
<path d="M61.0342 38.0719L25.6052 0.575205C25.0709 0.0176341 24.2113 -0.00559799 23.6537 0.528741L16.9397 6.87111C16.8003 6.98727 16.7306 7.17313 16.777 7.35899C17.4508 11.0994 20.1225 14.468 23.3285 16.6751C27.185 19.37 31.7618 20.7639 36.1062 22.576C40.4506 24.3649 44.8182 26.7346 47.4202 30.6376C49.8828 34.3315 50.4636 38.9082 51.7182 43.1829C52.0434 44.3213 52.4616 45.4597 52.9727 46.5748C53.1353 46.9233 53.5767 47.0162 53.8555 46.7374L60.9645 40.0234C61.5453 39.489 61.5686 38.6294 61.0342 38.0719Z" fill="#504D6C"/>
<path d="M25.0707 11.4944C24.7454 11.7964 24.3272 11.7267 23.8626 11.2389L22.9565 10.2864L24.8151 8.54395L25.6747 9.45C26.1161 9.91464 26.1393 10.3328 25.8606 10.6116C25.6747 10.7975 25.4424 10.8207 25.2101 10.751C25.3495 10.9833 25.303 11.2853 25.0707 11.4944ZM24.908 9.24091L24.4666 9.65909L24.8616 10.0773C25.0707 10.2864 25.2333 10.3328 25.3959 10.1934C25.5353 10.054 25.5121 9.86818 25.303 9.65909L24.908 9.24091ZM24.7222 11.0298C24.8848 10.8904 24.8383 10.7045 24.6293 10.4722L24.1646 9.96111L23.7 10.4025L24.1646 10.9136C24.3737 11.1227 24.5596 11.1692 24.7222 11.0298Z" fill="white"/>
<path d="M26.4183 13.1438L25.6051 12.2842L25.0476 12.4933L24.6294 12.0518L27.2546 11.1226L27.6496 11.5407L26.5809 14.1195L26.1627 13.6781L26.4183 13.1438ZM26.6274 12.7023L27.0688 11.7266L26.0698 12.0983L26.6274 12.7023Z" fill="white"/>
<path d="M30.2513 14.2824L28.3928 16.0248L28.0675 15.6763L28.3231 13.6783L27.2079 14.747L26.813 14.3288L28.6716 12.5864L28.9968 12.9349L28.7413 14.9096L29.8564 13.841L30.2513 14.2824Z" fill="white"/>
<path d="M30.1814 16.4428H29.6936L29.2289 16.8842L28.834 16.466L30.6926 14.7236L31.0875 15.1418L30.2279 15.9549H31.8774L32.3188 16.4428L30.7623 16.466L30.5067 18.2549L30.0421 17.7438L30.1814 16.4428Z" fill="white"/>
<path d="M17.0331 18.4409L16.7078 18.0925L16.2664 18.5106L16.1038 18.348L16.5452 17.9298L15.6392 16.9541L15.7553 16.8379L17.7301 16.6753L17.9159 16.8611L16.0109 17.047L16.7078 17.7904L17.1028 17.4187L17.2654 17.5813L16.8705 17.9531L17.1957 18.3015L17.0331 18.4409Z" fill="white"/>
<path d="M18.2644 19.6488C17.9856 19.9276 17.5674 19.9276 17.1725 19.5094C16.9402 19.2539 16.8008 18.9519 16.8008 18.6963L17.0099 18.6498C17.0099 18.8589 17.1028 19.1377 17.3119 19.37C17.5674 19.6488 17.8462 19.6721 18.0785 19.4862C18.2876 19.3003 18.2876 19.0216 17.9856 18.6963L17.8695 18.5801L18.0089 18.464L19.0543 18.3711L18.2412 17.5115L18.4038 17.3721L19.4492 18.464L19.3331 18.5801L18.2644 18.6731C18.5664 19.0216 18.5432 19.3933 18.2644 19.6488Z" fill="white"/>
<path d="M19.5655 21.0198C19.2867 21.2985 18.8685 21.2985 18.4736 20.8804C18.2412 20.6248 18.1018 20.3228 18.1251 20.0672L18.3342 20.0208C18.3342 20.2299 18.4271 20.5087 18.6362 20.7177C18.915 20.9965 19.1938 21.0198 19.4028 20.8339C19.6119 20.6248 19.6352 20.3693 19.217 19.9278L18.8685 19.5561L19.7978 18.8359L20.6806 19.7652L20.518 19.9046L19.7746 19.138L19.1705 19.6026L19.3796 19.8117C19.8907 20.346 19.8675 20.7177 19.5655 21.0198Z" fill="white"/>
<path d="M21.0059 22.5066C20.6806 22.8087 20.2392 22.739 19.9372 22.4137C19.519 21.9723 19.5887 21.4147 20.123 20.9036C20.7038 20.3461 21.3079 20.3925 21.7493 20.8572C21.8887 21.0198 22.0049 21.1824 22.0281 21.345L21.819 21.4147C21.7958 21.2753 21.7028 21.136 21.5867 21.0198C21.2382 20.6481 20.7735 20.6481 20.3089 21.0663C20.2624 21.1127 20.216 21.1592 20.1695 21.2057C20.4483 21.1127 20.7271 21.2057 20.9594 21.4612C21.2847 21.7865 21.3079 22.2046 21.0059 22.5066ZM20.8432 22.344C21.0756 22.1349 21.0523 21.8329 20.7968 21.5774C20.5412 21.3218 20.216 21.2986 20.0069 21.4844C19.821 21.6703 19.7978 21.9955 20.0766 22.2743C20.3089 22.5066 20.6109 22.5531 20.8432 22.344Z" fill="white"/>
<path d="M23.9794 26.6653L24.142 25.7592L23.2127 25.8521L23.0269 25.6663L24.1652 25.5501L24.3279 24.4814L24.5137 24.6673L24.3743 25.5269L25.2339 25.434L25.4198 25.6198L24.3511 25.736L24.1885 26.8744L23.9794 26.6653Z" fill="white"/>
<path d="M25.1874 27.966L25.35 27.06L24.4207 27.1529L24.2349 26.9671L25.3732 26.8509L25.5359 25.7822L25.7217 25.9681L25.5823 26.8277L26.4419 26.7347L26.6278 26.9206L25.5591 27.0368L25.3965 28.1751L25.1874 27.966Z" fill="white"/>
<path d="M26.4188 29.2439L26.5815 28.3378L25.6522 28.4308L25.4663 28.2449L26.6047 28.1287L26.7673 27.0601L26.9532 27.2459L26.8138 28.1055L27.6734 28.0126L27.8592 28.1984L26.7905 28.3146L26.6279 29.453L26.4188 29.2439Z" fill="white"/>
<path d="M27.6508 30.5451L27.8134 29.6391L26.8841 29.732L26.6982 29.5462L27.8366 29.43L27.9992 28.3613L28.1851 28.5472L28.0457 29.4068L28.9053 29.3138L29.0912 29.4997L28.0225 29.6159L27.8598 30.7542L27.6508 30.5451Z" fill="white"/>
<path d="M31.8783 35.0285L32.0409 34.1225L31.1116 34.2154L30.9258 34.0296L32.0642 33.9134L32.2268 32.8447L32.4126 33.0306L32.2732 33.8902L33.1328 33.7972L33.3187 33.9831L32.25 34.0993L32.0874 35.2376L31.8783 35.0285Z" fill="white"/>
<path d="M33.1097 36.3298L33.2724 35.4238L32.3431 35.5167L32.1572 35.3308L33.2956 35.2147L33.4582 34.146L33.6441 34.3319L33.5047 35.1914L34.3643 35.0985L34.5501 35.2844L33.4815 35.4005L33.3188 36.5389L33.1097 36.3298Z" fill="white"/>
<path d="M34.3412 37.6306L34.5038 36.7245L33.5745 36.8175L33.3887 36.6316L34.527 36.5155L34.6897 35.4468L34.8755 35.6326L34.7361 36.4922L35.5957 36.3993L35.7816 36.5852L34.7129 36.7013L34.5503 37.8397L34.3412 37.6306Z" fill="white"/>
<path d="M35.5721 38.9319L35.7348 38.0258L34.8055 38.1187L34.6196 37.9329L35.758 37.8167L35.9206 36.748L36.1065 36.9339L35.9671 37.7935L36.8267 37.7006L37.0125 37.8864L35.9439 38.0026L35.7812 39.141L35.5721 38.9319Z" fill="white"/>
<path d="M41.0783 41.3479L39.3824 42.9509L39.2197 42.7651L40.7763 41.3014L40.4046 40.9065L40.5672 40.7671L41.0783 41.3479Z" fill="white"/>
<path d="M41.3103 44.0194C41.0315 44.2982 40.6133 44.2982 40.2184 43.88C39.9861 43.6245 39.8467 43.3225 39.8467 43.0669L40.0558 43.0204C40.0558 43.2295 40.1487 43.5083 40.3578 43.7406C40.6133 44.0194 40.8921 44.0427 41.1244 43.8568C41.3335 43.6709 41.3335 43.3922 41.0315 43.0669L40.9154 42.9507L41.0547 42.8346L42.1002 42.7417L41.2871 41.8821L41.4497 41.7427L42.4951 42.8346L42.379 42.9507L41.3103 43.0437C41.6123 43.3922 41.5891 43.7639 41.3103 44.0194Z" fill="white"/>
<path d="M42.8671 45.7617L42.5418 45.4133L42.1004 45.8314L41.9378 45.6456L42.3792 45.2274L41.4731 44.2749L41.5893 44.1587L43.564 43.9961L43.7499 44.182L41.8216 44.3446L42.5186 45.088L42.9135 44.7163L43.0762 44.8789L42.6812 45.2506L43.0065 45.5991L42.8671 45.7617Z" fill="white"/>
<path d="M43.82 47.3419L43.6574 47.4813L42.519 46.2964L42.6352 46.1803L44.0059 46.2267C44.3776 46.2499 44.517 46.157 44.6332 46.0641C44.819 45.8782 44.819 45.6227 44.5635 45.3671C44.3776 45.158 44.1685 45.0651 43.9362 45.0883V44.856C44.215 44.8328 44.4938 44.9722 44.7493 45.2277C45.0746 45.5762 45.0978 45.9479 44.819 46.2267C44.6564 46.3893 44.4705 46.459 44.0291 46.459L42.914 46.4126L43.82 47.3419Z" fill="white"/>
<path d="M10.8299 19.8345C11.0855 19.6022 11.434 19.6254 11.6663 19.8809C11.8057 20.0203 11.8522 20.183 11.8289 20.3456L11.5966 20.3224C11.5966 20.2062 11.5734 20.1133 11.5037 20.0203C11.3643 19.8577 11.1552 19.8577 10.9926 19.9971C10.8299 20.1365 10.8299 20.3456 10.9693 20.5082C11.039 20.5779 11.132 20.6244 11.2481 20.6244V20.8567C11.0855 20.8799 10.9229 20.8102 10.7835 20.6476C10.5976 20.4385 10.5976 20.0668 10.8299 19.8345Z" fill="white"/>
<path d="M11.9449 21.4841L11.5964 21.1124L11.3641 21.2053L11.1782 21.0195L12.3398 20.6245L12.5257 20.8104L12.061 21.9487L11.8752 21.7629L11.9449 21.4841ZM12.0378 21.2982L12.2237 20.8801L11.7823 21.0427L12.0378 21.2982Z" fill="white"/>
<path d="M12.5958 22.5295L12.6655 22.1578L12.5261 21.9719L12.2938 22.181L12.1079 21.9952L12.921 21.2285L13.2463 21.577C13.4554 21.7861 13.4786 22.0416 13.2927 22.2043C13.1766 22.3204 13.014 22.3437 12.8746 22.274L12.7816 22.6921L12.5958 22.5295ZM13.0837 21.7164L12.9443 21.5538L12.6655 21.8326L12.8049 21.9952C12.921 22.1113 13.014 22.1113 13.1069 22.0416C13.1998 21.9487 13.1998 21.8326 13.0837 21.7164Z" fill="white"/>
<path d="M12.9443 22.7151L13.1534 22.6454C13.1767 22.7616 13.2231 22.901 13.3161 22.9939C13.4322 23.11 13.5019 23.11 13.5484 23.0636C13.711 22.9242 13.1534 22.5525 13.4554 22.2505C13.5948 22.1111 13.8039 22.1343 14.0362 22.3434C14.1292 22.4363 14.1989 22.5757 14.2221 22.6919L14.0362 22.7616C14.013 22.6454 13.9666 22.5525 13.8969 22.4828C13.7807 22.3666 13.711 22.3666 13.6645 22.4131C13.5251 22.5525 14.0595 22.9242 13.7575 23.203C13.6181 23.3424 13.409 23.3191 13.1767 23.0868C13.0373 23.0171 12.9443 22.8545 12.9443 22.7151Z" fill="white"/>
<path d="M15.4532 23.9002L14.6401 24.6668L14.4543 24.481L14.7795 24.1557L14.431 23.784L14.1058 24.1093L13.9199 23.9234L14.733 23.1567L14.9189 23.3426L14.5937 23.6446L14.9421 24.0163L15.2674 23.7143L15.4532 23.9002Z" fill="white"/>
<path d="M15.1742 24.4346C15.4066 24.2023 15.7783 24.2255 16.0106 24.481C16.2429 24.7366 16.2429 25.0851 16.0106 25.3174C15.7783 25.5497 15.4066 25.5265 15.1742 25.2709C14.9419 25.0154 14.9419 24.6669 15.1742 24.4346ZM15.848 25.1315C16.0106 24.9921 16.0106 24.7831 15.8712 24.6437C15.7318 24.5043 15.5227 24.481 15.3601 24.6437C15.1975 24.7831 15.1975 24.9922 15.3369 25.1548C15.4763 25.2709 15.6853 25.2709 15.848 25.1315Z" fill="white"/>
<path d="M16.5682 25.085L16.7541 25.2708L16.1036 25.8981L16.4985 26.3163L16.3359 26.4557L15.7783 25.8516L16.5682 25.085Z" fill="white"/>
<path d="M17.2189 25.7822L17.5674 26.1539C17.8229 26.4095 17.8229 26.758 17.5906 26.9903C17.335 27.2226 17.0098 27.1994 16.7542 26.9206L16.4058 26.5489L17.2189 25.7822ZM16.8936 26.758C17.0563 26.9206 17.2421 26.9438 17.4047 26.7812C17.5674 26.6418 17.5674 26.4327 17.4047 26.2701L17.2421 26.1075L16.731 26.5721L16.8936 26.758Z" fill="white"/>
<path d="M18.055 27.9889L17.9156 28.1283L17.3115 27.501L18.1246 26.7344L18.7055 27.3384L18.5661 27.4778L18.1711 27.0596L17.9853 27.2222L18.3337 27.594L18.1943 27.7334L17.8459 27.3616L17.66 27.5475L18.055 27.9889Z" fill="white"/>
<path d="M18.5428 28.8022L18.6125 28.4305L18.4499 28.2678L18.2176 28.4769L18.0317 28.2911L18.8449 27.5244L19.1701 27.8729C19.3792 28.082 19.4024 28.3375 19.2166 28.5002C19.1004 28.6163 18.9378 28.6396 18.7984 28.5699L18.7055 28.988L18.5428 28.8022ZM19.0307 28.0123L18.8913 27.8497L18.6125 28.1284L18.7519 28.2911C18.8681 28.4072 18.961 28.4072 19.054 28.3375C19.1469 28.2214 19.1469 28.1284 19.0307 28.0123Z" fill="white"/>
<path d="M7.60071 22.7619L8.04212 22.7387C8.01889 22.9245 8.04212 23.0872 8.13505 23.2033C8.27444 23.3427 8.43706 23.3427 8.59969 23.1801L9.34312 22.4831L8.80878 21.9023L9.1108 21.6235L9.97039 22.5296L8.94817 23.4821C8.55323 23.8538 8.18151 23.8306 7.83303 23.4589C7.64717 23.273 7.55424 23.0175 7.60071 22.7619Z" fill="white"/>
<path d="M8.83208 24.0629C8.97148 23.9468 9.1341 23.9468 9.25026 24.0862C9.36642 24.2023 9.36642 24.3882 9.25026 24.5043C9.1341 24.6205 8.94824 24.6205 8.83208 24.5043C8.69269 24.3649 8.69269 24.1791 8.83208 24.0629Z" fill="white"/>
<path d="M12.9906 25.7591L10.9462 26.7348L10.5745 26.3399L11.3179 24.9924L9.92396 25.6429L9.55225 25.248L10.6209 23.25L10.9694 23.6217L10.2027 25.0156L11.6431 24.3419L11.9684 24.6672L11.2017 26.0611L12.6654 25.3874L12.9906 25.7591Z" fill="white"/>
<path d="M13.1534 25.8981C13.2696 25.8052 13.4322 25.8052 13.5484 25.9213C13.6645 26.0607 13.6645 26.2233 13.5716 26.3163C13.4555 26.4324 13.2928 26.4092 13.1767 26.293C13.0373 26.1769 13.0373 26.0143 13.1534 25.8981ZM12.8282 26.293L13.1534 26.6415L11.9454 27.7799L11.6201 27.4314L12.8282 26.293Z" fill="white"/>
<path d="M13.92 26.5254L14.2452 26.8739L12.5958 28.4304L12.2705 28.0819L13.92 26.5254Z" fill="white"/>
<path d="M14.5469 27.1992L14.8722 27.5477L13.2227 29.1043L12.8975 28.7558L14.5469 27.1992Z" fill="white"/>
<path d="M15.0582 27.9196C15.1744 27.8266 15.337 27.8266 15.4532 27.9428C15.5693 28.0822 15.5693 28.2448 15.4764 28.3378C15.3602 28.4539 15.1976 28.4307 15.0815 28.3145C14.9421 28.1984 14.9421 28.0357 15.0582 27.9196ZM14.733 28.3145L15.0582 28.663L13.8502 29.8014L13.5249 29.4529L14.733 28.3145Z" fill="white"/>
<path d="M15.8481 30.5214L15.1512 31.1719L14.8491 30.8467L14.9885 30.7073C14.8259 30.7538 14.6401 30.6841 14.4774 30.4982C14.2219 30.2194 14.1986 29.8942 14.4077 29.7083C14.6168 29.4992 14.9188 29.5225 15.2441 29.8942L15.4996 30.173C15.639 30.0336 15.6623 29.8709 15.4764 29.6619C15.3603 29.5457 15.1976 29.4528 15.035 29.4295L15.1512 29.0811C15.3603 29.1275 15.6158 29.2669 15.7784 29.4528C16.1734 29.8245 16.2198 30.1962 15.8481 30.5214ZM15.2209 30.475L15.337 30.3588L15.1047 30.1265C14.9421 29.9639 14.8491 29.9639 14.7562 30.0336C14.6633 30.1265 14.6865 30.2427 14.8027 30.3588C14.9188 30.475 15.0582 30.5447 15.2209 30.475Z" fill="white"/>
<path d="M18.0786 32.868L17.3816 33.5185L17.0563 33.17L17.6836 32.5659C17.8695 32.3801 17.8927 32.2175 17.7533 32.0781C17.6139 31.9154 17.4048 31.9154 17.1957 32.1013L16.5917 32.6821L16.2665 32.3336L16.8937 31.7296C17.0796 31.5437 17.1028 31.3811 16.9634 31.2417C16.824 31.0791 16.6149 31.0791 16.4058 31.2649L15.8018 31.8457L15.4766 31.4973L16.6846 30.3589L17.0099 30.6841L16.8705 30.8235C17.0563 30.8235 17.2422 30.8932 17.3816 31.0559C17.5442 31.2185 17.6139 31.4276 17.5675 31.6367C17.7765 31.6134 18.0089 31.7064 18.1715 31.8922C18.4038 32.171 18.427 32.5195 18.0786 32.868Z" fill="white"/>
<path d="M17.6836 33.6112L18.0553 33.4951C18.0785 33.6577 18.1947 33.8668 18.3341 34.0294C18.4967 34.192 18.5896 34.2153 18.6593 34.1456C18.8452 33.9597 17.9624 33.4254 18.4503 32.9607C18.6826 32.7516 19.0311 32.7981 19.3563 33.1466C19.5189 33.3092 19.6583 33.5415 19.6816 33.7042L19.3331 33.8203C19.2866 33.6345 19.1937 33.4951 19.1008 33.3789C18.9614 33.2163 18.8452 33.1931 18.7755 33.2628C18.5664 33.4486 19.4492 34.0062 18.9846 34.4476C18.7523 34.6567 18.4038 34.6102 18.0553 34.2385C17.8462 34.0526 17.7068 33.7971 17.6836 33.6112Z" fill="white"/>
<path d="M31.5529 47.0396C32.064 46.5517 32.6216 46.5517 32.9933 46.9466C33.365 47.3416 33.3418 47.8992 32.8074 48.387C32.2963 48.8749 31.7387 48.8749 31.367 48.48C31.0185 48.1083 31.0418 47.5274 31.5529 47.0396ZM32.4822 48.0153C32.8306 47.6901 32.8771 47.4113 32.6913 47.2254C32.5286 47.0396 32.2498 47.0628 31.9014 47.3881C31.5529 47.7133 31.5064 47.9921 31.6923 48.1779C31.8549 48.387 32.1337 48.3638 32.4822 48.0153Z" fill="white"/>
<path d="M33.9224 50.1294C33.5971 50.4314 33.1557 50.3617 32.8305 50.0365C32.4123 49.5951 32.4355 49.084 32.9466 48.5961C33.4809 48.085 34.1082 48.1315 34.5496 48.5961C34.7123 48.7587 34.8284 48.9678 34.8516 49.1304L34.4567 49.2466C34.4335 49.1072 34.3638 48.991 34.2476 48.8749C33.9921 48.6193 33.69 48.5961 33.388 48.8749C33.5739 48.8749 33.7365 48.9678 33.8991 49.1304C34.1779 49.4325 34.2244 49.8506 33.9224 50.1294ZM33.5739 49.8042C33.7133 49.6648 33.7133 49.4789 33.5506 49.3163C33.4113 49.1537 33.2022 49.1304 33.0628 49.2698C32.9234 49.386 32.9234 49.5951 33.086 49.7577C33.2486 49.8971 33.4345 49.9203 33.5739 49.8042Z" fill="white"/>
<path d="M36.0137 49.5488L36.3157 49.8508L33.5047 51.1054L33.2026 50.8034L36.0137 49.5488Z" fill="white"/>
<path d="M35.8044 52.5225L35.5023 52.8013L34.3872 51.6164L34.6195 51.3841L35.7579 51.4538C36.0135 51.477 36.1296 51.4073 36.1993 51.3376C36.3155 51.2215 36.3155 51.0588 36.1528 50.8962C36.0367 50.7568 35.8741 50.6871 35.6882 50.7104L35.6185 50.2922C35.9205 50.2457 36.2225 50.3619 36.5013 50.6407C36.8266 50.9891 36.873 51.3841 36.5943 51.6629C36.4316 51.8023 36.269 51.8952 35.8508 51.872L35.1771 51.8255L35.8044 52.5225Z" fill="white"/>
<path d="M37.3143 54.0327L37.0819 53.7771L36.7567 54.0791L36.4314 53.7307L36.7567 53.4286L35.9668 52.5923L36.1991 52.36L37.8951 52.1509L38.2435 52.5226L36.6638 52.7317L37.0587 53.1499L37.3607 52.8711L37.686 53.2196L37.384 53.4983L37.6163 53.7539L37.3143 54.0327Z" fill="white"/>
<path d="M44.6559 34.68C45.5387 33.3326 45.1902 31.5205 44.0054 30.4285C43.6337 30.0801 43.2155 29.8013 42.7741 29.6154C41.6357 29.1508 40.1489 29.4993 39.5448 30.5679C39.0569 31.4508 39.266 32.5427 39.5913 33.472C39.9398 34.4477 40.5206 35.4699 41.4963 35.8416C42.4256 36.2133 43.564 35.8649 44.2609 35.1447C44.4236 35.0285 44.5397 34.8659 44.6559 34.68Z" fill="white"/>
<path d="M70.2577 39.3031V80.1917C70.2577 82.422 68.4456 84.2341 66.2153 84.2341H6.78751C4.55722 84.2341 2.74512 82.422 2.74512 80.1917V39.3031C2.74512 37.0728 4.55722 35.2607 6.78751 35.2607H66.1921C68.4224 35.2607 70.2577 37.0728 70.2577 39.3031Z" fill="#FF7C6E"/>
<g opacity="0.3">
<path opacity="0.3" d="M26.0235 62.4189C26.0235 62.4189 26.0467 64.7422 25.3265 66.1361C24.6063 67.53 24.3973 68.0876 22.9104 68.6219C21.4235 69.1563 2.72168 71.2239 2.72168 71.2239V64.9048L26.0235 62.4189Z" fill="black"/>
</g>
<g opacity="0.3">
<path opacity="0.3" d="M25.6985 53.6603C25.6985 53.6603 25.9076 51.2906 19.9601 50.4078C13.1531 49.4088 2.74512 48.1543 2.74512 48.1543V52.6381L25.6985 53.6603Z" fill="black"/>
</g>
<path d="M3.34954 66.8334H22.7019C24.5372 66.8334 26.0241 65.3466 26.0241 63.5112V54.8456C26.0241 53.0103 24.5372 51.5234 22.7019 51.5234H3.34954C1.5142 51.5234 0.0273438 53.0103 0.0273438 54.8456V63.5112C0.0273438 65.3466 1.5142 66.8334 3.34954 66.8334Z" fill="#8EBEED"/>
<path d="M18.1943 63.5532C20.2961 63.5532 21.9999 61.8493 21.9999 59.7475C21.9999 57.6457 20.2961 55.9419 18.1943 55.9419C16.0925 55.9419 14.3887 57.6457 14.3887 59.7475C14.3887 61.8493 16.0925 63.5532 18.1943 63.5532Z" fill="white"/>
<path d="M19.1772 62.8553C19.1613 62.8394 19.5736 62.7602 20.081 62.3796C20.3347 62.1893 20.6043 61.9356 20.8422 61.5867C21.08 61.2379 21.2703 60.8098 21.3496 60.3499C21.4289 59.8742 21.3813 59.4144 21.2544 59.0179C21.1434 58.6215 20.9532 58.2885 20.7629 58.019C20.3823 57.5115 20.0335 57.3054 20.0493 57.2896C20.0493 57.2896 20.0652 57.3054 20.1128 57.3213C20.1445 57.353 20.2079 57.3847 20.2872 57.4481C20.4299 57.5591 20.6202 57.7335 20.8105 57.9873C21.0007 58.241 21.191 58.5898 21.3179 58.9862C21.4447 59.3985 21.4923 59.8742 21.413 60.3658C21.3337 60.8573 21.1276 61.2855 20.8897 61.6343C20.6519 61.9832 20.3665 62.2527 20.0969 62.4272C19.8273 62.6174 19.5895 62.7126 19.4309 62.776C19.3516 62.8077 19.2723 62.8236 19.2406 62.8394C19.1931 62.8553 19.1772 62.8553 19.1772 62.8553Z" fill="white"/>
</svg>
