<svg width="134" height="76" viewBox="0 0 134 76" fill="none" xmlns="http://www.w3.org/2000/svg">
<path d="M85.1976 5.10388H80.333L80.7849 1.70129C80.9178 0.717734 81.7419 0 82.7255 0C83.6824 0 84.5065 0.691151 84.666 1.64813L85.1976 5.10388Z" fill="#F45571"/>
<path d="M81.7422 4.86444C81.7422 4.86444 81.9548 2.3125 82.7523 2.3125C83.5498 2.3125 83.7359 4.86444 83.7359 4.86444" fill="#FFB956"/>
<path d="M83.9214 13.238H81.1834C79.0568 13.238 77.3555 11.5367 77.3555 9.41009V8.18729C77.3555 6.06067 79.0568 4.35938 81.1834 4.35938H84.2138C86.3404 4.35938 88.0417 6.06067 88.0417 8.18729V9.11768C88.0417 11.3772 86.2075 13.238 83.9214 13.238Z" fill="#182852"/>
<path d="M0 45.4032C0 46.0146 0 46.5994 0 47.1843C0 48.7792 0.0265827 50.321 0.0797482 51.7831C0.186079 55.611 0.425324 58.8541 0.797482 61.087C0.956978 62.0174 1.14306 62.7883 1.35572 63.3731C1.56838 63.9048 1.78104 64.277 2.02029 64.4364C4.25324 65.9251 19.4851 65.5263 38.1196 66.0048C46.8388 66.2175 69.5936 66.3238 78.8178 66.3238C104.045 66.3238 127.544 66.9086 129.219 65.4466C129.724 64.9947 130.176 64.277 130.601 63.3731C130.84 62.8681 131.053 62.2832 131.239 61.6718C131.292 61.4858 131.345 61.2997 131.398 61.1136C131.85 59.5186 132.222 57.6844 132.462 55.7971C132.648 54.4679 132.781 53.1122 132.86 51.8097C132.967 50.1615 132.993 48.5931 132.94 47.2108C132.914 46.5729 132.887 45.988 132.834 45.4298C132.728 44.3665 132.541 43.5424 132.276 43.0374C131.505 41.5753 128.182 39.4487 125.019 37.6676C121.749 35.8334 117.602 33.5739 117.602 33.5739C117.602 33.5739 117.389 32.803 116.991 31.527C115.874 27.832 113.269 19.9636 110.106 14.1419C109.654 13.3179 109.202 12.547 108.75 11.8558C107.979 10.6596 107.182 9.62288 106.437 8.87856C106.118 8.55957 105.799 8.29374 105.48 8.08108C104.125 7.17727 92.9066 6.53928 78.8178 6.22029C70.2316 6.03421 47.2641 5.95446 38.1196 6.03421C33.0157 6.06079 28.0979 6.08738 23.632 6.11396C11.8559 6.19371 3.11018 6.3532 2.44561 7.2836C2.33928 7.41651 2.23295 7.70892 2.12662 8.10766C2.07345 8.32032 2.02029 8.58615 1.96712 8.87856C1.83421 9.62288 1.70129 10.633 1.56838 11.8292C0.87723 17.8104 0.29241 28.47 0.0797482 37.6411C0.0265827 40.2728 0 42.9044 0 45.4032Z" fill="#F2F2F2"/>
<path d="M35.3816 65.0747C32.4043 65.0216 29.427 64.9684 26.4232 64.8886C22.7016 64.8089 18.98 64.7026 15.2584 64.3304C14.1686 64.2241 13.0787 64.0646 11.9888 63.8785C13.2116 58.5885 17.9167 54.6543 23.5788 54.6543C29.6663 54.6809 34.6638 59.2265 35.3816 65.0747Z" fill="#182852"/>
<path d="M121.855 64.3036C114.066 64.9948 106.198 65.2074 98.356 65.2872C98.9939 59.3326 104.045 54.6807 110.185 54.6807C115.98 54.6807 120.792 58.8276 121.855 64.3036Z" fill="#182852"/>
<path d="M1.38232 63.3467C1.59499 63.8783 1.80765 64.2505 2.04689 64.41C4.27984 65.8986 19.5117 65.4999 38.1462 65.9784C46.8654 66.191 69.6202 66.2974 78.8444 66.2974C104.071 66.2974 127.571 66.8822 129.245 65.4201C129.75 64.9682 130.202 64.2505 130.628 63.3467H1.38232Z" fill="#182852"/>
<path d="M110.185 76.0002C115.397 76.0002 119.622 71.7752 119.622 66.5633C119.622 61.3515 115.397 57.1265 110.185 57.1265C104.974 57.1265 100.749 61.3515 100.749 66.5633C100.749 71.7752 104.974 76.0002 110.185 76.0002Z" fill="#2D3C62"/>
<path d="M110.185 72.0658C113.224 72.0658 115.688 69.6022 115.688 66.5632C115.688 63.5242 113.224 61.0605 110.185 61.0605C107.146 61.0605 104.683 63.5242 104.683 66.5632C104.683 69.6022 107.146 72.0658 110.185 72.0658Z" fill="#E3E4F7"/>
<path d="M110.185 69.9127C108.351 69.9127 106.836 68.3975 106.836 66.5633C106.836 64.7291 108.351 63.2139 110.185 63.2139C112.02 63.2139 113.535 64.7291 113.535 66.5633C113.535 68.3975 112.02 69.9127 110.185 69.9127ZM110.185 63.4797C108.484 63.4797 107.102 64.862 107.102 66.5633C107.102 68.2646 108.484 69.6469 110.185 69.6469C111.887 69.6469 113.269 68.2646 113.269 66.5633C113.269 64.862 111.887 63.4797 110.185 63.4797Z" fill="#182852"/>
<path d="M110.186 67.2812C110.582 67.2812 110.903 66.9598 110.903 66.5634C110.903 66.167 110.582 65.8457 110.186 65.8457C109.789 65.8457 109.468 66.167 109.468 66.5634C109.468 66.9598 109.789 67.2812 110.186 67.2812Z" fill="#2D3C62"/>
<path d="M23.6849 76.0002C28.8968 76.0002 33.1218 71.7752 33.1218 66.5633C33.1218 61.3515 28.8968 57.1265 23.6849 57.1265C18.4731 57.1265 14.248 61.3515 14.248 66.5633C14.248 71.7752 18.4731 76.0002 23.6849 76.0002Z" fill="#2D3C62"/>
<path d="M23.6852 72.0658C26.7243 72.0658 29.1879 69.6022 29.1879 66.5632C29.1879 63.5242 26.7243 61.0605 23.6852 61.0605C20.6462 61.0605 18.1826 63.5242 18.1826 66.5632C18.1826 69.6022 20.6462 72.0658 23.6852 72.0658Z" fill="#E3E4F7"/>
<path d="M23.6849 69.9127C21.8507 69.9127 20.3354 68.3975 20.3354 66.5633C20.3354 64.7291 21.8507 63.2139 23.6849 63.2139C25.5191 63.2139 27.0343 64.7291 27.0343 66.5633C27.0343 68.3975 25.5457 69.9127 23.6849 69.9127ZM23.6849 63.4797C21.9836 63.4797 20.6013 64.862 20.6013 66.5633C20.6013 68.2646 22.0102 69.6469 23.6849 69.6469C25.3862 69.6469 26.7685 68.2646 26.7685 66.5633C26.7685 64.862 25.3862 63.4797 23.6849 63.4797Z" fill="#182852"/>
<path d="M23.6845 67.2812C24.0809 67.2812 24.4023 66.9598 24.4023 66.5634C24.4023 66.167 24.0809 65.8457 23.6845 65.8457C23.2881 65.8457 22.9668 66.167 22.9668 66.5634C22.9668 66.9598 23.2881 67.2812 23.6845 67.2812Z" fill="#2D3C62"/>
<path d="M115.077 33.7336H89.6636V11.2446H106.331C106.331 11.2446 111.408 21.5587 115.077 33.7336Z" fill="#182852"/>
<path d="M49.5233 59.8911H82.1137C83.31 59.8911 84.2669 58.9341 84.2669 57.7379V12.5472C84.2669 11.351 83.31 10.394 82.1137 10.394H49.5233C48.3271 10.394 47.3701 11.351 47.3701 12.5472V57.7113C47.3967 58.9075 48.3537 59.8911 49.5233 59.8911Z" fill="#EEEFFA"/>
<path d="M132.887 51.7832H0.106604C0.0534382 50.3211 0.0268555 48.7793 0.0268555 47.1844C0.0268555 46.5995 0.0268555 46.0147 0.0268555 45.4033H132.887C132.94 45.935 132.994 46.5198 133.02 47.1844C133.02 48.5667 132.994 50.135 132.887 51.7832Z" fill="#FF7C6E"/>
<path d="M107.633 45.4033L101.28 51.7832H99.3662L105.719 45.4033H107.633Z" fill="#FCFFFF"/>
<path d="M111.913 45.4033L105.534 51.7832H103.62L109.999 45.4033H111.913Z" fill="#FCFFFF"/>
<path d="M116.167 45.4033L109.813 51.7832H107.899L114.253 45.4033H116.167Z" fill="#FCFFFF"/>
<path d="M120.446 45.4033L114.093 51.7832H112.179L118.532 45.4033H120.446Z" fill="#FCFFFF"/>
<path d="M56.0366 17.8636V31.0752C56.0366 32.5638 57.2328 33.76 58.6949 33.76H72.4913C73.4483 33.76 74.299 33.255 74.7509 32.4841C75.0167 32.0853 75.1496 31.5803 75.1496 31.0752V17.8636C75.1496 16.3749 73.9534 15.1787 72.4647 15.1787H58.6683C57.2328 15.1787 56.0366 16.3749 56.0366 17.8636Z" fill="#4AD4F6"/>
<path d="M131.239 61.6455C131.239 61.6455 132.223 60.6354 132.489 59.0404C132.781 57.4189 132.462 55.7441 132.462 55.7441C132.462 55.7441 130.149 55.8505 129.458 56.4885C128.794 57.1264 128.528 60.8214 131.239 61.6455Z" fill="#FCB75D"/>
<path d="M2.15332 8.08111L21.4258 48.5932H45.8553L25.6524 6.0874C11.8826 6.16715 3.13688 6.32665 2.47231 7.25704C2.36598 7.38996 2.25965 7.65578 2.15332 8.08111Z" fill="#FF7C6E"/>
<path d="M5.31641 60.7417C6.31474 60.7417 7.12404 59.9324 7.12404 58.9341C7.12404 57.9358 6.31474 57.1265 5.31641 57.1265C4.31809 57.1265 3.50879 57.9358 3.50879 58.9341C3.50879 59.9324 4.31809 60.7417 5.31641 60.7417Z" fill="#FFB956"/>
<path d="M31.8195 34.9295C37.3837 34.9295 41.8943 30.4188 41.8943 24.8546C41.8943 19.2904 37.3837 14.7798 31.8195 14.7798C26.2553 14.7798 21.7446 19.2904 21.7446 24.8546C21.7446 30.4188 26.2553 34.9295 31.8195 34.9295Z" fill="#FCFFFF"/>
<path d="M33.3614 18.0762H29.6133V31.6068H33.3614V18.0762Z" fill="#00239C"/>
<path d="M26.5567 19.8381L24.6826 23.084L36.4001 29.8493L38.2742 26.6034L26.5567 19.8381Z" fill="#00239C"/>
<path d="M24.6796 26.6115L26.5537 29.8574L38.2712 23.0921L36.3971 19.8462L24.6796 26.6115Z" fill="#00239C"/>
<path d="M81.609 58.3756H50.0553C49.3642 58.3756 48.8325 57.8173 48.8325 57.1528V13.1584C48.8325 12.4672 49.3908 11.9355 50.0553 11.9355H81.609C82.3002 11.9355 82.8318 12.4938 82.8318 13.1584V57.1528C82.8318 57.8173 82.2736 58.3756 81.609 58.3756ZM50.0553 12.1748C49.5237 12.1748 49.0983 12.6001 49.0983 13.1318V57.1528C49.0983 57.6844 49.5237 58.1097 50.0553 58.1097H81.609C82.1407 58.1097 82.566 57.6844 82.566 57.1528V13.1584C82.566 12.6267 82.1407 12.2014 81.609 12.2014H50.0553V12.1748Z" fill="#182852"/>
<path d="M14.5405 12.0419C15.436 12.0419 16.162 11.3159 16.162 10.4204C16.162 9.52482 15.436 8.79883 14.5405 8.79883C13.6449 8.79883 12.9189 9.52482 12.9189 10.4204C12.9189 11.3159 13.6449 12.0419 14.5405 12.0419Z" fill="#FFB956"/>
<path d="M8.93209 12.0419C9.82765 12.0419 10.5536 11.3159 10.5536 10.4204C10.5536 9.52482 9.82765 8.79883 8.93209 8.79883C8.03654 8.79883 7.31055 9.52482 7.31055 10.4204C7.31055 11.3159 8.03654 12.0419 8.93209 12.0419Z" fill="#EEEFFA"/>
<path d="M74.4851 42.2402H79.775C80.2801 42.2402 80.7054 41.8149 80.7054 41.3098C80.7054 40.8047 80.2801 40.3794 79.775 40.3794H74.4851C73.98 40.3794 73.5547 40.8047 73.5547 41.3098C73.5547 41.8149 73.98 42.2402 74.4851 42.2402Z" fill="#182852"/>
<path d="M90.78 42.2402H96.07C96.575 42.2402 97.0004 41.8149 97.0004 41.3098C97.0004 40.8047 96.575 40.3794 96.07 40.3794H90.78C90.2749 40.3794 89.8496 40.8047 89.8496 41.3098C89.8496 41.8149 90.2749 42.2402 90.78 42.2402Z" fill="#182852"/>
<path d="M91.2319 12.5737V31.474C91.2319 31.474 94.9269 31.474 99.2865 31.474H112.817C111.275 26.7423 105.666 12.5737 105.666 12.5737H91.2319Z" fill="#4AD4F6"/>
<path d="M94.5283 12.5737L109.016 31.5006H110.93L97.0537 12.5737H94.5283Z" fill="#FCFFFF"/>
<path d="M91.2319 12.9189V20.7608L99.2865 31.5003H104.576L91.2319 12.9189Z" fill="#FCFFFF"/>
<path d="M111.009 26.4766L108.218 32.5108H114.093L111.009 26.4766Z" fill="#182852"/>
<path d="M63.8784 15.1787L74.7773 32.4841C75.0432 32.0853 75.1761 31.5803 75.1761 31.0752V26.7688L67.8392 15.1787H63.8784Z" fill="#FCFFFF"/>
<path d="M56.0366 17.8636V19.4851L66.8292 33.7335H71.1356L59.9177 15.1787H58.6949C57.2328 15.1787 56.0366 16.3749 56.0366 17.8636Z" fill="#FCFFFF"/>
<path d="M113.641 31.926C115.209 31.926 116.512 30.6501 116.512 29.0551V27.7791C116.512 26.2108 115.236 24.9082 113.641 24.9082V31.926Z" fill="#182852"/>
</svg>
