<svg id="messageIcon" width="100%" height="100%" viewBox="0 0 12 9" fill="#999999" xmlns="http://www.w3.org/2000/svg">
    <path fill-rule="evenodd" clip-rule="evenodd" d="M7.875 4.57375L12 0.787523V8.31248L7.875 4.57375ZM0.24372 0.262526C0.322055 0.179557 0.415434 0.113627 0.518434 0.0685648C0.621435 0.0235024 0.732004 0.000205627 0.84372 2.75184e-05H11.1563C11.2653 -0.000881664 11.3734 0.0207465 11.4743 0.0636594C11.5753 0.106572 11.667 0.169917 11.7443 0.250026C11.7454 0.251526 6 5.40987 6 5.40987C6 5.40987 0.24348 0.263151 0.24372 0.262526ZM0 8.31148V0.787523L4.125 4.575L0 8.31148ZM5.9832 6.29512L7.5 4.918C7.5 4.918 11.7198 8.74911 11.7188 8.74998C11.6418 8.82999 11.5503 8.89328 11.4496 8.93619C11.3489 8.9791 11.2411 9.00079 11.1323 8.99998H0.83412C0.72251 8.9998 0.612048 8.97651 0.509164 8.93144C0.40628 8.88638 0.313029 8.82044 0.23484 8.73748L4.5 4.918L5.9832 6.29512Z" />
</svg>