<svg width="142" height="154" viewBox="0 0 142 154" fill="none" xmlns="http://www.w3.org/2000/svg">
<path d="M129.526 126.98C135.015 119.247 145.993 87.7623 140.504 57.3828C135.564 27.0035 115.256 3.25235 82.3236 0.490586C67.5036 -1.16647 54.3306 1.5953 48.2932 5.46176C48.2932 5.46176 45 7.67115 45 10.4329C45 10.4329 79.03 5.46176 93.301 20.9276C105.925 34.7365 96.5941 51.3068 96.5941 51.3068C91.1054 62.3543 77.9325 75.6108 77.9325 75.6108C77.9325 75.6108 60.3683 92.7338 54.8796 102.676C52.1353 107.647 50.4887 112.618 50.4887 117.037C50.4887 126.427 57.0752 130.294 59.2708 130.846C77.9325 139.684 114.707 132.503 129.526 126.98Z" fill="#E4002B"/>
<path d="M13.2449 27.0204C7.4167 34.7534 -4.2398 66.2375 1.58844 96.617C6.83383 126.996 28.3983 150.747 63.368 153.509C79.1042 155.166 93.092 152.405 99.5027 148.538C99.5027 148.538 103 146.329 103 143.567C103 143.567 66.8648 148.538 51.7111 133.072C38.3064 119.263 48.2144 102.693 48.2144 102.693C54.0425 91.646 68.0303 78.3895 68.0303 78.3895C68.0303 78.3895 86.6808 61.2665 92.509 51.324C95.4229 46.3528 97.1718 41.3817 97.1718 36.9628C97.1718 27.5728 90.1776 23.7064 87.8463 23.154C68.0303 14.3164 28.9812 21.4969 13.2449 27.0204Z" fill="#00239C"/>
</svg>
