<svg width="148" height="149" viewBox="0 0 148 149" fill="none" xmlns="http://www.w3.org/2000/svg">
<path d="M137.439 69.095C135.739 61.695 136.439 54.195 135.139 46.695C134.139 40.695 131.039 35.595 126.439 31.795C119.139 25.695 110.939 25.195 102.239 23.695C92.5386 21.995 87.3386 15.195 80.0386 8.99505C66.3386 -2.50495 44.1386 -2.40495 34.2386 14.595C29.3386 23.095 28.9386 33.495 28.1386 43.095C27.7386 48.695 27.2386 54.2951 26.8386 59.8951C26.5386 64.095 26.7386 69.5951 23.1386 72.3951C19.9386 74.8951 15.3386 74.595 11.8386 76.695C8.43861 78.595 5.83861 81.695 3.83861 85.095C-0.861393 93.495 -0.661393 103.495 1.33861 112.795L145.939 112.695C148.539 97.495 140.739 83.395 137.439 69.095Z" fill="white"/>
<path d="M0.338867 108.895C0.538867 116.995 2.63887 128.095 9.33887 133.895C14.4389 138.295 23.5389 140.395 30.7389 140.695C37.9389 140.995 45.2389 140.295 52.4389 140.795C63.5389 141.595 71.3389 142.495 81.9389 145.295C92.6389 147.995 104.139 149.895 114.739 146.895C121.439 144.995 127.339 141.295 131.339 136.395C133.639 133.595 135.339 130.395 137.739 127.695C140.139 124.995 143.339 122.695 145.339 119.695C147.339 116.695 148.039 112.695 145.539 109.995L0.338867 108.895Z" fill="white"/>
<path d="M87.6975 48.5001C87.5975 48.5001 87.4975 48.5001 87.4975 48.5001C86.4975 48.3001 85.8975 47.3001 85.8975 46.4001C85.8975 45.8001 86.0975 45.2001 86.2975 44.6001C86.3975 44.4001 86.3975 44.3001 86.4975 44.1001C86.6975 43.4001 86.7975 42.8001 86.4975 42.4001L86.1975 42.0001L86.6975 41.8001C88.7975 40.7001 91.0975 40.0001 93.4975 39.8001L95.2975 39.6001L91.8975 42.3001C91.6975 42.4001 91.5975 42.6001 91.4975 42.7001C91.3975 43.0001 91.3975 43.4001 91.5975 43.8001C91.6975 44.0001 91.6975 44.3001 91.6975 44.5001C91.7975 45.4001 91.4975 46.4001 90.7975 47.2001C90.1975 47.8001 89.3975 48.3001 88.3975 48.5001C88.1975 48.5001 87.8975 48.5001 87.6975 48.5001ZM87.5975 42.5001C87.7975 43.1001 87.6975 43.7001 87.3975 44.5001C87.2975 44.7001 87.2975 44.8001 87.1975 45.0001C86.9975 45.5001 86.8975 46.0001 86.7975 46.4001C86.7975 46.9001 87.0975 47.5001 87.4975 47.5001C87.6975 47.5001 87.8975 47.5001 87.9975 47.4001C88.4975 47.3001 89.2975 47.0001 89.8975 46.3001C90.3975 45.8001 90.5975 45.1001 90.5975 44.4001C90.5975 44.2001 90.4975 44.0001 90.4975 43.8001C90.3975 43.2001 90.1975 42.6001 90.4975 42.0001C90.6975 41.7001 90.9975 41.5001 91.1975 41.3001L91.6975 40.9001C90.2975 41.4001 88.8975 41.8001 87.5975 42.5001Z" fill="#272525"/>
<path d="M95.0967 55.3999H93.5967V116.6H95.0967V55.3999Z" fill="#0093B7"/>
<path d="M89.2969 0.600098H87.7969V31.2001H89.2969V0.600098Z" fill="#0093B7"/>
<path d="M91.9971 0.600098H90.4971V31.2001H91.9971V0.600098Z" fill="#0093B7"/>
<path d="M95.8965 0.600098H94.3965V31.2001H95.8965V0.600098Z" fill="#0093B7"/>
<path d="M98.2969 0.600098H96.7969V31.2001H98.2969V0.600098Z" fill="#0093B7"/>
<path d="M100.697 0.600098H99.1973V31.2001H100.697V0.600098Z" fill="#0093B7"/>
<path d="M104.497 56.7999L107.097 60.7999V25.8999L104.497 29.7999V56.7999Z" fill="#233865"/>
<path d="M108.497 60.6999H107.097V25.8999H108.497C109.497 25.8999 110.197 26.6999 110.197 27.5999V58.7999C110.297 59.8999 109.497 60.6999 108.497 60.6999Z" fill="#F96A57"/>
<path d="M102.997 56.7998H86.0967C85.2967 56.7998 84.5967 56.0998 84.5967 55.2998V31.2998C84.5967 30.4998 85.2967 29.7998 86.0967 29.7998H102.997C103.797 29.7998 104.497 30.4998 104.497 31.2998V55.2998C104.497 56.0998 103.797 56.7998 102.997 56.7998Z" fill="#F96A57"/>
<path d="M102.597 55.3997H86.4967C85.9967 55.3997 85.5967 54.9997 85.5967 54.4997V32.0997C85.5967 31.5997 85.9967 31.1997 86.4967 31.1997H102.597C103.097 31.1997 103.497 31.5997 103.497 32.0997V54.5997C103.497 54.9997 103.097 55.3997 102.597 55.3997Z" fill="#233865"/>
<path d="M90.0969 37H87.2969V46.1H90.0969V37Z" fill="#B3DEE5"/>
<path d="M93.9973 37H91.1973V46.1H93.9973V37Z" fill="#B3DEE5"/>
<path d="M97.9973 37H95.1973V46.1H97.9973V37Z" fill="#B3DEE5"/>
<path d="M101.897 37H99.0967V46.1H101.897V37Z" fill="#B3DEE5"/>
<path d="M88.8971 34.4997C89.3941 34.4997 89.7971 34.0968 89.7971 33.5997C89.7971 33.1026 89.3941 32.6997 88.8971 32.6997C88.4 32.6997 87.9971 33.1026 87.9971 33.5997C87.9971 34.0968 88.4 34.4997 88.8971 34.4997Z" fill="#F96A57"/>
<path d="M92.8971 34.4997C93.3941 34.4997 93.7971 34.0968 93.7971 33.5997C93.7971 33.1026 93.3941 32.6997 92.8971 32.6997C92.4 32.6997 91.9971 33.1026 91.9971 33.5997C91.9971 34.0968 92.4 34.4997 92.8971 34.4997Z" fill="#F96A57"/>
<path d="M96.8971 34.4997C97.3941 34.4997 97.7971 34.0968 97.7971 33.5997C97.7971 33.1026 97.3941 32.6997 96.8971 32.6997C96.4 32.6997 95.9971 33.1026 95.9971 33.5997C95.9971 34.0968 96.4 34.4997 96.8971 34.4997Z" fill="#F96A57"/>
<path d="M100.897 34.4997C101.394 34.4997 101.797 34.0968 101.797 33.5997C101.797 33.1026 101.394 32.6997 100.897 32.6997C100.4 32.6997 99.9971 33.1026 99.9971 33.5997C99.9971 34.0968 100.4 34.4997 100.897 34.4997Z" fill="#F96A57"/>
<path d="M56.7971 95.3998C56.4971 94.5998 56.8971 93.3998 56.9971 92.5998C57.0971 91.6998 57.1971 91.0998 57.0971 90.2998C58.1971 90.2998 60.0971 90.2998 61.2971 90.2998C61.0971 90.9998 61.5971 91.7998 62.1971 92.1998C62.8971 92.5998 63.5971 92.6998 64.3971 92.8998C65.0971 93.0998 65.8971 93.3998 66.3971 93.9998C66.5971 94.1998 66.6971 94.4998 66.6971 94.6998C66.6971 94.7998 66.6971 95.2998 66.5971 95.3998H56.7971V95.3998Z" fill="#233865"/>
<path d="M56.4967 41.8998C57.7967 44.9998 59.7967 47.5998 61.5967 50.4998C63.3967 53.2998 66.4967 60.6998 66.6967 63.9998C66.8967 66.9998 65.9967 69.8998 65.1967 72.7998C63.7967 78.0998 62.1967 85.3998 61.9967 90.8998C60.3967 91.0998 58.6967 91.2998 57.0967 91.4998C56.5967 84.5998 56.9967 75.6998 58.7967 68.9998C58.8967 68.4998 59.0967 67.9998 58.9967 67.5998C58.8967 67.1998 58.6967 66.8998 58.4967 66.5998C54.8967 61.3998 49.6967 51.9998 46.0967 46.8998C49.4967 44.8998 52.7967 42.6998 55.8967 40.2998L56.4967 41.8998Z" fill="#077F93"/>
<path d="M46.6969 20.3999C45.7969 20.3999 44.7969 20.4999 44.0969 21.1999C43.4969 21.7999 43.2969 22.8999 43.4969 23.6999C43.7969 25.0999 44.7969 26.3999 46.1969 26.8999C47.2969 27.2999 48.4969 27.3999 49.5969 27.3999C50.6969 27.3999 51.7969 27.3999 52.9969 27.2999C53.3969 25.2999 53.5969 23.1999 53.6969 20.9999C51.3969 20.6999 49.0969 20.3999 46.6969 20.3999Z" fill="#C9433D"/>
<path d="M66.8968 10.1998C66.5968 10.1998 66.3968 9.9998 66.1968 9.7998C65.7968 9.2998 65.6968 8.6998 65.7968 8.0998C65.9968 7.1998 66.5968 6.3998 67.2968 5.9998C67.3968 5.8998 67.5968 5.7998 67.7968 5.7998C68.7968 5.3998 69.8968 5.2998 70.9968 5.2998C71.0968 5.5998 70.8968 5.7998 70.6968 5.9998C70.5968 6.0998 70.4968 6.0998 70.4968 6.0998C70.7968 6.0998 71.0968 6.0998 71.4968 6.0998C71.5968 6.0998 71.5968 6.0998 71.6968 6.1998C71.7968 6.2998 71.6968 6.3998 71.6968 6.4998C71.6968 6.5998 71.5968 6.5998 71.4968 6.6998C71.4968 6.9998 71.2968 7.2998 70.9968 7.3998C70.6968 7.4998 70.3968 7.4998 70.0968 7.5998C69.4968 7.6998 68.8968 7.8998 68.3968 8.1998C67.9968 8.3998 67.8968 8.6998 67.9968 9.0998C67.9968 9.1998 68.0968 9.2998 68.0968 9.4998C68.0968 9.6998 67.8968 9.7998 67.7968 9.8998C67.4968 9.9998 67.1968 10.1998 66.8968 10.1998Z" fill="#233865"/>
<path d="M69.7969 7.5998C69.2969 7.5998 68.6969 7.7998 68.3969 8.1998C68.2969 8.4998 68.1969 8.7998 67.9969 8.9998C67.8969 9.1998 67.6969 9.3998 67.3969 9.4998C67.1969 9.5998 66.8969 9.4998 66.6969 9.2998C66.6969 9.0998 66.6969 8.7998 66.6969 8.5998C66.6969 8.0998 66.7969 7.6998 66.8969 7.2998C66.9969 6.9998 67.0969 6.4998 67.3969 6.3998C67.6969 6.2998 67.8969 6.1998 68.1969 5.9998C68.4969 5.7998 68.8969 5.8998 69.1969 5.6998C69.4969 5.4998 69.6969 5.0998 69.5969 4.7998C68.5969 4.8998 68.4969 4.8998 67.5969 5.1998C67.2969 5.2998 66.1969 5.6998 65.9969 5.8998C65.5969 6.2998 65.3969 6.8998 64.9969 7.2998C64.7969 7.5998 64.5969 7.7998 64.3969 8.0998C64.2969 8.3998 64.1969 8.6998 64.1969 9.1998C64.0969 10.1998 64.0969 11.1998 63.7969 12.2998C63.4969 12.8998 63.2969 13.5998 62.9969 14.1998C62.0969 16.3998 61.1969 18.5998 59.4969 20.3998C59.0969 20.7998 58.6969 21.1998 58.2969 21.3998C57.6969 21.5998 57.0969 21.5998 56.4969 21.4998C55.4969 21.3998 54.4969 21.2998 53.4969 21.0998C53.4969 23.3998 53.2969 25.4998 52.7969 27.3998C54.8969 27.2998 57.0969 27.1998 59.0969 27.1998C59.9969 27.1998 60.9969 27.1998 61.7969 26.6998C62.4969 26.1998 62.8969 25.3998 63.1969 24.6998C63.8969 23.0998 64.4969 21.5998 64.9969 19.9998C65.5969 17.8998 65.6969 17.4998 66.2969 14.7998C66.2969 14.5998 66.6969 13.5998 66.6969 13.3998C66.6969 13.3998 66.6969 13.3998 66.6969 13.2998C66.8969 12.7998 67.1969 12.2998 67.3969 12.0998C67.6969 11.7998 68.0969 11.4998 68.2969 11.0998C68.4969 10.6998 68.4969 10.1998 68.6969 9.6998C68.8969 9.1998 69.3969 8.7998 69.7969 8.3998C69.8969 8.2998 69.9969 8.1998 69.9969 7.9998C70.2969 7.7998 69.9969 7.6998 69.7969 7.5998Z" fill="#D39D81"/>
<path d="M50.4973 129.7L48.9973 129.5L58.6973 58.0996H44.7973L35.0973 129.7L33.6973 129.5L43.4973 56.5996H60.3973L50.4973 129.7Z" fill="#233865"/>
<path d="M53.8969 100.2H38.2969V101.7H53.8969V100.2Z" fill="#233865"/>
<path d="M56.3969 81.2998H40.7969V82.7998H56.3969V81.2998Z" fill="#233865"/>
<path d="M58.6977 63.4995H43.0977V64.9995H58.6977V63.4995Z" fill="#233865"/>
<path d="M51.4975 117.7H35.8975V119.2H51.4975V117.7Z" fill="#233865"/>
<path d="M70.9969 126.5L61.3969 58.0996H47.4969L57.0969 126.3L55.5969 126.5L45.7969 56.5996H62.6969L72.4969 126.3L70.9969 126.5Z" fill="#233865"/>
<path d="M66.8969 95.2998H51.2969V96.7998H66.8969V95.2998Z" fill="#233865"/>
<path d="M65.1967 77.3994H49.5967V78.8994H65.1967V77.3994Z" fill="#233865"/>
<path d="M63.0971 63.1997H47.4971V64.6997H63.0971V63.1997Z" fill="#233865"/>
<path d="M70.2973 115.1H54.6973V116.6H70.2973V115.1Z" fill="#233865"/>
<path d="M44.0967 94.4996C44.1967 95.6996 44.7967 96.7996 45.7967 97.4996C46.3967 97.8996 47.0967 98.1996 47.6967 98.5996C48.1967 99.0996 48.5967 99.8996 48.1967 100.5H41.6967C41.4967 99.7996 41.0967 99.1996 40.6967 98.6996C40.1967 98.1996 39.4967 97.6996 39.2967 96.9996C39.0967 96.4996 39.2967 95.8996 39.4967 95.2996C39.6967 94.6996 39.8967 94.1996 40.0967 93.5996C40.1967 93.3996 40.2967 93.1996 40.3967 93.0996C40.5967 92.9996 40.6967 93.0996 40.8967 93.0996C41.9967 93.5996 42.9967 93.8996 44.0967 94.4996Z" fill="#233865"/>
<path d="M53.1965 47.0996C55.4965 52.9996 56.9965 59.2996 57.4965 65.6996C57.6965 68.1996 57.7965 70.6996 56.9965 73.0996C56.1965 75.6996 54.3965 77.9996 52.8965 80.2996C49.6965 84.9996 46.9965 90.0996 45.0965 95.3996C43.3965 95.1996 41.0965 93.8996 39.3965 93.6996C41.0965 86.9996 42.8965 82.5996 45.6965 78.0996C47.3965 75.3996 48.7965 74.3996 48.8965 71.2996C48.8965 69.3996 48.1965 67.4996 47.3965 65.6996C45.1965 60.3996 42.9965 55.0996 40.7965 49.8996C44.3965 49.1996 48.9965 46.5996 51.9965 44.5996L53.1965 47.0996Z" fill="#0093B7"/>
<path d="M43.1969 59.4C43.3969 58.8 43.9969 58.4 44.4969 58C46.4969 56.8 48.7969 56 51.0969 56C52.4969 59 53.3969 62.2 53.6969 65.5C51.4969 67.1 48.8969 68.4 46.2969 69.2C45.0969 66.8 44.0969 64.2 43.2969 61.7C43.0969 60.9 42.8969 60.1 43.1969 59.4Z" fill="#233865"/>
<path d="M50.2969 56.9998C50.7969 57.0998 51.2969 57.2998 51.7969 57.5998C53.0969 54.3998 53.5969 50.7998 53.2969 47.2998C52.9969 47.2998 52.7969 47.2998 52.4969 47.2998C52.3969 50.6998 51.6969 53.9998 50.2969 56.9998Z" fill="#233865"/>
<path d="M48.9969 59.9996C49.3835 59.9996 49.6969 59.6862 49.6969 59.2996C49.6969 58.913 49.3835 58.5996 48.9969 58.5996C48.6103 58.5996 48.2969 58.913 48.2969 59.2996C48.2969 59.6862 48.6103 59.9996 48.9969 59.9996Z" fill="#F96A57"/>
<path d="M44.8973 61.2999C45.2839 61.2999 45.5973 60.9865 45.5973 60.5999C45.5973 60.2133 45.2839 59.8999 44.8973 59.8999C44.5107 59.8999 44.1973 60.2133 44.1973 60.5999C44.1973 60.9865 44.5107 61.2999 44.8973 61.2999Z" fill="#F96A57"/>
<path d="M55.5967 47.5C56.2967 46.7 57.6967 45.1 57.7967 44.1C57.8967 43.5 57.6967 43 57.4967 42.5C56.2967 39.3 55.2967 38 54.0967 34.9C53.0967 32.1 51.7967 27.4 50.3967 24.8C49.5967 23.3 48.4967 21.8 46.8967 21C45.5967 20.4 44.0967 20.4 42.7967 20.7C41.3967 21 40.1967 21.7 38.9967 22.5C35.7967 24.6 32.9967 27.3 31.0967 30.5C36.2967 37.5 39.8967 47.6 42.7967 55.8C46.2967 57.1 51.8967 51.6 55.5967 47.5Z" fill="#F96A57"/>
<path d="M36.9963 31.1001C38.1963 32.6001 38.6963 34.6001 38.6963 36.5001C38.6963 38.4001 38.1963 40.3001 37.7963 42.2001C36.8963 40.5001 35.9963 38.7001 35.1963 37.0001C36.3963 35.3001 37.0963 33.2001 36.9963 31.1001Z" fill="#C9433D"/>
<path d="M44.5965 21.3998C44.0965 20.8998 43.2965 20.7998 42.5965 20.7998C41.1965 20.7998 39.7965 21.2998 38.4965 22.0998C37.0965 22.8998 35.8965 23.9998 34.9965 25.3998C34.7965 25.7998 34.4965 26.1998 34.4965 26.6998C34.3965 27.1998 34.4965 27.6998 34.7965 27.9998C35.0965 28.3998 35.5965 28.5998 36.0965 28.6998C38.0965 29.1998 40.2965 29.0998 42.0965 28.1998C43.8965 27.1998 45.1965 25.1998 45.0965 23.1998C45.1965 22.3998 44.9965 21.7998 44.5965 21.3998Z" fill="#C9433D"/>
<path d="M35.1974 27C35.3974 27.5 35.9974 27.8 36.4974 27.9C37.9974 28.2 39.6974 28 41.0974 27.3C42.4974 26.6 43.5974 25.3 43.9974 23.8C44.0974 23.3 44.1974 22.7 43.9974 22.2C43.7974 21.7 43.3974 21.2 42.8974 21.1C42.4974 21 41.9974 21.2 41.5974 21.3C39.3974 22.2 37.1974 23.5 35.6974 25.4C35.3974 25.9 34.9974 26.5 35.1974 27Z" fill="#D39D81"/>
<path d="M33.897 18.8998C33.797 19.0998 33.897 19.2998 33.897 19.3998C34.597 21.4998 35.397 23.5998 36.097 25.6998C38.597 25.5998 40.897 24.0998 42.097 21.7998C40.397 20.4998 38.897 18.6998 37.797 16.7998C36.597 17.3998 35.297 17.9998 34.097 18.4998C34.097 18.5998 33.997 18.6998 33.897 18.8998Z" fill="#D39D81"/>
<path d="M40.3967 20.0998C39.4967 19.0998 38.6967 17.9998 37.9967 16.7998C36.7967 17.3998 35.4967 17.9998 34.2967 18.4998C34.1967 18.4998 34.0967 18.5998 34.0967 18.6998C35.2967 20.5998 37.8967 21.3998 40.3967 20.0998Z" fill="#233865"/>
<path d="M39.1963 13.6997C39.5963 14.8997 39.9963 16.0997 40.3963 17.2997C40.4963 17.5997 40.5963 17.7997 40.4963 18.0997C40.3963 18.2997 40.2963 18.4997 40.0963 18.5997C39.1963 19.4997 37.8963 20.0997 36.4963 20.0997C35.0963 20.0997 33.7963 19.6997 32.7963 18.8997C31.8963 18.1997 31.3963 17.1997 30.9963 16.1997C30.5963 15.2997 30.2963 14.2997 30.4963 13.3997C30.6963 12.2997 31.4963 11.2997 32.4963 10.6997C33.4963 10.0997 34.6963 9.79971 35.9963 9.69971C36.6963 10.2997 37.5963 10.8997 37.6963 11.7997C37.6963 11.9997 37.6963 12.2997 37.7963 12.3997C37.9963 12.6997 38.4963 12.6997 38.7963 12.8997C39.0963 13.1997 39.1963 13.4997 39.1963 13.6997Z" fill="#D39D81"/>
<path d="M37.6967 8.5999C37.5967 8.7999 37.3967 8.8999 37.1967 8.8999C37.3967 8.3999 37.3967 7.8999 37.2967 7.3999C36.5967 7.9999 35.6967 8.2999 34.7967 8.3999C33.8967 8.5999 32.9967 8.6999 32.0967 9.0999C31.2967 9.4999 30.4967 10.1999 30.4967 11.1999C30.2967 11.0999 30.0967 11.1999 29.8967 11.2999C29.6967 11.3999 29.6967 11.5999 29.5967 11.7999C29.0967 13.1999 29.1967 14.8999 29.8967 16.1999C30.5967 17.5999 31.7967 18.5999 33.2967 19.0999C33.1967 18.4999 33.0967 17.7999 32.8967 17.1999C32.4967 17.0999 32.1967 16.9999 31.7967 16.7999C31.4967 16.5999 31.1967 16.2999 30.9967 15.9999C30.7967 15.6999 30.8967 15.1999 31.0967 14.8999C31.2967 14.5999 31.7967 14.4999 32.0967 14.6999C32.1967 14.8999 32.3967 15.0999 32.4967 15.2999C32.6967 15.3999 32.9967 15.4999 33.1967 15.3999C32.5967 14.6999 32.1967 13.8999 31.9967 12.9999C31.8967 12.6999 31.8967 12.3999 32.0967 12.1999C32.1967 11.9999 32.4967 11.9999 32.6967 11.8999C33.6967 11.6999 34.7967 11.3999 35.6967 10.8999C36.5967 10.3999 37.3967 9.5999 37.6967 8.5999Z" fill="#233865"/>
<path d="M41.7969 62.8002C41.8969 62.9002 41.9969 63.0002 42.0969 63.1002C42.2969 63.3002 42.3969 63.6002 42.6969 63.8002C42.8969 64.0002 43.2969 64.1002 43.5969 63.9002C43.3969 63.5002 43.1969 63.1002 43.0969 62.7002L41.7969 62.8002Z" fill="#D39D81"/>
<path d="M45.2965 63.9999C45.1965 63.4999 44.9965 62.9999 44.8965 62.4999C46.6965 62.3999 48.5965 62.2999 50.2965 61.8999C50.2965 62.0999 50.3965 62.0999 50.3965 62.2999C48.7965 62.7999 47.1965 63.3999 45.2965 63.9999Z" fill="#F96A57"/>
<path d="M45.6965 63.3998C45.8622 63.3998 45.9965 63.2655 45.9965 63.0998C45.9965 62.9341 45.8622 62.7998 45.6965 62.7998C45.5308 62.7998 45.3965 62.9341 45.3965 63.0998C45.3965 63.2655 45.5308 63.3998 45.6965 63.3998Z" fill="#233865"/>
<path d="M44.8967 63.5C43.3967 63.3 41.8967 63.5 40.3967 64C40.0967 64.1 39.6967 64.3 39.3967 64.2C38.9967 64.2 38.6967 63.8 38.7967 63.5C39.7967 63.1 40.8967 62.8 41.9967 62.8C43.0967 62.8 44.3967 63 44.9967 62C45.2967 62.4 44.9967 62.8 45.0967 63C45.1967 63.2 45.1967 63.5 44.9967 63.6C44.9967 63.6 44.9967 63.6 44.8967 63.5Z" fill="#0093B7"/>
<path d="M44.7964 63.2C43.4964 63.9 41.8964 64.2 40.4964 64.3C40.0964 64.3 39.7964 64.3 39.3964 64.5C39.0964 64.7 38.7964 65 38.9964 65.3C40.0964 65.3 41.1964 65.2 42.2964 64.8C43.3964 64.5 44.4964 63.9 45.3964 64.5C45.4964 64.1 45.1964 63.8 45.1964 63.6C45.1964 63.4 45.1964 63.1 44.9964 63.2C44.8964 63.2 44.7964 63.2 44.7964 63.2Z" fill="#0093B7"/>
<path d="M35.5969 40.5C35.5969 40.4 35.5969 40.4 35.5969 40.3C35.8969 38.9 36.6969 37.2 37.1969 35.9C37.6969 34.6 37.5969 32.2 37.1969 30.9C36.7969 29.5 35.4969 28.4 34.0969 28.5C33.0969 28.6 32.1969 29.2 31.5969 30.1C30.9969 30.9 30.6969 31.9 30.4969 32.9C29.8969 35 29.4969 37.2 29.2969 39.5C31.2969 40.3 33.4969 40.6 35.5969 40.5Z" fill="#F96A57"/>
<path d="M42.8971 62.2999C42.8971 62.1999 42.8971 62.1999 42.7971 62.0999L42.6971 61.9999C42.1971 61.6999 41.6971 61.1999 41.2971 60.6999C41.1971 60.5999 41.1971 60.4999 41.0971 60.4999C40.9971 60.3999 40.7971 60.3999 40.6971 60.3999C40.1971 60.2999 39.5971 60.1999 39.0971 59.9999C38.7971 59.8999 38.5971 59.7999 38.3971 59.5999C38.0971 59.3999 37.8971 59.0999 37.6971 58.8999C37.5971 58.7999 37.5971 58.6999 37.4971 58.5999C36.7971 56.2999 36.3971 54.3999 35.7971 51.9999C34.8971 47.9999 34.5971 45.0999 35.5971 40.4999C33.4971 40.5999 31.2971 40.3999 29.1971 39.3999C28.8971 42.2999 28.8971 45.2999 29.4971 48.1999C30.3971 53.0999 32.6971 57.5999 35.3971 61.6999C35.9971 62.9999 36.4971 64.2999 37.2971 65.4999C37.3971 65.5999 37.4971 65.6999 37.5971 65.7999C37.7971 65.8999 37.9971 65.8999 38.0971 65.9999C38.3971 66.0999 38.5971 66.2999 38.7971 66.2999C39.0971 66.3999 39.3971 66.3999 39.4971 66.1999L39.5971 66.0999C39.5971 66.0999 39.6971 66.0999 39.7971 66.0999C39.9971 66.0999 40.0971 66.1999 40.2971 66.1999C40.4971 66.1999 40.6971 66.0999 40.6971 65.9999C40.6971 65.8999 40.6971 65.8999 40.6971 65.7999C40.7971 65.5999 41.0971 65.6999 41.2971 65.6999C41.6971 65.6999 41.7971 65.0999 42.1971 64.8999C42.2971 64.7999 42.4971 64.7999 42.5971 64.6999C42.6971 64.5999 42.8971 64.4999 42.8971 64.3999C42.8971 64.1999 42.6971 64.0999 42.4971 63.9999C42.1971 63.7999 41.7971 63.6999 41.4971 63.3999C41.1971 63.1999 40.9971 62.7999 40.8971 62.4999C41.1971 62.5999 41.3971 62.6999 41.6971 62.8999H42.8971C42.9971 62.5999 42.9971 62.3999 42.8971 62.2999Z" fill="#D39D81"/>
<path d="M72.5973 12.8C74.7512 12.8 76.4973 11.0539 76.4973 8.9C76.4973 6.74609 74.7512 5 72.5973 5C70.4434 5 68.6973 6.74609 68.6973 8.9C68.6973 11.0539 70.4434 12.8 72.5973 12.8Z" fill="#F96A57"/>
<path d="M74.0971 3.5H70.9971V6.9H74.0971V3.5Z" fill="#F96A57"/>
<path d="M74.5971 0.600098H70.4971V4.0001H74.5971V0.600098Z" fill="#233865"/>
<path d="M137.697 0H35.6973V1H137.697V0Z" fill="#0093B7"/>
</svg>
