<svg width="148" height="148" viewBox="0 0 148 148" fill="none" xmlns="http://www.w3.org/2000/svg">
<path d="M137.439 68.095C135.739 60.695 136.439 53.195 135.139 45.695C134.139 39.695 131.039 34.595 126.439 30.795C119.139 24.695 110.939 24.195 102.239 22.695C92.5386 20.995 87.3386 14.195 80.0386 7.99505C66.3386 -3.50495 44.1386 -3.40495 34.2386 13.595C29.3386 22.095 28.9386 32.495 28.1386 42.095C27.7386 47.695 27.2386 53.2951 26.8386 58.8951C26.5386 63.095 26.7386 68.5951 23.1386 71.3951C19.9386 73.8951 15.3386 73.595 11.8386 75.695C8.43861 77.595 5.83861 80.695 3.83861 84.095C-0.861393 92.495 -0.661393 102.495 1.33861 111.795L145.939 111.695C148.539 96.495 140.739 82.395 137.439 68.095Z" fill="white"/>
<path d="M0.338867 107.895C0.538867 115.995 2.63887 127.095 9.33887 132.895C14.4389 137.295 23.5389 139.395 30.7389 139.695C37.9389 139.995 45.2389 139.295 52.4389 139.795C63.5389 140.595 71.3389 141.495 81.9389 144.295C92.6389 146.995 104.139 148.895 114.739 145.895C121.439 143.995 127.339 140.295 131.339 135.395C133.639 132.595 135.339 129.395 137.739 126.695C140.139 123.995 143.339 121.695 145.339 118.695C147.339 115.695 148.039 111.695 145.539 108.995L0.338867 107.895Z" fill="white"/>
<path fill-rule="evenodd" clip-rule="evenodd" d="M65.6391 123.266L64.7881 126.683H71.2906L69.655 123.266H65.6391Z" fill="#233865"/>
<path fill-rule="evenodd" clip-rule="evenodd" d="M71.2906 126.683C71.2906 127.282 68.8305 122.122 64.7881 126.683V128.212C66.8359 129.157 69.0167 129.064 71.2906 128.212V126.683Z" fill="#233865"/>
<path fill-rule="evenodd" clip-rule="evenodd" d="M71.2906 128.81C71.2906 128.81 67.6603 129.236 64.7881 128.81V127.281C64.7881 127.281 67.7268 128.957 71.2906 127.281V128.81Z" fill="#233865"/>
<path fill-rule="evenodd" clip-rule="evenodd" d="M59.0167 123.266L59.8677 126.683H53.3652L55.0008 123.266H59.0167Z" fill="#233865"/>
<path fill-rule="evenodd" clip-rule="evenodd" d="M53.3652 126.683C53.3652 127.282 55.8253 122.122 59.8677 126.683V128.212C57.8199 129.157 55.6391 129.064 53.3652 128.212V126.683Z" fill="#233865"/>
<path fill-rule="evenodd" clip-rule="evenodd" d="M53.3652 128.81C53.3652 128.81 56.9954 129.236 59.8677 128.81V127.281C59.8677 127.281 56.929 128.957 53.3652 127.281V128.81Z" fill="#233865"/>
<path fill-rule="evenodd" clip-rule="evenodd" d="M62.4219 66.0067V65.9801L73.153 65.5679C71.7568 85.8199 71.1717 104.968 70.1877 123.931H65.1612C65.0814 107.88 62.5549 76.8175 62.9007 72.6288C61.3448 90.9661 59.8821 108.306 59.2571 123.97L54.5498 123.877C53.7121 98.8116 53.2733 79.7031 52.6084 65.6344L62.4219 66.0067Z" fill="#0093B7"/>
<path fill-rule="evenodd" clip-rule="evenodd" d="M76.7822 46.4462C76.7556 46.4861 76.9417 46.8451 76.955 46.8983C77.1412 47.4036 77.3141 47.9089 77.447 48.4275C77.8726 50.0232 78.4577 51.8316 78.0321 53.4938C77.6731 54.9167 76.8753 55.8475 75.7583 56.6985C75.3992 56.9645 74.7477 57.1108 74.3088 57.1772C74.2822 57.1772 73.8434 57.1639 73.8434 57.1506C73.7636 56.898 73.8035 56.6054 73.7769 56.3528C73.6972 55.6347 73.3514 54.5709 73.6307 53.8795C73.8301 53.3875 74.7477 52.1508 74.7078 51.6721C74.6812 51.3529 74.4152 50.9806 74.3221 50.6615C74.0961 49.9567 73.9232 49.2519 73.6573 48.5605C73.5642 48.3078 73.1387 47.6828 73.1653 47.4302C73.1786 47.3105 73.9099 47.1243 74.003 47.0844C74.7211 46.8185 75.9577 46.2201 76.7556 46.4861L76.7822 46.4462Z" fill="#D39D81"/>
<path fill-rule="evenodd" clip-rule="evenodd" d="M49.6694 46.4462C49.696 46.4861 49.5099 46.8451 49.4966 46.8983C49.3104 47.4036 49.1375 47.9089 49.0046 48.4275C48.579 50.0232 47.9939 51.8316 48.4195 53.4938C48.7785 54.9167 49.5763 55.8475 50.6933 56.6985C51.0524 56.9645 51.7039 57.1108 52.1428 57.1772C52.1694 57.1772 52.6082 57.1639 52.6082 57.1506C52.688 56.898 52.6481 56.6054 52.6747 56.3528C52.7544 55.6347 53.1002 54.5709 52.8209 53.8795C52.6215 53.3875 51.7039 52.1508 51.7438 51.6721C51.7704 51.3529 52.0364 50.9806 52.1295 50.6615C52.3555 49.9567 52.5284 49.2519 52.7943 48.5605C52.8874 48.3078 53.3129 47.6828 53.2863 47.4302C53.273 47.3105 52.5417 47.1243 52.4486 47.0844C51.7305 46.8185 50.4939 46.2201 49.696 46.4861L49.6694 46.4462Z" fill="#D39D81"/>
<path fill-rule="evenodd" clip-rule="evenodd" d="M73.4449 35.4226C73.6843 35.2098 78.5644 41.6857 79.6149 44.8771C79.7213 45.4489 73.8571 48.3478 72.9795 47.7095L73.4449 35.4226Z" fill="#F96A57"/>
<path fill-rule="evenodd" clip-rule="evenodd" d="M53.1799 35.5956C52.9405 35.3828 48.0604 41.6593 47.0098 44.864C46.7439 45.5687 51.9432 48.0288 52.9538 47.3905L53.1799 35.5956Z" fill="#F96A57"/>
<path fill-rule="evenodd" clip-rule="evenodd" d="M73.5914 35.476C70.2803 33.9069 66.0916 32.8963 62.7938 32.9362C59.5227 32.9761 56.4509 34.0665 53.2063 35.5292C53.0468 35.609 52.9271 35.7686 52.9271 35.9547C52.8872 39.2126 52.4883 68.0283 52.4883 68.0283C58.2727 70.0761 69.8681 69.0522 73.1526 68.6267C73.5914 68.5602 73.3653 46.5129 73.5914 35.476Z" fill="#F96A57"/>
<path fill-rule="evenodd" clip-rule="evenodd" d="M65.2809 31.1144C65.2809 30.5825 64.9884 30.9017 64.6027 30.5293C64.2304 30.157 63.7118 29.9575 63.1799 29.9575C62.3023 29.9708 60.9991 29.798 61.1188 30.6623C61.3315 32.0851 61.1454 33.016 60.8794 33.0559C60.4539 33.1356 61.5044 38.8536 63.9246 37.5637C65.6665 36.6329 66.3181 33.4282 65.8926 33.016C65.7596 32.883 65.1878 32.8298 65.1745 31.9256L65.2809 31.1144Z" fill="#D39D81"/>
<path fill-rule="evenodd" clip-rule="evenodd" d="M56.7701 22.0453C56.7435 22.1251 56.7568 21.8725 56.7435 21.7927C56.7302 21.6464 56.7036 21.4869 56.6903 21.3406C56.6238 20.7821 56.5839 20.2236 56.6504 19.6651C56.8365 18.1093 57.7408 16.7662 59.0838 15.995C62.2752 14.1732 68.033 14.7051 69.1234 18.8274C69.4293 19.9842 69.4426 21.5666 69.0569 22.7102C69.017 22.8166 68.658 22.8432 68.5782 22.8432C68.0463 22.8964 67.5277 22.923 66.9958 22.923C66.0517 22.9097 65.1209 23.0959 64.1901 23.1889C62.9667 23.2953 61.7433 23.282 60.5199 23.3219C60.2673 23.3352 60.0013 23.3352 59.7487 23.3219C59.5359 23.3086 59.3099 23.2953 59.0971 23.2687C58.6849 23.2155 56.8764 22.8565 56.8764 22.1118L56.7701 22.0453Z" fill="#C9433D"/>
<path fill-rule="evenodd" clip-rule="evenodd" d="M67.7809 24.6117C67.9804 23.3085 70.2676 23.6011 70.0016 25.2499C69.8819 26.0079 68.4857 27.6036 67.7942 26.5531C67.4751 26.0611 67.7543 25.1436 67.9272 24.6383L67.7809 24.6117Z" fill="#D39D81"/>
<path fill-rule="evenodd" clip-rule="evenodd" d="M58.2197 24.5584C58.0202 23.2553 55.7331 23.5478 55.999 25.1967C56.1187 25.9547 57.5149 27.5504 58.2064 26.4999C58.5255 26.0079 58.2463 25.0903 58.0734 24.585L58.2197 24.5584Z" fill="#D39D81"/>
<path fill-rule="evenodd" clip-rule="evenodd" d="M57.2754 21.6333C57.2754 21.6333 57.5945 27.7235 59.0174 29.5719C60.4402 31.4202 62.7806 32.7234 63.5917 32.5239C64.4028 32.3378 67.0092 30.3697 67.6873 29.1198C68.2857 28.0294 68.9639 22.8566 68.9107 21.7131C68.9107 21.7264 62.6476 16.6467 57.2754 21.6333Z" fill="#D39D81"/>
<path fill-rule="evenodd" clip-rule="evenodd" d="M57.3953 23.7873C57.4352 23.774 57.4618 23.5746 57.4618 23.548C57.5416 23.2421 57.6479 22.9363 57.7676 22.6438C57.8873 22.3512 58.007 22.0587 58.1798 21.7927C58.2064 21.7528 58.3793 21.58 58.3793 21.5268C58.3793 21.4869 58.0203 21.5002 57.9937 21.5002C57.7809 21.5268 56.9299 21.6331 56.8368 21.8725C56.7703 22.0321 56.8767 22.3379 56.9166 22.4842C57.0362 22.923 57.1958 23.3618 57.3953 23.7873Z" fill="#233865"/>
<path fill-rule="evenodd" clip-rule="evenodd" d="M68.7516 23.947C68.7117 23.9337 68.6851 23.6944 68.6851 23.6678C68.6053 23.3087 68.4989 22.963 68.3793 22.6173C68.2596 22.2848 68.1399 21.9391 67.967 21.62C67.9404 21.5668 67.7676 21.3673 67.7676 21.3008C67.7676 21.2476 68.1399 21.2742 68.1532 21.2742C68.366 21.3008 69.2303 21.4338 69.3367 21.6997C69.4032 21.8859 69.2968 22.2316 69.2436 22.4045C69.1106 22.9497 68.9511 23.455 68.7516 23.947Z" fill="#233865"/>
<path fill-rule="evenodd" clip-rule="evenodd" d="M56.8232 21.8726C56.8232 21.8726 57.4881 22.5507 58.3525 22.6172C58.6051 22.6438 58.8844 22.5108 59.1237 22.431C59.5625 22.2715 60.0013 22.1119 60.4535 21.9656C61.73 21.5667 63.0731 21.3805 64.4161 21.5534C65.0677 21.6332 65.706 21.7928 66.3309 22.0188C66.8495 22.2183 67.3548 22.6571 67.9399 22.6305C68.4984 22.6039 68.9904 21.9922 69.3229 21.5933C69.3096 21.58 62.9933 16.3674 56.8232 21.8726Z" fill="#F96A57"/>
<path fill-rule="evenodd" clip-rule="evenodd" d="M63.8311 37.7098C63.8311 37.7098 65.1608 37.6433 65.6129 38.8002C65.6528 38.9066 67.6474 33.2552 65.3204 32.5371C65.5464 34.1727 65.1741 35.9147 63.8311 37.7098Z" fill="#C9433D"/>
<path fill-rule="evenodd" clip-rule="evenodd" d="M62.6476 37.7098C62.6476 37.7098 61.3179 37.6433 60.8658 38.8002C60.8259 38.9066 58.8313 33.2552 61.1583 32.5371C60.9456 34.1727 61.3179 35.9147 62.6476 37.7098Z" fill="#C9433D"/>
<path fill-rule="evenodd" clip-rule="evenodd" d="M74.0838 44.3984H51.9834V60.5815H74.0838V44.3984Z" fill="#077F93"/>
<path fill-rule="evenodd" clip-rule="evenodd" d="M75.2 55.116C75.2133 55.1027 75.2266 55.3686 75.2266 55.4085C75.2532 55.6878 75.2798 55.967 75.3064 56.2463C75.3729 56.9643 75.426 57.6691 75.426 58.3871C75.426 60.4483 73.6309 62.2567 71.849 61.0732C71.3171 60.7275 73.325 59.4509 73.591 59.318C73.6176 59.3047 73.6841 59.2914 73.6974 59.2781C73.7905 59.1717 73.6974 58.4004 73.724 58.2143C73.7373 58.0547 73.8569 57.2702 73.7506 57.1505C73.5378 56.9244 73.1123 56.9909 73.0325 56.5521C72.8995 55.8473 74.6282 54.9165 75.0936 54.9165L75.2 55.116Z" fill="#D39D81"/>
<path fill-rule="evenodd" clip-rule="evenodd" d="M50.9995 55.116C50.9862 55.1027 50.9729 55.3686 50.9729 55.4085C50.9463 55.6878 50.9197 55.967 50.8931 56.2463C50.8266 56.9643 50.7734 57.6691 50.7734 58.3871C50.7734 60.4483 52.5686 62.2567 54.3505 61.0732C54.8824 60.7275 52.8744 59.4509 52.6085 59.318C52.5819 59.3047 52.5154 59.2914 52.5021 59.2781C52.409 59.1717 52.5021 58.4004 52.4755 58.2143C52.4622 58.0547 52.3425 57.2702 52.4489 57.1505C52.6617 56.9244 53.0872 56.9909 53.167 56.5521C53.3 55.8473 51.5713 54.9165 51.1059 54.9165L50.9995 55.116Z" fill="#D39D81"/>
<path fill-rule="evenodd" clip-rule="evenodd" d="M74.0838 44.3986L71.7701 42.8428H53.9381L51.9834 44.3986H74.0838Z" fill="#233865"/>
<path d="M64.3372 44.4917H61.8506V50.8878H64.3372V44.4917Z" fill="#FEFCED"/>
<path d="M105.195 103.494L107.074 102.913V81.1073L105.195 79V103.494Z" fill="#233865"/>
<path d="M105.195 79H82.5801V103.509H105.195V79Z" fill="#077F93"/>
<path d="M95.9418 127.3L82 125.391V103.142H95.9418V127.3Z" fill="#233865"/>
<path d="M111.258 124.689L95.9414 127.3V103.142L111.258 102.684V124.689Z" fill="#077F93"/>
</svg>
