<svg width="148" height="148" viewBox="0 0 148 148" fill="none" xmlns="http://www.w3.org/2000/svg">
<path d="M137.439 68.095C135.739 60.695 136.439 53.195 135.139 45.695C134.139 39.695 131.039 34.595 126.439 30.795C119.139 24.695 110.939 24.195 102.239 22.695C92.5386 20.995 87.3386 14.195 80.0386 7.99505C66.3386 -3.50495 44.1386 -3.40495 34.2386 13.595C29.3386 22.095 28.9386 32.495 28.1386 42.095C27.7386 47.695 27.2386 53.2951 26.8386 58.8951C26.5386 63.095 26.7386 68.5951 23.1386 71.3951C19.9386 73.8951 15.3386 73.595 11.8386 75.695C8.43861 77.595 5.83861 80.695 3.83861 84.095C-0.861393 92.495 -0.661393 102.495 1.33861 111.795L145.939 111.695C148.539 96.495 140.739 82.395 137.439 68.095Z" fill="white"/>
<path d="M0.338867 107.895C0.538867 115.995 2.63887 127.095 9.33887 132.895C14.4389 137.295 23.5389 139.395 30.7389 139.695C37.9389 139.995 45.2389 139.295 52.4389 139.795C63.5389 140.595 71.3389 141.495 81.9389 144.295C92.6389 146.995 104.139 148.895 114.739 145.895C121.439 143.995 127.339 140.295 131.339 135.395C133.639 132.595 135.339 129.395 137.739 126.695C140.139 123.995 143.339 121.695 145.339 118.695C147.339 115.695 148.039 111.695 145.539 108.995L0.338867 107.895Z" fill="white"/>
<path d="M68.1998 10.2002H63.2998V117.1H68.1998V10.2002Z" fill="#AD685C"/>
<path d="M68.1998 16.9004H63.2998V23.4004H68.1998V16.9004Z" fill="#233865"/>
<path d="M91.6998 10.2002H86.7998V117.1H91.6998V10.2002Z" fill="#AD685C"/>
<path d="M91.6998 16.9004H86.7998V23.4004H91.6998V16.9004Z" fill="#233865"/>
<path d="M91.6998 32.6001H86.7998V39.1001H91.6998V32.6001Z" fill="#233865"/>
<path d="M114.3 11.4004H33V17.6004H114.3V11.4004Z" fill="#AD685C"/>
<path d="M58.4996 45.4001C58.4996 43.8001 58.0996 42.1001 57.1996 40.7001C55.1996 37.9001 51.2996 37.3001 48.5996 35.2001C46.7996 33.8001 45.6996 33.2001 44.5996 31.1001C44.5996 31.1001 38.8996 36.0001 38.4996 39.4001C37.9996 42.8001 38.5996 46.3001 38.9996 49.7001C39.4996 54.4001 39.7996 60.0001 39.8996 64.7001C45.4996 66.9001 51.6996 66.4001 57.5996 65.1001C56.7996 60.2001 57.1996 55.2001 57.9996 50.3001C58.1996 48.6001 58.4996 47.0001 58.4996 45.4001Z" fill="#F96A57"/>
<path d="M60.8997 36.0996C58.7997 37.8996 56.4997 39.5996 53.9997 40.9996C53.4997 41.2996 52.9997 41.5996 52.6997 42.0996C51.1997 44.7996 54.2997 49.6996 57.4997 48.0996C59.0997 47.2996 60.5997 44.1996 61.9997 42.8996C62.8997 42.0996 63.7997 41.1996 64.5997 40.1996C62.6997 39.4996 61.2997 38.1996 60.8997 36.0996Z" fill="#E25247"/>
<path d="M77.7998 20.1998C77.6998 20.1998 77.6998 20.1998 77.6998 20.2998C77.0998 20.7998 76.4998 21.3998 75.6998 21.3998C76.1998 20.4998 76.7998 19.5998 76.9998 18.5998C77.0998 18.1998 77.0998 17.8998 76.7998 17.6998C76.4998 17.5998 76.3998 18.4998 76.0998 18.9998C75.7998 19.4998 75.2998 20.0998 74.7998 20.3998C75.2998 18.9998 75.5998 17.7998 75.6998 16.3998C75.6998 16.2998 75.6998 16.1998 75.5998 16.0998C75.4998 15.9998 75.2998 16.1998 75.1998 16.2998C74.9998 16.5998 74.8998 16.9998 74.7998 17.2998C74.6998 17.8998 74.4998 18.3998 74.1998 18.8998C74.0998 19.1998 73.8998 19.5998 73.5998 19.5998C73.8998 18.5998 74.1998 17.2998 74.1998 16.2998C74.1998 16.0998 73.9998 15.8998 73.7998 15.7998C73.3998 16.0998 73.3998 16.6998 73.2998 17.0998C73.0998 18.0998 72.6998 19.0998 71.9998 19.8998C71.8998 19.9998 71.8998 20.0998 71.7998 20.0998C71.6998 20.0998 71.6998 20.0998 71.5998 19.9998C71.2998 19.7998 71.2998 19.2998 71.2998 18.8998C71.3998 18.4998 71.3998 17.9998 71.0998 17.7998C70.9998 17.6998 70.8998 17.6998 70.7998 17.6998C70.6998 17.6998 70.5998 17.6998 70.4998 17.6998C70.4998 17.6998 70.4998 17.7998 70.4998 17.8998C70.5998 18.2998 70.4998 18.7998 70.3998 19.1998C70.2998 19.5998 70.0998 19.8998 69.9998 20.2998C69.7998 21.3998 70.6998 22.3998 70.5998 23.4998C68.1998 28.2998 64.5998 32.7998 60.7998 36.0998C61.1998 38.1998 62.5998 39.4998 64.4998 40.1998C68.2998 35.9998 71.3998 30.2998 73.2998 24.7998C73.4998 24.5998 73.7998 24.3998 74.0998 24.1998C74.2998 23.9998 74.4998 23.6998 74.6998 23.3998C75.5998 22.2998 76.9998 21.8998 77.7998 20.7998C77.8998 20.6998 77.8998 20.5998 77.8998 20.4998C77.9998 20.2998 77.8998 20.1998 77.7998 20.1998Z" fill="#D39D81"/>
<path d="M54.2991 122.1C53.9991 121.3 54.3991 120.1 54.4991 119.3C54.6991 118.4 54.7991 117.8 54.6991 117C56.0991 117 58.3991 117 59.7991 117C59.5991 117.7 60.1991 118.5 60.8991 118.9C61.6991 119.3 62.5991 119.4 63.4991 119.6C64.3991 119.8 65.2991 120.1 65.8991 120.7C66.0991 120.9 66.1991 121.2 66.1991 121.4C66.1991 121.5 66.1991 122 66.0991 122.1H54.2991V122.1Z" fill="#233865"/>
<path d="M47.3992 64.3999C46.6992 74.4999 49.2992 84.3999 50.9992 94.3999C52.3992 102.4 53.1992 110.4 53.3992 118.5C55.6992 118.5 57.8992 118.2 60.0992 117.5C60.9992 99.7999 60.0992 81.8999 57.3992 64.3999H47.3992Z" fill="#077F93"/>
<path d="M43.0996 124.3C43.8996 124.3 44.7996 124.3 45.5996 124.2C46.0996 124.2 46.5996 124.1 46.8996 123.7C47.1996 123.4 47.0996 122.9 47.0996 122.5C47.0996 120.8 47.2996 119.3 46.5996 117.2C45.3996 117.3 44.1996 117.1 43.0996 116.7C43.3996 117.3 43.1996 117.9 42.8996 118.5C42.5996 119 42.0996 119.5 41.7996 120C41.3996 120.7 41.0996 121.5 41.0996 122.3C41.0996 122.8 41.1996 123.5 41.5996 123.8C41.8996 124.2 42.4996 124.2 43.0996 124.3Z" fill="#233865"/>
<path d="M40.0996 64.3999C41.8996 82.5999 42.2996 100.9 41.2996 119.1C43.8996 119.5 46.5996 119.5 49.1996 119C49.5996 100.8 53.0996 82.5999 51.5996 64.3999H40.0996Z" fill="#0093B7"/>
<path d="M52.4998 24.7001C51.3998 23.7001 49.6998 23.4001 48.2998 23.9001C46.8998 24.4001 45.7998 25.6001 45.2998 27.0001C44.7998 28.4001 44.7998 30.0001 45.2998 31.4001C45.5998 32.3001 46.0998 33.2001 46.8998 33.7001C48.1998 34.5001 49.8998 34.2001 51.0998 33.2001C52.2998 32.2001 52.8998 30.8001 53.1998 29.3001C53.4998 28.2001 53.5998 27.1001 53.1998 26.0001C52.8998 24.9001 51.9998 24.0001 50.8998 23.8001L52.4998 24.7001Z" fill="#E25247"/>
<path d="M52.8999 25.6001C51.9999 24.7001 50.4999 24.5001 49.2999 24.9001C48.0999 25.3001 47.0999 26.4001 46.6999 27.6001C46.1999 28.8001 46.2999 30.2001 46.6999 31.4001C46.9999 32.2001 47.3999 33.0001 48.0999 33.4001C49.1999 34.1001 50.6999 33.8001 51.6999 33.0001C52.6999 32.2001 53.2999 30.9001 53.5999 29.6001C53.7999 28.7001 53.8999 27.7001 53.5999 26.7001C53.2999 25.8001 52.5999 25.0001 51.5999 24.8001L52.8999 25.6001Z" fill="#233865"/>
<path d="M56.0994 29.8002C55.9994 29.0002 55.5994 28.1002 55.0994 27.4002C55.0994 27.3002 55.0994 27.1002 55.0994 27.0002C55.0994 26.8002 55.0994 26.6002 54.9994 26.4002C54.7994 26.1002 54.3994 26.2002 54.0994 26.2002C53.7994 26.2002 53.5994 26.2002 53.2994 26.3002C53.1994 26.3002 53.1994 26.2002 53.0994 26.2002C52.5994 25.9002 52.4994 25.5002 51.8994 25.3002C51.0994 25.0002 49.9994 24.9002 49.1994 25.2002C47.6994 25.8002 46.6994 28.3002 46.8994 29.9002C46.9994 30.7002 47.3994 31.3002 47.9994 31.8002C47.9994 33.5002 47.7994 35.2002 47.3994 36.9002C49.5994 37.8002 51.7994 38.7002 53.9994 39.6002C53.3994 38.1002 53.0994 36.5002 52.8994 34.9002C53.5994 34.6002 54.5994 33.8002 54.7994 33.6002C55.0994 33.3002 56.4994 32.7002 56.4994 32.2002C56.7994 31.3002 56.1994 30.7002 56.0994 29.8002Z" fill="#D39D81"/>
<path d="M48.8994 30.3002C48.3994 29.7002 47.8994 29.1002 47.5994 28.4002C47.4994 28.1002 47.3994 27.8002 47.3994 27.5002C47.3994 27.2002 47.4994 26.9002 47.7994 26.7002C48.4994 28.5002 49.7994 30.0002 51.3994 31.1002C52.9994 32.1002 54.7994 32.5002 56.7994 32.5002C56.6994 32.8002 56.4994 33.1002 56.1994 33.2002C55.8994 33.3002 55.5994 33.3002 55.2994 33.2002C52.8994 32.9002 50.4994 32.0002 48.8994 30.3002Z" fill="#233865"/>
<path d="M48.9998 30.2003C48.6998 31.0003 48.4998 32.2003 47.9998 33.0003C47.2998 32.1003 46.7998 30.7003 46.7998 29.5003C46.7998 28.3003 47.1998 27.2003 47.9998 26.3003C47.7998 27.0003 47.9998 27.4003 48.4998 28.0003C47.8998 28.0003 47.2998 29.0003 47.3998 29.6003C47.3998 30.2003 48.3998 30.4003 48.9998 30.2003Z" fill="#233865"/>
<path d="M58.4996 45.4001C58.4996 43.8001 58.0996 42.1001 57.1996 40.7001C55.1996 37.9001 51.2996 37.3001 48.5996 35.2001C46.7996 33.8001 45.6996 33.2001 44.5996 31.1001C44.5996 31.1001 38.8996 36.0001 38.4996 39.4001C37.9996 42.8001 38.5996 46.3001 38.9996 49.7001C39.4996 54.4001 39.7996 60.0001 39.8996 64.7001C45.4996 66.9001 51.6996 66.4001 57.5996 65.1001C56.7996 60.2001 57.1996 55.2001 57.9996 50.3001C58.1996 48.6001 58.4996 47.0001 58.4996 45.4001Z" fill="#F96A57"/>
<path d="M43.7998 49.9999C43.2998 50.3999 42.6998 50.6999 42.0998 50.5999C41.1998 50.3999 40.6998 49.3999 40.4998 48.5999C39.7998 46.1999 39.4998 43.6999 39.5998 41.2999C39.6998 38.3999 40.5998 35.2999 42.8998 33.4999C43.4998 32.9999 44.2998 32.6999 44.9998 33.0999C45.3998 33.2999 45.6998 33.7999 45.8998 34.2999C47.0998 36.8999 47.7998 39.7999 47.5998 42.6999C47.3998 45.3999 46.0998 48.2999 43.7998 49.9999Z" fill="#E25247"/>
<path d="M57.9996 50.4C52.1996 48.9 46.4996 48.9 42.7996 55.3C42.2996 55.8 40.7996 56.4 39.5996 56.1C39.7996 59 39.8996 62 39.8996 64.7C45.4996 66.9 51.6996 66.4 57.5996 65.1C56.7996 60.2 57.3996 58.4 57.7996 53C57.6996 52.8 57.8996 50.7 57.9996 50.4Z" fill="#0093B7"/>
<path d="M48.7992 36.7999C48.6992 36.2999 48.5992 35.6999 48.2992 35.2999C47.8992 34.4999 46.9992 33.8999 46.1992 33.3999C47.4992 36.4999 47.9992 39.7999 48.1992 43.1999C48.3992 46.4999 48.0992 49.8999 47.7992 53.1999C48.4992 53.1999 49.1992 53.0999 49.8992 53.0999C50.1992 47.4999 49.8992 42.0999 48.7992 36.7999Z" fill="#0093B7"/>
<path d="M57.4998 44.7C57.4998 43.6 57.4998 42.5 57.1998 41.5C56.8998 40.5 56.2998 39.4 55.2998 39C56.4998 43 56.7998 47.3 56.0998 51.3C56.4998 51.3 56.9998 51.5 57.3998 51.7C57.4998 49.3 57.4998 47 57.4998 44.7Z" fill="#0093B7"/>
<path d="M39.3995 30.5C38.8995 32.8 38.6995 35.1 38.4995 37.4C38.3995 38.8 38.3995 40.3 38.8995 41.7C39.3995 43.1 40.4995 44.3 41.8995 44.5C43.4995 44.8 45.0995 43.7 45.8995 42.3C46.6995 40.9 46.7995 39.2 46.5995 37.6C46.3995 36 46.0995 34.4 45.9995 32.8C45.9995 32.2 45.9995 31.7 45.9995 31.1C43.8995 32.1 41.3995 32.3 39.3995 30.5Z" fill="#F96A57"/>
<path d="M55.6994 10.2C55.5994 10.1 55.3994 10.1 55.1994 10.1C55.0994 10.1 55.0994 10.1 54.9994 10.1C54.6994 10 54.6994 9.6 54.4994 9.5C54.1994 9.3 53.8994 9.6 53.5994 9.5C53.1994 9.5 53.0994 9 52.7994 9C52.4994 9 52.2994 9.4 51.9994 9.4C51.6994 9.4 51.4994 9 51.1994 9.1C51.0994 9.1 50.9994 9.2 50.8994 9.3C50.3994 9.8 49.7994 10.3 49.2994 10.8C48.9994 11.1 48.6994 11.3 48.5994 11.7C48.4994 12 48.4994 12.4 48.2994 12.7C48.1994 12.8 48.1994 13 48.0994 13.1C47.6994 13.6 47.3994 14.2 46.9994 14.7C44.2994 17.7 42.1994 21.2 40.8994 25C40.2994 26.8 39.7994 28.6 39.3994 30.4C41.3994 32.2 43.8994 32 45.9994 30.9C46.0994 28.7 46.6994 26.5 47.2994 24.4C47.9994 22 48.8994 19.2 50.1994 16.9C50.4994 16.4 50.7994 15.9 51.1994 15.5C51.1994 15.4 51.2994 15.4 51.3994 15.3C51.4994 15.3 51.6994 14.9 51.7994 14.9C52.0994 14.9 52.3994 14.8 52.6994 14.8C52.9994 14.8 53.3994 14.7 53.5994 14.5C53.8994 14.2 54.8994 11.5 55.3994 11.4C55.6994 11.3 55.6994 11.5 55.8994 11C55.8994 10.8 55.8994 10.4 55.6994 10.2Z" fill="#D39D81"/>
<path d="M105.6 102.2H73.2998V119.6H105.6V102.2Z" fill="#233865"/>
<path d="M100.901 79.2998H97.8008V92.3998C98.4008 92.3998 98.9008 92.8998 98.9008 93.4998V105H99.8008V93.4998C99.8008 92.8998 100.301 92.3998 100.901 92.3998V79.2998Z" fill="#233865"/>
<path d="M101.101 96.6997C101.101 96.9997 100.901 97.1997 100.601 97.1997H98.1006C97.8006 97.1997 97.6006 96.9997 97.6006 96.6997C97.6006 96.3997 97.8006 96.1997 98.1006 96.1997H100.601C100.901 96.1997 101.101 96.3997 101.101 96.6997Z" fill="#F96A57"/>
<path d="M100.801 97.0996H98.101C98.501 99.2996 98.201 101.5 98.001 103.7C97.801 105.9 97.801 108.3 98.801 110.2H100.201C101.201 108.2 101.201 105.9 101.001 103.7C100.701 101.5 100.301 99.1996 100.801 97.0996Z" fill="#F96A57"/>
<path d="M90.5998 83.1997L89.2998 83.7997L92.1998 96.2997C92.7998 96.0997 93.2998 96.3997 93.4998 96.9997L96.7998 108L97.6998 107.7L94.3998 96.6997C94.1998 96.0997 94.4998 95.5997 95.0998 95.3997L90.5998 83.1997Z" fill="#233865"/>
<path d="M96.4994 99.4999C96.5994 99.7999 96.3995 99.9999 96.1995 100.1L93.7994 100.8C93.4994 100.9 93.2995 100.7 93.1995 100.5C93.0995 100.2 93.2994 99.9999 93.4994 99.8999L95.8994 99.1999C96.1994 99.0999 96.4994 99.2999 96.4994 99.4999Z" fill="#F96A57"/>
<path d="M96.2992 100L93.6992 100.8C94.6992 102.8 94.9992 105 95.4992 107.2C95.8992 109.4 96.5992 111.6 98.1992 113.2L99.4992 112.8C99.8992 110.6 99.1992 108.4 98.3992 106.3C97.4992 104.2 96.4992 102.2 96.2992 100Z" fill="#F96A57"/>
<path d="M74.1 78.2998L71 78.8998L71.5 107L80.8 110L74.1 78.2998ZM71.6 79.8998C71.4 79.8998 71.3 79.7998 71.3 79.5998C71.3 79.3998 71.4 79.2998 71.6 79.2998C71.8 79.2998 71.9 79.3998 71.9 79.5998C71.9 79.7998 71.8 79.8998 71.6 79.8998Z" fill="#F96A57"/>
<path d="M80.8002 110L74.1002 78.2998L73.7002 78.3998L79.9002 109.7L80.8002 110Z" fill="#233865"/>
<path d="M80.2002 111.6L77.9002 110.3C77.6002 110.2 77.5002 109.9 77.4002 109.6L76.9002 107.7L72.1002 106.8L71.7002 107.9L72.0002 115.6C72.0002 116 72.3002 116.3 72.7002 116.3H80.1002C80.5002 116.3 80.8002 116 80.8002 115.6L80.7002 112.3C80.7002 112.1 80.5002 111.8 80.2002 111.6ZM78.4002 114.9H73.7002C73.2002 114.9 72.8002 114.5 72.8002 114C72.8002 113.5 73.2002 113.1 73.7002 113.1H78.4002C78.9002 113.1 79.3002 113.5 79.3002 114C79.3002 114.5 78.8002 114.9 78.4002 114.9Z" fill="#233865"/>
<path d="M81.3 90.4995H79V114.3H81.3V90.4995Z" fill="#F96A57"/>
<path d="M74.5998 91.5997C75.1998 91.6997 75.7998 91.7997 76.3998 91.7997C76.3998 90.9997 77.3998 90.4997 78.0998 90.7997C78.5998 90.9997 78.7998 91.4997 79.2998 91.7997C80.0998 92.2997 81.0998 91.8997 81.8998 91.3997C82.6998 90.9997 83.5998 90.4997 84.4998 90.7997C84.6998 90.8997 84.9998 90.9997 85.1998 91.0997C85.4998 91.1997 85.7998 91.0997 85.7998 90.7997C85.8998 90.5997 85.6998 90.3997 85.5998 90.1997C84.8998 89.1997 83.7998 88.4997 82.5998 88.0997C81.3998 87.6997 80.1998 87.6997 78.8998 87.7997C78.5998 87.7997 78.1998 87.8997 77.8998 87.9997C77.6998 88.0997 77.3998 88.2997 77.1998 88.3997C76.9998 88.4997 76.6998 88.5997 76.3998 88.5997C76.0998 88.4997 76.1998 88.2997 75.9998 87.9997C75.3998 88.0997 74.8998 88.1997 74.2998 88.1997C74.4998 89.3997 74.4998 90.4997 74.5998 91.5997Z" fill="#233865"/>
<path d="M80.2994 90.6999C80.7965 90.6999 81.1994 90.297 81.1994 89.7999C81.1994 89.3028 80.7965 88.8999 80.2994 88.8999C79.8024 88.8999 79.3994 89.3028 79.3994 89.7999C79.3994 90.297 79.8024 90.6999 80.2994 90.6999Z" fill="#F96A57"/>
<path d="M102 102.2H69.7002V119.6H102V102.2Z" fill="#077F93"/>
</svg>
