<svg width="148" height="148" viewBox="0 0 148 148" fill="none" xmlns="http://www.w3.org/2000/svg">
<path d="M137.439 68.095C135.739 60.695 136.439 53.195 135.139 45.695C134.139 39.695 131.039 34.595 126.439 30.795C119.139 24.695 110.939 24.195 102.239 22.695C92.5386 20.995 87.3386 14.195 80.0386 7.99505C66.3386 -3.50495 44.1386 -3.40495 34.2386 13.595C29.3386 22.095 28.9386 32.495 28.1386 42.095C27.7386 47.695 27.2386 53.2951 26.8386 58.8951C26.5386 63.095 26.7386 68.5951 23.1386 71.3951C19.9386 73.8951 15.3386 73.595 11.8386 75.695C8.43861 77.595 5.83861 80.695 3.83861 84.095C-0.861393 92.495 -0.661393 102.495 1.33861 111.795L145.939 111.695C148.539 96.495 140.739 82.395 137.439 68.095Z" fill="white"/>
<path d="M0.338867 107.895C0.538867 115.995 2.63887 127.095 9.33887 132.895C14.4389 137.295 23.5389 139.395 30.7389 139.695C37.9389 139.995 45.2389 139.295 52.4389 139.795C63.5389 140.595 71.3389 141.495 81.9389 144.295C92.6389 146.995 104.139 148.895 114.739 145.895C121.439 143.995 127.339 140.295 131.339 135.395C133.639 132.595 135.339 129.395 137.739 126.695C140.139 123.995 143.339 121.695 145.339 118.695C147.339 115.695 148.039 111.695 145.539 108.995L0.338867 107.895Z" fill="white"/>
<path d="M61.5061 37.5396C63.1648 35.7483 65.2989 34.2633 67.7424 33.7345C73.0165 41.0852 76.3914 48.6423 79.2381 57.5415C79.756 58.0434 80.1973 58.6641 80.7917 59.047C80.9106 59.1236 81.0295 59.2002 81.1695 59.3745C81.2884 59.4511 81.3307 59.6465 81.373 59.842C81.4576 60.233 81.64 60.6028 81.8223 60.9726C81.9835 61.2446 82.1447 61.5167 82.187 61.7122C82.2293 61.9076 82.2716 62.1031 82.3139 62.2986C82.4066 63.1994 82.6181 64.1768 82.7107 65.0775C82.4387 65.2387 82.1031 65.1067 81.8654 64.9535C81.6064 64.7026 81.543 64.4094 81.4795 64.1162C81.4161 63.823 81.4503 63.5086 81.3869 63.2154C81.26 62.629 81.0353 62.0637 80.7341 61.6173C80.5729 61.3453 80.2928 60.9966 80.055 60.8435C79.7961 60.5926 79.3629 60.4817 78.9719 60.5663C78.581 60.6509 78.33 60.9098 78.3169 61.3219C78.2826 61.6363 78.5627 61.985 78.6262 62.2782C78.9697 62.92 78.8457 63.7654 78.4628 64.3598C78.3862 64.4787 78.2119 64.6187 78.0164 64.6611C77.9187 64.6822 77.6809 64.529 77.6597 64.4313C77.6386 64.3336 77.5963 64.1381 77.5751 64.0404C77.5671 63.5305 77.4402 62.9441 77.3344 62.4554C77.1309 61.9879 76.7531 61.6604 76.5496 61.1928C76.465 60.8019 76.3038 60.5298 76.1981 60.0411C76.1346 59.7479 75.6933 59.1272 76.0682 58.0229C73.592 52.7269 70.63 48.9684 67.401 44.4491C65.2792 41.7365 63.3821 39.5892 61.5061 37.5396Z" fill="#D39D81"/>
<path d="M61.8984 27.2396C61.9984 26.9396 61.9984 26.6396 61.8984 26.3396C61.3984 24.4396 61.2984 22.4396 61.2984 20.4396C59.6984 20.7396 57.0984 20.1396 55.5984 19.5396C55.7984 22.1396 55.3984 24.3396 54.3984 26.3396C56.2984 27.7396 58.8984 28.2396 61.1984 27.7396C61.3984 27.6396 61.6984 27.5396 61.8984 27.2396Z" fill="#D39D81"/>
<path d="M61.4988 24.4396C61.2988 23.1396 61.2988 21.7396 61.1988 20.4396C59.5988 20.7396 57.2988 20.1396 55.7988 19.6396C56.0988 23.2396 57.7988 25.6396 61.4988 24.4396Z" fill="#233865"/>
<path d="M60.4981 23.7392C59.6981 23.7392 58.8981 23.6392 58.1981 23.3392C57.1981 22.8392 56.2981 22.0392 55.6981 21.0392C54.9981 19.7392 54.6981 18.2392 54.5981 16.7392C54.4981 15.5392 54.4981 14.2392 55.1981 13.2392C55.7981 12.4392 56.6981 12.0392 57.5981 11.7392C59.1981 11.2392 60.9981 11.2392 62.5981 11.5392C62.9981 11.6392 63.4981 11.8392 63.7981 12.1392C64.1981 12.6392 64.1981 14.3392 64.0981 14.9392C63.6981 16.8392 64.1981 16.4392 64.1981 17.7392C64.0981 19.2392 63.5981 20.8392 62.6981 22.0392C62.1981 22.8392 62.5981 23.6392 60.4981 23.7392Z" fill="#D39D81"/>
<path d="M54.8985 17.1394C54.8985 18.1394 54.9985 19.7394 55.4985 20.6394C54.6985 20.3394 54.3985 18.9394 54.1985 18.0394C53.9985 17.2394 54.0985 16.3394 54.1985 15.4394C54.1985 15.2394 54.2985 14.9394 54.3985 14.7394C54.4985 14.6394 54.6985 14.5394 54.8985 14.4394C55.4985 14.2394 56.0985 14.0394 56.6985 13.8394C56.5985 14.9394 56.2985 16.0394 55.8985 17.0394C55.8985 16.8394 55.7985 16.6394 55.6985 16.4394C55.5985 16.2394 55.3985 16.1394 55.1985 16.2394C54.8985 16.5394 54.8985 16.8394 54.8985 17.1394Z" fill="#233865"/>
<path d="M61.498 9.13939C60.198 8.93939 58.798 8.93939 57.398 9.23939C56.598 9.33939 55.698 9.63939 55.098 10.1394C54.398 10.7394 54.098 11.7394 54.098 12.7394C53.998 13.6394 54.098 14.6394 53.998 15.5394C57.498 14.6394 60.998 13.7394 64.598 14.2394C64.298 13.5394 64.598 12.4394 64.498 11.7394C64.398 10.9394 63.898 10.4394 63.398 9.93939C62.898 9.33939 62.198 9.23939 61.498 9.13939Z" fill="#C9433D"/>
<path d="M64.9984 15.5392C65.1984 15.6392 65.2984 15.7392 65.4984 15.7392C65.6984 15.7392 65.8984 15.6392 65.9984 15.5392C65.9984 15.4392 65.9984 15.2392 65.8984 15.1392C65.1984 14.0392 63.9984 13.4392 62.6984 13.2392C61.3984 13.0392 60.0984 13.2392 58.8984 13.5392C57.9984 13.7392 57.1984 14.0392 56.3984 14.5392C57.1984 15.0392 57.8984 15.5392 58.7984 15.9392C59.5984 16.2392 60.5984 16.4392 61.4984 16.2392C62.0984 16.1392 62.6984 15.8392 63.2984 15.6392C63.7984 15.4392 64.3984 15.2392 64.9984 15.5392Z" fill="#F96A57"/>
<path d="M61.8987 120.54C61.5987 119.74 61.9987 118.44 62.0987 117.54C62.2987 116.54 62.3987 115.94 62.2987 115.14C63.7987 115.14 66.1987 115.14 67.6987 115.14C67.3987 115.94 68.0987 116.74 68.8987 117.14C69.6987 117.54 70.6987 117.74 71.6987 117.94C72.6987 118.14 73.5987 118.44 74.1987 119.04C74.3987 119.24 74.5987 119.54 74.5987 119.84C74.5987 119.94 74.5987 120.44 74.4987 120.54H61.8987Z" fill="#233865"/>
<path d="M53.3984 60.0396C54.2984 78.9396 62.7984 97.2396 61.5984 116.24C63.6984 116.14 65.8984 116.04 67.9984 115.84C68.7984 97.2395 67.8984 78.5396 65.4984 60.0396H53.3984V60.0396Z" fill="#077F93"/>
<path d="M50.8987 117.04C50.0987 116.64 49.3987 115.84 49.6987 115.04C48.1987 115.04 45.7987 115.04 44.2987 115.04C44.3987 115.94 44.2987 116.54 44.0987 117.44C43.8987 118.24 43.4987 119.64 43.8987 120.44H53.5987C53.2987 119.34 52.7987 118.24 51.9987 117.44C51.5987 117.44 51.1987 117.24 50.8987 117.04Z" fill="#233865"/>
<path d="M48.0985 60.0396C47.9985 60.0396 47.9985 60.0395 47.8985 60.1395C47.4985 60.4395 47.3985 60.9396 47.3985 61.3396C46.2985 69.4396 47.1985 77.7396 46.6985 85.9396C46.0985 95.7396 43.4985 105.44 43.5985 115.34C45.6985 115.74 47.8985 115.84 50.0985 115.64C54.8985 97.3396 58.4985 78.7396 60.8985 60.0396H48.0985V60.0396Z" fill="#0093B7"/>
<path d="M51.4981 25.9393C56.0981 24.8393 61.0981 25.0393 65.5981 26.5393C66.5981 26.8393 67.6981 27.3393 68.0981 28.3393C68.2981 29.0393 68.1981 29.7393 67.9981 30.4393C65.5981 40.6393 65.2981 51.3393 67.3981 61.6393C60.7981 63.6393 53.6981 64.2393 46.7981 63.2393C46.8981 56.6393 46.7981 50.1393 46.3981 43.5393C46.1981 39.0393 45.7981 34.3393 47.0981 30.0393C47.4981 28.8393 47.9981 27.6393 48.8981 26.9393C49.5981 26.4393 50.4981 26.1393 51.4981 25.9393Z" fill="#F96A57"/>
<path d="M59.5977 25.4395C57.8977 25.2395 55.9977 25.1395 54.3977 25.7395C53.8977 25.9395 53.3977 26.2395 53.1977 26.7395C52.9977 27.2395 53.0977 27.8395 53.4977 28.2395C53.7977 28.6395 54.2977 28.9395 54.7977 29.2395C55.8977 29.8395 57.0977 30.2395 58.3977 30.2395C59.6977 30.2395 60.8977 29.9395 61.8977 29.2395C62.4977 28.8395 62.9977 28.2395 63.1977 27.6395C63.2977 27.2395 63.2977 26.7395 63.0977 26.3395C62.8977 26.1395 62.5977 25.9395 62.2977 25.8395C61.3977 25.6395 60.4977 25.5395 59.5977 25.4395Z" fill="#C9433D"/>
<path d="M46.0977 38.4391C46.1977 38.0391 46.3977 37.6391 46.5977 37.3391C47.6977 35.5391 48.8977 33.8391 49.9977 32.0391C50.7977 36.9391 49.6977 42.2391 46.9977 46.4391C46.6977 44.1391 46.3977 41.7391 46.0977 39.4391C46.0977 39.1391 46.0977 38.8391 46.0977 38.4391Z" fill="#C9433D"/>
<path d="M50.0002 26.3394C48.1002 26.6394 46.1002 28.4394 44.8002 29.8394C43.5002 31.2394 42.2002 33.6394 41.4002 35.3394C41.0002 36.2394 40.6002 37.0394 40.2002 37.8394C42.8002 37.8394 45.2002 38.8394 47.3002 40.3394C48.0002 39.0394 48.7002 37.6394 49.4002 36.1394C50.7002 33.2394 51.2002 29.3394 50.0002 26.3394Z" fill="#F96A57"/>
<path d="M33 65.6393C32.7 66.2393 32.5 66.7393 32.2 67.3393C32.1 67.5393 32.1 67.6393 32 67.8393C32 68.1393 32.1 68.3393 32.2 68.6393C32.6 69.5393 33.1 70.5393 33.5 71.4393C33.8 71.1393 33.9 70.6393 33.8 70.2393C33.7 69.7393 33.3 69.4393 33.2 68.9393C33.1 68.5393 33.2 68.1393 33.3 67.7393C33.4 67.2393 33.6 66.8393 33.7 66.3393C33.8 66.1393 33.8 66.0393 33.8 65.8393C33.8 65.6393 33.6 65.5393 33.4 65.6393H33Z" fill="#D39D81"/>
<path d="M32.9004 68.4397C33.4004 68.8397 33.8004 69.3397 34.1004 69.9397C34.4004 69.6397 34.4004 69.1397 34.3004 68.8397C34.2004 68.4397 34.0004 68.1397 33.8004 67.7397C33.6004 67.4397 33.4004 67.0396 33.5004 66.6396C33.2004 66.9396 33.0004 67.2396 32.9004 67.5396V68.4397Z" fill="#D39D81"/>
<path d="M47.3002 39.9396C45.3002 38.5396 42.9002 37.5396 40.4002 37.5396C36.8002 45.8396 35.1002 53.9396 34.2002 63.2396C33.8002 63.8396 33.5002 64.5396 33.0002 65.0396C32.9002 65.1396 32.8002 65.2396 32.7002 65.4396C32.6002 65.5396 32.6002 65.7396 32.6002 65.9396C32.6002 66.3396 32.5002 66.7395 32.4002 67.1395C32.3002 67.4395 32.2002 67.7396 32.2002 67.9396C32.2002 68.1396 32.2002 68.3396 32.2002 68.5396C32.3002 69.4396 32.3002 70.4396 32.4002 71.3396C32.7002 71.4396 33.0002 71.2396 33.2002 71.0396C33.4002 70.7396 33.4002 70.4395 33.4002 70.1395C33.4002 69.8395 33.3002 69.5396 33.3002 69.2396C33.3002 68.6396 33.4002 68.0396 33.6002 67.5396C33.7002 67.2396 33.9002 66.8395 34.1002 66.6395C34.3002 66.3395 34.7002 66.1395 35.1002 66.1395C35.5002 66.1395 35.8002 66.3396 35.9002 66.7396C36.0002 67.0396 35.8002 67.4396 35.8002 67.7396C35.6002 68.4396 35.9002 69.2396 36.4002 69.7396C36.5002 69.8396 36.7002 69.9396 36.9002 69.9396C37.0002 69.9396 37.2002 69.7395 37.2002 69.6395C37.2002 69.5395 37.2002 69.3396 37.2002 69.2396C37.1002 68.7396 37.1002 68.1395 37.1002 67.6395C37.2002 67.1395 37.5002 66.7396 37.6002 66.2396C37.6002 65.8396 37.7002 65.5396 37.7002 65.0396C37.7002 64.7396 38.0002 64.0396 37.4002 63.0396C38.7002 57.3396 40.8002 53.0396 43.0002 47.9396C44.5002 44.8396 45.9002 42.3396 47.3002 39.9396Z" fill="#D39D81"/>
<path d="M72.2981 39.0393C71.7981 38.0393 71.2981 36.9393 70.8981 35.8393C69.8981 32.8393 68.9981 29.6393 66.7981 27.2393C64.9981 29.0393 63.9981 31.6393 63.8981 34.2393C63.7981 36.8393 64.4981 39.3393 65.5981 41.6393C65.8981 42.1393 66.0981 42.6393 66.3981 43.1393C68.7981 42.1393 70.6981 40.7393 72.2981 39.0393Z" fill="#F96A57"/>
<path d="M71.2816 111.226L89.8408 111.125L89.7094 105.054L71.1502 105.154L71.2816 111.226Z" fill="#233865"/>
<path d="M70.501 107.712L90.4521 107.604L90.3969 105.05L70.4457 105.158L70.501 107.712Z" fill="#C9433D"/>
<path d="M75.7852 105.958L84.8828 105.958L84.8572 104.646C84.8479 104.246 84.6386 103.851 84.2341 103.66L82.4136 102.803C81.7045 102.419 81.186 51.6308 81.1674 50.831L81.3718 42.424C81.3555 41.7242 80.8416 41.136 80.0419 41.1546C79.3421 41.1709 78.7562 41.7847 78.7725 42.4845L79.3679 50.8729C79.3865 51.6727 79.0052 102.482 78.2147 102.9L76.3385 103.944C75.9433 104.153 75.7527 104.558 75.762 104.958L75.7852 105.958Z" fill="#F96A57"/>
<path d="M46.4984 58.4396C47.5984 58.2396 48.3984 57.3396 48.7984 56.3396C49.1984 55.3396 49.2984 54.2395 49.3984 53.1395C49.5984 49.9395 49.8984 46.7396 50.0984 43.5396C55.1984 43.6396 60.2984 43.3396 65.3984 42.5396C64.7984 45.9396 65.2984 49.3396 65.8984 52.7396C66.4984 56.1396 67.2984 59.4396 67.3984 62.8396C60.3984 64.3396 53.0984 64.7396 45.8984 64.0396C46.3984 62.1396 46.5984 60.3396 46.4984 58.4396Z" fill="#0093B7"/>
<path d="M51.0988 44.6395C51.6988 44.6395 52.2988 44.6395 52.9988 44.6395C53.0988 41.4395 53.1988 38.3395 52.9988 35.1395C52.6988 32.0395 52.1988 28.9395 51.0988 25.9395C50.6988 26.0395 50.2988 26.1395 49.7988 26.2395C51.6988 32.1395 51.3988 38.5395 51.0988 44.6395Z" fill="#0093B7"/>
<path d="M64.8986 43.9396C65.4986 41.0396 65.4986 38.0396 65.4986 35.0396C65.4986 32.2396 65.4986 29.3396 65.4986 26.5396C65.0986 26.4396 64.7986 26.2396 64.3986 26.1396C64.2986 32.2396 63.9986 38.2396 63.5986 44.3396C63.8986 43.9396 64.3986 43.8396 64.8986 43.9396Z" fill="#0093B7"/>
<path d="M114.973 90.8393C114.973 90.2393 110.773 89.7393 105.573 89.7393C100.373 89.7393 96.1729 90.2393 96.1729 90.8393C96.1729 91.0393 96.1729 114.639 96.1729 114.839C96.1729 115.439 100.373 115.939 105.573 115.939C110.773 115.939 114.973 115.439 114.973 114.839C114.973 114.639 114.973 91.0393 114.973 90.8393Z" fill="#077F93"/>
<path d="M105.673 91.9394C110.478 91.9394 114.373 91.5812 114.373 91.1394C114.373 90.6975 110.478 90.3394 105.673 90.3394C100.868 90.3394 96.9727 90.6975 96.9727 91.1394C96.9727 91.5812 100.868 91.9394 105.673 91.9394Z" fill="#233865"/>
<path d="M106.773 93.2393L106.473 94.0393C105.473 97.0393 104.873 98.9393 103.473 101.639C101.773 104.839 99.473 107.339 96.873 108.939C96.473 109.139 96.073 109.439 95.673 109.339C95.373 109.239 95.173 109.039 95.073 108.639C94.973 108.239 94.973 107.839 95.073 107.339C95.273 105.939 95.573 104.639 96.173 103.439V101.239C95.273 102.939 94.373 105.339 94.073 107.239C93.973 107.739 93.973 108.339 94.073 108.939C94.273 109.639 94.773 110.139 95.373 110.339C95.473 110.339 95.673 110.439 95.773 110.439C96.373 110.439 96.873 110.139 97.273 109.839C100.073 108.139 102.473 105.439 104.173 102.139C105.673 99.3393 106.273 97.4393 107.273 94.3393L107.573 93.5393L106.773 93.2393Z" fill="#233865"/>
<path d="M107.273 94.7391C107.88 94.7391 108.373 94.2466 108.373 93.6391C108.373 93.0315 107.88 92.5391 107.273 92.5391C106.665 92.5391 106.173 93.0315 106.173 93.6391C106.173 94.2466 106.665 94.7391 107.273 94.7391Z" fill="#233865"/>
</svg>
