<svg width="148" height="148" viewBox="0 0 148 148" fill="none" xmlns="http://www.w3.org/2000/svg">
<path d="M137.439 68.095C135.739 60.695 136.439 53.195 135.139 45.695C134.139 39.695 131.039 34.595 126.439 30.795C119.139 24.695 110.939 24.195 102.239 22.695C92.5386 20.995 87.3386 14.195 80.0386 7.99505C66.3386 -3.50495 44.1386 -3.40495 34.2386 13.595C29.3386 22.095 28.9386 32.495 28.1386 42.095C27.7386 47.695 27.2386 53.2951 26.8386 58.8951C26.5386 63.095 26.7386 68.5951 23.1386 71.3951C19.9386 73.8951 15.3386 73.595 11.8386 75.695C8.43861 77.595 5.83861 80.695 3.83861 84.095C-0.861393 92.495 -0.661393 102.495 1.33861 111.795L145.939 111.695C148.539 96.495 140.739 82.395 137.439 68.095Z" fill="white"/>
<path d="M0.338867 107.895C0.538867 115.995 2.63887 127.095 9.33887 132.895C14.4389 137.295 23.5389 139.395 30.7389 139.695C37.9389 139.995 45.2389 139.295 52.4389 139.795C63.5389 140.595 71.3389 141.495 81.9389 144.295C92.6389 146.995 104.139 148.895 114.739 145.895C121.439 143.995 127.339 140.295 131.339 135.395C133.639 132.595 135.339 129.395 137.739 126.695C140.139 123.995 143.339 121.695 145.339 118.695C147.339 115.695 148.039 111.695 145.539 108.995L0.338867 107.895Z" fill="white"/>
<path d="M78.9397 131.489C78.6397 130.689 79.0397 129.389 79.1397 128.489C79.3397 127.489 79.4397 126.889 79.3397 126.089C80.8397 126.089 83.2397 126.089 84.7397 126.089C84.4397 126.889 85.1397 127.689 85.9397 128.089C86.7397 128.489 87.7397 128.689 88.7397 128.889C89.7397 129.089 90.6397 129.389 91.2397 129.989C91.4397 130.189 91.6397 130.489 91.6397 130.789C91.6397 130.889 91.6397 131.389 91.5397 131.489H78.9397V131.489Z" fill="#233865"/>
<path d="M83.4397 90.5896C83.4397 80.2895 83.9397 71.3896 82.2397 61.2896L69.3397 62.5896C68.6397 70.6896 70.9397 79.1896 72.2397 87.2896C74.4397 100.69 75.3397 112.39 78.1397 126.69C80.4397 126.79 83.9397 126.99 86.2397 127.09C83.7397 116.09 83.4397 101.99 83.4397 90.5896Z" fill="#077F93"/>
<path d="M62.8398 132.989C63.6398 132.989 64.5398 132.989 65.3398 132.889C65.8398 132.889 66.3398 132.789 66.6398 132.389C66.9398 132.089 66.8398 131.589 66.8398 131.189C66.8398 129.489 67.0398 127.989 66.3398 125.889C65.1398 125.989 63.9398 125.789 62.8398 125.389C63.1398 125.989 62.9398 126.589 62.6398 127.189C62.3398 127.689 61.8398 128.189 61.5398 128.689C61.1398 129.389 60.8398 130.189 60.8398 130.989C60.8398 131.489 60.9398 132.189 61.3398 132.489C61.6398 132.989 62.2398 132.989 62.8398 132.989Z" fill="#233865"/>
<path d="M61.1399 62.5894C58.4399 84.2894 58.7399 106.289 62.0399 127.889C64.2399 127.689 66.3399 127.489 68.5399 127.289C68.6399 113.789 70.4399 100.389 72.1399 86.9894C73.2399 78.8894 74.2399 70.6894 75.3399 62.5894H61.1399V62.5894Z" fill="#0093B7"/>
<path d="M88.2395 37.0892C86.3395 34.9892 84.5395 32.6892 83.0395 30.1892C82.4395 29.2892 82.0395 28.1892 81.1395 27.7892C79.9395 27.2892 78.6395 27.9892 77.9395 29.1892C77.0395 30.6892 77.1395 32.6892 77.7395 34.2892C78.3395 35.9892 79.4395 37.2892 80.5395 38.5892C81.9395 40.1892 83.3395 41.5892 84.8395 42.8892C85.4395 40.6892 86.4395 38.5892 88.2395 37.0892Z" fill="#F96A57"/>
<path d="M106.139 54.1893C107.239 54.0893 108.239 53.9893 109.239 53.6893C108.639 53.0893 108.239 52.2893 107.639 51.5893C107.039 50.8893 106.339 50.3893 105.439 50.2893C104.739 50.2893 104.139 50.4893 103.439 50.5893C103.339 50.5893 103.139 50.5893 103.039 50.5893C97.6393 46.7893 92.2393 41.4893 88.2393 36.9893C86.4393 38.4893 85.4393 40.5893 84.7393 42.7893C89.2393 46.7893 94.0393 50.8893 99.5393 53.4893C99.6393 53.7893 99.8393 54.0893 100.139 54.2893C100.339 54.3893 100.539 54.3893 100.739 54.3893C101.639 54.3893 102.539 54.2893 103.439 54.2893C104.239 54.2893 105.039 54.1893 105.839 54.1893C106.039 54.1893 106.139 54.1893 106.139 54.1893Z" fill="#D39D81"/>
<path d="M81.6398 27.7893C82.3398 28.3893 82.6398 29.3893 82.8398 30.2893C83.9398 35.5893 82.4398 40.9893 81.9398 46.3893C81.4398 52.1893 81.9398 58.0893 83.0398 64.9893C75.2398 65.9893 68.1398 65.7893 60.3398 65.4893C61.2398 59.7893 60.0398 52.9893 59.0398 47.3893C58.1398 41.6893 57.4398 35.6893 59.4398 30.3893C59.7398 29.4893 60.1398 28.5893 60.8398 27.9893C61.7398 27.0893 62.4398 26.7893 63.5398 26.5893C68.4398 25.7893 74.1398 25.8893 79.1398 26.7893C80.0398 26.8893 80.9398 27.0893 81.6398 27.7893Z" fill="#F96A57"/>
<path d="M60.8398 64.4895H65.9398C64.5398 52.4895 66.3398 39.8895 59.7398 30.6895C57.5398 35.9895 58.2398 41.9895 59.3398 47.6895C60.2398 52.8895 61.5398 59.0895 60.8398 64.4895Z" fill="#C9433D"/>
<path d="M69.8395 26.2896C69.0395 26.4896 68.2395 26.6896 67.6395 27.1896C66.9395 27.6896 66.4395 28.6896 66.4395 29.6896C66.4395 30.5896 66.9395 31.2896 67.4395 31.8896C68.6395 33.3896 70.2395 34.3896 71.9395 34.5896C73.6395 34.8896 75.3395 34.3896 76.7395 33.2896C77.4395 32.7896 78.1395 31.3896 78.5395 30.3896C78.8395 29.3896 78.8395 28.6896 78.2395 27.9896C77.8395 27.4896 77.3395 27.2896 76.8395 27.0896C74.2395 26.2896 71.5395 26.0896 68.8395 26.6896L69.8395 26.2896Z" fill="#C9433D"/>
<path d="M51.5395 54.9894C53.7395 49.9894 56.8395 44.9894 60.0395 40.7894C58.4395 38.4894 56.3395 36.5894 53.7395 35.5894C52.9395 36.8894 52.1395 38.1894 51.5395 39.5894C49.3395 44.1894 47.8395 49.1894 46.7395 54.2894C46.2395 54.1894 45.7395 54.3894 45.3395 54.6894C44.8395 55.0894 44.4395 55.7894 44.1395 56.3894C43.8395 56.9894 43.5395 57.6894 43.0395 58.0894C42.6395 58.4894 42.1395 58.7894 42.0395 59.2894C41.8395 59.9894 42.4395 60.5894 42.9395 61.0894C43.2395 61.3894 43.6395 61.6894 44.1395 61.6894C44.4395 61.6894 44.7395 61.4894 45.0395 61.6894C45.2395 61.7894 45.2395 61.9894 45.3395 62.0894C45.6395 62.3894 46.2395 62.2894 46.6395 62.0894C47.0395 61.8894 47.5395 61.5894 47.9395 61.6894C48.1395 61.6894 48.3395 61.8894 48.5395 61.8894C48.8395 61.8894 49.0395 61.6894 49.1395 61.4894C49.2395 61.2894 49.3395 60.9894 49.4395 60.7894C49.6395 60.1894 50.0395 59.5894 50.5395 59.0894C51.0395 58.6894 50.9395 58.7894 51.1395 58.1894C51.3395 57.5894 51.3395 56.0894 51.2395 55.0894C51.5395 55.1894 51.5395 55.0894 51.5395 54.9894Z" fill="#D39D81"/>
<path d="M65.0398 34.5896C65.7398 33.2896 66.1398 31.5896 65.8398 30.0896C65.5398 28.5896 64.4398 27.1896 63.0398 27.0896C62.0398 26.9896 61.1398 27.5896 60.3398 28.1896C57.3398 30.2896 54.8398 33.1896 52.8398 36.3896C55.5398 37.4896 57.7398 39.3896 59.5398 41.8896C60.4398 40.6896 61.4398 39.3896 62.4398 38.1896C63.3398 36.9896 64.3398 35.8896 65.0398 34.5896Z" fill="#F96A57"/>
<path d="M69.2394 26.9893C68.7394 27.1893 68.3394 27.3893 68.0394 27.8893C67.6394 28.5893 67.6394 29.6893 67.9394 30.5893C68.3394 31.4893 68.9394 32.2893 69.6394 32.6893C70.3394 33.1893 71.0394 33.3893 71.8394 33.4893C72.9394 33.6893 74.0394 33.5893 75.0394 33.1893C76.0394 32.6893 76.8394 31.7893 77.1394 30.4893C77.3394 29.5893 77.3394 28.3893 76.7394 27.5893C76.4394 27.1893 75.9394 26.9893 75.5394 26.8893C73.3394 26.1893 71.2394 26.2893 69.2394 26.9893Z" fill="#D39D81"/>
<path d="M70.6393 18.0897C70.2393 18.2897 69.8393 18.7897 69.8393 19.2897C69.8393 22.2897 68.9393 26.4897 68.2393 28.5897C70.7393 29.5897 73.4393 29.7897 76.0393 29.1897C75.9393 26.5897 75.8393 23.8897 75.6393 21.2897C74.4393 21.1897 72.5393 18.0897 71.3393 17.9897C71.1393 17.9897 70.9393 17.9897 70.6393 18.0897Z" fill="#D39D81"/>
<path d="M71.4397 18.0898C71.3397 18.0898 71.2397 18.0898 71.2397 18.0898C68.2397 22.1898 71.6397 26.2898 76.0397 26.8898C75.9397 25.0898 75.8397 23.2898 75.8397 21.3898C74.4397 21.2898 72.6397 18.1898 71.4397 18.0898Z" fill="#233865"/>
<path d="M72.3392 9.88963C73.8392 9.58963 77.0392 9.68963 78.6392 9.98963C79.6392 10.2896 79.7392 13.1896 80.1392 14.0896C80.3392 14.5896 79.6392 15.3896 79.6392 15.8896C79.6392 17.3896 80.0392 17.0896 79.7392 18.5896C79.2392 21.0896 78.8392 22.5896 76.8392 24.2896C75.8392 25.1896 73.5392 24.6896 72.5392 23.7896C71.6392 22.9896 70.5392 22.2896 69.9392 21.1896C69.0392 19.4896 68.5392 17.4896 68.4392 15.5896C68.3392 14.1896 68.4392 12.7896 69.2392 11.6896C69.9392 10.5896 71.1392 10.0896 72.3392 9.88963Z" fill="#D39D81"/>
<path d="M82.339 9.18944C82.039 9.58944 81.739 10.0894 81.439 10.4894C81.939 10.5894 82.539 10.5894 83.039 10.2894C82.639 11.5894 81.439 12.6894 80.139 13.0894C78.839 13.4894 77.339 13.4894 76.039 13.1894C75.439 13.0894 74.839 12.8894 74.239 12.9894C73.139 13.1894 72.439 14.2894 71.939 15.2894C71.639 14.7894 71.139 14.2894 70.539 14.3894C70.139 14.4894 69.739 14.8894 69.639 15.2894C69.439 15.8894 69.539 16.4894 69.839 16.9894C70.139 17.4894 70.739 17.9894 70.639 18.5894C70.639 19.3894 69.539 19.8894 69.639 20.6894C68.139 18.6894 67.839 15.9894 67.639 13.3894C67.639 12.8894 67.539 12.2894 67.939 11.9894C68.239 11.6894 68.739 11.5894 69.039 11.2894C69.339 10.8894 69.239 10.3894 69.439 9.88944C69.639 9.18944 70.139 8.68944 70.839 8.48944C71.439 8.18944 72.139 8.18944 72.839 8.08944C74.339 7.98944 75.839 7.88944 77.239 8.28944C78.039 8.48944 78.839 8.98944 79.739 9.18944C80.539 9.48944 81.539 9.58944 82.339 9.18944Z" fill="#233865"/>
<path d="M113.939 52.1899H47.6387V56.0899H113.939V52.1899Z" fill="#F8DDBF"/>
<path d="M56.4385 52.0898H55.4385V54.1898H56.4385V52.0898Z" fill="#233865"/>
<path d="M58.6387 52.0898H57.6387V54.1898H58.6387V52.0898Z" fill="#233865"/>
<path d="M60.8389 52.0898H59.8389V54.1898H60.8389V52.0898Z" fill="#233865"/>
<path d="M63.0381 52.0898H62.0381V54.1898H63.0381V52.0898Z" fill="#233865"/>
<path d="M65.3389 52.0898H64.3389V54.1898H65.3389V52.0898Z" fill="#233865"/>
<path d="M67.5381 52.0898H66.5381V54.1898H67.5381V52.0898Z" fill="#233865"/>
<path d="M69.7383 52.0898H68.7383V54.1898H69.7383V52.0898Z" fill="#233865"/>
<path d="M71.9385 52.0898H70.9385V54.1898H71.9385V52.0898Z" fill="#233865"/>
<path d="M74.1387 52.0898H73.1387V54.1898H74.1387V52.0898Z" fill="#233865"/>
<path d="M76.4385 52.0898H75.4385V54.1898H76.4385V52.0898Z" fill="#233865"/>
<path d="M78.6387 52.0898H77.6387V54.1898H78.6387V52.0898Z" fill="#233865"/>
<path d="M80.8389 52.0898H79.8389V54.1898H80.8389V52.0898Z" fill="#233865"/>
<path d="M83.0381 52.0898H82.0381V54.1898H83.0381V52.0898Z" fill="#233865"/>
<path d="M85.2383 52.0898H84.2383V54.1898H85.2383V52.0898Z" fill="#233865"/>
<path d="M87.4385 52.0898H86.4385V54.1898H87.4385V52.0898Z" fill="#233865"/>
<path d="M89.7383 52.0898H88.7383V54.1898H89.7383V52.0898Z" fill="#233865"/>
<path d="M91.9385 52.0898H90.9385V54.1898H91.9385V52.0898Z" fill="#233865"/>
<path d="M94.1387 52.0898H93.1387V54.1898H94.1387V52.0898Z" fill="#233865"/>
<path d="M96.3389 52.0898H95.3389V54.1898H96.3389V52.0898Z" fill="#233865"/>
<path d="M98.5381 52.0898H97.5381V54.1898H98.5381V52.0898Z" fill="#233865"/>
<path d="M100.738 52.0898H99.7383V54.1898H100.738V52.0898Z" fill="#233865"/>
<path d="M103.038 52.0898H102.038V54.1898H103.038V52.0898Z" fill="#233865"/>
<path d="M105.238 52.0898H104.238V54.1898H105.238V52.0898Z" fill="#233865"/>
<path d="M107.438 52.0898H106.438V54.1898H107.438V52.0898Z" fill="#233865"/>
<path d="M42.8391 59.9896C43.3391 60.3896 43.9391 60.5897 44.5391 60.6897C46.1391 60.9897 47.8391 60.9897 49.0391 59.8897C50.1391 58.9897 50.4391 57.4896 50.7391 56.0896C50.9391 55.2896 51.1391 54.2897 50.6391 53.4897C50.1391 52.5897 49.1391 52.1896 48.1391 52.0896C46.5391 51.9896 44.8391 52.4896 43.7391 53.5896C42.5391 54.6896 41.9391 56.2897 42.0391 57.8897C42.0391 58.6897 42.2391 59.4896 42.8391 59.9896Z" fill="#233865"/>
<path d="M46.3391 59.3896C47.8855 59.3896 49.1391 58.1359 49.1391 56.5896C49.1391 55.0432 47.8855 53.7896 46.3391 53.7896C44.7927 53.7896 43.5391 55.0432 43.5391 56.5896C43.5391 58.1359 44.7927 59.3896 46.3391 59.3896Z" fill="#F96A57"/>
<path d="M102.539 51.5898C102.539 51.3898 102.239 51.1898 102.039 51.0898C101.539 50.9898 101.039 51.0898 100.539 51.1898C100.339 51.1898 100.239 51.2898 100.139 51.3898C100.039 51.5898 100.139 51.7898 100.139 51.9898C100.239 52.2898 100.339 52.5898 100.439 52.8898C100.539 53.0898 100.639 53.3898 100.739 53.5898C100.939 53.7898 101.139 53.8898 101.439 53.8898C101.739 53.7898 101.939 53.4898 101.939 53.0898C102.039 52.7898 101.939 52.3898 102.139 52.1898C102.339 51.9898 102.639 51.7898 102.539 51.5898Z" fill="#D39D81"/>
<path d="M106.339 50.6897C106.739 50.5897 107.139 50.7897 107.339 50.9897C107.639 51.2897 107.839 51.5897 108.039 51.8897C108.139 52.1897 108.339 52.3897 108.439 52.6897C108.439 52.7897 108.539 52.8897 108.539 52.8897C108.539 53.0897 108.339 53.0897 108.239 53.1897C107.939 53.1897 107.739 53.2897 107.439 53.0897C106.839 52.7897 106.539 51.4897 106.339 50.6897Z" fill="#D39D81"/>
<path d="M110.139 52.9898C110.239 53.0898 110.239 53.0898 110.239 53.1898C110.239 53.2898 110.139 53.3898 110.039 53.3898C109.939 53.3898 109.239 53.3898 109.139 53.3898C108.539 53.2898 108.639 53.0898 108.139 52.6898C107.639 52.2898 107.339 51.7898 107.239 51.1898C107.539 51.0898 107.839 50.9898 108.139 51.0898C108.439 51.1898 108.639 51.3898 108.839 51.5898C109.339 51.9898 109.739 52.4898 110.139 52.9898Z" fill="#D39D81"/>
<path d="M105.639 50.1895C105.339 50.0895 105.039 50.3895 104.839 50.6895C104.739 50.9895 104.839 51.3895 104.939 51.6895C105.039 51.9895 105.239 52.2895 105.339 52.5895C105.439 52.7895 105.439 53.0895 105.539 53.2895C105.639 53.4895 105.839 53.6895 106.039 53.6895C106.339 53.6895 106.539 53.4895 106.639 53.2895C106.739 53.0895 106.739 52.7895 106.739 52.4895C106.639 51.8895 106.439 51.2895 106.239 50.6895C106.039 50.5895 105.839 50.2895 105.639 50.1895Z" fill="#D39D81"/>
<path d="M104.939 53.0896C105.039 52.6896 105.139 52.1896 105.139 51.7896C105.139 51.4896 105.139 51.0896 104.939 50.8896C104.739 50.6896 104.439 50.3896 104.139 50.4896C103.939 50.5896 103.739 50.7896 103.639 50.9896C103.539 51.1896 103.539 51.4896 103.539 51.6896C103.539 52.1896 103.539 52.6896 103.739 53.1896C103.839 53.3896 103.939 53.6896 104.239 53.6896C104.439 53.6896 104.639 53.6896 104.739 53.4896C104.839 53.3896 104.939 53.1896 104.939 53.0896Z" fill="#D39D81"/>
<path d="M53.3393 68.5894L49.2393 126.689H50.9393L58.8393 68.5894H53.3393Z" fill="#233865"/>
<path d="M103.64 68.5894L107.84 126.689H106.14L98.1396 68.5894H103.64Z" fill="#233865"/>
<path d="M55.7393 69.1895C55.0393 73.4895 54.0393 77.6895 52.7393 81.8895C54.9393 82.1895 57.1393 82.6895 59.1393 83.4895C60.2393 81.3895 63.1393 80.5895 65.7393 80.7895C68.3393 80.9895 70.6393 82.0895 73.0393 82.9895C74.3393 83.4895 75.8393 83.8895 77.2393 83.9895C77.4393 83.9895 77.7393 83.9895 77.9393 84.0895C78.1393 84.0895 78.2393 84.0895 78.4393 84.0895C78.6393 84.0895 78.7393 84.0895 78.9393 84.0895C79.1393 84.0895 79.4393 84.0895 79.6393 83.9895C81.0393 83.7895 82.5393 83.3895 83.8393 82.9895C86.2393 82.0895 88.6393 81.0895 91.1393 80.7895C93.7393 80.5895 96.6393 81.4895 97.7393 83.4895C99.7393 82.6895 101.939 82.0895 104.139 81.8895C102.839 77.6895 101.939 73.4895 101.139 69.1895H55.7393Z" fill="#AD685C"/>
<path d="M100.04 79.0895H103.44C102.84 76.7895 102.24 74.3895 101.84 72.0895C101.64 71.1895 101.44 70.1896 101.34 69.2896H97.8396H59.2396H55.7396C55.5396 70.2896 55.3396 71.1895 55.2396 72.1895C54.7396 74.4895 54.2396 76.8895 53.6396 79.1895H57.0396C57.7396 76.8895 58.2396 74.5896 58.7396 72.2896H98.3396C98.7396 74.4896 99.3396 76.7895 100.04 79.0895Z" fill="#233865"/>
<path d="M113.04 66.2896H45.1396V69.9896H113.04V66.2896Z" fill="#AD685C"/>
<path d="M113.04 65.0894H45.1396V66.2894H113.04V65.0894Z" fill="white"/>
<path d="M50.9398 68.5894L46.3398 132.389H48.2398L56.9398 68.5894H50.9398Z" fill="#AD685C"/>
<path d="M106.14 68.5894L110.64 132.389H108.84L100.04 68.5894H106.14Z" fill="#AD685C"/>
</svg>
