<svg width="148" height="148" viewBox="0 0 148 148" fill="none" xmlns="http://www.w3.org/2000/svg">
<path d="M137.439 68.095C135.739 60.695 136.439 53.195 135.139 45.695C134.139 39.695 131.039 34.595 126.439 30.795C119.139 24.695 110.939 24.195 102.239 22.695C92.5386 20.995 87.3386 14.195 80.0386 7.99505C66.3386 -3.50495 44.1386 -3.40495 34.2386 13.595C29.3386 22.095 28.9386 32.495 28.1386 42.095C27.7386 47.695 27.2386 53.2951 26.8386 58.8951C26.5386 63.095 26.7386 68.5951 23.1386 71.3951C19.9386 73.8951 15.3386 73.595 11.8386 75.695C8.43861 77.595 5.83861 80.695 3.83861 84.095C-0.861393 92.495 -0.661393 102.495 1.33861 111.795L145.939 111.695C148.539 96.495 140.739 82.395 137.439 68.095Z" fill="white"/>
<path d="M0.338867 107.895C0.538867 115.995 2.63887 127.095 9.33887 132.895C14.4389 137.295 23.5389 139.395 30.7389 139.695C37.9389 139.995 45.2389 139.295 52.4389 139.795C63.5389 140.595 71.3389 141.495 81.9389 144.295C92.6389 146.995 104.139 148.895 114.739 145.895C121.439 143.995 127.339 140.295 131.339 135.395C133.639 132.595 135.339 129.395 137.739 126.695C140.139 123.995 143.339 121.695 145.339 118.695C147.339 115.695 148.039 111.695 145.539 108.995L0.338867 107.895Z" fill="white"/>
<path d="M95.4944 111.548C97.8207 111.548 99.7065 110.823 99.7065 109.928C99.7065 109.033 97.8207 108.308 95.4944 108.308C93.1681 108.308 91.2822 109.033 91.2822 109.928C91.2822 110.823 93.1681 111.548 95.4944 111.548Z" fill="#233865"/>
<path d="M97.2217 109.496C96.1417 110.036 94.9537 110.036 93.7656 109.496V89.7314H97.2217V109.496Z" fill="#0093B7"/>
<path d="M84.8023 44.1539H82.5342V37.9976C82.5342 37.6736 82.8582 37.3496 83.1822 37.3496H84.1542C84.4782 37.3496 84.8023 37.6736 84.8023 37.9976V44.1539Z" fill="#233865"/>
<path d="M88.6902 40.9135H78.7539C78.1058 40.9135 77.6738 40.3735 77.6738 39.8335C77.6738 39.1854 78.2138 38.7534 78.7539 38.7534H88.6902C89.3382 38.7534 89.7703 39.2934 89.7703 39.8335C89.7703 40.3735 89.3382 40.9135 88.6902 40.9135Z" fill="#233865"/>
<path d="M95.9265 45.9897H72.0576V52.902H95.9265V45.9897Z" fill="#0093B7"/>
<path d="M131.999 47.7178H29.1797V50.9579H131.999V47.7178Z" fill="#0093B7"/>
<path d="M98.1941 44.8018H95.71V54.1981H98.1941V44.8018Z" fill="#233865"/>
<path d="M84.9096 52.5786H81.5615V83.0357H84.9096V52.5786Z" fill="#0093B7"/>
<path d="M86.2058 51.1743H80.2656V60.1386H86.2058V51.1743Z" fill="#0093B7"/>
<path d="M88.2578 59.7065H78.1055V61.5426H88.2578V59.7065Z" fill="#233865"/>
<path d="M87.1773 62.9468H79.293V66.2949H87.1773V62.9468Z" fill="#233865"/>
<path d="M97.4386 95.5635H91.6064V91.3514C91.6064 91.2434 91.4984 91.1354 91.3904 91.1354H86.4222C83.0741 91.1354 80.374 88.4353 80.374 85.0872V80.875H86.3142V85.0872C86.3142 85.1952 86.4222 85.3032 86.5302 85.3032H91.4984C94.8465 85.3032 97.5466 88.0033 97.5466 91.3514V95.5635H97.4386Z" fill="#233865"/>
<path d="M83.8296 55.6022C87.2893 55.6022 90.0939 52.7976 90.0939 49.338C90.0939 45.8783 87.2893 43.0737 83.8296 43.0737C80.37 43.0737 77.5654 45.8783 77.5654 49.338C77.5654 52.7976 80.37 55.6022 83.8296 55.6022Z" fill="#0093B7"/>
<path d="M83.8294 52.4703C85.5592 52.4703 86.9615 51.068 86.9615 49.3382C86.9615 47.6083 85.5592 46.2061 83.8294 46.2061C82.0996 46.2061 80.6973 47.6083 80.6973 49.3382C80.6973 51.068 82.0996 52.4703 83.8294 52.4703Z" fill="#233865"/>
<path d="M83.0735 67.3746C84.8033 67.3746 86.2056 65.9723 86.2056 64.2425C86.2056 62.5126 84.8033 61.1104 83.0735 61.1104C81.3437 61.1104 79.9414 62.5126 79.9414 64.2425C79.9414 65.9723 81.3437 67.3746 83.0735 67.3746Z" fill="#233865"/>
<path d="M72.9216 44.8018H70.4375V54.1981H72.9216V44.8018Z" fill="#233865"/>
<path d="M61.5808 46.314H59.0967V52.9022H61.5808V46.314Z" fill="#233865"/>
<path d="M108.671 46.314H106.187V52.9022H108.671V46.314Z" fill="#233865"/>
<path d="M45.8131 49.8784C44.8411 49.2304 43.761 48.6904 42.573 48.5823C41.3849 48.4743 40.0889 48.7984 39.4409 49.7704C38.7928 50.7424 38.7928 52.0385 39.3329 53.1185C39.7649 54.1985 40.6289 54.9546 41.6009 55.7106C43.545 57.3307 46.4611 58.8427 48.6212 60.2468C49.3772 60.6788 50.1333 61.1108 50.8893 61.5428C52.2933 59.5987 53.4814 57.5467 54.4534 55.2786C51.3213 53.3345 48.9452 51.7145 45.8131 49.8784Z" fill="#C9433D"/>
<path d="M84.0462 57.5468C84.1543 57.3308 84.3703 57.2228 84.3703 57.0068C84.3703 56.7908 84.3703 56.5748 84.2623 56.3588C84.1542 56.2508 84.0463 56.2508 83.9382 56.1428C84.0463 56.0348 84.0462 55.9268 84.1543 55.8188C84.2623 55.6028 84.2623 55.4948 84.2623 55.2787C84.2623 55.0627 84.0463 54.9547 83.9382 54.9547C83.8302 54.8467 83.7222 54.8467 83.6142 54.8467C83.6142 54.7387 83.6142 54.7387 83.6142 54.6307L83.5062 54.5227C82.8582 54.1987 82.3182 53.9827 81.6702 53.6587C80.9141 54.1987 79.7261 53.8747 78.9701 54.4147C78.6461 54.6307 78.43 54.9547 78.214 55.1707C77.782 55.4948 77.35 55.8188 76.918 56.1428C76.81 56.2508 76.486 56.6828 76.378 57.0068C70.8698 58.1949 69.1417 58.5189 63.5255 58.9509C62.4455 59.0589 61.3654 59.0589 60.3934 58.7349C59.3134 58.4109 58.0173 57.3308 57.0453 56.7908C56.1813 56.2508 55.3172 55.8188 54.5612 55.2787C53.5892 57.5468 52.2931 59.5989 50.9971 61.543C52.8331 62.407 54.7772 63.271 56.5053 64.3511C57.3693 64.8911 58.6653 65.1071 59.6374 65.2151C60.3934 65.3231 62.0135 65.1071 62.7695 64.9991C69.1417 64.4591 78.106 60.2469 79.6181 60.2469C80.1581 60.2469 80.6981 60.3549 81.3462 60.4629C81.8862 60.4629 82.5342 60.3549 83.0742 60.2469C83.1822 60.2469 83.3982 60.1389 83.5062 60.0309C83.6142 60.0309 83.6142 60.0309 83.7222 60.0309C83.8302 60.0309 83.9382 59.9229 84.0462 59.8149C84.1543 59.7069 84.1543 59.5989 84.1543 59.4909C84.1543 59.3829 84.0462 59.2749 83.8302 59.1669C84.0462 59.1669 84.2623 59.1669 84.3703 58.9509C84.4783 58.8429 84.5863 58.6269 84.5863 58.4109C84.5863 58.1949 84.4783 57.9788 84.2623 57.9788H84.1543V57.8708C83.9382 57.6548 84.0462 57.6548 84.0462 57.5468Z" fill="#D39D81"/>
<path d="M32.2046 97.9399C33.1766 98.0479 34.2567 99.236 34.9047 99.884C35.7687 100.64 36.8488 100.748 37.7128 101.18C36.8488 102.584 36.9568 104.96 36.0928 106.472C35.5527 105.716 33.1766 106.256 32.3126 106.796C31.4486 107.336 30.3685 107.984 29.6125 108.74C28.8565 109.496 27.4524 110.468 26.4804 110.576C26.1564 110.684 25.8324 110.576 25.5084 110.468C25.4004 110.36 24.9684 110.036 24.8604 109.928L32.2046 97.9399Z" fill="#233865"/>
<path d="M50.5653 81.7393C52.1853 87.2475 55.4254 90.0555 58.4495 94.4837C61.9057 99.4519 64.4978 103.34 61.3656 108.092C56.2895 109.496 56.5055 110.036 51.2133 109.604C45.9211 109.172 40.7369 108.2 35.4447 107.228C35.3367 104.852 35.4447 102.476 35.6607 100.1C41.1689 100.64 46.6771 100.748 52.0773 100.424C44.409 97.3998 38.4688 90.2716 37.0648 82.1713C41.3849 82.0633 46.3531 82.1713 50.5653 81.7393Z" fill="#077F93"/>
<path d="M27.3443 101.72C28.3163 101.828 29.3963 103.016 30.0444 103.664C30.9084 104.42 31.9884 104.528 32.8525 104.96C31.9884 106.364 32.0964 108.74 31.2324 110.253C30.6924 109.496 28.3163 110.037 27.4523 110.577C26.5882 111.117 25.5082 111.765 24.7522 112.521C23.9961 113.277 22.5921 114.249 21.6201 114.357C21.296 114.465 20.972 114.357 20.648 114.249C20.54 114.141 20.108 113.817 20 113.709L27.3443 101.72Z" fill="#233865"/>
<path d="M49.161 81.9556C44.9489 82.6036 37.6046 82.8196 33.2845 82.9276C33.6085 88.6518 36.4166 94.268 40.8447 97.9401C44.8409 101.288 47.973 102.908 51.7531 106.472C44.0849 106.796 38.3607 106.04 31.0164 103.664C30.5844 106.688 30.5844 109.821 31.0164 112.845C41.7088 112.737 46.0289 116.949 58.7734 114.249C60.1774 112.953 62.9855 110.253 62.4455 108.633C60.8255 103.772 59.0974 100.748 55.7493 95.5641C52.8332 91.1359 49.8091 87.1398 49.161 81.9556Z" fill="#0093B7"/>
<path d="M45.3809 50.8504C45.2729 50.0944 44.9488 49.3384 44.3008 49.0143C43.8688 48.7983 43.3288 48.7983 42.7888 48.7983C40.9527 48.9063 39.0086 49.0144 37.3886 49.9864C37.0646 50.2024 36.7405 50.4184 36.7405 50.7424C36.6325 51.1744 37.0646 51.4984 37.3886 51.7144C39.2246 52.9025 41.4927 53.4425 43.6528 53.9825C44.0848 54.0905 44.7328 54.1985 45.0568 53.8745C45.2729 53.6585 45.3809 53.3345 45.3809 53.0105C45.5969 52.3625 45.4889 51.6064 45.3809 50.8504Z" fill="#C9433D"/>
<path d="M44.9493 49.2302C47.5414 52.3623 48.8375 56.4664 49.2695 60.5706C49.8095 64.6747 49.5935 68.7788 49.8095 72.883C50.0255 76.9871 50.6735 81.1993 52.6176 84.7634C46.4614 85.9515 40.0891 86.1675 33.8249 85.5194C33.3929 85.5194 32.9609 85.4114 32.6369 85.0874C32.2049 84.6554 32.2049 83.8994 32.2049 83.3594C32.4209 78.9312 31.3408 74.503 30.6928 70.0749C30.0448 65.6467 30.0448 60.2465 31.8809 56.1424C33.9329 51.7142 39.3331 47.3941 42.7892 48.6901L44.9493 49.2302Z" fill="#F96A57"/>
<path d="M34.0406 58.8426C33.1766 59.3826 33.0686 60.5706 32.9606 61.6507C32.6366 67.2669 33.0686 72.9911 34.6887 78.3913C34.7967 78.8233 35.0127 79.3633 35.3367 79.5793C35.7687 79.9033 36.4167 79.7953 36.8487 79.4713C37.2808 79.1473 37.6048 78.6073 37.8208 78.1753C39.3328 75.3672 39.9808 72.2351 40.3049 68.995C40.4129 67.1589 40.4129 65.2148 39.8728 63.3788C39.3328 61.5427 38.1448 59.9226 36.5247 59.0586C35.8767 58.5186 34.7967 58.3026 34.0406 58.8426Z" fill="#C9433D"/>
<path d="M52.6171 84.7632C50.673 81.1991 50.241 76.9869 50.025 72.8828C49.917 70.6147 49.809 66.7266 49.701 64.4585C46.7849 66.2946 42.4648 68.0226 40.7367 71.3707C39.4406 73.2068 39.7647 76.9869 39.1166 78.823C38.0366 81.7391 36.2005 82.8192 34.6885 85.5192C40.6287 86.1673 46.6769 85.9513 52.6171 84.7632Z" fill="#0093B7"/>
<path d="M39.7646 55.9264C38.4685 54.7383 36.7405 53.7663 35.0124 53.5503C34.1484 53.4423 33.0683 53.4423 32.5283 54.7383C34.0404 54.0903 35.7684 54.4143 37.1725 55.2784C38.5765 56.1424 39.5486 57.4384 40.4126 58.8425C42.2487 61.9746 43.2207 65.7547 43.1127 69.4269C43.7607 69.3189 43.9767 69.7509 44.3007 69.2108C44.5167 68.6708 44.4087 67.8068 44.3007 67.1588C44.3007 65.2147 43.5447 62.0826 42.6807 60.3545C41.8166 58.4105 41.1686 57.2224 39.7646 55.9264Z" fill="#0093B7"/>
<path d="M44.3007 52.5783C44.5167 52.4703 44.5167 52.2543 44.5167 52.0383C44.8407 49.6622 45.0567 47.3941 45.3807 45.018C43.6527 45.018 42.0326 44.046 40.4126 43.3979C39.3325 47.0701 38.1445 47.8261 37.0645 50.4182C39.3325 51.1742 41.3846 52.6863 43.7607 52.6863C44.0847 52.6863 44.1927 52.6863 44.3007 52.5783Z" fill="#D39D81"/>
<path d="M41.8166 43.938C41.1686 46.9621 42.4647 49.3382 44.8407 50.3102C45.0568 48.5822 45.2728 46.8541 45.4888 45.018C44.1927 44.91 43.0047 44.37 41.8166 43.938Z" fill="#233865"/>
<path d="M44.9478 33.7856C43.8678 33.7856 42.7878 34.1097 41.9237 34.7577C40.9517 35.5137 40.3037 36.5937 39.8717 37.6738C39.0076 40.2659 39.5476 43.29 41.1677 45.4501C42.7878 47.6101 45.4879 48.9062 48.296 48.7982C49.592 46.6381 50.888 44.37 51.3201 41.9939C51.7521 39.5098 51.1041 36.7017 49.16 35.1897C47.9719 34.1097 46.4599 33.7856 44.9478 33.7856Z" fill="#D39D81"/>
<path d="M50.2407 34.9738C48.9447 33.8938 47.3246 33.3538 45.7046 33.2458C44.5165 33.1378 43.3285 33.3538 42.3564 34.0018C41.3844 34.5418 40.6284 35.5138 40.1964 36.5939C39.1163 38.97 39.2243 41.7781 40.5204 44.0461C40.6284 43.6141 40.8444 43.2901 41.0604 42.9661C40.9524 42.8581 40.8444 42.6421 40.8444 42.4261C40.7364 41.8861 40.7364 41.238 40.9524 40.698C41.0604 40.374 41.1684 39.942 41.4924 39.834C41.9244 39.618 42.4644 39.834 42.6804 40.158C42.8964 40.374 43.0045 40.698 43.0045 41.022C43.9765 40.374 44.9485 39.618 45.5965 38.646C47.7566 39.294 49.0527 39.618 51.3207 39.294C51.3207 37.7819 51.5368 36.0539 50.2407 34.9738Z" fill="#233865"/>
<path d="M52.0765 35.2977C51.7525 34.5417 50.9965 33.8937 50.2404 33.5697C48.2964 32.4896 46.0283 32.2736 43.7602 32.0576C41.9241 32.9216 40.5201 34.5417 39.8721 36.4858C41.3841 37.9978 43.4362 39.0779 45.5963 39.6179C47.7564 40.1579 49.9164 40.1579 52.0765 40.0499C51.8605 38.4298 52.6165 36.7018 52.0765 35.2977Z" fill="#C9433D"/>
<path d="M54.3445 42.102C54.5605 42.102 54.6686 42.21 54.8846 42.21C55.1006 42.21 55.3166 42.21 55.3166 41.994C55.4246 41.778 55.2086 41.562 54.9926 41.346C53.4805 40.266 51.8605 39.1859 50.0244 38.8619C47.9723 38.5379 45.9202 39.1859 43.8682 38.7539C44.0842 39.1859 44.5162 39.5099 44.9482 39.7259C46.0282 40.374 47.1083 41.022 48.1883 41.562C48.9443 41.994 49.5924 42.426 50.3484 42.642C51.1044 42.8581 51.9685 42.9661 52.7245 42.642C53.2645 42.426 53.8045 41.994 54.3445 42.102Z" fill="#F96A57"/>
<path d="M78.6475 60.5707L81.8876 57.5466C82.2116 57.2226 82.7516 57.2226 83.1836 57.4386L84.8037 58.7347C85.1277 58.9507 85.1277 59.3827 84.9117 59.7067L84.1557 60.6787L83.0756 60.0307L83.5076 59.2747L82.5356 58.5187L79.6195 61.7588L78.6475 60.5707Z" fill="#F96A57"/>
<path d="M82.1032 61.6507L79.8351 59.4906C79.6191 59.2746 79.1871 59.2746 78.863 59.4906L75.6229 62.4067C76.271 63.0548 76.271 64.1348 75.5149 64.6748C72.2748 67.3749 68.9267 70.075 65.6866 72.7751C64.7145 73.5311 63.6345 74.5032 63.3105 75.6912C63.2025 76.1232 63.2025 76.5552 63.3105 76.9872C63.4185 77.4193 63.8505 77.7433 64.2825 77.8513C64.9306 77.9593 65.5786 77.4193 66.0106 76.9872C69.5747 73.2071 73.2468 69.535 76.811 65.7548C77.459 65.1068 78.431 65.1068 79.0791 65.6468L81.9952 62.7307C82.4272 62.4067 82.4272 61.9747 82.1032 61.6507Z" fill="#233865"/>
<path d="M79.1171 60.1486L77.0293 62.0264L77.7515 62.8294L79.8393 60.9516L79.1171 60.1486Z" fill="#F96A57"/>
<path d="M40.5203 61.2187C40.0883 59.7066 39.6563 58.1946 38.6843 56.8985C37.7122 55.6025 36.2002 54.7385 34.6881 55.0625C33.2841 55.3865 32.312 56.6825 31.988 58.0866C31.664 59.4906 31.88 60.8947 32.312 62.2987C33.1761 65.5388 34.4721 68.5629 36.2002 71.371C38.2523 70.183 40.5203 68.779 42.8964 67.5909C41.9244 65.5388 41.1684 63.3788 40.5203 61.2187Z" fill="#F96A57"/>
<path d="M71.4094 70.2908C70.9774 69.9668 70.4374 69.7508 70.0054 69.4268C69.5734 69.1028 68.9254 68.8868 68.4933 69.1028C68.3853 69.2108 68.2773 69.2108 68.0613 69.3188C67.5213 69.5348 67.0893 68.9948 66.5493 68.9948C66.1173 68.9948 65.7933 69.2108 65.4692 69.5348C65.1452 69.8588 64.7132 70.0748 64.2812 70.1828C63.0932 70.5068 61.9051 70.6148 60.7171 70.8308C59.637 71.0468 58.557 71.2629 57.369 71.3709C54.8849 71.8029 52.5088 72.2349 50.0247 72.4509C49.1607 72.5589 48.2966 72.6669 47.4326 72.6669C47.2166 72.6669 45.0565 72.8829 45.0565 72.6669C44.3005 71.0468 43.5445 69.4268 42.8964 67.6987C40.5203 68.8868 38.2523 70.2908 36.2002 71.4789C37.7122 74.071 39.4403 76.555 41.1684 79.0391C41.6004 79.5792 42.0324 80.2272 42.6804 80.5512C43.7605 81.0912 45.1645 80.7672 46.3526 80.4432C51.8608 78.8231 57.2609 76.8791 62.5531 74.827C63.0932 74.719 63.5252 74.503 63.5252 74.611C63.7412 74.611 63.8492 74.719 64.0652 74.827C64.3892 75.043 64.7132 75.259 65.0372 75.475C65.4692 75.691 65.9013 75.691 66.3333 75.691C67.1973 75.691 68.0613 75.691 68.8174 75.691C68.9254 75.691 69.0334 75.691 69.2494 75.583C69.5734 75.367 69.4654 74.935 69.6814 74.719C69.8974 74.503 70.4374 74.719 70.6534 74.503C70.8694 74.287 70.7614 73.7469 70.9774 73.5309C71.1934 73.2069 71.7335 73.2069 71.7335 72.8829C71.8415 72.5589 71.5175 72.2349 71.6255 72.0189C71.6255 71.9109 71.7335 71.9109 71.7335 71.8029C71.8415 71.6949 72.0575 71.5869 72.0575 71.3709C72.1655 70.7228 71.7335 70.5068 71.4094 70.2908Z" fill="#D39D81"/>
<path d="M79.0404 61.0527L78.6797 61.4546L79.8853 62.5368L80.2461 62.1349L79.0404 61.0527Z" fill="#F96A57"/>
<path d="M82.2103 65.7547L81.2383 64.1346L82.2103 62.6226H83.9384L84.8024 64.1346L83.9384 65.7547H82.2103Z" fill="#F96A57"/>
<path d="M87.7187 105.392H65.2539V95.564H87.7187V105.392ZM66.3339 104.312H86.6387V96.644H66.3339V104.312Z" fill="#233865"/>
<path d="M86.2064 100.208H66.9817L64.3896 105.825V113.061H88.7985V105.825L86.2064 100.208Z" fill="#F96A57"/>
<path d="M83.7225 94.8081H69.79V97.4002H83.7225V94.8081Z" fill="#F96A57"/>
<path d="M88.1511 105.608H65.3623V106.256H88.1511V105.608Z" fill="#233865"/>
<path d="M77.5665 110.793H75.9464C75.1904 110.793 74.6504 110.253 74.6504 109.497V104.636C74.6504 103.88 75.1904 103.34 75.9464 103.34H77.5665C78.3225 103.34 78.8625 103.88 78.8625 104.636V109.497C78.8625 110.145 78.3225 110.793 77.5665 110.793ZM76.0544 104.312C75.9464 104.312 75.8384 104.42 75.8384 104.528V109.389C75.8384 109.497 75.9464 109.605 76.0544 109.605H77.6745C77.7825 109.605 77.8905 109.497 77.8905 109.389V104.528C77.8905 104.42 77.7825 104.312 77.6745 104.312H76.0544Z" fill="#233865"/>
</svg>
