<svg id="thanksIcon" width="99" height="100" viewBox="0 0 99 100" fill="none" xmlns="http://www.w3.org/2000/svg">
<path d="M49.181 97.9691C75.7615 97.9691 97.3092 76.4214 97.3092 49.8409C97.3092 23.2604 75.7615 1.71265 49.181 1.71265C22.6005 1.71265 1.05273 23.2604 1.05273 49.8409C1.05273 76.4214 22.6005 97.9691 49.181 97.9691Z" fill="#0FB063"/>
<path d="M71.3289 39.053C70.1876 37.6005 68.1126 37.3671 66.6602 38.4824C66.6602 38.4824 48.5559 53.7076 48.0113 54.1745L40.8785 47.8717C39.4001 46.5748 37.1695 46.4451 35.5614 47.7161C33.7457 49.1426 33.6679 51.2176 35.0945 53.0592L43.991 65.3275C44.0428 65.3794 44.0947 65.4572 44.1207 65.4831C45.9103 67.584 49.0747 67.8434 51.2015 66.0537L71.0954 42.9177L71.1473 42.8658C72.2626 41.6727 72.3664 40.3499 71.3289 39.053Z" fill="white"/>
<path d="M71.3282 37.7561C70.187 36.3037 68.112 36.0702 66.6595 37.1855C66.6595 37.1855 48.5553 52.4107 48.0106 52.8776L40.8778 46.5748C39.3994 45.278 37.1688 45.1483 35.5607 46.4192C33.7451 47.8458 33.4079 50.4395 34.8345 52.281L43.9903 64.0306C44.0422 64.0825 44.0941 64.1603 44.12 64.1862C45.9097 66.2872 49.074 66.5465 51.2009 64.7569L71.0948 42.1395L71.1466 42.0877C72.262 40.8946 72.3657 39.053 71.3282 37.7561Z" fill="white"/>
<path d="M35.5847 48.4942C37.1928 47.2492 39.4234 47.3529 40.9019 48.6498L46.6599 55.2379C47.1268 55.7826 47.9568 55.8344 48.5015 55.3676C52.444 51.892 66.6835 39.2605 66.6835 39.2605C68.136 38.1193 70.211 38.3786 71.3522 39.8311C71.6116 40.1424 71.7672 40.4796 71.8969 40.8427C72.2341 39.8311 72.0785 38.664 71.3522 37.7561C70.211 36.3037 68.136 36.0702 66.6835 37.1855C66.6835 37.1855 48.5793 52.4107 48.0346 52.8776L40.9019 46.5748C39.4234 45.278 37.1928 45.1483 35.5847 46.4192C34.236 47.4826 33.7172 49.1945 34.1063 50.7507C34.3138 49.8948 34.8066 49.0907 35.5847 48.4942Z" fill="#E6E6E6"/>
</svg>
