<svg width="74" height="89" viewBox="0 0 74 89" fill="none" xmlns="http://www.w3.org/2000/svg">
<path d="M0.806197 13.7426C1.33631 13.2461 2.0543 12.9978 2.77901 13.0649C10.5294 13.7627 24.9832 10.0318 34.4313 0.362364C35.0889 -0.308661 36.2833 0.0671131 37.0349 0.630774C47.5431 8.48177 64.9629 10.1124 71.0089 10.4412C72.257 10.5083 73.277 11.4813 73.4044 12.7294C78.9069 65.841 44.3222 85.086 37.1489 88.4814C36.3638 88.8505 35.4445 88.7968 34.7064 88.3405C-1.03241 66.0826 0.497525 37.1211 0.000966341 15.6685C-0.0191644 14.9437 0.276087 14.2459 0.806197 13.7426Z" fill="#FF725E"/>
<path d="M73.4111 12.7294C73.2836 11.4812 72.2704 10.515 71.0156 10.4412C64.9696 10.1056 47.5297 8.48176 37.0214 0.630764C36.5517 0.28183 35.9008 0 35.3103 0V88.6223C35.9008 88.7968 36.5651 88.7498 37.1355 88.4814C44.3088 85.086 78.9068 65.841 73.4111 12.7294Z" fill="#FF5C45"/>
<path opacity="0.74" d="M36.1893 84.67C36.0216 84.67 35.8538 84.623 35.7062 84.5291C21.9971 75.7655 13.0591 65.2841 8.38202 52.4876C4.20825 41.06 4.00694 29.4312 3.82576 19.1712L3.79892 17.8023C3.79221 17.5607 3.88615 17.3393 4.05391 17.1648C4.22167 16.9904 4.44981 16.8964 4.69138 16.8964C13.1664 16.8964 25.8958 13.1521 35.2298 4.79112C35.5317 4.52271 35.9746 4.48916 36.3168 4.7106C40.7187 7.62956 50.8244 12.7361 69.0226 14.0714C69.4588 14.105 69.801 14.4472 69.8413 14.8833C71.6597 35.618 67.345 53.1519 57.0247 66.9952C49.3146 77.3357 40.1685 82.724 36.5986 84.5626C36.4644 84.6364 36.3302 84.67 36.1893 84.67ZM4.69809 17.3393C4.56389 17.3393 4.44981 17.3863 4.36258 17.4735C4.27535 17.5607 4.22838 17.6748 4.23509 17.7956L4.26193 19.1645C4.4431 29.3909 4.64441 40.9862 8.79135 52.34C13.4281 65.0425 22.3125 75.4501 35.941 84.16C36.0752 84.2472 36.2497 84.254 36.3973 84.1801C39.9471 82.355 49.0193 77.0069 56.6757 66.7402C66.9357 52.9842 71.2169 35.5509 69.4118 14.9236C69.3917 14.7022 69.2172 14.5277 68.9891 14.5076C65.2917 14.2325 59.6148 13.6084 53.589 12.1724C46.5365 10.4881 40.6449 8.09928 36.082 5.07295C35.9075 4.95888 35.6793 4.9723 35.525 5.11322C26.1038 13.5614 13.2537 17.3393 4.69809 17.3393Z" fill="white"/>
<path d="M65.8219 23.9556C65.6944 21.446 64.0705 19.3457 62.0507 19.0772C60.447 18.8625 59.0177 19.8221 58.2527 21.3654C57.4877 19.7483 56.045 18.6411 54.4077 18.6881C52.3276 18.7484 50.6366 20.7347 50.5024 23.2846C50.4151 24.9756 50.9989 26.5256 51.9518 27.5724L57.83 32.5984C58.085 32.8131 58.4138 32.8266 58.6687 32.6253L64.4261 28.0354C65.3522 27.0826 65.9091 25.6063 65.8219 23.9556Z" fill="white"/>
</svg>
