<svg width="86" height="86" viewBox="0 0 86 86" fill="none" xmlns="http://www.w3.org/2000/svg">
<path d="M49.3593 48.6504C49.6573 44.7763 49.8436 41.1256 49.9554 37.7358C49.0241 37.2515 47.8693 36.6555 46.9753 36.2457C44.1814 34.9046 40.27 33.1166 37.7742 31.9618C36.3214 31.2913 34.8685 30.807 34.8685 30.807C34.8685 30.807 24.8852 29.8385 24.0656 29.913C23.8049 29.913 22.5756 30.36 20.9365 30.9933C17.3976 32.3343 10.5806 35.0909 9.4631 35.8732C7.86129 37.028 2.16182 65.0038 2.01282 66.9036C1.86381 68.7662 9.76111 71.262 17.0996 73.1991C17.0996 76.0302 17.0251 80.0161 16.9879 83.6295C16.9879 84.2627 16.9506 84.8588 16.9506 85.4548H48.9868C48.9496 84.8215 48.9123 84.2255 48.8751 83.6295C48.8751 83.555 48.8751 83.4805 48.8751 83.406C48.7633 80.9474 48.2791 76.5517 48.3908 72.2678C48.3908 72.2678 48.3163 67.7604 48.7633 65.8233C48.8378 57.181 49.3593 48.6504 49.3593 48.6504ZM8.71807 65.1155C8.75532 61.4649 13.6353 54.6851 13.6353 54.6851C13.6353 54.6851 13.8588 54.5734 13.8588 54.6106L14.1195 54.5734L14.8646 53.8656C15.0508 54.4989 16.6526 63.6627 17.0251 68.9897C12.4805 68.0956 8.68082 66.8291 8.71807 65.1155Z" fill="white"/>
<path d="M49.9553 83.5922C49.7318 82.0649 49.5456 80.5749 49.3593 79.0848C49.3593 79.0848 49.3593 79.0848 49.3593 79.0476C49.2848 78.5633 49.2475 78.079 49.173 77.5948C49.173 77.5575 49.173 77.5575 49.173 77.5203C48.9495 75.4714 48.726 73.4971 48.6143 71.709C48.5025 70.3307 48.6143 68.9897 48.8005 67.6859C49.3593 58.4848 49.6201 48.8367 49.6201 48.8367C49.9181 44.888 50.0671 41.1629 50.1788 37.6985C50.1788 37.6985 37.6251 31.7755 36.5076 31.4403C36.5076 31.4403 38.8917 37.028 40.6797 49.5072C41.3502 54.3126 42.6541 62.3962 43.5481 70.6287C44.0324 75.0617 45.0009 79.6063 45.7087 83.6295C45.8204 84.2628 45.9322 84.8588 46.0067 85.4548H50.2161C50.1043 84.7843 50.0298 84.1883 49.9553 83.5922Z" fill="#A9BAE6"/>
<path d="M29.0572 68.8407C29.5415 64.1842 29.9885 59.5651 29.765 57.032C28.0514 36.6182 23.1342 31.2167 22.4265 30.4345C21.8677 30.658 19.7816 31.4403 19.1856 31.6638C15.833 32.9676 9.01597 35.3889 8.08468 36.0594C6.48287 37.2142 0.187387 66.5311 0.00113005 68.4309C-0.110624 69.6974 8.08468 72.3795 16.4662 74.8009C16.3917 77.1105 16.6153 80.3513 15.833 83.704C15.684 84.3 15.4977 84.6725 15.4605 85.492L27.1201 85.4548C27.1947 84.8587 27.2692 84.2627 27.3437 83.6295C27.5672 81.8041 27.7907 79.9416 28.0142 77.9672C31.5158 78.8613 33.8999 79.4573 33.8999 79.4573C33.8999 79.4573 37.178 73.9068 38.1466 71.6345C38.3701 71.1875 34.1234 70.1817 29.0572 68.8407ZM13.9704 61.8001C13.8586 57.628 13.8959 54.7224 13.8959 54.7224C14.3057 56.1379 14.8644 60.2356 15.386 64.296C13.6724 63.4392 13.9704 62.6569 13.9704 61.8001Z" fill="#A9BAE6"/>
<path d="M23.5813 30.211C23.5813 30.211 24.8478 27.8269 24.5126 21.0099C24.4008 19.11 34.4215 25.48 34.4215 25.48C34.4215 25.48 34.3842 26.1133 34.3469 27.0073C34.3469 27.3799 34.3469 27.7896 34.3469 28.1994C34.3469 28.3111 34.3469 28.4229 34.3469 28.5346C34.3469 28.7209 34.3469 28.9072 34.3469 29.0934C34.3469 29.3169 34.347 29.5404 34.3842 29.7639C34.3842 30.0247 34.4215 30.2482 34.4215 30.4717C34.4587 30.8815 34.7195 31.6265 34.794 31.8128C35.241 32.8186 27.3064 32.8931 23.5813 30.211Z" fill="#EEA987"/>
<path d="M31.9629 34.5321L33.8255 37.028C33.8255 37.028 32.7452 38.4808 30.8081 37.4005L31.9629 34.5321Z" fill="#E8734D"/>
<path d="M33.3039 37.1397C33.3039 37.1397 40.0837 53.6421 38.6309 74.6519L36.5075 78.526L34.0862 75.2107C34.0862 75.2107 33.7137 47.3466 31.7766 37.0652L33.3039 37.1397Z" fill="#E8734D"/>
<path d="M33.937 32.2226L31.9627 34.5321C31.9627 34.5321 28.7964 33.9361 27.8651 32.2598C26.9338 30.6207 33.937 32.2226 33.937 32.2226Z" fill="#EEA987"/>
<path d="M34.3841 30.211C34.3841 30.211 34.1606 31.9618 31.9628 34.5321L34.3469 37.773L35.6507 31.0678L34.3841 30.211Z" fill="#A9BAE6"/>
<path d="M24.1773 28.0876C24.1773 28.0876 28.7592 33.2656 31.9629 34.5321L30.4728 38.22L23.1343 30.1737L24.1773 28.0876Z" fill="#A9BAE6"/>
<path d="M71.3376 75.0244C71.3376 75.0244 65.2656 69.1014 61.2425 68.1329C59.3799 67.6859 56.9586 65.1155 54.649 62.1354C53.904 61.1669 53.1589 60.1238 52.4139 59.0808C49.5828 54.9832 47.3477 51.0718 47.3477 51.0718C47.3477 51.0718 38.9662 41.2374 45.7087 36.879C45.7087 36.879 48.577 36.8045 50.1788 37.6612C51.8179 38.5553 55.2823 45.7821 55.841 47.0486C56.4371 48.3151 62.8071 60.2356 63.2168 60.4964C63.6266 60.7571 64.3716 61.7256 66.9047 63.1039C70.0338 64.7803 74.9138 69.6974 74.9138 69.6974L71.3376 75.0244Z" fill="#A9BAE6"/>
<path d="M42.0952 81.8786C42.0952 81.8786 41.2384 81.8414 40.8659 81.6551C40.8659 81.6551 40.2326 81.2454 39.7484 80.9846C39.5994 80.9101 39.4504 80.8356 39.3759 80.7984C39.0033 80.6493 38.1466 80.4258 37.327 79.8298C36.5448 79.2338 33.8999 76.7752 33.8999 76.7752L35.5762 74.1676L36.3585 71.5973C36.3585 71.5973 42.4305 72.1933 43.25 72.6776C43.3245 72.7148 43.399 72.7893 43.4735 72.8266C44.1068 73.3108 44.4048 73.9441 44.7028 74.2049C44.8146 74.3166 45.8949 75.4342 45.8203 75.9184C45.7458 76.5517 45.4106 76.9615 45.0381 77.1477C45.0381 77.1477 44.8146 78.377 44.1813 78.9358C44.1813 78.9358 44.0323 80.0906 43.0265 80.5376C43.101 80.5748 42.803 81.7296 42.0952 81.8786Z" fill="#EFAA88"/>
<path d="M32.4098 3.38997C32.4098 3.38997 43.399 0.745117 41.0894 14.6771C38.7798 28.6092 36.135 29.7267 29.4297 26.9701C22.7245 24.1762 23.2087 15.2732 22.799 10.9147C22.3892 6.55633 28.9082 3.61347 32.4098 3.38997Z" fill="#EEA886"/>
<path d="M26.6359 13.0381C26.4869 11.8088 24.0283 11.399 23.8793 13.2243C23.693 15.0497 25.0713 18.2533 25.9653 17.9553C26.8594 17.62 26.8594 14.7144 26.6359 13.0381Z" fill="#EEA886"/>
<path d="M23.4323 18.0298C23.4323 18.0298 23.6558 13.6341 25.2576 13.4851C26.8594 13.3361 27.1202 15.0869 27.1202 15.0869L28.722 15.3849C28.722 15.3849 28.1632 11.548 29.7278 10.8775C31.3296 10.1697 40.0837 12.8518 41.3502 11.697C42.6168 10.5422 41.909 2.79394 39.5622 1.7509C37.2153 0.707863 30.8081 -1.56447 26.1517 1.6764C26.1517 1.6764 22.501 1.30389 21.9795 4.284C21.5697 7.18961 22.4265 15.8692 23.4323 18.0298Z" fill="#3A4453"/>
<path d="M38.4818 71.5973L33.9371 79.4201C33.9371 79.4201 21.9049 76.3282 19.1111 75.5459L25.5183 67.9094C25.5183 67.8721 34.9802 70.0327 38.4818 71.5973Z" fill="#A9BAE6"/>
<path d="M34.3469 29.7267C28.4612 29.1307 26.1516 24.586 26.1516 24.586C29.8768 28.2739 34.3097 28.1621 34.3097 28.1621C34.3097 28.2739 34.3097 28.3856 34.3097 28.4974C34.3097 28.6837 34.3097 28.8699 34.3097 29.0562C34.3469 29.3169 34.3469 29.5404 34.3469 29.7267Z" fill="#A77860"/>
<path d="M47.0125 65.1528C53.8667 72.1933 62.8815 81.0591 62.8815 81.0591L66.4204 74.3539C66.4204 74.3539 58.4114 64.9293 52.9727 58.671C51.2964 59.4906 48.2417 61.4649 47.0125 65.1528Z" fill="#EEA886"/>
<path d="M42.803 74.6519C42.803 74.6519 44.6283 75.5459 45.1126 75.9557C45.5968 76.3655 47.5339 77.8183 48.0182 78.1535C48.5024 78.4888 47.3104 79.4573 43.8088 77.9673C40.3444 76.4027 42.803 74.6519 42.803 74.6519Z" fill="#EEA886"/>
<path d="M42.952 55.8772L39.7484 85.7155H81.9915L85.1951 55.8772H42.952Z" fill="#FF725E"/>
<path d="M36.4136 85.7528H43.4541V83.0707H36.4136V85.7528Z" fill="#FF725E"/>
<path d="M64.8176 69.8895C65.1553 68.2365 64.3833 66.6829 63.0932 66.4193C61.8031 66.1557 60.4835 67.282 60.1457 68.9349C59.808 70.5878 60.58 72.1415 61.8701 72.4051C63.1602 72.6687 64.4798 71.5424 64.8176 69.8895Z" fill="white"/>
</svg>
