<svg width="60" height="90" viewBox="0 0 60 90" fill="none" xmlns="http://www.w3.org/2000/svg">
<path d="M54.8328 89.0677H4.26159C1.90997 89.0677 0 87.1578 0 84.8061V12.2616C0 9.90997 1.90997 8 4.26159 8H54.8328C57.1845 8 59.0944 9.90997 59.0944 12.2616V84.8004C59.1002 87.1577 57.1902 89.0677 54.8328 89.0677Z" fill="#A9BAE6"/>
<path d="M53.984 11.2017H5.3457V81.8592H53.984V11.2017Z" fill="#F6F5F5"/>
<path d="M53.984 11.2017C54.0012 38.7558 54.8903 71.9824 51.793 79.3413C38.1594 80.672 22.197 81.0964 5.33997 81.1767L11.7524 11.414L53.984 11.2017Z" fill="#E4E4E4"/>
<path d="M49.6135 77.1159C28.3686 80.5172 14.1672 80.695 2.64996 79.8404C4.14123 63.9526 4.74348 37.5571 5.33999 11.2076L30.9439 11.2649L54.116 12.7963C54.4544 40.1382 54.4945 65.4037 49.6135 77.1159Z" fill="white"/>
<path d="M41.8621 19.6021L16.2773 19L16.1855 22.8991L41.7703 23.5012L41.8621 19.6021Z" fill="#708CD5"/>
<path d="M46.7931 29.1392L23.714 28.596L23.672 30.3793L46.7511 30.9225L46.7931 29.1392Z" fill="#708CD5"/>
<path d="M39.3093 32.8548L23.6212 32.4856L23.5792 34.2689L39.2673 34.6381L39.3093 32.8548Z" fill="#D3DFFF"/>
<path d="M11.871 29.8434C12.0374 30.4915 12.3528 33.193 13.7064 32.4359C14.0162 32.2639 14.2857 31.7993 14.5152 31.5354C14.9339 31.0594 15.3526 30.5833 15.777 30.1072C16.6144 29.1551 17.4576 28.1973 18.295 27.2452C18.5129 26.9985 17.5608 26.3848 17.2912 26.6945C16.5456 27.5434 15.8 28.3923 15.0486 29.2354C14.6758 29.6599 14.303 30.0843 13.9301 30.5087C13.672 30.8013 13.0698 31.7534 12.6855 31.8337C12.892 31.9025 13.1042 31.9713 13.3107 32.0344C13.4598 32.1549 13.1845 31.2945 13.1788 31.2716C13.0755 30.8701 12.9723 30.4743 12.8633 30.0728C12.783 29.7516 11.7449 29.3559 11.871 29.8434Z" fill="#EE6F57"/>
<path d="M42.4918 38.9794L23.4838 38.532L23.4419 40.3153L42.4498 40.7627L42.4918 38.9794Z" fill="#708CD5"/>
<path d="M46.466 42.9617L23.3869 42.4185L23.3449 44.2018L46.424 44.745L46.466 42.9617Z" fill="#D3DFFF"/>
<path d="M11.6358 39.9324C11.8021 40.5805 12.1176 43.282 13.4712 42.5249C13.7809 42.3528 14.0505 41.8883 14.2799 41.6244C14.6986 41.1484 15.1173 40.6723 15.5418 40.1962C16.3792 39.2441 17.2223 38.2863 18.0597 37.3341C18.2777 37.0875 17.3255 36.4738 17.056 36.7835C16.3103 37.6324 15.5647 38.4813 14.8133 39.3244C14.4405 39.7489 14.0677 40.1733 13.6949 40.5977C13.4368 40.8903 12.8345 41.8424 12.4502 41.9227C12.6567 41.9915 12.8689 42.0603 13.0754 42.1234C13.2246 42.2439 12.9492 41.3835 12.9435 41.3606C12.8403 40.9591 12.737 40.5633 12.628 40.1618C12.5477 39.8349 11.5039 39.4391 11.6358 39.9324Z" fill="#EE6F57"/>
<path d="M46.3284 49.007L23.2493 48.4639L23.2074 50.2471L46.2864 50.7903L46.3284 49.007Z" fill="#708CD5"/>
<path d="M33.4768 52.5964L23.1558 52.3535L23.1138 54.1368L33.4349 54.3797L33.4768 52.5964Z" fill="#D3DFFF"/>
<path d="M11.4752 49.9354C11.6416 50.5835 11.957 53.285 13.3106 52.5279C13.6204 52.3558 13.8899 51.8912 14.1194 51.6274C14.5381 51.1513 14.9568 50.6753 15.3812 50.1992C16.2186 49.2471 17.0617 48.2892 17.8992 47.3371C18.1171 47.0905 17.165 46.4768 16.8954 46.7865C16.1498 47.6354 15.4041 48.4842 14.6528 49.3274C14.28 49.7518 13.9071 50.1763 13.5343 50.6007C13.2762 50.8932 12.674 51.8453 12.2897 51.9256C12.4962 51.9945 12.7084 52.0633 12.9149 52.1264C13.064 52.2468 12.7887 51.3865 12.783 51.3635C12.6797 50.962 12.5765 50.5663 12.4675 50.1648C12.3872 49.8436 11.349 49.4478 11.4752 49.9354Z" fill="#EE6F57"/>
<path d="M46.0933 58.941L23.0142 58.3978L22.9723 60.181L46.0513 60.7242L46.0933 58.941Z" fill="#708CD5"/>
<path d="M41.1558 62.7153L22.9219 62.2862L22.8799 64.0694L41.1138 64.4986L41.1558 62.7153Z" fill="#D3DFFF"/>
<path d="M11.2401 59.8007C11.4065 60.4488 11.7219 63.1503 13.0755 62.3932C13.3853 62.2211 13.6548 61.7566 13.8843 61.4927C14.303 61.0167 14.7217 60.5406 15.1461 60.0645C15.9835 59.1124 16.8266 58.1546 17.6641 57.2024C17.882 56.9558 16.9299 56.3421 16.6603 56.6518C15.9147 57.5007 15.169 58.3496 14.4177 59.1927C14.0449 59.6172 13.672 60.0416 13.2992 60.466C13.0411 60.7586 12.4389 61.7107 12.0546 61.791C12.2611 61.8598 12.4733 61.9286 12.6798 61.9917C12.8289 62.1122 12.5536 61.2518 12.5479 61.2289C12.4446 60.8274 12.3414 60.4316 12.2324 60.0301C12.1578 59.7089 11.1139 59.3132 11.2401 59.8007Z" fill="#EE6F57"/>
<path d="M31.9343 68.4701L22.7829 68.2548L22.7409 70.038L31.8923 70.2534L31.9343 68.4701Z" fill="#708CD5"/>
<path d="M45.7745 72.6887L22.6942 72.1438L22.6541 73.9276C31.5845 74.1398 42.9525 74.5528 45.2755 74.1972C45.6196 73.8014 45.8089 73.3139 45.7745 72.6887Z" fill="#D3DFFF"/>
<path d="M11.0106 69.5857C11.177 70.2338 11.4924 72.9353 12.846 72.1782C13.1558 72.0062 13.4253 71.5416 13.6548 71.2777C14.0735 70.8017 14.4922 70.3256 14.9166 69.8496C15.754 68.8974 16.5971 67.9396 17.4346 66.9875C17.6525 66.7408 16.7004 66.1271 16.4308 66.4368C15.6852 67.2857 14.9395 68.1346 14.1882 68.9777C13.8154 69.4022 13.4425 69.8266 13.0697 70.2511C12.8116 70.5436 12.2094 71.4957 11.8251 71.576C12.0316 71.6448 12.2438 71.7136 12.4503 71.7767C12.5994 71.8972 12.3241 71.0368 12.3184 71.0139C12.2151 70.6124 12.1119 70.2166 12.0029 69.8151C11.9226 69.4939 10.8844 69.0982 11.0106 69.5857Z" fill="#EE6F57"/>
<path d="M40.5052 8.42567V13.8803H18.595V8.42567C18.595 7.55385 18.9506 6.76807 19.5184 6.20024C19.5872 6.13141 19.6618 6.06258 19.7421 5.99949C20.287 5.54638 20.9867 5.2768 21.7496 5.2768C22.3231 5.2768 22.868 5.14488 23.3613 4.90972C23.5735 4.80648 23.7743 4.68603 23.9693 4.54264C24.5945 4.07805 25.0763 3.41845 25.3114 2.6384C25.5523 1.83541 26.0513 1.17007 26.6995 0.69975C27.3189 0.252369 28.076 0 28.8733 0H30.2383C31.0413 0 31.7927 0.258105 32.4122 0.69975C33.0546 1.16434 33.5536 1.83541 33.8002 2.6384C34.0411 3.42418 34.5171 4.08378 35.1423 4.54264C35.3316 4.68029 35.5324 4.80648 35.7503 4.90972C36.2436 5.14488 36.7885 5.2768 37.362 5.2768C38.1249 5.2768 38.8246 5.54638 39.3695 5.99949C40.0578 6.57306 40.5052 7.44488 40.5052 8.42567Z" fill="#EE6F57"/>
<path d="M42.2833 11.2017V15.2568H16.817V11.2017H18.595V13.8803H40.5052V11.2017H42.2833Z" fill="#E4E4E4"/>
<path d="M29.55 5.1162C30.6239 5.1162 31.4944 4.28932 31.4944 3.26932C31.4944 2.24932 30.6239 1.42244 29.55 1.42244C28.4762 1.42244 27.6057 2.24932 27.6057 3.26932C27.6057 4.28932 28.4762 5.1162 29.55 5.1162Z" fill="white"/>
</svg>
