<svg width="83" height="90" viewBox="0 0 83 90" fill="none" xmlns="http://www.w3.org/2000/svg">
<path d="M9.02733 81.2013H19.1709L18.2973 85.7635H0L0.72801 82.1235L11.6967 73.533C14.4146 71.3489 15.2397 70.0871 15.2397 68.4854C15.2397 66.8838 14.0263 65.8161 11.6967 65.8161C9.75534 65.8161 7.91105 66.6897 6.55209 68.3398L2.81497 65.6219C4.75633 62.9525 8.34785 61.2053 12.5218 61.2053C17.6178 61.2053 20.9667 63.9232 20.9667 67.6603C20.9667 70.5239 19.6563 72.9506 15.4338 76.2023L9.02733 81.2013Z" fill="white"/>
<path d="M43.2922 80.6675H39.3124L38.3417 85.715H32.9059L33.9251 80.6675H20.9666L21.6946 76.9304L35.915 61.6421H42.0303L28.7805 76.1538H35.1385L36.0121 71.6401H41.2052L40.3316 76.1538H44.3114L43.2922 80.6675Z" fill="white"/>
<path d="M59.2116 56.7402H64.2591L46.5442 89.2094H41.5452L59.2116 56.7402Z" fill="white"/>
<path d="M82.2167 61.5936L81.4887 65.2336L68.5786 85.715H62.3663L74.7425 66.1558H66.977L66.2005 70.087H61.25L62.9487 61.5936H82.2167Z" fill="white"/>
<path d="M12.0434 54.4596H4.46509C4.46509 43.8499 8.75078 33.0312 16.2246 24.7211C24.1165 15.9929 34.3081 11.1846 44.9701 11.1846C66.7644 11.1846 81.9734 27.073 81.9734 49.8603H74.3427C74.3427 31.3064 62.531 18.8152 44.9701 18.8152C27.7751 18.8152 12.0434 35.8012 12.0434 54.4596Z" fill="#FF725E"/>
<path d="M42.8796 51.4283C42.5137 51.4283 42.1479 51.3238 41.8343 51.0624L29.0295 41.1322C28.2978 40.5573 28.141 39.512 28.7159 38.7803C29.2908 38.0486 30.3361 37.8918 31.0678 38.4667L42.7228 47.5084L58.8725 32.7176C59.552 32.0904 60.6495 32.1427 61.2767 32.8221C61.9039 33.5016 61.8516 34.5991 61.1722 35.2263L44.0294 50.9579C43.7158 51.2715 43.2977 51.4283 42.8796 51.4283Z" fill="#FF725E"/>
<path d="M51.5554 6.11495H36.9213C36.7122 6.11495 36.5032 5.90589 36.5032 5.69683V0.418116C36.5032 0.209058 36.7122 0 36.9213 0H51.6076C51.8167 0 52.0257 0.209058 52.0257 0.418116V5.7491C51.9735 5.95815 51.8167 6.11495 51.5554 6.11495Z" fill="#FF725E"/>
<path d="M48.2105 3.0836H40.214V10.3484H48.2105V3.0836Z" fill="#FF725E"/>
<path d="M16.3292 22.9441L10.3188 30.4179C10.1097 30.7315 9.63935 30.7315 9.37803 30.5225L5.24913 27.1775C4.93554 26.9685 4.93554 26.4981 5.1446 26.2368L11.155 18.8152C11.3641 18.5016 11.8345 18.5016 12.0958 18.7107L16.2247 22.0556C16.5383 22.2647 16.5905 22.6828 16.3292 22.9441Z" fill="#FF725E"/>
<path d="M44.2384 6.27175C48.2795 6.27175 51.5555 6.20155 51.5555 6.11495C51.5555 6.02836 48.2795 5.95816 44.2384 5.95816C40.1973 5.95816 36.9214 6.02836 36.9214 6.11495C36.9214 6.20155 40.1973 6.27175 44.2384 6.27175Z" fill="white"/>
<path d="M11.0506 29.1113C10.9461 29.2159 9.84851 28.3796 8.48964 27.3343C7.13076 26.289 5.98094 25.4528 6.08547 25.3483C6.13773 25.2438 7.39208 25.9232 8.75096 26.9685C10.1098 28.066 11.1029 29.0591 11.0506 29.1113Z" fill="white"/>
<path d="M12.3047 27.2821C12.2002 27.3866 11.1027 26.5504 9.74379 25.5051C8.38491 24.4598 7.23509 23.6236 7.33962 23.519C7.39188 23.4145 8.64623 24.0939 10.0051 25.1392C11.4163 26.1845 12.4093 27.1775 12.3047 27.2821Z" fill="white"/>
<path d="M13.8729 25.6619C13.7683 25.7664 12.6708 24.9302 11.3119 23.8849C9.95302 22.8396 8.8032 22.0034 8.90773 21.8988C8.96 21.7943 10.2143 22.4737 11.5732 23.519C12.9844 24.6166 13.9774 25.6096 13.8729 25.6619Z" fill="white"/>
<path d="M15.3884 23.8326C15.2838 23.9371 14.1863 23.1009 12.8274 22.0556C11.4685 21.0103 10.3187 20.1741 10.4232 20.0696C10.4755 19.965 11.7298 20.6445 13.0887 21.6898C14.4999 22.7351 15.4406 23.7281 15.3884 23.8326Z" fill="white"/>
<path d="M76.172 25.6619L69.6912 18.6062C69.4299 18.3448 69.4822 17.9267 69.7435 17.6654L73.6633 14.1114C73.9246 13.8501 74.3428 13.9024 74.6041 14.1637L81.0849 21.2194C81.3462 21.4807 81.2939 21.8988 81.0326 22.1601L77.1128 25.7141C76.8515 25.9232 76.4333 25.9232 76.172 25.6619Z" fill="#FF725E"/>
<path d="M70.8932 19.4947C70.7887 19.3901 71.834 18.4494 73.036 17.2473C74.2381 16.0452 75.2312 15.0522 75.3357 15.1567C75.4402 15.209 74.5517 16.3588 73.3496 17.5609C72.0953 18.763 70.9455 19.5992 70.8932 19.4947Z" fill="white"/>
<path d="M72.5136 21.0103C72.409 20.9058 73.4543 19.965 74.6564 18.763C75.8585 17.5609 76.8515 16.5678 76.9561 16.6724C77.0606 16.7246 76.1721 17.8745 74.97 19.0765C73.7679 20.2786 72.6181 21.1149 72.5136 21.0103Z" fill="white"/>
<path d="M73.8725 22.7873C73.7679 22.6828 74.8132 21.742 76.0153 20.5399C77.2174 19.3378 78.2104 18.3448 78.3149 18.4494C78.4195 18.5016 77.531 19.6514 76.3289 20.8535C75.0745 22.0556 73.9247 22.8918 73.8725 22.7873Z" fill="white"/>
<path d="M75.4926 24.5643C75.388 24.4598 76.4333 23.519 77.6354 22.317C78.8375 21.1149 79.8305 20.1218 79.9351 20.2264C80.0396 20.2786 79.1511 21.4285 77.949 22.6305C76.6947 23.8326 75.5448 24.6689 75.4926 24.5643Z" fill="white"/>
<path d="M38.5416 6.11494C38.657 6.11494 38.7506 4.75777 38.7506 3.0836C38.7506 1.40944 38.657 0.0522614 38.5416 0.0522614C38.4261 0.0522614 38.3325 1.40944 38.3325 3.0836C38.3325 4.75777 38.4261 6.11494 38.5416 6.11494Z" fill="white"/>
<path d="M41.4161 6.11494C41.5315 6.11494 41.6251 4.75777 41.6251 3.0836C41.6251 1.40944 41.5315 0.0522614 41.4161 0.0522614C41.3006 0.0522614 41.207 1.40944 41.207 3.0836C41.207 4.75777 41.3006 6.11494 41.4161 6.11494Z" fill="white"/>
<path d="M44.2906 6.11494C44.4061 6.11494 44.4997 4.75777 44.4997 3.0836C44.4997 1.40944 44.4061 0.0522614 44.2906 0.0522614C44.1751 0.0522614 44.0815 1.40944 44.0815 3.0836C44.0815 4.75777 44.1751 6.11494 44.2906 6.11494Z" fill="white"/>
<path d="M47.1651 6.11494C47.2806 6.11494 47.3742 4.75777 47.3742 3.0836C47.3742 1.40944 47.2806 0.0522614 47.1651 0.0522614C47.0497 0.0522614 46.9561 1.40944 46.9561 3.0836C46.9561 4.75777 47.0497 6.11494 47.1651 6.11494Z" fill="white"/>
<path d="M50.0397 6.11494C50.1552 6.11494 50.2488 4.75777 50.2488 3.0836C50.2488 1.40944 50.1552 0.0522614 50.0397 0.0522614C49.9243 0.0522614 49.8307 1.40944 49.8307 3.0836C49.8307 4.75777 49.9243 6.11494 50.0397 6.11494Z" fill="white"/>
<path d="M43.2977 52.9439C45.4049 52.9439 47.113 51.2358 47.113 49.1286C47.113 47.0215 45.4049 45.3133 43.2977 45.3133C41.1906 45.3133 39.4824 47.0215 39.4824 49.1286C39.4824 51.2358 41.1906 52.9439 43.2977 52.9439Z" fill="#FF725E"/>
</svg>
