<svg width="18" height="11" viewBox="0 0 18 11" fill="none" xmlns="http://www.w3.org/2000/svg">
<path fill-rule="evenodd" clip-rule="evenodd" d="M14.7707 10.232H14.6417C13.7614 10.0932 13.217 9.49708 12.7057 8.94151C12.4125 8.62921 11.9407 7.82509 11.415 7.9091C10.6674 8.02705 11.0844 9.31189 10.7696 9.84488C10.52 10.2707 9.44142 10.1804 8.70457 10.103C6.36845 9.8632 5.10127 8.69399 4.05814 7.39289C2.93784 6.00469 2.1313 4.48239 1.34773 2.87609C1.08959 2.34969 0.702393 1.83722 0.702393 1.19842C1.08224 0.900564 1.75545 0.940312 2.38027 0.940312C2.90583 0.940312 3.67094 0.879658 4.05814 1.06936C4.2875 1.1837 4.51775 1.846 4.70348 2.23083C5.0659 2.99994 5.49792 3.7343 5.99415 4.42471C6.21976 4.73443 6.62517 5.27851 7.02669 5.19902C7.42125 5.12288 7.39699 4.24881 7.4139 3.6504C7.43442 2.96991 7.48759 2.07726 7.28483 1.71462C7.09665 1.3747 6.731 1.4018 6.38136 1.19842C6.67098 0.630588 7.47843 0.553157 8.44643 0.553157C9.25801 0.553157 10.32 0.424106 10.6406 0.940312C10.959 1.47265 10.7938 2.54894 10.7696 3.26324C10.7455 4.06543 10.5875 4.82696 11.1568 5.19902C11.5972 5.15333 11.8072 4.74734 12.0603 4.42471C12.6211 3.71621 13.0472 3.14064 13.4801 2.23083C13.6561 1.85103 13.8047 1.18977 14.1254 1.06936C14.6151 0.892821 15.3452 0.940312 16.0614 0.940312C16.6524 0.940312 17.6809 0.807131 17.8684 1.19842C18.0203 1.51085 17.6231 2.39214 17.4812 2.61798C16.9362 3.47721 16.3892 4.06478 15.8033 4.81186C15.5668 5.11384 15.1264 5.49738 15.1579 5.97333C15.1786 6.34061 15.5126 6.61936 15.8033 6.87669C16.3668 7.39041 16.8849 7.95171 17.3521 8.55436C17.5436 8.79156 18.0398 9.27911 17.9974 9.58677C17.878 10.5477 14.7723 10.2229 14.7707 10.232Z" fill="#0077A8"/>
</svg>
