<svg id="accountIcon" width="100%" height="100%" viewBox="0 0 13 14" fill="#fff" xmlns="http://www.w3.org/2000/svg"><path fill-rule="evenodd" clip-rule="evenodd" d="M13 13.982V14h-2.232a5.28 5.28 0 00-1.875-1.585 5.314 5.314 0 00-4.786 0A5.28 5.28 0 002.232 14H0v-.02a6.864 6.864 0 012.581-3.145A6.926 6.926 0 016.5 9.692a6.925 6.925 0 013.919 1.143A6.863 6.863 0 0113 13.982zM6.51 0H6.5a4.346 4.346 0 00-3.062 1.265A4.295 4.295 0 002.172 4.31c0 1.142.458 2.237 1.27 3.045a4.346 4.346 0 003.063 1.26c1.15 0 2.251-.453 3.064-1.26a4.295 4.295 0 001.27-3.045 4.295 4.295 0 00-1.267-3.045A4.346 4.346 0 006.511 0zm2.146 4.308c0 .424-.127.838-.364 1.19a2.168 2.168 0 01-3.317.324 2.14 2.14 0 01-.467-2.336c.164-.391.44-.726.794-.961a2.165 2.165 0 013.19.962c.108.26.164.54.164.82z"/></svg>