<svg width="693" height="797" fill="none" xmlns="http://www.w3.org/2000/svg"><path fill="#F5F5F5" d="M0 0h693v797H0z"/><mask id="mask0_157_604" style="mask-type:alpha" maskUnits="userSpaceOnUse" x="0" y="0" width="693" height="797"><path d="M693 0H0v797h693V0z" fill="#8294AD"/></mask><g mask="url(#mask0_157_604)" fill="#00239C"><path d="M1172.55 1073.04C1442.3 1025.5 1541.89 408.482 1462.8-26c-71.19-434.479-495.891-670.485-970.452-709.984-213.561-23.699-403.386 15.8-490.387 71.097 0 0-47.456 31.598-47.456 71.097 0 0 490.381-71.097 696.03 150.093C832.449-246.205 697.989-9.218 697.989-9.218 618.896 148.78 429.07 338.372 429.07 338.372S175.967 583.262 96.873 725.451C57.327 796.552 33.6 867.646 33.6 930.846c0 134.294 94.913 189.594 126.552 197.484 268.919 126.4 798.846 23.71 1012.399-55.29z"/><path d="M-724.5-291.499c-79.093 110.595-142.594 641.519-63.5 1076 71.184 434.479 552.689 612.429 1027.257 651.929 213.553 23.7 403.378-15.79 490.376-71.09 0 0 47.462-31.6 47.462-71.1 0 0-490.383 71.1-696.032-150.09-181.914-197.497-47.454-434.485-47.454-434.485 79.093-157.992 268.918-347.584 268.918-347.584s253.104-244.89 332.197-387.086c39.543-71.097 63.277-142.193 63.277-205.391 0-134.294-94.916-189.592-126.555-197.491C302.527-554.282-510.945-370.496-724.5-291.499z"/></g></svg>