<svg id="declareIcon" width="100%" height="100%" viewBox="0 0 18 14" fill="none" xmlns="http://www.w3.org/2000/svg"><path d="M15.662 6.283a5.438 5.438 0 00-.561-2.396A5.268 5.268 0 0013.55 2.01a.584.584 0 00-.826.144.63.63 0 00.122.853c.501.376.91.869 1.19 1.438a4.151 4.151 0 010 3.677 4.02 4.02 0 01-1.19 1.438.608.608 0 00-.249.403.632.632 0 00.106.466.606.606 0 00.398.247.582.582 0 00.449-.12A5.264 5.264 0 0015.1 8.68a5.43 5.43 0 00.561-2.397z" fill="#fff"/><path d="M14.948.117a.584.584 0 00-.826.144.63.63 0 00.122.853 6.337 6.337 0 011.878 2.266 6.552 6.552 0 010 5.796 6.337 6.337 0 01-1.878 2.266.615.615 0 00-.216.309.635.635 0 000 .38c.04.123.116.231.218.307a.587.587 0 00.35.118.586.586 0 00.352-.107 7.547 7.547 0 002.245-2.701A7.803 7.803 0 0018 6.289a7.793 7.793 0 00-.807-3.458A7.546 7.546 0 0014.948.13V.117zm-9.793 2.89a.631.631 0 00.121-.853.584.584 0 00-.825-.143 5.243 5.243 0 00-1.555 1.875 5.413 5.413 0 00-.558 2.397c0 .834.191 1.655.558 2.398.368.743.9 1.385 1.554 1.875a.592.592 0 00.45.12.586.586 0 00.397-.247.626.626 0 00.021-.693.609.609 0 00-.163-.176 4.021 4.021 0 01-1.191-1.438 4.151 4.151 0 010-3.677c.281-.57.69-1.062 1.19-1.438z" fill="#fff"/><path d="M3.756 11.448a6.337 6.337 0 01-1.878-2.266 6.542 6.542 0 01-.675-2.898c0-1.007.232-2 .675-2.897A6.336 6.336 0 013.756 1.12a.612.612 0 00.241-.403.637.637 0 00-.106-.46.608.608 0 00-.392-.25.583.583 0 00-.447.11A7.547 7.547 0 00.807 2.82 7.793 7.793 0 000 6.277C0 7.48.277 8.665.807 9.735a7.548 7.548 0 002.245 2.702.587.587 0 00.351.12.586.586 0 00.351-.118.616.616 0 00.217-.308.634.634 0 00.001-.38.616.616 0 00-.216-.309v.006zM8.863 2.8c-.84.043-1.633.41-2.221 1.028a3.499 3.499 0 00-.957 2.307 3.49 3.49 0 00.384 1.67c.264.514.65.95 1.124 1.265a.907.907 0 01.294.333.94.94 0 01.105.436.59.59 0 00.163.408.556.556 0 00.396.17h1.735c.14 0 .276-.058.375-.16a.555.555 0 00.156-.387.986.986 0 01.101-.454.954.954 0 01.297-.352 3.397 3.397 0 001.31-1.717 3.51 3.51 0 00.031-2.183 3.406 3.406 0 00-1.26-1.756A3.24 3.24 0 008.861 2.8h.002zm1.244 9.393H7.885a.302.302 0 00-.297.306v.177c0 .169.133.306.297.306h2.222a.302.302 0 00.297-.306v-.177a.302.302 0 00-.297-.306zm0-1.283H7.885a.302.302 0 00-.297.306v.177c0 .169.133.306.297.306h2.222a.302.302 0 00.297-.306v-.177a.302.302 0 00-.297-.306zM9.036 14a.934.934 0 00.466-.154.972.972 0 00.332-.37H8.158c.083.163.21.3.365.393a.923.923 0 00.513.13z" fill="#fff"/></svg>