<svg width="105" height="73" fill="none" xmlns="http://www.w3.org/2000/svg"><mask id="mask0_110_450" style="mask-type:alpha" maskUnits="userSpaceOnUse" x="0" y="0" width="105" height="73"><path d="M0 21.5V6.8L33.6 0v71.3H17.3v-54L0 21.5zm104.579 27.4c0 4.133-.833 7.7-2.5 10.7-1.6 3-3.767 5.467-6.5 7.4-2.733 1.867-5.767 3.267-9.1 4.2-3.333.933-6.7 1.4-10.1 1.4-6.467 0-11.967-.9-16.5-2.7-4.467-1.8-8.333-3.933-11.6-6.4l6.6-13.9c2.8 2.4 5.8 4.267 9 5.6 3.2 1.267 6.1 1.9 8.7 1.9 4.2 0 7.5-.8 9.9-2.4 2.4-1.667 3.6-4.2 3.6-7.6 0-2.267-.667-4.1-2-5.5-1.267-1.467-2.933-2.533-5-3.2a19.293 19.293 0 00-6.5-1.1c-2.667 0-5.733.3-9.2.9-3.467.533-6.967 1.7-10.5 3.5l9.8-40.4h40.5V16h-28.1l-4 12.4a20.413 20.413 0 015.8-1.9c2.067-.333 4.2-.5 6.4-.5 3.733 0 7.2.9 10.4 2.7 3.267 1.8 5.9 4.4 7.9 7.8 2 3.4 3 7.533 3 12.4z" fill="#202020"/></mask><g mask="url(#mask0_110_450)"><path d="M100.726 86.28c5.489-7.733 16.467-39.218 10.978-69.597-4.94-30.38-25.248-54.13-58.18-56.892-14.82-1.657-27.993 1.104-34.03 4.97 0 0-3.294 2.21-3.294 4.972 0 0 34.03-4.971 48.301 10.495 12.624 13.808 3.293 30.379 3.293 30.379C62.305 21.654 49.133 34.91 49.133 34.91S31.567 52.034 26.08 61.976c-2.745 4.971-4.391 9.942-4.391 14.361 0 9.39 6.586 13.257 8.782 13.809 18.662 8.838 55.436 1.657 70.255-3.866z" fill="#E4002B"/><path d="M-15.555-13.68c-5.828 7.733-17.485 39.218-11.657 69.597 5.246 30.379 26.81 54.13 61.78 56.892 15.736 1.657 29.724-1.104 36.135-4.971 0 0 3.497-2.209 3.497-4.971 0 0-36.135 4.971-51.289-10.495-13.405-13.809-3.497-30.379-3.497-30.379C25.242 50.946 39.23 37.69 39.23 37.69s18.65-17.123 24.48-27.066c2.914-4.971 4.663-9.942 4.663-14.361 0-9.39-6.994-13.257-9.326-13.809C39.23-26.384.181-19.203-15.555-13.68z" fill="#00239C"/></g></svg>