<svg id="experience1" width="150" height="73" fill="none" xmlns="http://www.w3.org/2000/svg"><mask id="mask0_110_430" style="mask-type:alpha" maskUnits="userSpaceOnUse" x="0" y="0" width="150" height="73"><path d="M0 71.4l31.2-32.3c2.8-3 5-5.667 6.6-8 1.6-2.4 2.4-4.967 2.4-7.7 0-2.267-.8-4.3-2.4-6.1-1.6-1.8-4-2.7-7.2-2.7-3.267 0-5.867 1.2-7.8 3.6-1.867 2.333-2.8 5.367-2.8 9.1H3.4c0-5 1.033-9.567 3.1-13.7 2.133-4.133 5.267-7.433 9.4-9.9C20.033 1.233 25.133 0 31.2 0 37 0 41.867 1.133 45.8 3.4c3.933 2.2 6.9 5 8.9 8.4 2 3.4 3 6.867 3 10.4 0 3.733-.933 7.2-2.8 10.4-1.8 3.2-4.233 6.1-7.3 8.7L31.4 55.9h28v15.5H0zm67.625-35c0-7.6 1.2-14.1 3.6-19.5 2.467-5.467 5.867-9.633 10.2-12.5 4.4-2.867 9.5-4.3 15.3-4.3 6 0 11.167 1.433 15.5 4.3s7.667 7.033 10 12.5c2.4 5.4 3.6 11.9 3.6 19.5s-1.2 14.1-3.6 19.5c-2.333 5.4-5.667 9.567-10 12.5-4.333 2.867-9.5 4.3-15.5 4.3-5.8 0-10.9-1.433-15.3-4.3-4.333-2.933-7.733-7.1-10.2-12.5-2.4-5.4-3.6-11.9-3.6-19.5zm16.3 0c0 6.6 1.167 11.9 3.5 15.9 2.333 3.933 5.433 5.9 9.3 5.9 3.867 0 6.967-1.967 9.3-5.9 2.333-4 3.5-9.3 3.5-15.9s-1.167-11.867-3.5-15.8c-2.333-4-5.433-6-9.3-6-3.867 0-6.967 2-9.3 6-2.333 3.933-3.5 9.2-3.5 15.8zM129.6 17.12v-4.28h7.92V4.76h4.52v8.08h7.92v4.28h-7.92v8.08h-4.52v-8.08h-7.92z" fill="#202020"/></mask><g mask="url(#mask0_110_430)"><path d="M132.615 94.071c8.552-7.243 20.174-44.406 23.005-80.875 3.455-36.306-39.371-2.749-76-15.67-16.361-6.29-7.479-27.976-15.5-25.33 0 0 15.83 46.033 6.5 12 0 0 29.388-21.965 41 0 10.233 19.577 6.142 13.33 6.142 13.33-9.542 11.045-28.484 22.348-28.484 22.348S64.188 34.311 54.976 44.09c-4.606 4.889-7.963 10.102-9.283 15.17-2.805 10.77 3.532 17.156 5.864 18.439 18.585 15.664 62.554 18.319 81.058 16.373z" fill="#E4002B"/><path d="M28.62-4.804c-8.99 7.13-30.268-9.982-32.66 26.601-3.062 36.41 14.563 70.087 53.821 83.693 17.543 6.597-50.854 5.333-7.257-10.794 43.596-16.126-57.962-24.22-10.904 0 0 0 23.654 6.136 10.904-16.126-11.241-19.839 5.065-35.886 5.065-35.886 9.98-10.931 29.972-21.96 29.972-21.96s26.492-14.072 36.143-23.736c4.824-4.832-33.403 5.068-32.084 0 2.805-10.77-14.992 23.038-17.5 21.708-20.074-16.05-15.813-25.138-35.5-23.5z" fill="#00239C"/></g></svg>