<svg width="107" height="73" fill="none" xmlns="http://www.w3.org/2000/svg"><mask id="mask0_112_483" style="mask-type:alpha" maskUnits="userSpaceOnUse" x="0" y="0" width="107" height="73"><path d="M0 21.5V6.8L33.6 0v71.3H17.3v-54L0 21.5zm48.079 14.8c0-7.6 1.2-14.1 3.6-19.5 2.467-5.467 5.867-9.633 10.2-12.5 4.4-2.867 9.5-4.3 15.3-4.3 6 0 11.167 1.433 15.5 4.3s7.667 7.033 10 12.5c2.4 5.4 3.6 11.9 3.6 19.5s-1.2 14.1-3.6 19.5c-2.333 5.4-5.667 9.567-10 12.5-4.333 2.867-9.5 4.3-15.5 4.3-5.8 0-10.9-1.433-15.3-4.3-4.333-2.933-7.733-7.1-10.2-12.5-2.4-5.4-3.6-11.9-3.6-19.5zm16.3 0c0 6.6 1.167 11.9 3.5 15.9 2.333 3.933 5.433 5.9 9.3 5.9 3.867 0 6.967-1.967 9.3-5.9 2.333-4 3.5-9.3 3.5-15.9s-1.167-11.867-3.5-15.8c-2.333-4-5.433-6-9.3-6-3.867 0-6.967 2-9.3 6-2.333 3.933-3.5 9.2-3.5 15.8z" fill="#202020"/></mask><g mask="url(#mask0_112_483)"><path d="M100.726 86.28c5.489-7.733 16.467-39.218 10.978-69.597-4.94-30.38-25.248-54.13-58.18-56.892-14.82-1.657-27.993 1.104-34.03 4.97 0 0-3.294 2.21-3.294 4.972 0 0 34.03-4.971 48.301 10.495 12.624 13.808 3.293 30.379 3.293 30.379C62.305 21.654 49.133 34.91 49.133 34.91S31.567 52.034 26.08 61.976c-2.745 4.971-4.391 9.942-4.391 14.361 0 9.39 6.586 13.257 8.782 13.809 18.662 8.838 55.436 1.657 70.255-3.866z" fill="#E4002B"/><path d="M-15.555-13.68c-5.828 7.733-17.485 39.218-11.657 69.597 5.246 30.379 26.81 54.13 61.78 56.892 15.736 1.657 29.724-1.104 36.135-4.971 0 0 3.497-2.209 3.497-4.971 0 0-36.135 4.971-51.289-10.495-13.405-13.809-3.497-30.379-3.497-30.379C25.242 50.946 39.23 37.69 39.23 37.69s18.65-17.123 24.48-27.066c2.914-4.971 4.663-9.942 4.663-14.361 0-9.39-6.994-13.257-9.326-13.809C39.23-26.384.181-19.203-15.555-13.68z" fill="#00239C"/></g></svg>