<svg width="140" height="73" fill="none" xmlns="http://www.w3.org/2000/svg"><mask id="mask0_112_472" style="mask-type:alpha" maskUnits="userSpaceOnUse" x="0" y="0" width="140" height="73"><path d="M26.9 72.9c-5.6 0-10.433-1.1-14.5-3.3-4-2.267-7.067-5.2-9.2-8.8C1.067 57.133 0 53.233 0 49.1h16.7c0 3.467 1.1 6.033 3.3 7.7 2.2 1.667 4.733 2.5 7.6 2.5 2.933 0 5.333-.7 7.2-2.1 1.867-1.467 2.8-3.7 2.8-6.7 0-2.933-1.2-5.3-3.6-7.1-2.4-1.8-6.167-2.7-11.3-2.7V29.8c3.933 0 7.067-.933 9.4-2.8 2.333-1.867 3.5-4.033 3.5-6.5 0-2.067-.667-3.733-2-5-1.267-1.333-3.233-2-5.9-2-2.6 0-4.767.8-6.5 2.4-1.733 1.533-2.6 3.5-2.6 5.9H3c0-4.2 1-7.933 3-11.2 2.067-3.267 4.933-5.833 8.6-7.7C18.333.967 22.7 0 27.7 0c5.267 0 9.733.867 13.4 2.6s6.467 4.067 8.4 7c1.933 2.933 2.9 6.2 2.9 9.8 0 3.6-1.1 6.667-3.3 9.2-2.133 2.533-5.067 4.5-8.8 5.9 4.4 1.467 7.833 3.667 10.3 6.6 2.533 2.867 3.8 6.567 3.8 11.1 0 4.067-1.1 7.667-3.3 10.8-2.2 3.067-5.367 5.5-9.5 7.3-4.067 1.733-8.967 2.6-14.7 2.6zm34.41-36.6c0-7.6 1.2-14.1 3.6-19.5 2.466-5.467 5.866-9.633 10.2-12.5 4.4-2.867 9.5-4.3 15.3-4.3 5.999 0 11.166 1.433 15.499 4.3 4.334 2.867 7.667 7.033 10 12.5 2.4 5.4 3.6 11.9 3.6 19.5s-1.2 14.1-3.6 19.5c-2.333 5.4-5.666 9.567-10 12.5-4.333 2.867-9.5 4.3-15.5 4.3-5.8 0-10.9-1.433-15.3-4.3-4.333-2.933-7.733-7.1-10.2-12.5-2.4-5.4-3.6-11.9-3.6-19.5zm16.3 0c0 6.6 1.166 11.9 3.5 15.9 2.333 3.933 5.433 5.9 9.3 5.9 3.866 0 6.966-1.967 9.299-5.9 2.334-4 3.5-9.3 3.5-15.9s-1.166-11.867-3.5-15.8c-2.333-4-5.433-6-9.3-6-3.866 0-6.966 2-9.3 6-2.333 3.933-3.5 9.2-3.5 15.8zm41.19-19.28v-4.28h7.92V4.66h4.52v8.08h7.92v4.28h-7.92v8.08h-4.52v-8.08h-7.92z" fill="#202020"/></mask><g mask="url(#mask0_112_472)"><path d="M128.815 93.971c8.552-7.243 30.441-40.103 33.272-76.571 3.455-36.307-12.549-69.562-49.178-82.483-16.361-6.29-32.168-7.024-40.189-4.377 0 0-4.405 1.558-5.23 4.726 0 0 40.188 4.377 51.8 26.342 10.233 19.577-5.328 35.818-5.328 35.818-9.542 11.045-28.484 22.348-28.484 22.348S60.388 34.211 51.176 43.99c-4.606 4.889-7.963 10.102-9.283 15.17-2.804 10.77 3.532 17.156 5.864 18.439 18.585 15.664 62.554 18.319 81.058 16.373z" fill="#E4002B"/><path d="M26.307-54.646c-8.99 7.13-31.755 39.76-34.148 76.343-3.06 36.41 14.564 70.087 53.822 83.693 17.543 6.597 34.401 7.605 42.904 5.084 0 0 4.669-1.49 5.494-4.658 0 0-42.905-5.084-55.655-27.346-11.241-19.839 5.065-35.887 5.065-35.887 9.98-10.93 29.972-21.96 29.972-21.96s26.493-14.071 36.143-23.735c4.824-4.832 8.314-10.011 9.633-15.08 2.805-10.77-4.057-17.291-6.565-18.62-20.074-16.052-66.978-19.472-86.665-17.834z" fill="#00239C"/></g></svg>