<svg id="logo" width="100%" height="100%" viewBox="0 0 83 70" fill="none" xmlns="http://www.w3.org/2000/svg"><path d="M28.721 37.424c-.852 0-1.582-.608-1.582-1.46 0-.728.73-1.458 1.582-1.458.974 0 1.582.608 1.582 1.459 0 .85-.73 1.459-1.582 1.459zM21.541 49.7a7.139 7.139 0 01-3.164-.729l.73-1.823s.852.486 1.947.486c.852 0 1.339-.486 1.339-1.094 0-1.58-3.651-1.215-3.773-4.376-.121-1.823 1.46-3.16 3.53-3.16 1.825 0 3.042.73 3.042.73l-.608 1.701c-.366-.122-.974-.486-1.704-.486-.852 0-1.339.486-1.217 1.094.122 1.337 3.894 1.215 3.894 4.497 0 1.702-1.46 3.16-4.016 3.16zm13.144 0a7.138 7.138 0 01-3.165-.729l.73-1.823s.853.486 1.948.486c.852 0 1.339-.486 1.339-1.094 0-1.58-3.651-1.215-3.773-4.376-.122-1.823 1.46-3.16 3.53-3.16 1.946 0 3.042.73 3.042.73l-.609 1.701c-.365-.122-.973-.486-1.704-.486-.852 0-1.217.486-1.217 1.094.122 1.337 3.895 1.215 3.895 4.497 0 1.702-1.46 3.16-4.016 3.16zm-20.933 0a7.138 7.138 0 01-3.164-.729l.73-1.823s.852.486 1.947.486c.852 0 1.34-.486 1.34-1.094 0-1.58-3.652-1.215-3.774-4.376-.121-1.823 1.46-3.16 3.53-3.16 1.825 0 3.042.73 3.042.73l-.608 1.701c-.366-.122-.974-.486-1.704-.486-.852 0-1.339.486-1.217 1.094.121 1.337 3.894 1.215 3.894 4.497.122 1.702-1.46 3.16-4.016 3.16zm26.409-12.884l3.043-.73v3.04h1.825v1.944h-1.825v5.348c0 .851.243 1.216.973 1.216.244 0 .609 0 .852-.122v1.824c-.243.121-.973.243-1.704.243-2.19 0-3.042-1.459-3.042-3.039v-9.724h-.122zm11.44 7.171c-1.704.122-2.556.851-2.556 2.31 0 1.215.73 1.701 1.704 1.701.365 0 .609-.121.974-.243v-3.768H51.6zM50.506 49.7c-2.921 0-4.503-1.094-4.503-3.282 0-2.674 2.556-3.525 5.598-3.768v-.486c0-1.094-.608-1.337-1.582-1.337-1.217 0-2.677.608-2.677.608l-.487-1.824s1.46-.729 3.65-.729c2.191 0 4.017.972 4.017 3.768v5.956c-.852.608-2.313 1.094-4.016 1.094zm11.318-.243v-7.293c0-.73-.365-1.459-1.46-1.459-.244 0-.73.122-.974.243v8.509h-3.043v-9.724c1.218-.486 2.678-.851 4.017-.851 3.286 0 4.503 1.459 4.503 3.282v7.293h-3.043zm15.091-5.592c-.122-2.187.365-3.16 1.582-3.16 1.095 0 1.704.851 1.704 2.674l-3.286.486zm1.704-4.983c-2.921 0-4.625 2.066-4.625 5.348s1.947 5.47 4.99 5.47c1.339 0 2.312-.243 3.53-.73v-2.187c-1.096.486-2.07.85-3.165.85-1.46 0-1.947-.729-2.19-2.309l5.84-.85c0-3.526-1.46-5.592-4.38-5.592zM70.952 49.7c-2.678 0-4.747-1.945-4.747-5.47 0-3.525 2.19-5.348 4.747-5.348 1.338 0 2.312.365 2.799.73l-.73 1.701c-.244-.243-.73-.365-1.34-.365-1.46 0-2.433 1.216-2.433 3.282 0 2.067 1.095 3.282 2.434 3.282.608 0 1.095-.121 1.338-.486l.73 1.823c-.486.486-1.703.851-2.798.851zM6.45 43.987c-1.704.122-2.556.851-2.556 2.31 0 1.215.73 1.701 1.704 1.701.365 0 .609-.121.974-.243v-3.768H6.45zM5.355 49.7c-2.921 0-4.503-1.094-4.503-3.282 0-2.674 2.556-3.525 5.598-3.768v-.486c0-1.094-.608-1.337-1.582-1.337-1.217 0-2.677.608-2.677.608l-.487-1.824s1.46-.729 3.65-.729c2.191 0 4.017.972 4.017 3.768v5.956c-.73.608-2.19 1.094-4.016 1.094zm24.948-10.695h-3.042v10.453h3.042V39.005zm30.791-18.719c-3.043 0-4.503 1.094-4.503 3.646v7.293h3.164v-7.414c0-.73.365-1.337 1.46-1.46h.73l.366-2.065h-1.217zM50.262 31.468c-3.042 0-4.503-1.094-4.503-3.768v-7.171h3.165v7.414c0 .73.365 1.459 1.46 1.459.608 0 .974-.122 1.339-.243v-8.63h3.164v9.967c-1.217.486-3.043.972-4.625.972zm16.673-9.238c-1.338 0-1.703 1.702-1.703 3.647 0 1.945.243 3.525 1.703 3.525 1.34 0 1.704-1.58 1.704-3.525 0-1.945-.243-3.646-1.704-3.646zm0 9.238c-3.164 0-4.746-2.31-4.746-5.591 0-3.16 1.582-5.591 4.746-5.591 3.165 0 4.747 2.31 4.747 5.591 0 3.16-1.582 5.591-4.747 5.591zm10.467-9.359c-.487 0-.73 0-.974.122v7.05c.243.121.487.121.852.121 1.704 0 2.434-1.337 2.434-3.646-.122-2.31-.73-3.647-2.312-3.647zm.608 9.238c-.608 0-1.217-.122-1.582-.122v3.525h-3.164V21.137c.974-.487 2.19-.73 4.138-.73 3.164 0 5.233 1.824 5.233 5.47 0 3.404-1.826 5.47-4.625 5.47zM38.092 25.39c-.121-2.187.487-3.281 1.704-3.281 1.096 0 1.704.85 1.704 2.795l-3.408.487zm1.826-5.104c-3.043 0-4.868 2.188-4.868 5.47 0 3.646 1.947 5.59 5.233 5.59 1.46 0 2.434-.242 3.65-.729V28.43c-1.216.487-2.19.851-3.285.851-1.582 0-2.069-.85-2.312-2.31l6.085-.85c.121-3.768-1.46-5.834-4.503-5.834zM3.042 5.7C1.825 7.4-.608 14.33.608 21.014c1.096 6.685 5.599 11.912 12.9 12.52 3.287.364 6.207-.243 7.546-1.094 0 0 .73-.487.73-1.094 0 0-7.545 1.094-10.71-2.31-2.798-3.039-.73-6.685-.73-6.685 1.218-2.431 4.138-5.348 4.138-5.348s3.895-3.769 5.112-5.956c.608-1.094.973-2.188.973-3.16 0-2.067-1.46-2.918-1.947-3.04-4.138-1.944-12.292-.364-15.578.851z" fill="#00239C"/><path d="M27.87 27.943c1.216-1.702 3.65-8.63 2.433-15.315C29.209 5.942 24.706.716 17.404.108c-3.286-.365-6.207.243-7.545 1.094 0 0-.73.486-.73 1.094 0 0 7.545-1.094 10.71 2.31 2.798 3.038.73 6.685.73 6.685-1.218 2.43-4.138 5.348-4.138 5.348s-3.895 3.768-5.112 5.956c-.608 1.094-.973 2.188-.973 3.16 0 2.067 1.46 2.917 1.947 3.039 4.138 1.945 12.292.365 15.577-.85zM57.443 59.06c-.244 0-.365.122-.609.365-1.095 1.337-1.704 2.067-1.704 2.31 0 0 .122.121.365.121.366 0 .852-.243 1.34-.85.486-.608.73-1.216.73-1.58.121-.365.121-.365-.122-.365zm-2.434 3.16c-.122.122-.244.366-.365.73-.122.486-.122.851-.122 1.094 0 .365.243.608.852.608.486 0 1.217-.365 1.825-.973.73-.607 1.217-1.215 1.46-1.823 0 0 .487-.121.366.243-.365.973-.852 1.702-1.582 2.31-.73.608-1.34.85-2.07.85-.486 0-.851-.12-1.216-.486-.244-.364-.365-.85-.365-1.337 0-.85.486-1.823 1.338-3.038.852-1.337 1.704-1.945 2.434-1.945.609 0 .73.73.73.85 0 .487-.243 1.095-.73 1.824-.486.85-1.095 1.215-1.825 1.215-.487.122-.73-.121-.73-.121zm26.287-3.16c-.243 0-.365.122-.608.365-1.096 1.337-1.704 2.067-1.704 2.31 0 0 .122.121.365.121.365 0 .852-.243 1.339-.85.486-.608.73-1.216.73-1.58.121-.365 0-.365-.122-.365zm-2.434 3.16c-.122.122-.243.366-.365.73-.122.486-.122.851-.122 1.094 0 .365.244.608.852.608.487 0 1.217-.365 1.826-.973.73-.607 1.217-1.215 1.46-1.823 0 0 .487-.121.365.243-.365.973-.852 1.702-1.582 2.31-.73.608-1.339.85-2.069.85-.487 0-.852-.12-1.217-.486-.243-.364-.365-.85-.365-1.337 0-.85.487-1.823 1.339-3.038.852-1.337 1.704-1.945 2.434-1.945a.67.67 0 01.608.364c.122.122.122.365.122.487 0 .486-.243 1.094-.73 1.823-.487.85-1.096 1.215-1.826 1.215-.486.122-.73-.121-.73-.121zm-12.048-2.43c-.122 0-.244-.122-.487-.244-.243-.243-.365-.243-.609-.243-.608 0-1.338.608-2.069 1.824-.608 1.094-.973 1.944-.973 2.552 0 .73.243.973.852.973.608 0 1.095-.244 1.704-.608a7.001 7.001 0 001.338-1.337l.122-.122c.243 0 .243.243.243.365-.973 1.458-1.703 1.823-1.825 1.945-.73.486-1.217.486-1.46.486-.609 0-.974-.243-1.218-.608a2.052 2.052 0 01-.365-1.215c0-.851.365-1.824 1.096-2.918.852-1.337 1.704-1.944 2.555-1.944.122 0 .365.121.73.243.366.121.61.364.61.607.12 0 0 .243-.244.243zm8.519 1.093c.608-1.701 1.338-2.552 2.19-2.552.487 0 .852.243.852.73 0 .242 0 .364-.243.364-.122 0-.122 0-.122-.122 0-.121-.122-.243-.122-.243 0-.121-.121-.121-.243-.121-.243 0-.608.243-.974.85-.486.608-.852 1.216-.973 1.824-.244.608-.244 1.215-.244 2.066v1.337c0 .243-.365.365-.486.365-.244 0-.487-.243-.365-.73.121-1.093.121-1.944.121-2.673 0-.73 0-1.58-.121-2.553 0-.122.121-.486.486-.486.122 0 .365.121.365.243 0 .121.122.243.122.365-.243.486-.365.972-.243 1.337zm-22.758-2.309c-.122-.243-.244-.486-.609-.486-.243 0-.487.243-.487.365-.121.121 0 .364.122.486s.365 0 .487-.122c.365.487.365 1.824.365 2.31 0 1.094-.243 2.066-.609 2.674-.365.73-.73.972-1.095.972 0 0-.73 0-1.095-.85-.244-.365-.244-.973-.244-1.702 0-.851.122-1.702.244-2.674.122-.486-.487-.365-.487-.365-.122 0-.243.243-.365.608-.122.364-.243.73-.243.972-.244.73-.487 1.459-.852 2.188-.487 1.094-.974 1.702-1.217 1.702-.122 0-.244-.365-.122-.973 0-.607.243-1.823.487-3.403.122-.486-.122-.608-.365-.608-.244 0-.487.486-.609 1.337-.121.973-.121 1.824-.243 2.431 0 .365 0 .73.122 1.094.121.608.365.851.73.851.486 0 .973-.73 1.582-2.066.243-.73.487-1.337.73-1.823-.122 1.337 0 2.066.243 2.674.487 1.094 1.46 1.337 1.704 1.337.73 0 1.217-.608 1.582-1.337.365-.73.609-1.824.609-3.04.122-.485 0-1.944-.365-2.552zm20.689 5.105c-.244 0-.365.121-.365.364 0 .244-.365.244-.365.244-.244-.122-.366-.365-.366-.973 0-.243.122-1.094.366-2.553.121-.364-.122-.486-.366-.486-.243 0-.243 0-.365.244-.121.243-.121.85-.243 1.458-.73 1.094-1.339 1.823-1.704 2.188-.487.486-.73.608-.852.608-.121 0-.243-.608-.243-.851 0-1.094.365-2.796.73-3.525.487-.85.974-1.094 1.339-1.094s.73.243.73.608c0 .121.243.364.365.243.122 0 .365-.243.243-.365-.121-.73-.73-1.215-1.46-1.215s-1.46.486-1.947 1.458c-.487.851-.852 2.553-.852 3.768 0 .365 0 .73.122.973.121.243.365.608.73.608.487 0 .852-.244 1.339-.73.365-.364.73-.85 1.217-1.458 0 .85.365 1.215.73 1.458.121 0 .973.365 1.217-.608.121 0 .243-.364 0-.364z" fill="#E4002B"/><path d="M10.466 60.519c-.852 1.093-1.217 2.187-1.217 3.038 0 .365 0 1.094.487 1.094s1.095-.486 1.704-1.701c.487-.973.73-1.824.73-2.31 0-1.094-.365-1.215-.487-1.215-.243 0-.608.121-.973.486.121.121 0 .364-.244.608zm-2.19 3.16c0-.851.243-1.824.608-2.796.365-.972.852-1.702 1.46-1.58.122-.243.366-.365.61-.486.364-.122.607-.243.73-.243 1.581 0 1.581 2.188 1.581 2.188 0 .607-.365 1.58-.852 2.674-.73 1.215-1.46 1.944-2.434 2.066 0 0-1.582.243-1.703-1.823zm5.476.121c0-.364.122-1.094.487-2.43.122-.73.365-1.338.487-1.703.122-.364.243-.607.608-.607.122 0 .73.121.609.486 0 .122-.243.608-.243.608-.73 1.823-.974 3.16-.974 3.89 0 .364 0 .486.122.486.121 0 .365-.243.73-.73.487-.486.852-1.215 1.338-2.066.487-.973.73-1.702.73-2.067 0-.242.122-.85.73-.85.488 0 .61.364.61.608 0 .121 0 .364-.122.85-.122.487-.122.973-.122 1.337 0 .851.122 1.459.243 1.824.122.364.244.486.487.486 0 0 .122 0 .244-.122.121-.121.121-.121.365-.243h.243c.122.122.243.243.243.365 0 .243-.243.486-.486.608-.244.121-.365.243-.609.243-.487 0-.852-.243-1.095-.73-.243-.364-.365-.972-.487-1.701-.487.85-.73 1.458-.852 1.701-.973 1.58-1.947 1.46-1.947 1.46-.73 0-1.339-.244-1.339-1.703zm15.334.73c-.121.243-.243.243-.243.243s-.243.122-.487-.608c-.122-.364-.487-1.458.122-3.646 0 0 .243-.608.243-.851 0-.486-.365-.608-.486-.608-.244 0-.487.243-.609.486-.365.973-.487 2.553-.487 3.04 0 .485.122 1.093.244 1.7.243.852.73 1.338 1.338 1.338.122 0 .852-.122.852-.73-.122-.607-.487-.486-.487-.364zm-.121-7.05c.243 0 .365 0 .486-.121.122-.122.366-.487 0-.851-.365-.365-.73-.122-.851 0-.244.364-.122.729 0 .85 0 .122.121.122.365.122zm9.492 3.282c.974-1.216.609-1.823.609-1.823-.122 0-.365.121-.609.364-.73.73-1.46 1.58-1.582 2.188 0 0 .73.486 1.582-.73zm-2.92 4.011c-.487-.608-.365-1.458-.365-1.458 0-.851.486-1.945 1.338-3.16.852-1.338 1.704-1.946 2.556-1.946.243 0 .608.122.73.365s.122.365.122.608c0 .607-.243 1.215-.73 1.945-.487.85-1.217 1.337-1.948 1.337-.243 0-.486 0-.73-.122 0 .122-.121.365-.243.608-.122.486-.122.85-.122 1.094 0 .364.122.486.73.486.487 0 1.096-.243 1.826-.85.73-.609 1.095-1.216 1.46-1.824l.122-.122s.73-.121.487.486c-.365.973-.852 1.702-1.582 2.31-.73.608-1.46.85-2.191.85-.73 0-1.095-.242-1.46-.607zM7.18 61.37c-.121-.73-.365-2.431-.365-2.431 0-.608-.243-.973-.73-.973s-.609.365-.609.608v1.58c0 1.58-.121 2.553-.486 3.16-.244.608-.487.73-.974.73s-.852-.243-1.217-.73c-.243-.486-.487-1.093-.487-1.822 0-.851.244-1.824.73-2.553.122-.243.122-.486-.121-.608-.244-.121-.487-.121-.609.122-.608.972-.852 2.066-.852 3.038 0 .851.244 1.702.609 2.431a2.305 2.305 0 001.947 1.094s1.217 0 1.826-1.337c.121-.364.243-.729.365-1.215v1.094c0 1.337-.244 2.552-.852 3.646-.609 1.216-1.339 1.824-2.313 1.824-.121 0-.608 0-1.338-.487-.609-.486-.73-1.337-.852-1.458 0-.243-.244-.365-.365-.365-.365 0-.487.365-.487.486 0 .487.243 1.094.852 1.702C1.46 69.636 2.19 70 3.042 70c1.46 0 2.556-.972 3.286-2.674.487-1.216.852-2.431.852-3.768.244-1.337.122-2.066 0-2.188zm27.992-2.432c-.244-.122-.487 0-.73.122-.366.364-.73.85-1.096 1.458-.243.365-1.217 3.039-1.217 3.039 0-.122-.608-1.58-.974-2.674-.243-.608-.243-.608-.365-.973-.365-.729-.73-.486-.852-.364-.365.243-.243.608-.243.608 1.339 2.188 1.582 3.646 1.704 4.132.121.365.243.608.365.73.122.121.243.243.365.243.243 0 .243-.122.365-.365.122-.122.243-.486.365-.73.365-.972.852-1.944 1.217-2.795.365-.73.609-1.215.852-1.459l.365-.364c0-.122.122-.486-.121-.608zm-10.71 6.078c-.487-.608-.73-1.702-.852-3.647 0-1.701.243-3.89.974-6.928a.67.67 0 01.608-.365.668.668 0 01.365.608c-.73 2.917-.973 5.105-.973 6.564 0 1.823.365 2.795.608 2.917.122.121.243.243.852 0 .243-.243.608-.122.73.121.122.244.122.487-.122.73-.121 0-.608.364-.973.364-.244.122-.73.244-1.217-.364z" fill="#00239C"/></svg>