<svg width="18" height="11" fill="none" xmlns="http://www.w3.org/2000/svg"><path fill-rule="evenodd" clip-rule="evenodd" d="M14.77 10.232h-.128c-.88-.139-1.425-.735-1.936-1.29-.293-.313-.765-1.117-1.291-1.033-.748.118-.33 1.403-.645 1.936-.25.426-1.329.335-2.065.258-2.337-.24-3.604-1.409-4.647-2.71-1.12-1.388-1.927-2.91-2.71-4.517C1.09 2.35.702 1.837.702 1.198 1.082.901 1.755.94 2.38.94c.526 0 1.29-.06 1.678.13.23.114.46.776.645 1.16.363.77.795 1.504 1.291 2.195.226.31.631.854 1.033.774.394-.076.37-.95.387-1.549.02-.68.074-1.573-.13-1.935-.187-.34-.553-.313-.903-.517.29-.567 1.097-.645 2.065-.645.812 0 1.874-.129 2.195.387.318.533.153 1.609.129 2.323-.024.802-.182 1.564.387 1.936.44-.046.65-.452.903-.774.561-.709.987-1.284 1.42-2.194.176-.38.325-1.041.645-1.162.49-.176 1.22-.129 1.936-.129.591 0 1.62-.133 1.807.258.152.313-.245 1.194-.387 1.42-.545.86-1.092 1.447-1.678 2.194-.236.302-.677.685-.645 1.161.02.368.355.646.645.904a13.282 13.282 0 011.55 1.677c.19.238.687.725.644 1.033-.119.96-3.225.636-3.226.645z" fill="#0077A8"/></svg>